<svg enable-background="new 0 0 1000 1000" viewBox="0 0 1000 1000" xmlns="http://www.w3.org/2000/svg">
  <path d="m587.1 568.1c-6.4 5.2-14.2 7.8-23.2 7.8-5 0-9.9-.9-14.6-2.9-8.8-3.6-15.8-10.6-19.5-19.4-1.9-4.5-2.9-9.3-2.8-14.2 0-5 .9-9.9 2.8-14.6 1.8-4.3 4.4-8.3 7.8-11.5 7.1-6.8 16.5-10.6 26.3-10.5 8.4-.2 16.6 2.6 23.2 7.8l1.7 1.4 11.4-13.7-1.7-1.3c-4.8-3.9-10.2-6.9-15.9-8.9-6-2.1-12.3-3.2-18.7-3.2-7.4 0-14.7 1.4-21.5 4.3-6.5 2.7-12.4 6.7-17.5 11.6-10.3 10.2-16.1 24.1-16.1 38.6 0 7.3 1.4 14.5 4.3 21.2 2.8 6.4 6.8 12.3 11.8 17.2s11 8.9 17.5 11.6c6.8 2.9 14.1 4.4 21.5 4.3 6.4 0 12.7-1 18.7-3.1 5.7-2 11.1-5 15.8-8.9l1.7-1.4-11.3-13.6z" fill="#575e60"/>
  <path d="m661.8 530c5.8-5.4 11.5-10.7 16.8-15.9 5.9-5.7 12-11.5 18.1-17.1l1.7-1.5-11.4-11.7-1.6 1.5c-9.3 8.8-18.3 17.3-27 25.4-7.5 7-15.3 14.3-23.4 21.8v-126.2h-18.1v185.4h18.1v-36.7l13.8-12.7 36.5 49.5h21.4z" fill="#575e60"/>
  <path d="m796.6 487.2-.8 15.6c-.5-.7-1.1-1.5-1.8-2.2-2.6-3.1-5.7-5.7-9.1-7.9-3.8-2.5-7.9-4.4-12.2-5.7-4.8-1.4-9.7-2.1-14.7-2.1-7.3 0-14.5 1.4-21.2 4.3-6.5 2.8-12.4 6.8-17.3 11.9-5 5.1-8.9 11-11.7 17.6-2.9 6.7-4.3 14-4.3 21.3 0 7.1 1.4 14.2 4.2 20.8 2.7 6.4 6.5 12.2 11.3 17.1 4.9 5 10.8 8.9 17.2 11.6 6.9 2.9 14.3 4.4 21.8 4.3 5 0 10-.6 14.9-2 4.3-1.2 8.4-3 12.2-5.4 3.4-2.1 6.4-4.6 9.1-7.5.4-.5.8-.9 1.2-1.4v1.8 12.5h18.2v-104.6zm-1.1 52c.1 4.9-.9 9.9-2.8 14.4-1.8 4.3-4.5 8.3-7.8 11.6-3.4 3.3-7.3 6-11.7 7.8-9.3 3.8-19.8 3.8-29.1 0-4.4-1.8-8.3-4.5-11.7-7.8-10.4-10.7-13.5-26.6-7.8-40.4 1.8-4.3 4.5-8.2 7.8-11.4 10.9-10.4 26.9-13.4 40.8-7.7 4.4 1.8 8.4 4.5 11.7 7.8s6 7.3 7.8 11.6c1.8 4.4 2.8 9.2 2.8 14.1z" fill="#575e60"/>
  <path d="m989.2 493.8c-6.2-5.9-14.6-8.9-25.2-8.9-10.3.2-19 2.9-25.9 7.9-5.4 4-10 9-13.4 14.8-1.7-5.7-5-10.9-9.5-14.8-6.1-5.3-14.1-7.9-24-7.9-10.5.2-19.3 3-26.5 8.3-4.9 3.7-9.1 8.4-12.4 13.6-.1-1.4-.2-2.8-.2-4.2-.2-2.6-.3-5-.4-7.5s-.2-4.5-.4-6l-.2-1.9h-15.9v104.6h18.2v-55.3c-.1-4.6.8-9.2 2.6-13.4 1.7-4 4.1-7.6 7.2-10.5 3.2-3 6.9-5.4 11-6.9 4.4-1.7 9.1-2.5 13.8-2.5 6.5.3 11.5 2.3 14.8 5.8 3.3 3.6 5.2 8.2 5.4 13.1v69.8h18.2v-56c.1-4.5 1.1-9 2.8-13.1 1.7-3.9 4.1-7.4 7.1-10.3 3.1-2.9 6.8-5.3 10.8-6.8 4.3-1.7 8.9-2.5 13.5-2.5 6.7.3 11.8 2.3 15 5.8 3.3 3.6 5.2 8.2 5.4 13.1v69.8h18v-74.7c-.3-9.7-3.7-17.5-9.8-23.4z" fill="#575e60"/>
  <path d="m408 424.6c41.8 0 75.6 33.8 75.6 75.6s-33.8 75.6-75.6 75.6-75.6-33.8-75.6-75.6c0-41.7 33.9-75.5 75.6-75.6m0-18.1c-51.8 0-93.8 42-93.8 93.8s42 93.8 93.8 93.8 93.8-42 93.8-93.8-42-93.8-93.8-93.8z" fill="#575e60"/>
  <path d="m88.6 386.9c23.7-26.4 64.4-28.5 90.8-4.8 1.7 1.5 3.3 3.1 4.8 4.8 1.3-1.9 3-3.6 5-4.7 1.1-.6 2.2-1.1 3.4-1.4-27.2-31-74.4-34.2-105.4-7-2.5 2.2-4.8 4.5-7 7 3.5.9 6.4 3.1 8.4 6.1z" fill="#52c7ea"/>
  <path d="m149.1 421.7c4.5-5 9.7-9.2 15.5-12.6 5.8-3.3 12.1-5.8 18.6-7.2-1.6-3.2-2-6.8-1.1-10.3-16.1 3.2-30.6 11.6-41.3 23.9 3.3 1.1 6.3 3.3 8.3 6.2z" fill="#52c7ea"/>
  <path d="m108.3 409.1c5.8 3.4 11.1 7.7 15.6 12.7 1.3-2 3-3.6 5-4.8 1-.6 2.2-1 3.3-1.4-10.8-12.4-25.3-20.8-41.4-24 .9 3.5.6 7.2-1.1 10.4 6.5 1.4 12.8 3.8 18.6 7.1z" fill="#52c7ea"/>
  <circle cx="76" cy="395.3" fill="#ec432d" r="7.7"/>
  <circle cx="76.1" cy="465.1" fill="#ec432d" r="7.7"/>
  <circle cx="196.9" cy="604.7" fill="#ec432d" r="7.7"/>
  <circle cx="15.5" cy="500" fill="#ec432d" r="7.7"/>
  <circle cx="257.3" cy="500" fill="#ec432d" r="7.7"/>
  <circle cx="196.8" cy="395.3" fill="#ec432d" r="7.7"/>
  <circle cx="196.8" cy="534.9" fill="#ec432d" r="7.7"/>
  <circle cx="76" cy="534.8" fill="#ec432d" r="7.7"/>
  <circle cx="196.9" cy="465.1" fill="#ec432d" r="7.7"/>
  <circle cx="136.4" cy="569.7" fill="#ec432d" r="7.7"/>
  <circle cx="136.5" cy="430.2" fill="#ec432d" r="7.7"/>
  <circle cx="76" cy="604.7" fill="#ec432d" r="7.7"/>
  <g fill="#52c7ea">
    <path d="m197.9 450c2.3.1 4.6.8 6.6 2 1 .6 2 1.4 2.9 2.2 5.3-15.5 5.4-32.4.1-47.9-.9.9-1.9 1.6-3 2.3-2 1.2-4.2 1.8-6.5 2 4.1 12.8 4.1 26.7-.1 39.4z"/>
    <path d="m184.3 456.7c2-3 4.9-5.1 8.4-6.1-10.8-12.3-25.3-20.7-41.4-24 .9 3.4.5 7.1-1 10.3 13 2.8 25 9.8 34 19.8z"/>
    <path d="m244.7 491.5c2-3 4.9-5.2 8.4-6.2-10.8-12.3-25.3-20.7-41.4-23.9.8 3.5.4 7.1-1.1 10.3 13.1 2.8 25.1 9.7 34.1 19.8z"/>
    <path d="m213.6 402.7c34.5 9.2 54.9 44.7 45.7 79.2-.3 1-.6 2-.9 3 2.3.2 4.5.8 6.5 2 1.1.6 2.1 1.4 3 2.3.5-1.5 1-3 1.4-4.6 10.7-40-13-81.1-53-91.8-1.6-.4-3.1-.8-4.7-1.1.9 3.5.5 7.1-1 10.3 1 .2 2 .4 3 .7z"/>
    <path d="m198 519.8c3.6.2 6.9 1.7 9.5 4.2 5.3-15.5 5.3-32.4 0-47.9-2.6 2.5-5.9 4-9.5 4.3 4.2 12.8 4.2 26.6 0 39.4z"/>
    <path d="m212.1 534.9c0 1.2-.2 2.4-.5 3.6 8-1.6 15.7-4.4 22.8-8.5 7-4.1 13.4-9.3 18.7-15.4-3.5-.9-6.5-3.1-8.4-6.1-9 10.1-21 17-34.2 19.8 1 2 1.5 4.3 1.6 6.6z"/>
    <path d="m197.9 589.5c3.6.2 6.9 1.7 9.5 4.2 5.3-15.5 5.3-32.4-.1-47.9-2.6 2.5-5.9 3.9-9.5 4.2 4.3 12.9 4.3 26.7.1 39.5z"/>
    <path d="m269.3 515.5c-.4-1.6-.9-3.1-1.4-4.6-2.6 2.5-5.9 4-9.5 4.3.3 1 .6 2 .9 3 9.2 34.5-11.2 69.9-45.7 79.2-1 .3-2 .5-3.1.7 1.6 3.2 2 6.9 1.1 10.3 1.6-.3 3.1-.7 4.7-1.1 39.9-10.7 63.7-51.8 53-91.8z"/>
    <path d="m184.2 613.2c-23.8 26.4-64.4 28.5-90.8 4.7-1.7-1.5-3.3-3.1-4.8-4.8-1.3 2-3 3.6-5 4.8-1.1.6-2.2 1.1-3.3 1.4 27.2 31 74.4 34.1 105.4 6.9 2.5-2.2 4.8-4.5 6.9-6.9-3.4-1-6.4-3.2-8.4-6.1z"/>
    <path d="m184.2 543.4c-9 10-21 16.9-34.1 19.8 1.5 3.2 1.9 6.8 1.1 10.2 16.1-3.2 30.6-11.6 41.5-23.9-3.5-1-6.5-3.1-8.5-6.1z"/>
    <path d="m123.8 578.2c-9 10.1-21 17-34.2 19.8 1.6 3.2 2 6.8 1.1 10.3 16.1-3.2 30.6-11.6 41.4-24-3.4-1-6.3-3.1-8.3-6.1z"/>
    <path d="m164.6 590.9c-5.8-3.4-11.1-7.7-15.6-12.7-1.3 1.9-3 3.6-5 4.7-1.1.6-2.2 1-3.3 1.4 10.7 12.4 25.3 20.8 41.4 24-.3-1.2-.5-2.4-.5-3.7 0-2.3.5-4.6 1.6-6.6-6.6-1.4-12.9-3.8-18.6-7.1z"/>
    <path d="m88.6 543.3c-2 3-4.9 5.1-8.3 6.1 10.8 12.3 25.4 20.7 41.4 24-.9-3.4-.5-7.1 1-10.3-13.2-2.9-25.1-9.8-34.1-19.8z"/>
    <path d="m75 550c-3.6-.2-6.9-1.6-9.5-4.1-5.3 15.5-5.4 32.4-.1 47.9.9-.9 1.9-1.6 2.9-2.3 2-1.2 4.2-1.8 6.6-2-4.2-12.8-4.1-26.7.1-39.5z"/>
    <path d="m5 489.1c2.6-2.5 5.9-4 9.5-4.3-.3-1-.6-2-.9-3-9.3-34.4 11.1-69.8 45.5-79 1.1-.3 2.2-.6 3.3-.8-1-2.1-1.6-4.4-1.6-6.7 0-1.2.2-2.4.5-3.6-40.5 8.1-66.8 47.5-58.7 88 .3 1.6.7 3.2 1.1 4.8.3 1.5.8 3.1 1.3 4.6z"/>
    <path d="m20 567.2c-8.6-14.8-10.9-32.5-6.5-49l.9-3c-2.3-.1-4.6-.8-6.6-2-1.1-.6-2-1.4-2.9-2.2-.5 1.5-1 3-1.4 4.5-10.7 39.9 12.9 80.9 52.8 91.6 1.6.4 3.2.8 4.9 1.1-.9-3.5-.5-7.1 1-10.3-17.7-3.7-33.1-14.9-42.2-30.7z"/>
    <path d="m28.2 508.4c-2 3-4.9 5.2-8.4 6.2 10.8 12.3 25.3 20.7 41.4 23.9-.8-3.5-.4-7.1 1.1-10.3-13.2-2.7-25.2-9.7-34.1-19.8z"/>
    <path d="m75 449.9c-4.2-12.8-4.2-26.6 0-39.5-3.6-.2-6.9-1.7-9.5-4.2-5.3 15.5-5.2 32.3.1 47.8 2.5-2.4 5.9-3.8 9.4-4.1z"/>
    <path d="m88.7 456.5c9-10 21-16.9 34.1-19.7-1.6-3.2-2-6.8-1.1-10.3-16.1 3.2-30.6 11.6-41.4 23.9 3.4 1.1 6.4 3.2 8.4 6.1z"/>
    <path d="m75 480.2c-3.6-.2-6.9-1.7-9.5-4.2-5.3 15.5-5.3 32.4 0 47.9 2.5-2.5 5.9-4 9.5-4.3-4.2-12.8-4.2-26.6 0-39.4z"/>
    <path d="m60.8 465.1c0-1.2.2-2.4.5-3.6-16.1 3.1-30.7 11.5-41.5 23.9 1.2.3 2.3.8 3.4 1.4 2 1.2 3.7 2.8 5 4.8 9-10.1 21-17 34.3-19.8-1.1-2.1-1.7-4.4-1.7-6.7z"/>
  </g>
</svg>
