<svg width="95" height="100" viewBox="0 0 95 100" fill="none" xmlns="http://www.w3.org/2000/svg">
<path d="M26.5682 15.8747C27.7298 15.8747 28.6715 14.9336 28.6715 13.7726C28.6715 12.6116 27.7298 11.6704 26.5682 11.6704C25.4065 11.6704 24.4648 12.6116 24.4648 13.7726C24.4648 14.9336 25.4065 15.8747 26.5682 15.8747Z" fill="white"/>
<path d="M26.6033 40.0146C27.765 40.0146 28.7067 39.0735 28.7067 37.9125C28.7067 36.7515 27.765 35.8103 26.6033 35.8103C25.4417 35.8103 24.5 36.7515 24.5 37.9125C24.5 39.0735 25.4417 40.0146 26.6033 40.0146Z" fill="white"/>
<path d="M68.4237 88.3296C69.5853 88.3296 70.527 87.3884 70.527 86.2274C70.527 85.0664 69.5853 84.1252 68.4237 84.1252C67.262 84.1252 66.3203 85.0664 66.3203 86.2274C66.3203 87.3884 67.262 88.3296 68.4237 88.3296Z" fill="white"/>
<path d="M5.67366 52.102C6.8353 52.102 7.777 51.1609 7.777 49.9999C7.777 48.8389 6.8353 47.8977 5.67366 47.8977C4.51201 47.8977 3.57031 48.8389 3.57031 49.9999C3.57031 51.1609 4.51201 52.102 5.67366 52.102Z" fill="white"/>
<path d="M89.3533 52.102C90.515 52.102 91.4567 51.1609 91.4567 49.9999C91.4567 48.8389 90.515 47.8977 89.3533 47.8977C88.1917 47.8977 87.25 48.8389 87.25 49.9999C87.25 51.1609 88.1917 52.102 89.3533 52.102Z" fill="white"/>
<path d="M68.4237 15.875C69.5853 15.875 70.527 14.9338 70.527 13.7728C70.527 12.6118 69.5853 11.6707 68.4237 11.6707C67.262 11.6707 66.3203 12.6118 66.3203 13.7728C66.3203 14.9338 67.262 15.875 68.4237 15.875Z" fill="white"/>
<path d="M68.4237 64.1894C69.5853 64.1894 70.527 63.2483 70.527 62.0873C70.527 60.9263 69.5853 59.9851 68.4237 59.9851C67.262 59.9851 66.3203 60.9263 66.3203 62.0873C66.3203 63.2483 67.262 64.1894 68.4237 64.1894Z" fill="white"/>
<path d="M26.6033 64.1545C27.765 64.1545 28.7067 63.2133 28.7067 62.0524C28.7067 60.8914 27.765 59.9502 26.6033 59.9502C25.4417 59.9502 24.5 60.8914 24.5 62.0524C24.5 63.2133 25.4417 64.1545 26.6033 64.1545Z" fill="white"/>
<path d="M68.4237 40.0498C69.5853 40.0498 70.527 39.1086 70.527 37.9476C70.527 36.7866 69.5853 35.8455 68.4237 35.8455C67.262 35.8455 66.3203 36.7866 66.3203 37.9476C66.3203 39.1086 67.262 40.0498 68.4237 40.0498Z" fill="white"/>
<path d="M47.4979 76.2419C48.6595 76.2419 49.6012 75.3007 49.6012 74.1398C49.6012 72.9788 48.6595 72.0376 47.4979 72.0376C46.3362 72.0376 45.3945 72.9788 45.3945 74.1398C45.3945 75.3007 46.3362 76.2419 47.4979 76.2419Z" fill="white"/>
<path d="M47.533 27.9624C48.6947 27.9624 49.6364 27.0212 49.6364 25.8602C49.6364 24.6992 48.6947 23.7581 47.533 23.7581C46.3714 23.7581 45.4297 24.6992 45.4297 25.8602C45.4297 27.0212 46.3714 27.9624 47.533 27.9624Z" fill="white"/>
<path d="M26.5682 88.3293C27.7298 88.3293 28.6715 87.3882 28.6715 86.2272C28.6715 85.0662 27.7298 84.125 26.5682 84.125C25.4065 84.125 24.4648 85.0662 24.4648 86.2272C24.4648 87.3882 25.4065 88.3293 26.5682 88.3293Z" fill="white"/>
<path d="M30.1055 11.6705C37.8879 2.07063 51.9453 0.56408 61.5856 8.34208C62.8126 9.32309 63.9344 10.4442 64.9159 11.6705C65.2665 11.0749 65.7573 10.5494 66.3883 10.199C66.8089 9.95374 67.2296 9.8136 67.7204 9.74352C58.8513 -1.39794 42.6205 -3.21981 31.5078 5.64431C30.0004 6.87057 28.5981 8.23697 27.4062 9.74352C28.493 9.98878 29.5096 10.6895 30.1055 11.6705Z" fill="white"/>
<path d="M51.0351 23.7578C54.4706 19.4834 59.3784 16.6455 64.812 15.7696C64.2512 14.7535 64.146 13.5273 64.5667 12.4412C58.1515 13.3871 52.3322 16.7506 48.3008 21.8659C49.4576 22.041 50.4392 22.7418 51.0351 23.7578Z" fill="white"/>
<path d="M37.8179 18.4676C40.2017 19.834 42.27 21.6559 43.9878 23.7931C44.3383 23.1975 44.8291 22.6719 45.4601 22.3216C45.8457 22.1114 46.2664 21.9362 46.7221 21.8661C42.7257 16.7508 36.8714 13.3523 30.4562 12.4414C30.6315 12.8618 30.7016 13.3523 30.7016 13.8078C30.7016 14.5085 30.5263 15.1742 30.1758 15.7698C32.8751 16.1903 35.4692 17.1012 37.8179 18.4676Z" fill="white"/>
<path d="M68.4609 33.8482C69.6528 33.8482 70.7746 34.3738 71.5458 35.2847C73.9647 29.2235 73.9647 22.4965 71.5809 16.4353C71.2654 16.7857 70.9148 17.101 70.4942 17.3462C69.8982 17.6966 69.2322 17.8718 68.531 17.8718C70.5292 23.0221 70.4942 28.6979 68.4609 33.8482Z" fill="white"/>
<path d="M64.9175 35.8105C65.5135 34.7945 66.5301 34.1288 67.6869 33.9186C63.6555 28.8384 57.8363 25.4749 51.4211 24.4939C51.8067 25.615 51.7015 26.8413 51.1406 27.8574C56.5392 28.7333 61.447 31.5712 64.9175 35.8105Z" fill="white"/>
<path d="M74.2436 16.2253C86.2326 19.4136 93.3139 31.7112 90.1238 43.6585C89.9135 44.4293 89.6681 45.1651 89.3877 45.9008C90.0888 45.9008 90.7899 46.076 91.3858 46.4264C91.8065 46.6716 92.1571 46.9869 92.4726 47.3373C92.8231 46.4264 93.1386 45.5154 93.384 44.6045C97.0649 30.8353 88.8969 16.6808 75.12 12.967C74.1735 12.7217 73.262 12.5115 72.2804 12.3713C72.6661 13.4925 72.5609 14.7188 72 15.7348C72.7712 15.8749 73.5074 16.0151 74.2436 16.2253Z" fill="white"/>
<path d="M81.3599 39.6994C78.5554 38.0877 75.4705 37.0016 72.2804 36.5461C72.6661 37.6673 72.5959 38.8936 72 39.9096C77.4336 40.7505 82.3415 43.5534 85.812 47.8278C86.4079 46.8467 87.4245 46.146 88.5814 45.9358C86.5832 43.4482 84.1293 41.311 81.3599 39.6994Z" fill="white"/>
<path d="M72.5257 62.0873C72.5257 62.5428 72.4556 62.9983 72.2803 63.4537C78.7306 62.5428 84.5499 59.1443 88.5813 54.0641C87.4244 53.8889 86.4078 53.1882 85.8119 52.1721C82.3414 56.4465 77.3985 59.2844 71.9648 60.1253C72.3505 60.6859 72.5257 61.3866 72.5257 62.0873Z" fill="white"/>
<path d="M68.4922 57.9882C69.6841 58.0233 70.7708 58.5488 71.542 59.4597C73.9258 53.3985 73.9258 46.6716 71.542 40.6104C70.7708 41.4863 69.6841 42.0118 68.5272 42.0468C70.4904 47.1621 70.4553 52.8379 68.4922 57.9882Z" fill="white"/>
<path d="M68.5273 82.1279C69.7192 82.1629 70.806 82.6885 71.5772 83.5994C73.996 77.5382 73.961 70.8112 71.5772 64.75C70.806 65.6609 69.7192 66.1865 68.5273 66.2215C70.4905 71.3017 70.4905 76.9776 68.5273 82.1279Z" fill="white"/>
<path d="M93.3841 55.3957C93.1387 54.4497 92.8232 53.5387 92.4727 52.6628C91.7014 53.5738 90.5797 54.0993 89.4228 54.0993C89.7033 54.8 89.9486 55.5358 90.159 56.2716C93.3841 68.2539 86.2678 80.5866 74.2787 83.8099C73.5426 83.9851 72.8064 84.1602 72.0352 84.2654C72.6311 85.2814 72.7363 86.5427 72.3156 87.6288C73.2621 87.4887 74.2086 87.2785 75.1551 87.0332C88.897 83.3194 97.1 69.1648 93.3841 55.3957Z" fill="white"/>
<path d="M51.3509 75.5062C57.8011 74.5602 63.6204 71.1968 67.6868 66.1166C66.53 65.9063 65.5134 65.2056 64.9174 64.2246C61.4469 68.464 56.5391 71.3019 51.1055 72.1778C51.6664 73.1938 51.7365 74.4201 51.3509 75.5062Z" fill="white"/>
<path d="M57.2049 81.5323C54.8212 80.1659 52.7529 78.344 51.0351 76.2068C50.6846 76.8024 50.1938 77.3279 49.5628 77.6783C49.1772 77.8885 48.7565 78.0637 48.3008 78.1338C52.2971 83.249 58.1164 86.6475 64.5667 87.5585C64.146 86.4724 64.2512 85.2461 64.8471 84.23C62.1478 83.8096 59.5537 82.8987 57.2049 81.5323Z" fill="white"/>
<path d="M37.8179 81.5324C35.4692 82.8988 32.8751 83.8097 30.1758 84.2652C30.7367 85.2812 30.8068 86.5075 30.4212 87.5936C36.8714 86.6476 42.6907 83.2492 46.687 78.1339C45.5302 77.9237 44.5486 77.223 43.9527 76.2419C42.235 78.3791 40.1667 80.166 37.8179 81.5324Z" fill="white"/>
<path d="M64.9196 88.3293C57.1372 97.9292 43.0448 99.4358 33.4395 91.6578C32.2126 90.6768 31.0908 89.5556 30.1092 88.3293C29.7587 88.925 29.2679 89.4505 28.6369 89.8009C28.2162 90.0461 27.7956 90.1863 27.3398 90.2563C36.209 101.398 52.4047 103.22 63.5524 94.3555C65.0598 93.1293 66.4621 91.7629 67.654 90.2563C66.5322 90.0461 65.5156 89.3454 64.9196 88.3293Z" fill="white"/>
<path d="M26.5325 66.1514C25.8313 66.1514 25.1302 65.9763 24.5343 65.6259C24.1487 65.3806 23.7631 65.1004 23.4826 64.75C21.0638 70.8112 21.0638 77.5382 23.4475 83.5994C23.728 83.249 24.1136 82.9337 24.4992 82.6885C25.0952 82.3381 25.7963 82.1629 26.4623 82.1629C24.4992 76.9776 24.4992 71.2667 26.5325 66.1514Z" fill="white"/>
<path d="M30.1092 64.1897C29.5133 65.2057 28.4967 65.8714 27.3398 66.0816C31.3713 71.1619 37.1905 74.5604 43.6408 75.5414C43.2552 74.4202 43.3253 73.194 43.9212 72.1779C38.4876 71.267 33.5798 68.4291 30.1092 64.1897Z" fill="white"/>
<path d="M2.52056 47.3372C3.29178 46.4263 4.41357 45.9357 5.57041 45.9007C5.28996 45.2 5.04457 44.4642 4.83424 43.7285C1.60911 31.7461 8.72543 19.4135 20.7145 16.2252C21.4507 16.05 22.1868 15.8748 22.9581 15.7697C22.3621 14.7537 22.257 13.4924 22.6776 12.4062C21.7311 12.5464 20.7846 12.7566 19.8732 13.0019C6.09624 16.6806 -2.07175 30.8702 1.60911 44.6394C1.88955 45.5503 2.17 46.4263 2.52056 47.3372Z" fill="white"/>
<path d="M13.6707 60.3005C16.4752 61.9121 19.5601 62.9983 22.7502 63.4537C22.3645 62.3326 22.4346 61.1063 22.9955 60.0903C17.5619 59.2494 12.6541 56.4115 9.18357 52.1721C8.58762 53.1531 7.571 53.8539 6.44922 54.0641C8.41234 56.5516 10.8662 58.6888 13.6707 60.3005Z" fill="white"/>
<path d="M20.7481 83.7749C8.75905 80.5515 1.64273 68.2539 4.83281 56.2716C5.04314 55.5358 5.28853 54.8 5.56898 54.0993C4.86786 54.0993 4.16675 53.9241 3.5708 53.5738C3.18518 53.3285 2.79957 53.0132 2.51913 52.6628C2.16857 53.5387 1.85307 54.4847 1.60768 55.3957C-2.07318 69.1648 6.05976 83.2843 19.8367 86.9982C20.7832 87.2434 21.7297 87.4536 22.6762 87.5938C22.2906 86.4726 22.3957 85.2814 22.9566 84.2654C22.2555 84.1252 21.4843 83.9851 20.7481 83.7749Z" fill="white"/>
<path d="M26.5325 33.8133C24.5343 28.698 24.5343 23.0222 26.4974 17.9069C25.3406 17.8719 24.2188 17.3464 23.4475 16.4705C21.0638 22.5317 21.0638 29.2586 23.4826 35.2848C24.2188 34.3739 25.3406 33.8133 26.5325 33.8133Z" fill="white"/>
<path d="M22.5048 37.9127C22.5048 37.4572 22.6099 37.0017 22.7502 36.5813C16.2999 37.5273 10.4806 40.8907 6.44922 45.971C6.90494 46.041 7.36067 46.2162 7.74628 46.4264C8.34223 46.7768 8.83301 47.2673 9.18357 47.8629C12.6541 43.5885 17.597 40.7506 23.0657 39.9097C22.68 39.3141 22.5048 38.6134 22.5048 37.9127Z" fill="white"/>
<path d="M43.6759 24.4587C37.2607 25.4397 31.4415 28.8032 27.375 33.8834C28.5318 34.0937 29.5134 34.7944 30.1093 35.8104C33.5799 31.5711 38.4877 28.7331 43.9213 27.8572C43.3604 26.8062 43.2553 25.5799 43.6759 24.4587Z" fill="white"/>
<path d="M26.496 42.0118C25.3392 41.9768 24.2174 41.4512 23.4812 40.5403C21.0975 46.6015 21.0624 53.3284 23.4462 59.3897C24.2174 58.5138 25.3041 57.9532 26.461 57.9532C24.5329 52.8029 24.5329 47.1271 26.496 42.0118Z" fill="white"/>
</svg>
