<?xml version="1.0" encoding="UTF-8"?>
<svg width="880px" height="600px" viewBox="0 0 880 600" version="1.1" xmlns="http://www.w3.org/2000/svg" xmlns:xlink="http://www.w3.org/1999/xlink">
    <!-- Generator: Sketch 61.2 (89653) - https://sketch.com -->
    <title>Artboard</title>
    <desc>Created with Sketch.</desc>
    <defs>
        <circle id="path-1" cx="149" cy="273.75" r="60"></circle>
        <mask id="mask-2" maskContentUnits="userSpaceOnUse" maskUnits="objectBoundingBox" x="0" y="0" width="120" height="120" fill="white">
            <use xlink:href="#path-1"></use>
        </mask>
        <circle id="path-3" cx="476" cy="138.75" r="60"></circle>
        <mask id="mask-4" maskContentUnits="userSpaceOnUse" maskUnits="objectBoundingBox" x="0" y="0" width="120" height="120" fill="white">
            <use xlink:href="#path-3"></use>
        </mask>
        <circle id="path-5" cx="770" cy="138.75" r="60"></circle>
        <mask id="mask-6" maskContentUnits="userSpaceOnUse" maskUnits="objectBoundingBox" x="0" y="0" width="120" height="120" fill="white">
            <use xlink:href="#path-5"></use>
        </mask>
    </defs>
    <g id="Artboard" stroke="none" stroke-width="1" fill="none" fill-rule="evenodd">
        <rect fill="#FFFFFF" x="0" y="0" width="880" height="600"></rect>
        <g id="bridge" transform="translate(18.000000, 470.000000)" fill="#3D7B3B" fill-rule="nonzero">
            <path d="M253.838801,7.53406999 C243.329361,10.4017375 234.239099,16.4568108 233.252607,17.1262146 C232.12515,17.1362083 223.568594,17.2361252 217.57903,19.0945994 L217.57903,5.09595146 L253.928224,5.09595146 L253.928224,0.25 L0.0198896194,0.25 L0.0198896194,5.09595146 L36.8638761,5.09595146 L36.8638761,19.1644302 C30.8238023,17.2260241 21.9956254,17.1260867 20.9284719,17.1260867 C19.5996711,16.3966745 5.13403183,8.49315656 0.191262992,8.49315656 L0,8.49315656 L0.0301977921,9.16261152 C4.71113905,8.95278399 20.5156295,17.6656001 20.6666443,17.7556384 C20.7169765,17.7856144 20.7773772,17.7956056 20.8277095,17.7956056 C20.9384424,17.7956056 30.6426362,17.8255817 36.8435175,19.8739036 L36.8435175,23.081261 C36.8435175,23.0912522 36.8233831,23.1911716 36.9240501,23.3110734 C37.0750468,23.4909249 37.4978545,23.7107461 38.6655643,23.7107461 C39.8332742,23.7107461 40.2560896,23.4909249 40.4070786,23.3110734 C40.4976797,23.1911716 40.4876112,23.1012459 40.4876112,23.1012459 L40.4876112,21.6024669 C44.4335797,23.8006795 48.1785389,24.8397518 51.2387777,25.6792563 C52.2554985,25.95904 53.2118135,26.2188208 54.0271384,26.4886031 C55.839109,27.0880993 56.6242825,28.6468356 57.3187957,30.0156986 C57.8523209,31.0748248 58.3556432,32.0740194 59.2616543,32.4936693 C59.8857884,32.7834288 59.8857884,32.9432979 59.8958389,33.1831015 C59.9159733,33.8026006 60.0871044,34.302185 62.1708784,34.9616386 C65.0197996,35.8708971 71.5327609,36.4803948 75.0259429,36.800133 C75.8513956,36.8800675 76.5057327,36.9400171 76.8781927,36.9799844 C78.5593011,37.1698296 81.1362412,40.8966489 82.2740058,42.8352853 C83.3511325,44.6737796 88.8475275,49.0103243 91.2434046,49.25 L162.977979,49.25 C165.353703,49.0101964 170.850073,44.6836276 171.917226,42.8352853 C173.044683,40.8868777 175.631776,37.1700368 177.313039,36.9799844 C177.685499,36.9400171 178.32976,36.8800675 179.165289,36.800133 C182.668522,36.4703934 189.181483,35.8708971 192.030404,34.9616386 C194.114176,34.2921836 194.285317,33.802575 194.305444,33.1831015 C194.315512,32.9432979 194.315512,32.7834288 194.939628,32.4936693 C195.845614,32.0740194 196.348962,31.0748248 196.882487,30.0156986 C197.567001,28.64681 198.3522,27.0881761 200.164094,26.4886031 C200.979496,26.2188208 201.935811,25.9490385 202.952454,25.6792563 C206.062946,24.8199536 209.898359,23.7608274 213.935039,21.4727811 L213.935039,23.1014505 C213.924971,23.1114417 213.914905,23.2113612 214.005503,23.3312604 C214.156503,23.5111144 214.579308,23.7309331 215.747018,23.7309331 C216.914728,23.7309331 217.337543,23.5111144 217.488532,23.3312604 C217.57913,23.2113612 217.569065,23.1214329 217.569065,23.1214329 L217.569065,19.8240373 C223.780254,17.845651 233.232591,17.8256738 233.343404,17.8256738 C233.413868,17.8256738 233.484334,17.8056889 233.534669,17.7657216 C233.625268,17.705772 243.037516,11.2011136 254,8.21348032 L253.838801,7.53406999 Z M43.9798655,5.09607936 L47.6843651,5.09607936 L47.6843651,16.7166428 C46.4461731,17.0963383 45.2079812,17.496011 43.9798655,17.8956837 L43.9798655,5.09607936 Z M48.0265964,5.09607936 L51.731096,5.09607936 L51.731096,15.4875694 C50.4929041,15.847262 49.2547121,16.2269575 48.0265964,16.6066529 L48.0265964,5.09607936 Z M52.0632769,5.09607936 L55.7677765,5.09607936 L55.7677765,14.3285825 C54.5295845,14.6682979 53.2913926,15.0280161 52.0632769,15.3877087 L52.0632769,5.09607936 Z M56.1100078,5.09607936 L59.8145074,5.09607936 L59.8145074,13.2394265 C58.5763155,13.569166 57.3381235,13.89888 56.1100078,14.2385954 L56.1100078,5.09607936 Z M60.1567387,5.09607936 L63.8612383,5.09607936 L63.8612383,12.2101254 C62.6230464,12.5098863 61.3848544,12.8296245 60.1567387,13.1493626 L60.1567387,5.09607936 Z M64.2034697,5.09607936 L67.9079692,5.09607936 L67.9079692,11.2509109 C66.6697773,11.5306946 65.4315854,11.8304299 64.2034697,12.1301909 L64.2034697,5.09607936 Z M68.2502006,5.09607936 L71.9547002,5.09607936 L71.9547002,10.3518072 C70.7165082,10.6215895 69.4783163,10.8913718 68.2502006,11.1711299 L68.2502006,5.09607936 Z M72.286881,5.09607936 L75.9913806,5.09607936 L75.9913806,9.52253436 C74.7531887,9.77232916 73.5149967,10.0221188 72.286881,10.2819253 L72.286881,5.09607936 Z M76.333612,5.09607936 L80.0381115,5.09607936 L80.0381115,8.75311647 C78.7999196,8.98292891 77.5617277,9.21274646 76.333612,9.45255007 L76.333612,5.09607936 Z M80.3803429,5.09607936 L84.0848425,5.09607936 L84.0848425,8.05352939 C82.8466505,8.26335947 81.6084586,8.47317932 80.3803429,8.6930057 L80.3803429,5.09607936 Z M84.4270738,5.09607936 L109.160761,5.09607936 C100.906234,5.67559837 92.6517072,6.64481424 84.4270738,7.9936744 L84.4270738,5.09607936 Z M170.36631,5.09607936 L174.07081,5.09607936 L174.07081,8.68302986 C172.832618,8.46320861 171.594426,8.24337711 170.36631,8.04355356 L170.36631,5.09607936 Z M174.413041,5.09607936 L178.117541,5.09607936 L178.117541,9.44247193 C176.879349,9.20266831 175.651233,8.9628647 174.413041,8.74303832 L174.413041,5.09607936 Z M178.459772,5.09607936 L182.164272,5.09607936 L182.164272,10.2717448 C180.92608,10.0119639 179.687888,9.76215892 178.459772,9.5123539 L178.459772,5.09607936 Z M182.496452,5.09607936 L186.200952,5.09607936 L186.200952,11.1611285 C184.96276,10.8813448 183.724568,10.6015867 182.496452,10.3418058 L182.496452,5.09607936 Z M186.543183,5.09607936 L190.247683,5.09607936 L190.247683,12.1103671 C189.009491,11.8106062 187.771299,11.5208467 186.543183,11.2310872 L186.543183,5.09607936 Z M190.589914,5.09607936 L194.294414,5.09607936 L194.294414,13.1294365 C193.056222,12.8096984 191.828106,12.4999616 190.589914,12.1901993 L190.589914,5.09607936 Z M194.636645,5.09607936 L198.341145,5.09607936 L198.341145,14.2185926 C197.102953,13.8788772 195.864761,13.5491376 194.636645,13.2194236 L194.636645,5.09607936 Z M198.683376,5.09607936 L202.387876,5.09607936 L202.387876,15.3676036 C201.149684,15.007911 199.921568,14.6581942 198.683376,14.3084774 L198.683376,5.09607936 Z M202.730107,5.09607936 L206.434607,5.09607936 L206.434607,16.5767254 C205.196415,16.19703 203.958223,15.8273359 202.730107,15.4576419 L202.730107,5.09607936 Z M206.766788,5.09607936 L210.471287,5.09607936 L210.471287,17.8656539 C209.233095,17.4659812 207.994903,17.0763099 206.766788,16.686613 L206.766788,5.09607936 Z M170.033614,5.09607936 L170.033614,7.98369857 C161.829339,6.63481283 153.615014,5.66559696 145.380588,5.09607936 L170.033614,5.09607936 Z M43.6373765,5.09607936 L43.6373765,18.0055713 C42.5904527,18.3452867 41.5435289,18.6950035 40.4964762,19.0547217 L40.4964762,5.10620866 L43.6373765,5.09607936 Z M162.946745,48.5804683 L91.281751,48.5804683 C89.3590448,48.3906257 84.7587393,44.8835279 83.2184405,43.0050023 L170.979646,43.0050023 C169.439451,44.8834767 164.839068,48.3906717 162.946487,48.5804683 L162.946745,48.5804683 Z M202.769794,25.019859 C201.742996,25.2996427 200.776605,25.5693994 199.951024,25.8391816 C197.867252,26.5286138 196.991547,28.2871737 196.276676,29.705967 C195.783404,30.6951601 195.350538,31.5544628 194.645897,31.8841767 C193.719759,32.3138281 193.639252,32.733478 193.629176,33.153128 C193.61911,33.4329116 193.609044,33.7426484 191.827256,34.3221674 C189.038895,35.2114487 182.576186,35.810945 179.103105,36.1306831 C178.277652,36.2006239 177.613265,36.2705673 177.240779,36.3105345 C175.005993,36.5703154 172.086693,41.2465243 171.442432,42.3257045 L82.7663756,42.3257045 C82.1221148,41.2465754 79.2028403,36.5604419 76.9680285,36.3105345 C76.5955684,36.2605761 75.9311809,36.2006239 75.0956519,36.1306831 C71.6225708,35.8009436 65.1598619,35.2114231 62.3815517,34.3221674 C60.5897078,33.7526242 60.5897078,33.432886 60.5796315,33.153128 C60.5695656,32.733478 60.4789671,32.3138281 59.5629107,31.8841767 C58.8683202,31.5544372 58.4354543,30.7051359 57.932132,29.705967 C57.2174148,28.2871225 56.3315562,26.5385129 54.2577838,25.8391816 C53.4323311,25.559398 52.4659399,25.2996171 51.4390139,25.019859 C48.3385733,24.1705577 44.5132104,23.1114315 40.5167318,20.8133838 L40.5167318,20.7334493 C68.9853279,10.9914114 98.167765,6.05542172 127.29093,6.05542172 C149.709144,6.05542172 172.177868,8.98294425 194.324978,14.7783901 L194.335044,14.7783901 C200.898515,16.4969955 207.441628,18.4653547 213.934746,20.6835702 C209.837762,23.0816063 205.921687,24.1607865 202.770994,25.0199869 L202.769794,25.019859 Z M213.933545,19.0146649 C212.896697,18.6649481 211.859824,18.3152313 210.813003,17.9755159 L210.813003,5.09595146 L213.933545,5.09595146 L213.933545,19.0146649 Z" id="Shape"></path>
        </g>
        <g id="bridege-sensor" transform="translate(145.500000, 487.000000) scale(1, -1) translate(-145.500000, -487.000000) translate(133.000000, 479.000000)" fill="#3D7B3B" fill-rule="nonzero">
            <path d="M16.9445748,11.3906857 C17.1221311,11.6507314 17.0566569,12.0067429 16.7980923,12.1853143 C16.6993256,12.2533943 16.5883543,12.28576 16.4762751,12.28576 C16.2953893,12.28576 16.1178387,12.1987057 16.0079811,12.0379914 C15.9602625,11.9687943 14.7639792,10.2857629 12.5000373,10.2857629 C10.2360954,10.2857629 9.03868428,11.9687914 8.99010488,12.04022 C8.81032986,12.2980314 8.45743606,12.3627629 8.19999366,12.1830771 C7.94255127,12.0033914 7.87706851,11.6495914 8.05461911,11.3906771 C8.1167638,11.29916 9.62486998,9.14290571 12.50006,9.14290571 C15.3752501,9.14290571 16.882433,11.2991629 16.9446487,11.3906771 L16.9445748,11.3906857 Z M12.4999862,4.57153143 C6.12244889,4.57153143 4.11364822,8.72325714 4.0315462,8.90068571 C3.89837899,9.1864 4.02044908,9.5268 4.30453968,9.66074286 C4.58863029,9.79468571 4.92709459,9.67190343 5.060276,9.38507429 C5.07692198,9.34936 6.8369467,5.71421714 12.5000259,5.71421714 C18.1252928,5.71421714 19.8696057,9.23764571 19.9406282,9.38621714 C20.0371733,9.59380571 20.2413659,9.71544571 20.4555414,9.71544571 C20.5365525,9.71544571 20.6186715,9.69758857 20.6963531,9.66187429 C20.9804432,9.52794571 21.1025166,9.18753143 20.9693466,8.90181714 C20.8872275,8.72324571 18.8786144,4.57153143 12.5000544,4.57153143 L12.4999862,4.57153143 Z M24.9044936,6.25457143 C24.7347044,5.99899143 20.6653021,0 12.4999862,0 C4.33580663,0 0.265364553,5.99885714 0.0954787093,6.25457143 C-0.0787480299,6.51684857 -0.00772552013,6.87062857 0.253060613,7.04585714 C0.512735954,7.22108 0.865615555,7.15076857 1.04095593,6.88849143 C1.07868593,6.83157143 4.9605462,1.14306286 12.5000117,1.14306286 C20.0394773,1.14306286 23.9212836,6.83163429 23.9590676,6.88849143 C24.0689309,7.05366857 24.2486974,7.14295429 24.4318218,7.14295429 C24.5405743,7.14295429 24.6493268,7.11170286 24.7458833,7.04697143 C25.0077803,6.87174857 25.0788084,6.51682857 24.9045732,6.25457143 L24.9044936,6.25457143 Z M12.4999862,14 C11.9506697,14 11.505671,14.4475429 11.505671,15 C11.505671,15.5524571 11.9506697,16 12.4999862,16 C13.0493027,16 13.4943013,15.5524571 13.4943013,15 C13.4943013,14.4475429 13.0493027,14 12.4999862,14 Z" id="Shape"></path>
        </g>
        <g id="gateway" opacity="0.6" transform="translate(148.500000, 265.750000) scale(1, -1) rotate(33.000000) translate(-148.500000, -265.750000) translate(136.000000, 257.750000)" fill="#3D7B3B" fill-rule="nonzero">
            <path d="M16.9445748,11.3906857 C17.1221311,11.6507314 17.0566569,12.0067429 16.7980923,12.1853143 C16.6993256,12.2533943 16.5883543,12.28576 16.4762751,12.28576 C16.2953893,12.28576 16.1178387,12.1987057 16.0079811,12.0379914 C15.9602625,11.9687943 14.7639792,10.2857629 12.5000373,10.2857629 C10.2360954,10.2857629 9.03868428,11.9687914 8.99010488,12.04022 C8.81032986,12.2980314 8.45743606,12.3627629 8.19999366,12.1830771 C7.94255127,12.0033914 7.87706851,11.6495914 8.05461911,11.3906771 C8.1167638,11.29916 9.62486998,9.14290571 12.50006,9.14290571 C15.3752501,9.14290571 16.882433,11.2991629 16.9446487,11.3906771 L16.9445748,11.3906857 Z M12.4999862,4.57153143 C6.12244889,4.57153143 4.11364822,8.72325714 4.0315462,8.90068571 C3.89837899,9.1864 4.02044908,9.5268 4.30453968,9.66074286 C4.58863029,9.79468571 4.92709459,9.67190343 5.060276,9.38507429 C5.07692198,9.34936 6.8369467,5.71421714 12.5000259,5.71421714 C18.1252928,5.71421714 19.8696057,9.23764571 19.9406282,9.38621714 C20.0371733,9.59380571 20.2413659,9.71544571 20.4555414,9.71544571 C20.5365525,9.71544571 20.6186715,9.69758857 20.6963531,9.66187429 C20.9804432,9.52794571 21.1025166,9.18753143 20.9693466,8.90181714 C20.8872275,8.72324571 18.8786144,4.57153143 12.5000544,4.57153143 L12.4999862,4.57153143 Z M24.9044936,6.25457143 C24.7347044,5.99899143 20.6653021,0 12.4999862,0 C4.33580663,0 0.265364553,5.99885714 0.0954787093,6.25457143 C-0.0787480299,6.51684857 -0.00772552013,6.87062857 0.253060613,7.04585714 C0.512735954,7.22108 0.865615555,7.15076857 1.04095593,6.88849143 C1.07868593,6.83157143 4.9605462,1.14306286 12.5000117,1.14306286 C20.0394773,1.14306286 23.9212836,6.83163429 23.9590676,6.88849143 C24.0689309,7.05366857 24.2486974,7.14295429 24.4318218,7.14295429 C24.5405743,7.14295429 24.6493268,7.11170286 24.7458833,7.04697143 C25.0077803,6.87174857 25.0788084,6.51682857 24.9045732,6.25457143 L24.9044936,6.25457143 Z M12.4999862,14 C11.9506697,14 11.505671,14.4475429 11.505671,15 C11.505671,15.5524571 11.9506697,16 12.4999862,16 C13.0493027,16 13.4943013,15.5524571 13.4943013,15 C13.4943013,14.4475429 13.0493027,14 12.4999862,14 Z" id="Shape"></path>
        </g>
        <use id="Oval" stroke="#3D7B3B" mask="url(#mask-2)" stroke-width="4" opacity="0.6" stroke-dasharray="2,5" xlink:href="#path-1"></use>
        <use id="Oval" stroke="#3D7B3B" mask="url(#mask-4)" stroke-width="4" opacity="0.6" stroke-dasharray="2,5" xlink:href="#path-3"></use>
        <use id="Oval" stroke="#3D7B3B" mask="url(#mask-6)" stroke-width="4" stroke-dasharray="2,5" xlink:href="#path-5"></use>
        <g id="servers" opacity="0.6" transform="translate(455.000000, 115.750000)" fill="#3D7B3B" fill-rule="nonzero">
            <path d="M5.89009489,37.620538 C6.59529501,37.620538 7.16863428,37.0440169 7.16863428,36.3348868 C7.16863428,35.625764 6.59530235,35.0492355 5.89009489,35.0492355 C5.18489478,35.0492355 4.61155551,35.6257566 4.61155551,36.3348868 C4.61155551,37.0440096 5.18488744,37.620538 5.89009489,37.620538 Z M5.89009489,36.144644 C5.99616038,36.144644 6.0792926,36.2282387 6.0792926,36.3348941 C6.0792926,36.5453271 5.70089719,36.5453271 5.70089719,36.3348941 C5.70376367,36.231124 5.78689882,36.144644 5.89009489,36.144644 Z M31.5093177,40.1457189 C31.5895878,40.1745453 31.6727201,40.1889581 31.7558523,40.1889581 C32.0568543,40.1889581 32.3406545,40.001586 32.44672,39.698917 L34.6483146,33.4724892 C34.7830449,33.0891036 34.5852477,32.6653228 34.2039815,32.5299095 C33.8227166,32.3944298 33.4012801,32.5933272 33.2666159,32.9767143 L31.0650212,39.2031421 C30.9274216,39.5865277 31.1252216,40.0103085 31.5093544,40.1457218 L31.5093177,40.1457189 Z M26.2805305,40.1457189 C26.3608006,40.1745453 26.4439328,40.1889581 26.527065,40.1889581 C26.828067,40.1889581 27.1118673,40.001586 27.2179328,39.698917 L29.4195274,33.4724892 C29.5542576,33.0891036 29.3564605,32.6653228 28.9751942,32.5299095 C28.5939294,32.3944298 28.1724928,32.5933272 28.0378286,32.9767143 L25.836234,39.2031421 C25.6986343,39.5865277 25.8964344,40.0103085 26.2805672,40.1457218 L26.2805305,40.1457189 Z M34.1240783,40.1457189 C34.2043484,40.1745453 34.2874806,40.1889581 34.3706128,40.1889581 C34.6716148,40.1889581 34.9554151,40.001586 35.0614806,39.698917 L37.2630752,33.4724892 C37.3978054,33.0891036 37.2000083,32.6653228 36.818742,32.5299095 C36.4374772,32.3944298 36.0160406,32.5933272 35.8813764,32.9767143 L33.6797818,39.2031421 C33.5421821,39.5865277 33.7428487,40.0103085 34.1241149,40.1457218 L34.1240783,40.1457189 Z M36.7384719,40.1457189 C36.818742,40.1745453 36.9018742,40.1889581 36.9850064,40.1889581 C37.2860085,40.1889581 37.5698087,40.001586 37.6758742,39.698917 L39.8774688,33.4724892 C40.0121991,33.0891036 39.8144019,32.6653228 39.4331356,32.5299095 C39.0518708,32.3944298 38.6304342,32.5933272 38.49577,32.9767143 L36.2941754,39.2031421 C36.1565757,39.5865277 36.3543758,40.0103085 36.7385086,40.1457218 L36.7384719,40.1457189 Z M11.2109822,37.620538 C11.9161823,37.620538 12.4895216,37.0440169 12.4895216,36.3348868 C12.4895216,35.625764 11.9161896,35.0492355 11.2109822,35.0492355 C10.5057821,35.0492355 9.93244279,35.6257566 9.93244279,36.3348868 C9.93244279,37.0440096 10.5057747,37.620538 11.2109822,37.620538 Z M11.2109822,36.144644 C11.3170477,36.144644 11.4001799,36.2282387 11.4001799,36.3348941 C11.4001799,36.5453271 11.0217845,36.5453271 11.0217845,36.3348941 C11.0246509,36.231124 11.1077861,36.144644 11.2109822,36.144644 Z M16.5315025,37.620538 C17.2367026,37.620538 17.8100419,37.0440169 17.8100419,36.3348868 C17.8100419,35.625764 17.23671,35.0492355 16.5315025,35.0492355 C15.8263024,35.0492355 15.2529631,35.6257566 15.2529631,36.3348868 C15.2529631,37.0440096 15.8262951,37.620538 16.5315025,37.620538 Z M16.5315025,36.144644 C16.637568,36.144644 16.7207002,36.2282387 16.7207002,36.3348941 C16.7207002,36.5453271 16.3423048,36.5453271 16.3423048,36.3348941 C16.3451713,36.231124 16.4283064,36.144644 16.5315025,36.144644 Z M28.8956579,40.1457189 C28.9759281,40.1745453 29.0590603,40.1889581 29.1421925,40.1889581 C29.4431945,40.1889581 29.7269948,40.001586 29.8330602,39.698917 L32.0346549,33.4724892 C32.1693851,33.0891036 31.971588,32.6653228 31.5903217,32.5299095 C31.2090569,32.3944298 30.7876203,32.5933272 30.6529561,32.9767143 L28.4513615,39.2031421 C28.3137618,39.5865277 28.5144284,40.0103085 28.8956946,40.1457218 L28.8956579,40.1457189 Z M5.89046183,22.781088 C6.59566194,22.781088 7.16900121,22.2045669 7.16900121,21.4954368 C7.16900121,20.786314 6.59566928,20.2097855 5.89046183,20.2097855 C5.18526171,20.2097855 4.61192244,20.7863066 4.61192244,21.4954368 C4.61192244,22.2045595 5.18525437,22.781088 5.89046183,22.781088 Z M5.89046183,21.305194 C5.99652732,21.305194 6.07965953,21.3887887 6.07965953,21.4954441 C6.07965953,21.7058771 5.70126412,21.7058771 5.70126412,21.4954441 C5.7041306,21.3916667 5.78726575,21.305194 5.89046183,21.305194 Z M36.7384719,25.3033909 C36.818742,25.3322166 36.9018742,25.3466301 36.9850064,25.3466301 C37.2860085,25.3466301 37.5698087,25.159258 37.6758742,24.856589 L39.8774688,18.6301612 C40.0121991,18.2467756 39.8144019,17.8229948 39.4331356,17.6875815 C39.0518708,17.5521018 38.6304342,17.7509992 38.49577,18.1343863 L36.2941754,24.3608141 C36.1565757,24.7441997 36.3543758,25.1679805 36.7385086,25.3033938 L36.7384719,25.3033909 Z M34.1240783,25.3033909 C34.2043484,25.3322166 34.2874806,25.3466301 34.3706128,25.3466301 C34.6716148,25.3466301 34.9554151,25.159258 35.0614806,24.856589 L37.2630752,18.6301612 C37.3978054,18.2467756 37.2000083,17.8229948 36.818742,17.6875815 C36.4374772,17.5521018 36.0160406,17.7509992 35.8813764,18.1343863 L33.6797818,24.3608141 C33.5421821,24.7441997 33.7428487,25.1679805 34.1241149,25.3033938 L34.1240783,25.3033909 Z M31.5096846,25.3033909 C31.5899548,25.3322166 31.673087,25.3466301 31.7562192,25.3466301 C32.0572212,25.3466301 32.3410214,25.159258 32.4470869,24.856589 L34.6486816,18.6301612 C34.7834118,18.2467756 34.5856147,17.8229948 34.2043484,17.6875815 C33.8230836,17.5521018 33.401647,17.7509992 33.2669828,18.1343863 L31.0653882,24.3608141 C30.9277885,24.7441997 31.1255886,25.1679805 31.5097213,25.3033938 L31.5096846,25.3033909 Z M16.5315025,22.781088 C17.2367026,22.781088 17.8100419,22.2045669 17.8100419,21.4954368 C17.8100419,20.786314 17.23671,20.2097855 16.5315025,20.2097855 C15.8263024,20.2097855 15.2529631,20.7863066 15.2529631,21.4954368 C15.2529631,22.2045595 15.8262951,22.781088 16.5315025,22.781088 Z M16.5315025,21.305194 C16.637568,21.305194 16.7207002,21.3887887 16.7207002,21.4954441 C16.7207002,21.7058771 16.3423048,21.7058771 16.3423048,21.4954441 C16.3451713,21.3916667 16.4283064,21.305194 16.5315025,21.305194 Z M11.2109822,22.781088 C11.9161823,22.781088 12.4895216,22.2045669 12.4895216,21.4954368 C12.4895216,20.786314 11.9161896,20.2097855 11.2109822,20.2097855 C10.5057821,20.2097855 9.93244279,20.7863066 9.93244279,21.4954368 C9.93244279,22.2045595 10.5057747,22.781088 11.2109822,22.781088 Z M11.2109822,21.305194 C11.3170477,21.305194 11.4001799,21.3887887 11.4001799,21.4954441 C11.4001799,21.7058771 11.0217845,21.7058771 11.0217845,21.4954441 C11.0246509,21.3916667 11.1077861,21.305194 11.2109822,21.305194 Z M26.2808974,25.3033909 C26.3611675,25.3322166 26.4442997,25.3466301 26.527432,25.3466301 C26.828434,25.3466301 27.1122342,25.159258 27.2182997,24.856589 L29.4198943,18.6301612 C29.5546246,18.2467756 29.3568274,17.8229948 28.9755612,17.6875815 C28.5942963,17.5521018 28.1728598,17.7509992 28.0381956,18.1343863 L25.8366009,24.3608141 C25.6990013,24.7441997 25.8968013,25.1679805 26.2809341,25.3033938 L26.2808974,25.3033909 Z M28.895291,25.3033909 C28.9755612,25.3322166 29.0586934,25.3466301 29.1418256,25.3466301 C29.4428276,25.3466301 29.7266278,25.159258 29.8326933,24.856589 L32.0342879,18.6301612 C32.1690182,18.2467756 31.9712211,17.8229948 31.5899548,17.6875815 C31.20869,17.5521018 30.7872534,17.7509992 30.6525892,18.1343863 L28.4509945,24.3608141 C28.3133949,24.7441997 28.5140614,25.1679805 28.8953277,25.3033938 L28.895291,25.3033909 Z M31.5871074,2.84471189 C31.2058426,2.7092322 30.784406,2.90812958 30.6497418,3.29151666 L28.4481471,9.51794446 C28.3134169,9.90133007 28.511214,10.3251109 28.8924803,10.4605242 C28.9727505,10.4893506 29.0558827,10.5037634 29.1390149,10.5037634 C29.4400169,10.5037634 29.7238171,10.3135133 29.8298826,10.0137223 L32.0314772,3.78729454 C32.1690769,3.40390894 31.9712776,2.98012811 31.5871441,2.84471484 L31.5871074,2.84471189 Z M39.4306552,2.84471189 C39.0493904,2.7092322 38.6279538,2.90812958 38.4932896,3.29151666 L36.2916949,9.51794446 C36.1569647,9.90133007 36.3547618,10.3251109 36.7360281,10.4605242 C36.8162982,10.4893506 36.8994305,10.5037634 36.9825627,10.5037634 C37.2835647,10.5037634 37.5673649,10.3135133 37.6734304,10.0137223 L39.875025,3.78729454 C40.0126247,3.40390894 39.8119589,2.98012811 39.4306919,2.84471484 L39.4306552,2.84471189 Z M34.2018679,2.84471189 C33.8206031,2.7092322 33.3991665,2.90812958 33.2645023,3.29151666 L31.0629077,9.51794446 C30.9281774,9.90133007 31.1259746,10.3251109 31.5072409,10.4605242 C31.587511,10.4893506 31.6706432,10.5037634 31.7537754,10.5037634 C32.0547774,10.5037634 32.3385777,10.3135133 32.4446432,10.0137223 L34.6462378,3.78729454 C34.7838375,3.40390894 34.5831716,2.98012811 34.2019046,2.84471484 L34.2018679,2.84471189 Z M36.8162616,2.84471189 C36.4349967,2.7092322 36.0135602,2.90812958 35.8788959,3.29151666 L33.6773013,9.51794446 C33.5425711,9.90133007 33.7403682,10.3251109 34.1216345,10.4605242 C34.2019046,10.4893506 34.2850368,10.5037634 34.3681691,10.5037634 C34.6691711,10.5037634 34.9529713,10.3135133 35.0590368,10.0137223 L37.2606314,3.78729454 C37.3982311,3.40390894 37.2004317,2.98012811 36.8162982,2.84471484 L36.8162616,2.84471189 Z M28.9727138,2.84471189 C28.5914489,2.7092322 28.1700124,2.90812958 28.0353482,3.29151666 L25.8337535,9.51794446 C25.6990233,9.90133007 25.8968204,10.3251109 26.2780867,10.4605242 C26.3583568,10.4893506 26.441489,10.5037634 26.5246213,10.5037634 C26.8256233,10.5037634 27.1094235,10.3135133 27.215489,10.0137223 L29.4170836,3.78729454 C29.5546833,3.40390894 29.3540175,2.98012811 28.9727505,2.84471484 L28.9727138,2.84471189 Z M11.2109822,5.36701473 C10.5057821,5.36701473 9.93244279,5.94353582 9.93244279,6.65266599 C9.93244279,7.36178878 10.5057747,7.93831726 11.2109822,7.93831726 C11.9161823,7.93831726 12.4895216,7.36179616 12.4895216,6.65266599 C12.4895216,5.9435432 11.9161896,5.36701473 11.2109822,5.36701473 Z M11.0246465,6.65266599 C11.0246465,6.54889589 11.1077788,6.46241588 11.2138442,6.46241588 C11.3199097,6.46241588 11.403042,6.54889589 11.403042,6.65266599 C11.4001747,6.86309896 11.0246392,6.86309896 11.0246392,6.65266599 L11.0246465,6.65266599 Z M16.5314952,5.36701473 C15.8262951,5.36701473 15.2529558,5.94353582 15.2529558,6.65266599 C15.2529558,7.36178878 15.8262877,7.93831726 16.5314952,7.93831726 C17.2366953,7.93831726 17.8100346,7.36179616 17.8100346,6.65266599 C17.8100346,5.9435432 17.2367026,5.36701473 16.5314952,5.36701473 Z M16.3451596,6.65266599 C16.3451596,6.54889589 16.4282918,6.46241588 16.5343573,6.46241588 C16.6404227,6.46241588 16.723555,6.54889589 16.723555,6.65266599 C16.7206878,6.86309896 16.3451522,6.86309896 16.3451522,6.65266599 L16.3451596,6.65266599 Z M5.89052054,5.36701473 C5.18532042,5.36701473 4.61198115,5.94353582 4.61198115,6.65266599 C4.61198115,7.36178878 5.18531308,7.93831726 5.89052054,7.93831726 C6.59572065,7.93831726 7.16905992,7.36179616 7.16905992,6.65266599 C7.16905992,5.9435432 6.59572799,5.36701473 5.89052054,5.36701473 Z M5.70418491,6.65266599 C5.70418491,6.54889589 5.78731712,6.46241588 5.89338261,6.46241588 C5.9994481,6.46241588 6.08258031,6.54889589 6.08258031,6.65266599 C6.0797131,6.86309896 5.70417757,6.86309896 5.70417757,6.65266599 L5.70418491,6.65266599 Z M40.5458876,13.308579 C41.8989877,13.308579 42.9968495,12.2045364 42.9968495,10.8439836 L43,2.46459539 C43,1.1069205 41.9017808,0 40.5487541,0 L2.45382839,0 C1.10072833,0 0.0028664762,1.10404251 0.0028664762,2.46459539 L0.0028664762,10.8439836 C0.0028664762,12.2016585 1.10080172,13.308579 2.45382839,13.308579 L5.83364307,13.308579 L5.83364307,14.8421066 L2.45382839,14.8421066 C1.10072833,14.8421066 0.0028664762,15.9461491 0.0028664762,17.306702 L0.0028664762,25.6860902 C0.0028664762,27.0467169 1.10080172,28.1506856 2.45382839,28.1506856 L5.83364307,28.1506856 L5.83364307,29.6842132 L2.45382839,29.6842132 C1.10072833,29.6842132 0.0028664762,30.7882557 0.0028664762,32.1488086 L0,40.525983 C0,41.8866096 1.09793524,42.9905783 2.45096191,42.9905783 L5.8307766,42.9905783 L5.8307766,44.524106 C5.8307766,45.3399064 6.49011016,46 7.29850635,46 L13.1808736,46 C13.9892992,46 14.6486034,45.3398843 14.6486034,44.524106 L14.6486034,42.9905783 L28.3542638,42.9905783 L28.3542638,44.524106 C28.3542638,45.3399064 29.0135974,46 29.8219936,46 L35.7043609,46 C36.5127864,46 37.1720906,45.3398843 37.1720906,44.524106 L37.1692234,42.9905783 L40.5490381,42.9905783 C41.9021381,42.9905783 43,41.8865358 43,40.525983 L43,32.1465948 C43,30.7889199 41.9020648,29.6819994 40.5490381,29.6819994 L37.1692234,29.6819994 L37.1692234,28.1484717 L40.5490381,28.1484717 C41.9021381,28.1484717 43,27.0444292 43,25.6838763 L43,17.306702 C43,15.9460753 41.9020648,14.8421066 40.5490381,14.8421066 L37.1692234,14.8421066 L37.1692234,13.308579 L40.5458876,13.308579 Z M13.1808003,44.524475 L7.29843296,44.524475 L7.29843296,42.9909473 L13.1808003,42.9909473 L13.1808003,44.524475 Z M35.7016456,44.524475 L29.8192783,44.524475 L29.8221447,42.9909473 L35.704512,42.9909473 L35.7016456,44.524475 Z M40.5463279,31.1609928 C41.0881257,31.1609928 41.5295601,31.6049122 41.5295601,32.1496942 L41.5324266,40.5268685 C41.5324266,41.07168 41.0909628,41.5155699 40.5491944,41.5155699 L36.4699331,41.5155699 C36.4555993,41.5155699 36.4469998,41.5069219 36.432666,41.5069219 C36.4183329,41.5069219 36.4097327,41.5155699 36.3953996,41.5155699 L29.1197898,41.5155699 C29.1054567,41.5155699 29.0968565,41.5069219 29.0825234,41.5069219 C29.0681903,41.5069219 29.0595902,41.5155699 29.045257,41.5155699 L13.952592,41.5155699 C13.9382582,41.5155699 13.9296587,41.5069219 13.9153249,41.5069219 C13.9009918,41.5069219 13.8923916,41.5155699 13.8780585,41.5155699 L6.60244872,41.5155699 C6.58811561,41.5155699 6.57951545,41.5069219 6.56518233,41.5069219 C6.55084848,41.5069219 6.54224905,41.5155699 6.5279152,41.5155699 L2.44865391,41.5155699 C1.90685615,41.5155699 1.46542175,41.0716505 1.46542175,40.5268685 L1.46828822,32.1474803 C1.46828822,31.6026688 1.90975198,31.1587789 2.45152038,31.1587789 L40.5463279,31.1609928 Z M7.29857973,29.6850988 L7.29857973,28.1515711 L13.180947,28.1515711 L13.180947,29.6850988 L7.29857973,29.6850988 Z M14.6489703,29.6850988 L14.6489703,28.1515711 L28.3546307,28.1515711 L28.3546307,29.6850988 L14.6489703,29.6850988 Z M29.8223605,29.6850988 L29.8223605,28.1515711 L35.7047278,28.1515711 L35.7047278,29.6850988 L29.8223605,29.6850988 Z M40.5463279,16.3186648 C41.0881257,16.3186648 41.5295601,16.7625842 41.5295601,17.3073662 L41.5295601,25.6867543 C41.5295601,26.2315658 41.0880963,26.6754557 40.5463279,26.6754557 L36.4699287,26.6754557 C36.4555949,26.6725726 36.4469954,26.6668077 36.4326616,26.6668077 C36.4183285,26.6668077 36.4097283,26.6725726 36.3953952,26.6754557 L29.1197854,26.6754557 C29.1054523,26.6725726 29.0968521,26.6668077 29.082519,26.6668077 C29.0681859,26.6668077 29.0595857,26.6725726 29.0452526,26.6754557 L13.9525876,26.6754557 C13.9382538,26.6725726 13.9296543,26.6668077 13.9153205,26.6668077 C13.9009874,26.6668077 13.8923872,26.6725726 13.8780541,26.6754557 L6.60244432,26.6754557 C6.5881112,26.6725726 6.57951104,26.6668077 6.56517793,26.6668077 C6.55084408,26.6668077 6.54224465,26.6725726 6.5279108,26.6754557 L2.4486495,26.6754557 C1.90685174,26.6754557 1.46541734,26.2315363 1.46541734,25.6867543 L1.46828382,17.3073662 C1.46828382,16.7625546 1.90974757,16.3186648 2.45151598,16.3186648 L40.5463279,16.3186648 Z M7.29857973,14.8427708 L7.29857973,13.3092431 L13.180947,13.3092431 L13.180947,14.8427708 L7.29857973,14.8427708 Z M14.6489703,14.8427708 L14.6489703,13.3092431 L28.3546307,13.3092431 L28.3546307,14.8427708 L14.6489703,14.8427708 Z M29.8223605,14.8427708 L29.8223605,13.3092431 L35.7047278,13.3092431 L35.7047278,14.8427708 L29.8223605,14.8427708 Z M36.4701489,11.8333491 C36.455815,11.8333491 36.4472156,11.8247011 36.4328817,11.8247011 C36.4185486,11.8247011 36.4099485,11.8304659 36.3956153,11.8333491 L29.1200056,11.8333491 C29.1056725,11.8333491 29.0970723,11.8247011 29.0827392,11.8247011 C29.0684061,11.8247011 29.0598059,11.8304659 29.0454728,11.8333491 L13.9528078,11.8333491 C13.9384739,11.8333491 13.9298745,11.8247011 13.9155406,11.8247011 C13.9012075,11.8247011 13.8926074,11.8304659 13.8782742,11.8333491 L6.60266448,11.8333491 C6.58833136,11.8333491 6.5797312,11.8247011 6.56539809,11.8247011 C6.55106424,11.8247011 6.54246481,11.8304659 6.52813096,11.8333491 L2.44886966,11.8333491 C1.9070719,11.8333491 1.4656375,11.3894297 1.4656375,10.8446477 L1.46850398,2.46525954 C1.46850398,1.92044803 1.90996773,1.47655815 2.45173614,1.47655815 L40.5466618,1.47655815 C41.0884596,1.47655815 41.529894,1.92047755 41.529894,2.46525954 L41.529894,10.8446477 C41.529894,11.3894592 41.0884302,11.8333491 40.5466618,11.8333491 L36.4702626,11.8304659 L36.4701489,11.8333491 Z" id="Shape"></path>
        </g>
        <g id="servers" transform="translate(749.000000, 115.750000)" fill="#3D7B3B" fill-rule="nonzero">
            <path d="M5.89009489,37.620538 C6.59529501,37.620538 7.16863428,37.0440169 7.16863428,36.3348868 C7.16863428,35.625764 6.59530235,35.0492355 5.89009489,35.0492355 C5.18489478,35.0492355 4.61155551,35.6257566 4.61155551,36.3348868 C4.61155551,37.0440096 5.18488744,37.620538 5.89009489,37.620538 Z M5.89009489,36.144644 C5.99616038,36.144644 6.0792926,36.2282387 6.0792926,36.3348941 C6.0792926,36.5453271 5.70089719,36.5453271 5.70089719,36.3348941 C5.70376367,36.231124 5.78689882,36.144644 5.89009489,36.144644 Z M31.5093177,40.1457189 C31.5895878,40.1745453 31.6727201,40.1889581 31.7558523,40.1889581 C32.0568543,40.1889581 32.3406545,40.001586 32.44672,39.698917 L34.6483146,33.4724892 C34.7830449,33.0891036 34.5852477,32.6653228 34.2039815,32.5299095 C33.8227166,32.3944298 33.4012801,32.5933272 33.2666159,32.9767143 L31.0650212,39.2031421 C30.9274216,39.5865277 31.1252216,40.0103085 31.5093544,40.1457218 L31.5093177,40.1457189 Z M26.2805305,40.1457189 C26.3608006,40.1745453 26.4439328,40.1889581 26.527065,40.1889581 C26.828067,40.1889581 27.1118673,40.001586 27.2179328,39.698917 L29.4195274,33.4724892 C29.5542576,33.0891036 29.3564605,32.6653228 28.9751942,32.5299095 C28.5939294,32.3944298 28.1724928,32.5933272 28.0378286,32.9767143 L25.836234,39.2031421 C25.6986343,39.5865277 25.8964344,40.0103085 26.2805672,40.1457218 L26.2805305,40.1457189 Z M34.1240783,40.1457189 C34.2043484,40.1745453 34.2874806,40.1889581 34.3706128,40.1889581 C34.6716148,40.1889581 34.9554151,40.001586 35.0614806,39.698917 L37.2630752,33.4724892 C37.3978054,33.0891036 37.2000083,32.6653228 36.818742,32.5299095 C36.4374772,32.3944298 36.0160406,32.5933272 35.8813764,32.9767143 L33.6797818,39.2031421 C33.5421821,39.5865277 33.7428487,40.0103085 34.1241149,40.1457218 L34.1240783,40.1457189 Z M36.7384719,40.1457189 C36.818742,40.1745453 36.9018742,40.1889581 36.9850064,40.1889581 C37.2860085,40.1889581 37.5698087,40.001586 37.6758742,39.698917 L39.8774688,33.4724892 C40.0121991,33.0891036 39.8144019,32.6653228 39.4331356,32.5299095 C39.0518708,32.3944298 38.6304342,32.5933272 38.49577,32.9767143 L36.2941754,39.2031421 C36.1565757,39.5865277 36.3543758,40.0103085 36.7385086,40.1457218 L36.7384719,40.1457189 Z M11.2109822,37.620538 C11.9161823,37.620538 12.4895216,37.0440169 12.4895216,36.3348868 C12.4895216,35.625764 11.9161896,35.0492355 11.2109822,35.0492355 C10.5057821,35.0492355 9.93244279,35.6257566 9.93244279,36.3348868 C9.93244279,37.0440096 10.5057747,37.620538 11.2109822,37.620538 Z M11.2109822,36.144644 C11.3170477,36.144644 11.4001799,36.2282387 11.4001799,36.3348941 C11.4001799,36.5453271 11.0217845,36.5453271 11.0217845,36.3348941 C11.0246509,36.231124 11.1077861,36.144644 11.2109822,36.144644 Z M16.5315025,37.620538 C17.2367026,37.620538 17.8100419,37.0440169 17.8100419,36.3348868 C17.8100419,35.625764 17.23671,35.0492355 16.5315025,35.0492355 C15.8263024,35.0492355 15.2529631,35.6257566 15.2529631,36.3348868 C15.2529631,37.0440096 15.8262951,37.620538 16.5315025,37.620538 Z M16.5315025,36.144644 C16.637568,36.144644 16.7207002,36.2282387 16.7207002,36.3348941 C16.7207002,36.5453271 16.3423048,36.5453271 16.3423048,36.3348941 C16.3451713,36.231124 16.4283064,36.144644 16.5315025,36.144644 Z M28.8956579,40.1457189 C28.9759281,40.1745453 29.0590603,40.1889581 29.1421925,40.1889581 C29.4431945,40.1889581 29.7269948,40.001586 29.8330602,39.698917 L32.0346549,33.4724892 C32.1693851,33.0891036 31.971588,32.6653228 31.5903217,32.5299095 C31.2090569,32.3944298 30.7876203,32.5933272 30.6529561,32.9767143 L28.4513615,39.2031421 C28.3137618,39.5865277 28.5144284,40.0103085 28.8956946,40.1457218 L28.8956579,40.1457189 Z M5.89046183,22.781088 C6.59566194,22.781088 7.16900121,22.2045669 7.16900121,21.4954368 C7.16900121,20.786314 6.59566928,20.2097855 5.89046183,20.2097855 C5.18526171,20.2097855 4.61192244,20.7863066 4.61192244,21.4954368 C4.61192244,22.2045595 5.18525437,22.781088 5.89046183,22.781088 Z M5.89046183,21.305194 C5.99652732,21.305194 6.07965953,21.3887887 6.07965953,21.4954441 C6.07965953,21.7058771 5.70126412,21.7058771 5.70126412,21.4954441 C5.7041306,21.3916667 5.78726575,21.305194 5.89046183,21.305194 Z M36.7384719,25.3033909 C36.818742,25.3322166 36.9018742,25.3466301 36.9850064,25.3466301 C37.2860085,25.3466301 37.5698087,25.159258 37.6758742,24.856589 L39.8774688,18.6301612 C40.0121991,18.2467756 39.8144019,17.8229948 39.4331356,17.6875815 C39.0518708,17.5521018 38.6304342,17.7509992 38.49577,18.1343863 L36.2941754,24.3608141 C36.1565757,24.7441997 36.3543758,25.1679805 36.7385086,25.3033938 L36.7384719,25.3033909 Z M34.1240783,25.3033909 C34.2043484,25.3322166 34.2874806,25.3466301 34.3706128,25.3466301 C34.6716148,25.3466301 34.9554151,25.159258 35.0614806,24.856589 L37.2630752,18.6301612 C37.3978054,18.2467756 37.2000083,17.8229948 36.818742,17.6875815 C36.4374772,17.5521018 36.0160406,17.7509992 35.8813764,18.1343863 L33.6797818,24.3608141 C33.5421821,24.7441997 33.7428487,25.1679805 34.1241149,25.3033938 L34.1240783,25.3033909 Z M31.5096846,25.3033909 C31.5899548,25.3322166 31.673087,25.3466301 31.7562192,25.3466301 C32.0572212,25.3466301 32.3410214,25.159258 32.4470869,24.856589 L34.6486816,18.6301612 C34.7834118,18.2467756 34.5856147,17.8229948 34.2043484,17.6875815 C33.8230836,17.5521018 33.401647,17.7509992 33.2669828,18.1343863 L31.0653882,24.3608141 C30.9277885,24.7441997 31.1255886,25.1679805 31.5097213,25.3033938 L31.5096846,25.3033909 Z M16.5315025,22.781088 C17.2367026,22.781088 17.8100419,22.2045669 17.8100419,21.4954368 C17.8100419,20.786314 17.23671,20.2097855 16.5315025,20.2097855 C15.8263024,20.2097855 15.2529631,20.7863066 15.2529631,21.4954368 C15.2529631,22.2045595 15.8262951,22.781088 16.5315025,22.781088 Z M16.5315025,21.305194 C16.637568,21.305194 16.7207002,21.3887887 16.7207002,21.4954441 C16.7207002,21.7058771 16.3423048,21.7058771 16.3423048,21.4954441 C16.3451713,21.3916667 16.4283064,21.305194 16.5315025,21.305194 Z M11.2109822,22.781088 C11.9161823,22.781088 12.4895216,22.2045669 12.4895216,21.4954368 C12.4895216,20.786314 11.9161896,20.2097855 11.2109822,20.2097855 C10.5057821,20.2097855 9.93244279,20.7863066 9.93244279,21.4954368 C9.93244279,22.2045595 10.5057747,22.781088 11.2109822,22.781088 Z M11.2109822,21.305194 C11.3170477,21.305194 11.4001799,21.3887887 11.4001799,21.4954441 C11.4001799,21.7058771 11.0217845,21.7058771 11.0217845,21.4954441 C11.0246509,21.3916667 11.1077861,21.305194 11.2109822,21.305194 Z M26.2808974,25.3033909 C26.3611675,25.3322166 26.4442997,25.3466301 26.527432,25.3466301 C26.828434,25.3466301 27.1122342,25.159258 27.2182997,24.856589 L29.4198943,18.6301612 C29.5546246,18.2467756 29.3568274,17.8229948 28.9755612,17.6875815 C28.5942963,17.5521018 28.1728598,17.7509992 28.0381956,18.1343863 L25.8366009,24.3608141 C25.6990013,24.7441997 25.8968013,25.1679805 26.2809341,25.3033938 L26.2808974,25.3033909 Z M28.895291,25.3033909 C28.9755612,25.3322166 29.0586934,25.3466301 29.1418256,25.3466301 C29.4428276,25.3466301 29.7266278,25.159258 29.8326933,24.856589 L32.0342879,18.6301612 C32.1690182,18.2467756 31.9712211,17.8229948 31.5899548,17.6875815 C31.20869,17.5521018 30.7872534,17.7509992 30.6525892,18.1343863 L28.4509945,24.3608141 C28.3133949,24.7441997 28.5140614,25.1679805 28.8953277,25.3033938 L28.895291,25.3033909 Z M31.5871074,2.84471189 C31.2058426,2.7092322 30.784406,2.90812958 30.6497418,3.29151666 L28.4481471,9.51794446 C28.3134169,9.90133007 28.511214,10.3251109 28.8924803,10.4605242 C28.9727505,10.4893506 29.0558827,10.5037634 29.1390149,10.5037634 C29.4400169,10.5037634 29.7238171,10.3135133 29.8298826,10.0137223 L32.0314772,3.78729454 C32.1690769,3.40390894 31.9712776,2.98012811 31.5871441,2.84471484 L31.5871074,2.84471189 Z M39.4306552,2.84471189 C39.0493904,2.7092322 38.6279538,2.90812958 38.4932896,3.29151666 L36.2916949,9.51794446 C36.1569647,9.90133007 36.3547618,10.3251109 36.7360281,10.4605242 C36.8162982,10.4893506 36.8994305,10.5037634 36.9825627,10.5037634 C37.2835647,10.5037634 37.5673649,10.3135133 37.6734304,10.0137223 L39.875025,3.78729454 C40.0126247,3.40390894 39.8119589,2.98012811 39.4306919,2.84471484 L39.4306552,2.84471189 Z M34.2018679,2.84471189 C33.8206031,2.7092322 33.3991665,2.90812958 33.2645023,3.29151666 L31.0629077,9.51794446 C30.9281774,9.90133007 31.1259746,10.3251109 31.5072409,10.4605242 C31.587511,10.4893506 31.6706432,10.5037634 31.7537754,10.5037634 C32.0547774,10.5037634 32.3385777,10.3135133 32.4446432,10.0137223 L34.6462378,3.78729454 C34.7838375,3.40390894 34.5831716,2.98012811 34.2019046,2.84471484 L34.2018679,2.84471189 Z M36.8162616,2.84471189 C36.4349967,2.7092322 36.0135602,2.90812958 35.8788959,3.29151666 L33.6773013,9.51794446 C33.5425711,9.90133007 33.7403682,10.3251109 34.1216345,10.4605242 C34.2019046,10.4893506 34.2850368,10.5037634 34.3681691,10.5037634 C34.6691711,10.5037634 34.9529713,10.3135133 35.0590368,10.0137223 L37.2606314,3.78729454 C37.3982311,3.40390894 37.2004317,2.98012811 36.8162982,2.84471484 L36.8162616,2.84471189 Z M28.9727138,2.84471189 C28.5914489,2.7092322 28.1700124,2.90812958 28.0353482,3.29151666 L25.8337535,9.51794446 C25.6990233,9.90133007 25.8968204,10.3251109 26.2780867,10.4605242 C26.3583568,10.4893506 26.441489,10.5037634 26.5246213,10.5037634 C26.8256233,10.5037634 27.1094235,10.3135133 27.215489,10.0137223 L29.4170836,3.78729454 C29.5546833,3.40390894 29.3540175,2.98012811 28.9727505,2.84471484 L28.9727138,2.84471189 Z M11.2109822,5.36701473 C10.5057821,5.36701473 9.93244279,5.94353582 9.93244279,6.65266599 C9.93244279,7.36178878 10.5057747,7.93831726 11.2109822,7.93831726 C11.9161823,7.93831726 12.4895216,7.36179616 12.4895216,6.65266599 C12.4895216,5.9435432 11.9161896,5.36701473 11.2109822,5.36701473 Z M11.0246465,6.65266599 C11.0246465,6.54889589 11.1077788,6.46241588 11.2138442,6.46241588 C11.3199097,6.46241588 11.403042,6.54889589 11.403042,6.65266599 C11.4001747,6.86309896 11.0246392,6.86309896 11.0246392,6.65266599 L11.0246465,6.65266599 Z M16.5314952,5.36701473 C15.8262951,5.36701473 15.2529558,5.94353582 15.2529558,6.65266599 C15.2529558,7.36178878 15.8262877,7.93831726 16.5314952,7.93831726 C17.2366953,7.93831726 17.8100346,7.36179616 17.8100346,6.65266599 C17.8100346,5.9435432 17.2367026,5.36701473 16.5314952,5.36701473 Z M16.3451596,6.65266599 C16.3451596,6.54889589 16.4282918,6.46241588 16.5343573,6.46241588 C16.6404227,6.46241588 16.723555,6.54889589 16.723555,6.65266599 C16.7206878,6.86309896 16.3451522,6.86309896 16.3451522,6.65266599 L16.3451596,6.65266599 Z M5.89052054,5.36701473 C5.18532042,5.36701473 4.61198115,5.94353582 4.61198115,6.65266599 C4.61198115,7.36178878 5.18531308,7.93831726 5.89052054,7.93831726 C6.59572065,7.93831726 7.16905992,7.36179616 7.16905992,6.65266599 C7.16905992,5.9435432 6.59572799,5.36701473 5.89052054,5.36701473 Z M5.70418491,6.65266599 C5.70418491,6.54889589 5.78731712,6.46241588 5.89338261,6.46241588 C5.9994481,6.46241588 6.08258031,6.54889589 6.08258031,6.65266599 C6.0797131,6.86309896 5.70417757,6.86309896 5.70417757,6.65266599 L5.70418491,6.65266599 Z M40.5458876,13.308579 C41.8989877,13.308579 42.9968495,12.2045364 42.9968495,10.8439836 L43,2.46459539 C43,1.1069205 41.9017808,0 40.5487541,0 L2.45382839,0 C1.10072833,0 0.0028664762,1.10404251 0.0028664762,2.46459539 L0.0028664762,10.8439836 C0.0028664762,12.2016585 1.10080172,13.308579 2.45382839,13.308579 L5.83364307,13.308579 L5.83364307,14.8421066 L2.45382839,14.8421066 C1.10072833,14.8421066 0.0028664762,15.9461491 0.0028664762,17.306702 L0.0028664762,25.6860902 C0.0028664762,27.0467169 1.10080172,28.1506856 2.45382839,28.1506856 L5.83364307,28.1506856 L5.83364307,29.6842132 L2.45382839,29.6842132 C1.10072833,29.6842132 0.0028664762,30.7882557 0.0028664762,32.1488086 L0,40.525983 C0,41.8866096 1.09793524,42.9905783 2.45096191,42.9905783 L5.8307766,42.9905783 L5.8307766,44.524106 C5.8307766,45.3399064 6.49011016,46 7.29850635,46 L13.1808736,46 C13.9892992,46 14.6486034,45.3398843 14.6486034,44.524106 L14.6486034,42.9905783 L28.3542638,42.9905783 L28.3542638,44.524106 C28.3542638,45.3399064 29.0135974,46 29.8219936,46 L35.7043609,46 C36.5127864,46 37.1720906,45.3398843 37.1720906,44.524106 L37.1692234,42.9905783 L40.5490381,42.9905783 C41.9021381,42.9905783 43,41.8865358 43,40.525983 L43,32.1465948 C43,30.7889199 41.9020648,29.6819994 40.5490381,29.6819994 L37.1692234,29.6819994 L37.1692234,28.1484717 L40.5490381,28.1484717 C41.9021381,28.1484717 43,27.0444292 43,25.6838763 L43,17.306702 C43,15.9460753 41.9020648,14.8421066 40.5490381,14.8421066 L37.1692234,14.8421066 L37.1692234,13.308579 L40.5458876,13.308579 Z M13.1808003,44.524475 L7.29843296,44.524475 L7.29843296,42.9909473 L13.1808003,42.9909473 L13.1808003,44.524475 Z M35.7016456,44.524475 L29.8192783,44.524475 L29.8221447,42.9909473 L35.704512,42.9909473 L35.7016456,44.524475 Z M40.5463279,31.1609928 C41.0881257,31.1609928 41.5295601,31.6049122 41.5295601,32.1496942 L41.5324266,40.5268685 C41.5324266,41.07168 41.0909628,41.5155699 40.5491944,41.5155699 L36.4699331,41.5155699 C36.4555993,41.5155699 36.4469998,41.5069219 36.432666,41.5069219 C36.4183329,41.5069219 36.4097327,41.5155699 36.3953996,41.5155699 L29.1197898,41.5155699 C29.1054567,41.5155699 29.0968565,41.5069219 29.0825234,41.5069219 C29.0681903,41.5069219 29.0595902,41.5155699 29.045257,41.5155699 L13.952592,41.5155699 C13.9382582,41.5155699 13.9296587,41.5069219 13.9153249,41.5069219 C13.9009918,41.5069219 13.8923916,41.5155699 13.8780585,41.5155699 L6.60244872,41.5155699 C6.58811561,41.5155699 6.57951545,41.5069219 6.56518233,41.5069219 C6.55084848,41.5069219 6.54224905,41.5155699 6.5279152,41.5155699 L2.44865391,41.5155699 C1.90685615,41.5155699 1.46542175,41.0716505 1.46542175,40.5268685 L1.46828822,32.1474803 C1.46828822,31.6026688 1.90975198,31.1587789 2.45152038,31.1587789 L40.5463279,31.1609928 Z M7.29857973,29.6850988 L7.29857973,28.1515711 L13.180947,28.1515711 L13.180947,29.6850988 L7.29857973,29.6850988 Z M14.6489703,29.6850988 L14.6489703,28.1515711 L28.3546307,28.1515711 L28.3546307,29.6850988 L14.6489703,29.6850988 Z M29.8223605,29.6850988 L29.8223605,28.1515711 L35.7047278,28.1515711 L35.7047278,29.6850988 L29.8223605,29.6850988 Z M40.5463279,16.3186648 C41.0881257,16.3186648 41.5295601,16.7625842 41.5295601,17.3073662 L41.5295601,25.6867543 C41.5295601,26.2315658 41.0880963,26.6754557 40.5463279,26.6754557 L36.4699287,26.6754557 C36.4555949,26.6725726 36.4469954,26.6668077 36.4326616,26.6668077 C36.4183285,26.6668077 36.4097283,26.6725726 36.3953952,26.6754557 L29.1197854,26.6754557 C29.1054523,26.6725726 29.0968521,26.6668077 29.082519,26.6668077 C29.0681859,26.6668077 29.0595857,26.6725726 29.0452526,26.6754557 L13.9525876,26.6754557 C13.9382538,26.6725726 13.9296543,26.6668077 13.9153205,26.6668077 C13.9009874,26.6668077 13.8923872,26.6725726 13.8780541,26.6754557 L6.60244432,26.6754557 C6.5881112,26.6725726 6.57951104,26.6668077 6.56517793,26.6668077 C6.55084408,26.6668077 6.54224465,26.6725726 6.5279108,26.6754557 L2.4486495,26.6754557 C1.90685174,26.6754557 1.46541734,26.2315363 1.46541734,25.6867543 L1.46828382,17.3073662 C1.46828382,16.7625546 1.90974757,16.3186648 2.45151598,16.3186648 L40.5463279,16.3186648 Z M7.29857973,14.8427708 L7.29857973,13.3092431 L13.180947,13.3092431 L13.180947,14.8427708 L7.29857973,14.8427708 Z M14.6489703,14.8427708 L14.6489703,13.3092431 L28.3546307,13.3092431 L28.3546307,14.8427708 L14.6489703,14.8427708 Z M29.8223605,14.8427708 L29.8223605,13.3092431 L35.7047278,13.3092431 L35.7047278,14.8427708 L29.8223605,14.8427708 Z M36.4701489,11.8333491 C36.455815,11.8333491 36.4472156,11.8247011 36.4328817,11.8247011 C36.4185486,11.8247011 36.4099485,11.8304659 36.3956153,11.8333491 L29.1200056,11.8333491 C29.1056725,11.8333491 29.0970723,11.8247011 29.0827392,11.8247011 C29.0684061,11.8247011 29.0598059,11.8304659 29.0454728,11.8333491 L13.9528078,11.8333491 C13.9384739,11.8333491 13.9298745,11.8247011 13.9155406,11.8247011 C13.9012075,11.8247011 13.8926074,11.8304659 13.8782742,11.8333491 L6.60266448,11.8333491 C6.58833136,11.8333491 6.5797312,11.8247011 6.56539809,11.8247011 C6.55106424,11.8247011 6.54246481,11.8304659 6.52813096,11.8333491 L2.44886966,11.8333491 C1.9070719,11.8333491 1.4656375,11.3894297 1.4656375,10.8446477 L1.46850398,2.46525954 C1.46850398,1.92044803 1.90996773,1.47655815 2.45173614,1.47655815 L40.5466618,1.47655815 C41.0884596,1.47655815 41.529894,1.92047755 41.529894,2.46525954 L41.529894,10.8446477 C41.529894,11.3894592 41.0884302,11.8333491 40.5466618,11.8333491 L36.4702626,11.8304659 L36.4701489,11.8333491 Z" id="Shape"></path>
        </g>
        <line x1="423.321635" y1="418.677134" x2="424.927134" y2="-140.571639" id="Line" stroke="#3D7B3B" stroke-width="3" stroke-linecap="square" transform="translate(424.124384, 139.052749) rotate(90.000000) translate(-424.124384, -139.052749) "></line>
        <line x1="-15.5" y1="298.25" x2="304.5" y2="298.25" id="Line" stroke="#3D7B3B" stroke-width="3" stroke-linecap="square" transform="translate(144.500000, 298.250000) rotate(90.000000) translate(-144.500000, -298.250000) "></line>
        <text id="Gateway" opacity="0.6" font-family="Futura-Medium, Futura" font-size="16" font-weight="400" fill="#3D7B3B">
            <tspan x="115" y="360.75">Gateway</tspan>
        </text>
        <text id="Sensor-Vendor’s-Serv" opacity="0.6" font-family="Futura-Medium, Futura" font-size="16" font-weight="400" fill="#3D7B3B">
            <tspan x="387" y="60">Sensor Vendor’s Service</tspan>
        </text>
        <text id="Flood-Monitoring-Sys" font-family="Futura-Medium, Futura" font-size="16" font-weight="400" fill="#3D7B3B">
            <tspan x="680" y="60">Flood Monitoring System</tspan>
        </text>
        <text id="Flood-Monitoring-Sen" font-family="Futura-Medium, Futura" font-size="16" font-weight="400" fill="#3D7B3B">
            <tspan x="54" y="554">Flood Monitoring Sensor</tspan>
        </text>
        <g id="light-pole" opacity="0.6" transform="translate(125.000000, 233.750000)" fill="#3D7B3B" fill-rule="nonzero">
            <path d="M46.371,2.285 L46.374906,2.285 L46.206936,1.2381 C46.206936,1.2381 46.222561,1.05841 45.859276,0.80451 C45.640526,0.65217 45.042866,0.718572 44.968656,0.722478 C44.038966,0.745916 39.085856,0.894358 34.644656,1.851378 C30.945456,2.648258 28.054856,4.499778 27.589956,4.808378 C27.566518,4.827909 27.562612,4.827909 27.546987,4.866972 C27.531362,4.906034 27.535268,4.937284 27.535268,4.937284 L27.550893,5.077904 L16.030893,6.495904 L16.030893,6.491998 C12.026993,6.870908 8.612893,8.491998 6.155893,11.175598 C3.718393,13.835798 2.433193,17.308398 2.433193,21.218598 L2.433193,52.874598 L1.468353,52.874598 L1.468353,79.354598 L5.120653,79.354598 L5.120653,52.874598 L4.261273,52.874598 L4.261273,21.218598 C4.261273,14.347498 8.827673,9.245598 15.683273,8.370598 L15.683273,8.382316 L27.777273,6.894016 L27.820241,7.245576 L34.734341,6.608856 L34.734341,6.616669 L36.562441,6.460419 C37.359321,7.534619 39.175741,8.179219 41.285141,8.011219 L41.371079,8.003406 C43.476579,7.839346 44.816379,6.921406 45.437479,5.741706 L46.519479,5.644049 L46.371,2.285 Z M41.3046,7.1288 L41.218662,7.136613 C39.785062,7.249893 38.468662,6.929583 37.695262,6.370993 L44.308562,5.828023 C43.632782,6.495993 42.734362,7.015523 41.304662,7.128823 L41.3046,7.1288 Z" id="Shape" transform="translate(23.993916, 40.029674) rotate(1.000000) translate(-23.993916, -40.029674) "></path>
        </g>
    </g>
</svg>