<?xml version="1.0" encoding="UTF-8"?>
<svg width="880px" height="500px" viewBox="0 0 880 500" version="1.1" xmlns="http://www.w3.org/2000/svg" xmlns:xlink="http://www.w3.org/1999/xlink">
    <!-- Generator: Sketch 61.2 (89653) - https://sketch.com -->
    <title>Artboard</title>
    <desc>Created with Sketch.</desc>
    <defs>
        <circle id="path-1" cx="84" cy="60" r="60"></circle>
        <mask id="mask-2" maskContentUnits="userSpaceOnUse" maskUnits="objectBoundingBox" x="0" y="0" width="120" height="120" fill="white">
            <use xlink:href="#path-1"></use>
        </mask>
        <circle id="path-3" cx="71" cy="60" r="60"></circle>
        <mask id="mask-4" maskContentUnits="userSpaceOnUse" maskUnits="objectBoundingBox" x="0" y="0" width="120" height="120" fill="white">
            <use xlink:href="#path-3"></use>
        </mask>
        <circle id="path-5" cx="68" cy="106" r="60"></circle>
        <mask id="mask-6" maskContentUnits="userSpaceOnUse" maskUnits="objectBoundingBox" x="0" y="0" width="120" height="120" fill="white">
            <use xlink:href="#path-5"></use>
        </mask>
    </defs>
    <g id="Artboard" stroke="none" stroke-width="1" fill="none" fill-rule="evenodd">
        <rect fill="#FFFFFF" x="0" y="0" width="880" height="500"></rect>
        <g id="heart-rate-monitoring" transform="translate(37.000000, 41.000000)">
            <g id="phone" transform="translate(640.000000, 262.000000)">
                <use id="Oval" stroke="#3D7B3B" mask="url(#mask-2)" stroke-width="4" stroke-dasharray="2,5" xlink:href="#path-1"></use>
                <text id="Heart-Rate-Applicati" font-family="Futura-Medium, Futura" font-size="16" font-weight="400" fill="#3D7B3B">
                    <tspan x="0" y="152">Heart Rate Application</tspan>
                </text>
                <g transform="translate(61.000000, 20.000000)" fill="#3D7B3B" fill-rule="nonzero">
                    <path d="M8.33434747,5 L5.66565253,5 C5.29786953,5 5,4.77676765 5,4.50114004 C5,4.22323818 5.29786953,4 5.66565253,4 L8.33434747,4 C8.70213047,4 9,4.22323235 9,4.50114004 C9,4.77676765 8.70213047,5 8.33434747,5 Z" id="Path"></path>
                    <path d="M39.3313064,5 L36.6656512,5 C36.2978689,5 36,4.77676765 36,4.50114004 C36,4.22323818 36.2978689,4 36.6656512,4 L39.3313064,4 C39.6990886,4 40,4.22323235 40,4.50114004 C40,4.77676765 39.6990886,5 39.3313064,5 Z" id="Path"></path>
                    <path d="M39.441832,0 L5.55816804,0 C2.48644869,0 0,2.45936984 0,5.49066196 L0,74.509338 C0,77.5406302 2.48644869,80 5.55816804,80 L39.441832,80 C42.5103929,80 45,77.5406302 45,74.509338 L45,5.49066196 C45,2.45936984 42.5103929,0 39.441832,0 Z M29.2208539,2.34064936 C29.7776182,1.83439934 30.6349138,1.83439934 31.1916781,2.34064936 C31.7326263,2.88127553 31.7326263,3.74689499 31.1916781,4.28753715 C30.9291121,4.53753815 30.577974,4.68129073 30.211044,4.68753875 C29.8409233,4.69378918 29.4866188,4.5500342 29.2240123,4.29378518 C28.9646127,4.03440814 28.8190928,3.68440674 28.8254176,3.31874127 C28.8254176,2.95311581 28.9677711,2.60311441 29.2208458,2.34057736 L29.2208539,2.34064936 Z M18.8387179,2.63440254 L26.1652503,2.63440254 L26.1684136,2.63127693 C26.5511921,2.63127693 26.8612066,2.94065416 26.8612066,3.31878368 C26.8612066,3.69691319 26.5511921,4.00316241 26.1684136,4.00316241 L18.8418811,4.00316241 C18.4591026,4.00316241 18.1459217,3.69691319 18.1459217,3.31878368 C18.1459217,2.94065416 18.4591026,2.63127693 18.8418811,2.63127693 L18.8387179,2.63440254 Z M42.826959,75.009892 C42.8206317,76.6567786 41.4698308,77.9849439 39.8058546,77.9849439 L5.22006025,77.9849439 C3.56240079,77.9786935 2.22114544,76.6505386 2.21482869,75.009892 L2.03765291,5.00641203 C2.03451318,4.21578486 2.35085735,3.45640583 2.91708058,2.89392358 C3.48016974,2.33454534 4.24886083,2.01574257 5.04922471,2.01574257 L8.52586356,2.01574257 C9.31039509,2.01263525 10.0348366,2.42825771 10.4239642,3.1001644 L11.2686263,4.52833011 L11.2686263,4.53145493 C11.9614193,5.72833971 13.2552424,6.46586266 14.6535104,6.45962264 L30.3975905,6.45962264 C31.7958585,6.46587226 33.0864989,5.72837171 33.7824745,4.53145493 L34.6271366,3.10328921 L34.6271366,3.1001644 C35.0130735,2.43140973 35.7343485,2.01574257 36.5156812,2.01574257 L39.9480218,2.01574257 C41.6183148,2.01574257 42.9691262,3.3501654 42.9691262,4.99705199 L42.826959,75.009892 Z" id="Shape"></path>
                    <path d="M32.3099681,76 L12.6931777,76 C12.3087789,76 12,75.7762575 12,75.5 C12,75.2237425 12.3087789,75 12.6931777,75 L32.3099681,75 C32.6912211,75 33,75.2237425 33,75.5 C33,75.7762575 32.6912211,76 32.3099681,76 Z" id="Path"></path>
                </g>
                <g id="heart" transform="translate(67.000000, 48.000000)" fill="#3D7B3B" fill-rule="nonzero">
                    <path d="M26.6705627,9 C26.4881855,9 26.3411104,8.87093911 26.3411104,8.7109245 C26.3411104,8.10182636 26.2057978,7.51211973 25.9381243,6.95465519 C25.6777968,6.41654913 25.3071573,5.93394176 24.8350427,5.52100507 C24.3629281,5.10678002 23.8128745,4.78158412 23.2010345,4.55446894 C23.0333677,4.49252843 22.9554174,4.3221937 23.0260143,4.1763841 C23.0966112,4.02927623 23.2907509,3.960884 23.456938,4.02282451 C24.1481854,4.27961827 24.7688736,4.64609463 25.3012685,5.11324165 C25.8322327,5.57910031 26.249903,6.12364818 26.5440756,6.73013656 C26.8470551,7.35856013 27,8.02444533 27,8.71094432 C27,8.86966727 26.8514528,9 26.6705477,9 L26.6705627,9 Z" id="Path"></path>
                    <path d="M15.1706991,18.9997456 C15.0408937,18.9997456 14.9223724,18.9195095 14.8758098,18.7970473 L12.0482807,11.4141462 L11.0338075,14.7657123 C10.9942992,14.8980301 10.8701358,14.9895236 10.7304552,14.9895236 L3.31605216,14.9895236 C3.14109291,14.9895236 3,14.8487627 3,14.6742152 C3,14.4996677 3.14109291,14.3589068 3.31605216,14.3589068 L10.4978408,14.3589068 L11.7112644,10.3471029 C11.7507691,10.2175994 11.8678782,10.1275113 12.0033291,10.1232916 C12.1373677,10.1204765 12.2615311,10.1993043 12.309506,10.3259898 L15.1116425,17.6429465 L18.0224287,6.23707049 C18.0562914,6.1033473 18.1734005,6.00762688 18.3116724,6.00058919 C18.4569986,5.99214361 18.5755199,6.07519296 18.6249035,6.20469643 L21.7049853,14.3591122 L29.6839478,14.3591122 C29.8589071,14.3591122 30,14.4998731 30,14.6744206 C30,14.8475592 29.8589071,14.989729 29.6839478,14.989729 L21.485013,14.989729 C21.3537954,14.989729 21.235274,14.9080876 21.1901237,14.7856218 L18.3865785,7.36452325 L15.477201,18.7621112 C15.4433383,18.8958344 15.3276415,18.9915548 15.189366,18.9985925 C15.182311,19 15.1766676,19 15.1710234,19 L15.1706991,18.9997456 Z" id="Path"></path>
                    <path d="M0.498872462,15 C0.361796008,15 0.233705344,14.9483147 0.143818673,14.8561788 C0.0516826785,14.7572989 0,14.6314612 0,14.4988753 C0,14.3662895 0.0516844043,14.2337036 0.143818673,14.1415718 C0.332577806,13.9528094 0.667410689,13.9528094 0.856181327,14.1415718 C0.948317322,14.2337094 1,14.3662895 1,14.4988753 C1,14.6314612 0.94831502,14.7573047 0.856181327,14.8561788 C0.764045332,14.9483164 0.631467526,15 0.498883967,15 L0.498872462,15 Z" id="Path"></path>
                    <path d="M32.49776,15 C32.3660644,15 32.2343688,14.9483147 32.1428555,14.8561788 C32.0513366,14.7572989 32,14.6314612 32,14.4988753 C32,14.3662895 32.0513388,14.2337036 32.1428555,14.1415718 C32.3303505,13.9528094 32.6696381,13.9528094 32.8504474,14.1415718 C32.9419664,14.2337094 33,14.3662895 33,14.4988753 C33,14.6314612 32.9419664,14.7573047 32.8504474,14.8561788 C32.7611627,14.9483164 32.6294671,15 32.4977715,15 L32.49776,15 Z" id="Path"></path>
                    <path d="M28.0372255,12.996348 C27.9650119,12.996348 27.8927984,12.9732233 27.8335811,12.9240843 C27.6949292,12.8113507 27.6747082,12.6075651 27.7873638,12.468806 C28.7824775,11.2489709 29.3529838,9.5999051 29.3529838,7.94636235 C29.3529838,3.92267137 26.0816499,0.647479403 22.0621135,0.647479403 C20.2769798,0.647479403 18.5553672,1.30651374 17.2152136,2.50322419 C17.0924494,2.61306817 16.9061345,2.61306817 16.7848012,2.50322419 C15.4430577,1.30507076 13.7214451,0.646036425 11.9379013,0.646036425 C7.91847582,0.646036425 4.647031,3.91238552 4.647031,7.92752963 C4.647031,9.60841497 5.22618914,11.2632527 6.23864363,12.467363 C6.35418686,12.6046643 6.33541155,12.8084536 6.19964733,12.9240843 C6.06388311,13.038261 5.85879664,13.0223623 5.74324232,12.885061 C4.63546928,11.5669553 4,9.76034585 4,7.92898371 C4,3.55712783 7.56017349,0 11.9379124,0 C13.7866041,0 15.5731797,0.650376461 17,1.83694906 C18.4255262,0.65181944 20.2121018,0.00288595767 22.0620876,0.00288595767 C26.4397895,0.00288595767 30,3.56696968 30,7.94925941 C30,9.750097 29.3760666,11.5480486 28.2885182,12.8820271 C28.2235256,12.9557374 28.131091,12.9962037 28.0372108,12.9962037 L28.0372255,12.996348 Z" id="Path"></path>
                    <path d="M16.9950555,26 C16.9006167,26 16.8118998,25.9569452 16.7518027,25.8827783 L9.07647761,16.5480321 C8.96200527,16.4085957 8.97774567,16.1979582 9.1122505,16.0792822 C9.24675642,15.9606137 9.44851347,15.9769311 9.56442543,16.116366 L16.9950544,25.1560549 L24.4355738,16.116366 C24.5514784,15.9769296 24.7532355,15.9606122 24.8877487,16.0792822 C25.0222547,16.1979506 25.0379951,16.4085881 24.9235213,16.5480321 L17.2394047,25.8842973 C17.1778754,25.9584641 17.0891584,26 16.9947196,26 L16.9950555,26 Z" id="Path"></path>
                </g>
            </g>
            <g id="Group" transform="translate(0.000000, 262.000000)">
                <use id="Oval" stroke="#3D7B3B" mask="url(#mask-4)" stroke-width="4" stroke-dasharray="2,5" xlink:href="#path-3"></use>
                <text id="Heart-Rate-Monitor" font-family="Futura-Medium, Futura" font-size="16" font-weight="400" fill="#3D7B3B">
                    <tspan x="0" y="149">Heart Rate Monitor</tspan>
                </text>
                <g id="monitor" transform="translate(52.000000, 30.000000)" fill="#3D7B3B" fill-rule="nonzero">
                    <path d="M43.8998498,16 C43.352856,16 42.944636,15.6597492 42.8752355,15.1148035 C41.6451519,8.58089884 36.4554122,3.41085563 29.8967879,2.18527216 C29.2830849,2.11616041 28.9415741,1.50477051 29.0082424,0.893407832 C29.0776156,0.282017932 29.6913185,-0.0582056718 30.3049942,0.00821128899 C37.7491585,1.36921458 43.6249799,7.22288975 44.9911323,14.6389967 C45.0605055,15.2503866 44.7189674,15.7288881 44.1025868,15.930861 C43.9665043,16 43.8997951,16 43.8997951,16 L43.8998498,16 Z" id="Path"></path>
                    <path d="M39.8859448,15.9286437 C39.3193855,15.9286437 38.8965638,15.5774809 38.8246808,15.0150586 C37.6942932,10.7324878 34.2258704,7.2206491 29.8400203,6.1671607 C29.2043657,5.95591521 28.8506394,5.46483511 29.0606281,4.83386579 C29.2734328,4.20286838 29.7681374,3.85173367 30.4037638,4.06018391 C35.7100834,5.39347883 39.7421789,9.39898217 40.9442372,14.6667051 C41.1570418,15.2977025 40.7314325,15.7915498 40.1648449,16 C40.0294206,15.9286718 39.9575659,15.9286718 39.8857113,15.9286718 L39.8859448,15.9286437 Z" id="Path"></path>
                    <path d="M34.9834339,16 C34.5763243,16 34.1031091,15.7302869 33.9682992,15.3230947 C33.2227842,13.3611858 31.6684099,11.8037885 29.7041919,11.0581223 C29.1622588,10.8545262 28.8238671,10.1776189 29.0961668,9.70433477 C29.2997216,9.16229176 29.9764916,8.82383133 30.4496798,9.09618631 C33.0218958,10.0427546 34.9834068,12.0734359 35.9324901,14.580109 C36.1360449,15.122152 35.8637587,15.7990593 35.324465,15.9338966 C35.1870022,16 35.1182641,16 34.9834407,16 L34.9834339,16 Z" id="Path"></path>
                    <path d="M27.8743479,12.4313919 C26.219946,11.4125882 25.9423729,7.26836643 25.8049659,5.43492728 C25.8049659,5.09532604 25.7349105,4.75572481 25.7349105,4.5514207 L25.7349105,4.4824409 L25.7349105,4.27815038 C25.7349105,4.14283966 25.664855,4.20917058 25.664855,4.07385986 C25.664855,4.07385986 25.664855,4.00488006 25.5947995,4.00488006 C25.524744,3.93590025 25.524744,3.93590025 25.3873233,3.80058954 C25.3873233,3.80058954 25.3172678,3.80058954 25.3172678,3.73160974 C25.2472123,3.73160974 25.2472123,3.66262993 25.1097915,3.66262993 L25.0397361,3.66262993 C19.451301,2.77912336 13.7954041,2.77912336 8.21014203,3.66262993 L8.14008655,3.66262993 C8.07003108,3.66262993 8.07003108,3.66262993 7.93261031,3.73160974 C7.80057685,3.8059009 7.80057685,3.94120483 7.73052137,3.94120483 C7.66046589,3.94120483 7.66046589,4.01018463 7.66046589,4.01018463 L7.59041041,4.07916443 C7.59041041,4.14814424 7.52035493,4.14814424 7.52035493,4.28345495 C7.52035493,4.35243476 7.52035493,4.35243476 7.45029945,4.48774547 L7.45029945,4.55672527 C7.45029945,4.82734671 7.38024397,5.10061703 7.38024397,5.44023185 C7.17276773,7.27353516 6.96529149,11.34875 5.31086197,12.4366965 C2.34419593,12.4366965 0,14.8139052 0,17.7350192 L0,46.465963 C0,49.387077 2.34419593,51.6952786 5.31086197,51.7642856 C6.9652639,52.7830893 7.24283701,56.9273111 7.38024397,58.7607503 C7.38024397,59.1003515 7.45029945,59.4399527 7.45029945,59.6442568 L7.45568812,59.6362973 L7.45568812,59.7052771 C7.45568812,59.7742569 7.5257436,59.7742569 7.5257436,59.9095676 L7.59579908,59.9785474 C7.59579908,60.0475272 7.66585456,60.0475272 7.80327532,60.1828379 L7.8733308,60.2518177 C7.94338628,60.2518177 7.94338628,60.3207975 8.08080704,60.3207975 L8.15086252,60.3207975 C10.9100385,60.7293786 13.7392976,61 16.4987495,61 C19.2582014,61 22.0871846,60.7293786 24.8466365,60.3207975 L24.916692,60.3207975 C24.9867475,60.3207975 24.9867475,60.3207975 25.1241682,60.2518177 L25.1942237,60.1828379 C25.2642792,60.1828379 25.2642792,60.1138581 25.4016999,60.1138581 L25.4717554,60.0448783 C25.4717554,59.9758985 25.5418109,59.9758985 25.5418109,59.8405878 L25.5418109,59.6362973 L25.5418109,59.5673175 C25.5418109,59.296696 25.6118664,59.0234257 25.6118664,58.6838109 C25.8193426,56.8505076 26.0268189,52.7752927 27.6812484,51.6873462 C30.6479144,51.6873462 32.9921104,49.3101376 32.9921104,46.3890236 L32.978638,17.7300753 C33.2534795,14.8089613 30.8391729,12.5007596 27.8752661,12.4317526 L27.8743479,12.4313919 Z M24.1478738,5.43492728 L24.1478738,5.6392178 C24.35535,7.54152808 24.4927708,10.5289322 25.6648688,12.5005212 L7.66262494,12.5005212 C8.76739901,10.5319207 9.04221294,7.54179977 9.17961991,5.6392178 L9.17961991,5.43492728 C14.078261,4.75572481 19.1816329,4.75572481 24.1474599,5.43492728 L24.1478738,5.43492728 Z M9.1096748,58.7523214 L9.1096748,58.5480309 C8.90219856,56.6457206 8.7647778,53.6583164 7.59267983,51.6867275 L25.5976828,51.6867275 C24.4929088,53.6553279 24.2180948,56.6454489 24.0806879,58.5480309 L24.0806879,58.7523214 C19.1820468,59.4315238 14.0786749,59.4315238 9.11008867,58.7523214 L9.1096748,58.7523214 Z M31.0458138,46.460115 C31.0458138,48.1581212 29.6662258,49.6518233 27.8043338,49.6518233 L5.38602882,49.6518233 C3.66154382,49.6518233 2.14454885,48.2934183 2.14454885,46.460115 L2.14454885,17.7291712 C2.14454885,16.0311651 3.52413686,14.537463 5.38602882,14.537463 L27.9416029,14.537463 C29.6660879,14.537463 31.1830828,15.8958679 31.1830828,17.7291712 L31.0458138,46.460115 Z" id="Shape"></path>
                    <path d="M33.9969698,36 C33.3998247,36 33,35.4279734 33,34.9284949 L33,29.0715051 C33,28.4297164 33.5322356,28 33.9969698,28 C34.4617039,28 34.9939395,28.5720266 34.9939395,29.0715051 L34.9939395,34.9284949 C35.0588469,35.4279734 34.5941148,36 33.9969698,36 Z" id="Path"></path>
                    <path d="M25.9197222,28.111855 C25.5752587,26.1860992 24.3346389,24.6739877 22.4750872,24.1932363 C20.3383111,23.5754928 17.9270666,24.4671931 16.0002756,26.4627788 C14.0707288,24.4699159 11.6594843,23.5755203 9.52546399,24.1932363 C7.66591221,24.6740014 6.42529246,26.1860992 6.08082895,28.111855 C5.73636545,30.1047179 6.08082895,35.3313763 15.6555365,41.7931917 L16,42 L16.3444635,41.7931917 C25.919171,35.3311013 26.2636346,30.0370607 25.919171,28.111855 L25.9197222,28.111855 Z M15.9302806,40.4881772 C13.1745726,38.632279 11.3150208,36.8434878 10.004406,35.3313763 L13.5190361,35.3313763 C13.5890035,35.3313763 13.6562841,35.2615463 13.7262515,35.1943979 L14.0007476,34.7807812 L14.3452111,35.2615463 C14.4151785,35.3313763 14.4824591,35.3985247 14.6197072,35.3313763 C14.6896746,35.3313763 14.8269226,35.2615463 14.8269226,35.1245679 L15.5158497,31.6168432 L16.2747716,38.6294049 C16.2747716,38.7663833 16.4120197,38.8362132 16.5492677,38.8362132 C16.6865158,38.8362132 16.7564832,38.7663833 16.8237638,38.6294049 L17.5826858,34.6409288 L17.7199338,35.1216939 C17.7199338,35.2586723 17.8571819,35.3285022 17.9944299,35.3285022 L21.8535234,35.3285022 C20.4756694,36.9131528 18.6161176,38.6320864 15.9303357,40.4879847 L15.9302806,40.4881772 Z M22.1979318,34.8506249 L18.0643698,34.8506249 L17.7199063,33.5453355 C17.7199063,33.4083571 17.5826582,33.3385271 17.4454102,33.3385271 C17.3081622,33.3385271 17.2381947,33.4083571 17.1709141,33.5453355 L16.6192352,36.8462381 L15.9303081,29.9705036 C15.9303081,29.8335252 15.7930601,29.7636952 15.6558121,29.7636952 C15.518564,29.7636952 15.381316,29.8335252 15.381316,29.9705036 L14.4179205,34.5766957 L14.210705,34.3027389 C14.1407376,34.2329089 14.073457,34.2329089 14.0034895,34.2329089 C13.9335221,34.2329089 13.8662415,34.3027389 13.7962741,34.3698873 L13.3818431,34.9204824 L9.5927446,34.9204824 C7.04426581,31.6894372 7.11150509,29.2829301 7.25149506,28.458392 C7.45871052,27.0133876 8.42211983,25.9149203 9.79997384,25.5711335 C10.0071893,25.5013036 10.3516528,25.4341552 10.8333644,25.4341552 C11.9367498,25.4341552 13.7263066,25.8477718 15.4486242,27.9776269 L15.9303357,28.528222 L16.4120472,27.9776269 C18.8932868,25.020511 21.3717706,25.3642977 22.0606976,25.5711198 C23.3685566,25.9149065 24.3347078,27.0161242 24.6091763,28.4583783 C24.7491112,29.2131276 24.8863592,31.5497773 22.1979318,34.8506799 L22.1979318,34.8506249 Z" id="Shape"></path>
                </g>
            </g>
            <g id="service" transform="translate(325.000000, 0.000000)">
                <use id="Oval" stroke="#3D7B3B" mask="url(#mask-6)" stroke-width="4" stroke-dasharray="2,5" xlink:href="#path-5"></use>
                <text id="Heart-Rate-Service" font-family="Futura-Medium, Futura" font-size="16" font-weight="400" fill="#3D7B3B">
                    <tspan x="0" y="17">Heart Rate Service</tspan>
                </text>
                <g id="np_servers_605461_3D7B3B" transform="translate(47.000000, 83.000000)" fill="#3D7B3B" fill-rule="nonzero">
                    <path d="M5.89009489,37.620538 C6.59529501,37.620538 7.16863428,37.0440169 7.16863428,36.3348868 C7.16863428,35.625764 6.59530235,35.0492355 5.89009489,35.0492355 C5.18489478,35.0492355 4.61155551,35.6257566 4.61155551,36.3348868 C4.61155551,37.0440096 5.18488744,37.620538 5.89009489,37.620538 Z M5.89009489,36.144644 C5.99616038,36.144644 6.0792926,36.2282387 6.0792926,36.3348941 C6.0792926,36.5453271 5.70089719,36.5453271 5.70089719,36.3348941 C5.70376367,36.231124 5.78689882,36.144644 5.89009489,36.144644 Z M31.5093177,40.1457189 C31.5895878,40.1745453 31.6727201,40.1889581 31.7558523,40.1889581 C32.0568543,40.1889581 32.3406545,40.001586 32.44672,39.698917 L34.6483146,33.4724892 C34.7830449,33.0891036 34.5852477,32.6653228 34.2039815,32.5299095 C33.8227166,32.3944298 33.4012801,32.5933272 33.2666159,32.9767143 L31.0650212,39.2031421 C30.9274216,39.5865277 31.1252216,40.0103085 31.5093544,40.1457218 L31.5093177,40.1457189 Z M26.2805305,40.1457189 C26.3608006,40.1745453 26.4439328,40.1889581 26.527065,40.1889581 C26.828067,40.1889581 27.1118673,40.001586 27.2179328,39.698917 L29.4195274,33.4724892 C29.5542576,33.0891036 29.3564605,32.6653228 28.9751942,32.5299095 C28.5939294,32.3944298 28.1724928,32.5933272 28.0378286,32.9767143 L25.836234,39.2031421 C25.6986343,39.5865277 25.8964344,40.0103085 26.2805672,40.1457218 L26.2805305,40.1457189 Z M34.1240783,40.1457189 C34.2043484,40.1745453 34.2874806,40.1889581 34.3706128,40.1889581 C34.6716148,40.1889581 34.9554151,40.001586 35.0614806,39.698917 L37.2630752,33.4724892 C37.3978054,33.0891036 37.2000083,32.6653228 36.818742,32.5299095 C36.4374772,32.3944298 36.0160406,32.5933272 35.8813764,32.9767143 L33.6797818,39.2031421 C33.5421821,39.5865277 33.7428487,40.0103085 34.1241149,40.1457218 L34.1240783,40.1457189 Z M36.7384719,40.1457189 C36.818742,40.1745453 36.9018742,40.1889581 36.9850064,40.1889581 C37.2860085,40.1889581 37.5698087,40.001586 37.6758742,39.698917 L39.8774688,33.4724892 C40.0121991,33.0891036 39.8144019,32.6653228 39.4331356,32.5299095 C39.0518708,32.3944298 38.6304342,32.5933272 38.49577,32.9767143 L36.2941754,39.2031421 C36.1565757,39.5865277 36.3543758,40.0103085 36.7385086,40.1457218 L36.7384719,40.1457189 Z M11.2109822,37.620538 C11.9161823,37.620538 12.4895216,37.0440169 12.4895216,36.3348868 C12.4895216,35.625764 11.9161896,35.0492355 11.2109822,35.0492355 C10.5057821,35.0492355 9.93244279,35.6257566 9.93244279,36.3348868 C9.93244279,37.0440096 10.5057747,37.620538 11.2109822,37.620538 Z M11.2109822,36.144644 C11.3170477,36.144644 11.4001799,36.2282387 11.4001799,36.3348941 C11.4001799,36.5453271 11.0217845,36.5453271 11.0217845,36.3348941 C11.0246509,36.231124 11.1077861,36.144644 11.2109822,36.144644 Z M16.5315025,37.620538 C17.2367026,37.620538 17.8100419,37.0440169 17.8100419,36.3348868 C17.8100419,35.625764 17.23671,35.0492355 16.5315025,35.0492355 C15.8263024,35.0492355 15.2529631,35.6257566 15.2529631,36.3348868 C15.2529631,37.0440096 15.8262951,37.620538 16.5315025,37.620538 Z M16.5315025,36.144644 C16.637568,36.144644 16.7207002,36.2282387 16.7207002,36.3348941 C16.7207002,36.5453271 16.3423048,36.5453271 16.3423048,36.3348941 C16.3451713,36.231124 16.4283064,36.144644 16.5315025,36.144644 Z M28.8956579,40.1457189 C28.9759281,40.1745453 29.0590603,40.1889581 29.1421925,40.1889581 C29.4431945,40.1889581 29.7269948,40.001586 29.8330602,39.698917 L32.0346549,33.4724892 C32.1693851,33.0891036 31.971588,32.6653228 31.5903217,32.5299095 C31.2090569,32.3944298 30.7876203,32.5933272 30.6529561,32.9767143 L28.4513615,39.2031421 C28.3137618,39.5865277 28.5144284,40.0103085 28.8956946,40.1457218 L28.8956579,40.1457189 Z M5.89046183,22.781088 C6.59566194,22.781088 7.16900121,22.2045669 7.16900121,21.4954368 C7.16900121,20.786314 6.59566928,20.2097855 5.89046183,20.2097855 C5.18526171,20.2097855 4.61192244,20.7863066 4.61192244,21.4954368 C4.61192244,22.2045595 5.18525437,22.781088 5.89046183,22.781088 Z M5.89046183,21.305194 C5.99652732,21.305194 6.07965953,21.3887887 6.07965953,21.4954441 C6.07965953,21.7058771 5.70126412,21.7058771 5.70126412,21.4954441 C5.7041306,21.3916667 5.78726575,21.305194 5.89046183,21.305194 Z M36.7384719,25.3033909 C36.818742,25.3322166 36.9018742,25.3466301 36.9850064,25.3466301 C37.2860085,25.3466301 37.5698087,25.159258 37.6758742,24.856589 L39.8774688,18.6301612 C40.0121991,18.2467756 39.8144019,17.8229948 39.4331356,17.6875815 C39.0518708,17.5521018 38.6304342,17.7509992 38.49577,18.1343863 L36.2941754,24.3608141 C36.1565757,24.7441997 36.3543758,25.1679805 36.7385086,25.3033938 L36.7384719,25.3033909 Z M34.1240783,25.3033909 C34.2043484,25.3322166 34.2874806,25.3466301 34.3706128,25.3466301 C34.6716148,25.3466301 34.9554151,25.159258 35.0614806,24.856589 L37.2630752,18.6301612 C37.3978054,18.2467756 37.2000083,17.8229948 36.818742,17.6875815 C36.4374772,17.5521018 36.0160406,17.7509992 35.8813764,18.1343863 L33.6797818,24.3608141 C33.5421821,24.7441997 33.7428487,25.1679805 34.1241149,25.3033938 L34.1240783,25.3033909 Z M31.5096846,25.3033909 C31.5899548,25.3322166 31.673087,25.3466301 31.7562192,25.3466301 C32.0572212,25.3466301 32.3410214,25.159258 32.4470869,24.856589 L34.6486816,18.6301612 C34.7834118,18.2467756 34.5856147,17.8229948 34.2043484,17.6875815 C33.8230836,17.5521018 33.401647,17.7509992 33.2669828,18.1343863 L31.0653882,24.3608141 C30.9277885,24.7441997 31.1255886,25.1679805 31.5097213,25.3033938 L31.5096846,25.3033909 Z M16.5315025,22.781088 C17.2367026,22.781088 17.8100419,22.2045669 17.8100419,21.4954368 C17.8100419,20.786314 17.23671,20.2097855 16.5315025,20.2097855 C15.8263024,20.2097855 15.2529631,20.7863066 15.2529631,21.4954368 C15.2529631,22.2045595 15.8262951,22.781088 16.5315025,22.781088 Z M16.5315025,21.305194 C16.637568,21.305194 16.7207002,21.3887887 16.7207002,21.4954441 C16.7207002,21.7058771 16.3423048,21.7058771 16.3423048,21.4954441 C16.3451713,21.3916667 16.4283064,21.305194 16.5315025,21.305194 Z M11.2109822,22.781088 C11.9161823,22.781088 12.4895216,22.2045669 12.4895216,21.4954368 C12.4895216,20.786314 11.9161896,20.2097855 11.2109822,20.2097855 C10.5057821,20.2097855 9.93244279,20.7863066 9.93244279,21.4954368 C9.93244279,22.2045595 10.5057747,22.781088 11.2109822,22.781088 Z M11.2109822,21.305194 C11.3170477,21.305194 11.4001799,21.3887887 11.4001799,21.4954441 C11.4001799,21.7058771 11.0217845,21.7058771 11.0217845,21.4954441 C11.0246509,21.3916667 11.1077861,21.305194 11.2109822,21.305194 Z M26.2808974,25.3033909 C26.3611675,25.3322166 26.4442997,25.3466301 26.527432,25.3466301 C26.828434,25.3466301 27.1122342,25.159258 27.2182997,24.856589 L29.4198943,18.6301612 C29.5546246,18.2467756 29.3568274,17.8229948 28.9755612,17.6875815 C28.5942963,17.5521018 28.1728598,17.7509992 28.0381956,18.1343863 L25.8366009,24.3608141 C25.6990013,24.7441997 25.8968013,25.1679805 26.2809341,25.3033938 L26.2808974,25.3033909 Z M28.895291,25.3033909 C28.9755612,25.3322166 29.0586934,25.3466301 29.1418256,25.3466301 C29.4428276,25.3466301 29.7266278,25.159258 29.8326933,24.856589 L32.0342879,18.6301612 C32.1690182,18.2467756 31.9712211,17.8229948 31.5899548,17.6875815 C31.20869,17.5521018 30.7872534,17.7509992 30.6525892,18.1343863 L28.4509945,24.3608141 C28.3133949,24.7441997 28.5140614,25.1679805 28.8953277,25.3033938 L28.895291,25.3033909 Z M31.5871074,2.84471189 C31.2058426,2.7092322 30.784406,2.90812958 30.6497418,3.29151666 L28.4481471,9.51794446 C28.3134169,9.90133007 28.511214,10.3251109 28.8924803,10.4605242 C28.9727505,10.4893506 29.0558827,10.5037634 29.1390149,10.5037634 C29.4400169,10.5037634 29.7238171,10.3135133 29.8298826,10.0137223 L32.0314772,3.78729454 C32.1690769,3.40390894 31.9712776,2.98012811 31.5871441,2.84471484 L31.5871074,2.84471189 Z M39.4306552,2.84471189 C39.0493904,2.7092322 38.6279538,2.90812958 38.4932896,3.29151666 L36.2916949,9.51794446 C36.1569647,9.90133007 36.3547618,10.3251109 36.7360281,10.4605242 C36.8162982,10.4893506 36.8994305,10.5037634 36.9825627,10.5037634 C37.2835647,10.5037634 37.5673649,10.3135133 37.6734304,10.0137223 L39.875025,3.78729454 C40.0126247,3.40390894 39.8119589,2.98012811 39.4306919,2.84471484 L39.4306552,2.84471189 Z M34.2018679,2.84471189 C33.8206031,2.7092322 33.3991665,2.90812958 33.2645023,3.29151666 L31.0629077,9.51794446 C30.9281774,9.90133007 31.1259746,10.3251109 31.5072409,10.4605242 C31.587511,10.4893506 31.6706432,10.5037634 31.7537754,10.5037634 C32.0547774,10.5037634 32.3385777,10.3135133 32.4446432,10.0137223 L34.6462378,3.78729454 C34.7838375,3.40390894 34.5831716,2.98012811 34.2019046,2.84471484 L34.2018679,2.84471189 Z M36.8162616,2.84471189 C36.4349967,2.7092322 36.0135602,2.90812958 35.8788959,3.29151666 L33.6773013,9.51794446 C33.5425711,9.90133007 33.7403682,10.3251109 34.1216345,10.4605242 C34.2019046,10.4893506 34.2850368,10.5037634 34.3681691,10.5037634 C34.6691711,10.5037634 34.9529713,10.3135133 35.0590368,10.0137223 L37.2606314,3.78729454 C37.3982311,3.40390894 37.2004317,2.98012811 36.8162982,2.84471484 L36.8162616,2.84471189 Z M28.9727138,2.84471189 C28.5914489,2.7092322 28.1700124,2.90812958 28.0353482,3.29151666 L25.8337535,9.51794446 C25.6990233,9.90133007 25.8968204,10.3251109 26.2780867,10.4605242 C26.3583568,10.4893506 26.441489,10.5037634 26.5246213,10.5037634 C26.8256233,10.5037634 27.1094235,10.3135133 27.215489,10.0137223 L29.4170836,3.78729454 C29.5546833,3.40390894 29.3540175,2.98012811 28.9727505,2.84471484 L28.9727138,2.84471189 Z M11.2109822,5.36701473 C10.5057821,5.36701473 9.93244279,5.94353582 9.93244279,6.65266599 C9.93244279,7.36178878 10.5057747,7.93831726 11.2109822,7.93831726 C11.9161823,7.93831726 12.4895216,7.36179616 12.4895216,6.65266599 C12.4895216,5.9435432 11.9161896,5.36701473 11.2109822,5.36701473 Z M11.0246465,6.65266599 C11.0246465,6.54889589 11.1077788,6.46241588 11.2138442,6.46241588 C11.3199097,6.46241588 11.403042,6.54889589 11.403042,6.65266599 C11.4001747,6.86309896 11.0246392,6.86309896 11.0246392,6.65266599 L11.0246465,6.65266599 Z M16.5314952,5.36701473 C15.8262951,5.36701473 15.2529558,5.94353582 15.2529558,6.65266599 C15.2529558,7.36178878 15.8262877,7.93831726 16.5314952,7.93831726 C17.2366953,7.93831726 17.8100346,7.36179616 17.8100346,6.65266599 C17.8100346,5.9435432 17.2367026,5.36701473 16.5314952,5.36701473 Z M16.3451596,6.65266599 C16.3451596,6.54889589 16.4282918,6.46241588 16.5343573,6.46241588 C16.6404227,6.46241588 16.723555,6.54889589 16.723555,6.65266599 C16.7206878,6.86309896 16.3451522,6.86309896 16.3451522,6.65266599 L16.3451596,6.65266599 Z M5.89052054,5.36701473 C5.18532042,5.36701473 4.61198115,5.94353582 4.61198115,6.65266599 C4.61198115,7.36178878 5.18531308,7.93831726 5.89052054,7.93831726 C6.59572065,7.93831726 7.16905992,7.36179616 7.16905992,6.65266599 C7.16905992,5.9435432 6.59572799,5.36701473 5.89052054,5.36701473 Z M5.70418491,6.65266599 C5.70418491,6.54889589 5.78731712,6.46241588 5.89338261,6.46241588 C5.9994481,6.46241588 6.08258031,6.54889589 6.08258031,6.65266599 C6.0797131,6.86309896 5.70417757,6.86309896 5.70417757,6.65266599 L5.70418491,6.65266599 Z M40.5458876,13.308579 C41.8989877,13.308579 42.9968495,12.2045364 42.9968495,10.8439836 L43,2.46459539 C43,1.1069205 41.9017808,0 40.5487541,0 L2.45382839,0 C1.10072833,0 0.0028664762,1.10404251 0.0028664762,2.46459539 L0.0028664762,10.8439836 C0.0028664762,12.2016585 1.10080172,13.308579 2.45382839,13.308579 L5.83364307,13.308579 L5.83364307,14.8421066 L2.45382839,14.8421066 C1.10072833,14.8421066 0.0028664762,15.9461491 0.0028664762,17.306702 L0.0028664762,25.6860902 C0.0028664762,27.0467169 1.10080172,28.1506856 2.45382839,28.1506856 L5.83364307,28.1506856 L5.83364307,29.6842132 L2.45382839,29.6842132 C1.10072833,29.6842132 0.0028664762,30.7882557 0.0028664762,32.1488086 L0,40.525983 C0,41.8866096 1.09793524,42.9905783 2.45096191,42.9905783 L5.8307766,42.9905783 L5.8307766,44.524106 C5.8307766,45.3399064 6.49011016,46 7.29850635,46 L13.1808736,46 C13.9892992,46 14.6486034,45.3398843 14.6486034,44.524106 L14.6486034,42.9905783 L28.3542638,42.9905783 L28.3542638,44.524106 C28.3542638,45.3399064 29.0135974,46 29.8219936,46 L35.7043609,46 C36.5127864,46 37.1720906,45.3398843 37.1720906,44.524106 L37.1692234,42.9905783 L40.5490381,42.9905783 C41.9021381,42.9905783 43,41.8865358 43,40.525983 L43,32.1465948 C43,30.7889199 41.9020648,29.6819994 40.5490381,29.6819994 L37.1692234,29.6819994 L37.1692234,28.1484717 L40.5490381,28.1484717 C41.9021381,28.1484717 43,27.0444292 43,25.6838763 L43,17.306702 C43,15.9460753 41.9020648,14.8421066 40.5490381,14.8421066 L37.1692234,14.8421066 L37.1692234,13.308579 L40.5458876,13.308579 Z M13.1808003,44.524475 L7.29843296,44.524475 L7.29843296,42.9909473 L13.1808003,42.9909473 L13.1808003,44.524475 Z M35.7016456,44.524475 L29.8192783,44.524475 L29.8221447,42.9909473 L35.704512,42.9909473 L35.7016456,44.524475 Z M40.5463279,31.1609928 C41.0881257,31.1609928 41.5295601,31.6049122 41.5295601,32.1496942 L41.5324266,40.5268685 C41.5324266,41.07168 41.0909628,41.5155699 40.5491944,41.5155699 L36.4699331,41.5155699 C36.4555993,41.5155699 36.4469998,41.5069219 36.432666,41.5069219 C36.4183329,41.5069219 36.4097327,41.5155699 36.3953996,41.5155699 L29.1197898,41.5155699 C29.1054567,41.5155699 29.0968565,41.5069219 29.0825234,41.5069219 C29.0681903,41.5069219 29.0595902,41.5155699 29.045257,41.5155699 L13.952592,41.5155699 C13.9382582,41.5155699 13.9296587,41.5069219 13.9153249,41.5069219 C13.9009918,41.5069219 13.8923916,41.5155699 13.8780585,41.5155699 L6.60244872,41.5155699 C6.58811561,41.5155699 6.57951545,41.5069219 6.56518233,41.5069219 C6.55084848,41.5069219 6.54224905,41.5155699 6.5279152,41.5155699 L2.44865391,41.5155699 C1.90685615,41.5155699 1.46542175,41.0716505 1.46542175,40.5268685 L1.46828822,32.1474803 C1.46828822,31.6026688 1.90975198,31.1587789 2.45152038,31.1587789 L40.5463279,31.1609928 Z M7.29857973,29.6850988 L7.29857973,28.1515711 L13.180947,28.1515711 L13.180947,29.6850988 L7.29857973,29.6850988 Z M14.6489703,29.6850988 L14.6489703,28.1515711 L28.3546307,28.1515711 L28.3546307,29.6850988 L14.6489703,29.6850988 Z M29.8223605,29.6850988 L29.8223605,28.1515711 L35.7047278,28.1515711 L35.7047278,29.6850988 L29.8223605,29.6850988 Z M40.5463279,16.3186648 C41.0881257,16.3186648 41.5295601,16.7625842 41.5295601,17.3073662 L41.5295601,25.6867543 C41.5295601,26.2315658 41.0880963,26.6754557 40.5463279,26.6754557 L36.4699287,26.6754557 C36.4555949,26.6725726 36.4469954,26.6668077 36.4326616,26.6668077 C36.4183285,26.6668077 36.4097283,26.6725726 36.3953952,26.6754557 L29.1197854,26.6754557 C29.1054523,26.6725726 29.0968521,26.6668077 29.082519,26.6668077 C29.0681859,26.6668077 29.0595857,26.6725726 29.0452526,26.6754557 L13.9525876,26.6754557 C13.9382538,26.6725726 13.9296543,26.6668077 13.9153205,26.6668077 C13.9009874,26.6668077 13.8923872,26.6725726 13.8780541,26.6754557 L6.60244432,26.6754557 C6.5881112,26.6725726 6.57951104,26.6668077 6.56517793,26.6668077 C6.55084408,26.6668077 6.54224465,26.6725726 6.5279108,26.6754557 L2.4486495,26.6754557 C1.90685174,26.6754557 1.46541734,26.2315363 1.46541734,25.6867543 L1.46828382,17.3073662 C1.46828382,16.7625546 1.90974757,16.3186648 2.45151598,16.3186648 L40.5463279,16.3186648 Z M7.29857973,14.8427708 L7.29857973,13.3092431 L13.180947,13.3092431 L13.180947,14.8427708 L7.29857973,14.8427708 Z M14.6489703,14.8427708 L14.6489703,13.3092431 L28.3546307,13.3092431 L28.3546307,14.8427708 L14.6489703,14.8427708 Z M29.8223605,14.8427708 L29.8223605,13.3092431 L35.7047278,13.3092431 L35.7047278,14.8427708 L29.8223605,14.8427708 Z M36.4701489,11.8333491 C36.455815,11.8333491 36.4472156,11.8247011 36.4328817,11.8247011 C36.4185486,11.8247011 36.4099485,11.8304659 36.3956153,11.8333491 L29.1200056,11.8333491 C29.1056725,11.8333491 29.0970723,11.8247011 29.0827392,11.8247011 C29.0684061,11.8247011 29.0598059,11.8304659 29.0454728,11.8333491 L13.9528078,11.8333491 C13.9384739,11.8333491 13.9298745,11.8247011 13.9155406,11.8247011 C13.9012075,11.8247011 13.8926074,11.8304659 13.8782742,11.8333491 L6.60266448,11.8333491 C6.58833136,11.8333491 6.5797312,11.8247011 6.56539809,11.8247011 C6.55106424,11.8247011 6.54246481,11.8304659 6.52813096,11.8333491 L2.44886966,11.8333491 C1.9070719,11.8333491 1.4656375,11.3894297 1.4656375,10.8446477 L1.46850398,2.46525954 C1.46850398,1.92044803 1.90996773,1.47655815 2.45173614,1.47655815 L40.5466618,1.47655815 C41.0884596,1.47655815 41.529894,1.92047755 41.529894,2.46525954 L41.529894,10.8446477 C41.529894,11.3894592 41.0884302,11.8333491 40.5466618,11.8333491 L36.4702626,11.8304659 L36.4701489,11.8333491 Z" id="Shape"></path>
                </g>
            </g>
            <line x1="68.5" y1="249.5" x2="68.5" y2="106.5" id="Line" stroke="#3D7B3B" stroke-width="3" stroke-linecap="square"></line>
            <line x1="723" y1="250" x2="723.5" y2="106.5" id="Line" stroke="#3D7B3B" stroke-width="3" stroke-linecap="square"></line>
            <line x1="193.5" y1="231.5" x2="194" y2="-19" id="Line" stroke="#3D7B3B" stroke-width="3" stroke-linecap="square" transform="translate(194.000000, 106.500000) rotate(90.000000) translate(-194.000000, -106.500000) "></line>
            <line x1="594.5" y1="231.5" x2="595" y2="-19" id="Line" stroke="#3D7B3B" stroke-width="3" stroke-linecap="square" transform="translate(595.000000, 106.500000) rotate(90.000000) translate(-595.000000, -106.500000) "></line>
            <text id="TCP-Connection" font-family="Futura-Medium, Futura" font-size="16" font-weight="400" fill="#3D7B3B">
                <tspan x="142" y="95">TCP Connection</tspan>
            </text>
            <text id="TCP-Connection" font-family="Futura-Medium, Futura" font-size="16" font-weight="400" fill="#3D7B3B">
                <tspan x="548" y="95">TCP Connection</tspan>
            </text>
        </g>
    </g>
</svg>