<svg width="1160" height="606" viewBox="0 0 1160 606" fill="none" xmlns="http://www.w3.org/2000/svg">
<path d="M400 238C398.896 238 398 236.208 398 234C398 231.792 398.896 230 400 230C401.104 230 402 231.792 402 234C402 236.208 401.104 238 400 238Z" fill="#4FC2E4"/>
<path d="M404.312 198.488C404.528 198.676 404.702 198.908 404.82 199.169C404.939 199.43 405 199.713 405 200V202H407C408.591 202 410.117 202.632 411.243 203.757C412.368 204.883 413 206.409 413 208V258H419C419.53 258 420.039 258.211 420.414 258.586C420.789 258.961 421 259.47 421 260C421 260.531 420.789 261.039 420.414 261.414C420.039 261.789 419.53 262 419 262H367C366.47 262 365.961 261.789 365.586 261.414C365.211 261.039 365 260.531 365 260C365 259.47 365.211 258.961 365.586 258.586C365.961 258.211 366.47 258 367 258H373V204C373 203.518 373.174 203.053 373.49 202.689C373.806 202.325 374.243 202.088 374.72 202.02L402.72 198.02C403.003 197.98 403.292 198 403.567 198.081C403.841 198.162 404.096 198.301 404.312 198.488ZM407 206H405V258H409V208C409 207.47 408.789 206.961 408.414 206.586C408.039 206.211 407.53 206 407 206ZM377 205.736V258H401V202.308L377 205.736Z" fill="#4FC2E4"/>
<path d="M765 240C763.896 240 763 238.208 763 236C763 233.792 763.896 232 765 232C766.104 232 767 233.792 767 236C767 238.208 766.104 240 765 240Z" fill="#23CBA2"/>
<path d="M774.312 200.488C774.528 200.676 774.702 200.908 774.82 201.169C774.939 201.43 775 201.713 775 202V204H777C778.591 204 780.117 204.632 781.243 205.757C782.368 206.883 783 208.409 783 210V260H789C789.53 260 790.039 260.211 790.414 260.586C790.789 260.961 791 261.47 791 262C791 262.531 790.789 263.039 790.414 263.414C790.039 263.789 789.53 264 789 264H737C736.47 264 735.961 263.789 735.586 263.414C735.211 263.039 735 262.531 735 262C735 261.47 735.211 260.961 735.586 260.586C735.961 260.211 736.47 260 737 260H743V206C743 205.518 743.174 205.053 743.49 204.689C743.806 204.325 744.243 204.088 744.72 204.02L772.72 200.02C773.003 199.98 773.292 200 773.567 200.081C773.841 200.162 774.096 200.301 774.312 200.488ZM777 208H775V260H779V210C779 209.47 778.789 208.961 778.414 208.586C778.039 208.211 777.53 208 777 208ZM747 207.736V260H771V204.308L747 207.736Z" fill="#23CBA2"/>
<path d="M308.696 245.456L308.596 245.356L307.596 251.756C307.396 252.956 306.996 254.256 306.496 255.356L298.696 271.756C297.496 274.256 298.596 277.156 301.096 278.356C301.796 278.656 302.496 278.856 303.196 278.856C305.096 278.856 306.796 277.756 307.696 275.956L315.496 259.556C316.396 257.756 316.996 255.756 317.296 253.856C316.696 253.356 316.196 252.756 315.596 252.156C312.396 249.056 309.196 245.856 308.696 245.456Z" fill="#4FC2E4"/>
<path d="M344.996 228.856L340.796 226.056C338.396 224.456 336.296 222.556 334.596 220.356C328.696 212.656 327.196 211.856 325.196 211.756L318.296 211.356C316.896 211.256 315.396 211.756 312.096 213.556C306.396 216.656 301.596 221.356 298.496 227.056L296.496 230.756C295.396 232.756 296.196 235.256 298.196 236.356C298.796 236.656 299.496 236.856 300.196 236.856C301.696 236.856 303.096 236.056 303.796 234.656L305.796 230.956C307.196 228.356 309.096 226.156 311.196 224.156C310.896 227.056 310.496 230.556 310.296 232.556C309.796 236.756 308.896 239.656 311.596 242.256C312.596 243.156 324.596 254.856 324.596 254.856C325.896 256.056 326.796 257.656 327.196 259.356L330.896 274.756C331.496 277.056 333.496 278.556 335.696 278.556C336.096 278.556 336.496 278.556 336.896 278.456C339.596 277.856 341.196 275.156 340.596 272.456L336.796 257.256C335.996 253.756 334.096 250.456 331.496 247.956L324.996 241.656L328.296 225.856C330.496 228.656 333.196 231.056 336.196 233.056L340.396 235.856C342.296 237.056 344.896 236.556 346.096 234.656C347.496 232.656 346.896 230.156 344.996 228.856Z" fill="#4FC2E4"/>
<path d="M332.15 201.137C332.7 196.086 329.051 191.545 324 190.996C318.949 190.446 314.409 194.095 313.859 199.146C313.309 204.197 316.958 208.737 322.009 209.287C327.06 209.837 331.601 206.188 332.15 201.137Z" fill="#4FC2E4"/>
<path d="M825.696 245.456L825.596 245.356L824.596 251.756C824.396 252.956 823.996 254.256 823.496 255.356L815.696 271.756C814.496 274.256 815.596 277.156 818.096 278.356C818.796 278.656 819.496 278.856 820.196 278.856C822.096 278.856 823.796 277.756 824.696 275.956L832.496 259.556C833.396 257.756 833.996 255.756 834.296 253.856C833.696 253.356 833.196 252.756 832.596 252.156C829.396 249.056 826.196 245.856 825.696 245.456Z" fill="#23CBA2"/>
<path d="M861.996 228.856L857.796 226.056C855.396 224.456 853.296 222.556 851.596 220.356C845.696 212.656 844.196 211.856 842.196 211.756L835.296 211.356C833.896 211.256 832.396 211.756 829.096 213.556C823.396 216.656 818.596 221.356 815.496 227.056L813.496 230.756C812.396 232.756 813.196 235.256 815.196 236.356C815.796 236.656 816.496 236.856 817.196 236.856C818.696 236.856 820.096 236.056 820.796 234.656L822.796 230.956C824.196 228.356 826.096 226.156 828.196 224.156C827.896 227.056 827.496 230.556 827.296 232.556C826.796 236.756 825.896 239.656 828.596 242.256C829.596 243.156 841.596 254.856 841.596 254.856C842.896 256.056 843.796 257.656 844.196 259.356L847.896 274.756C848.496 277.056 850.496 278.556 852.696 278.556C853.096 278.556 853.496 278.556 853.896 278.456C856.596 277.856 858.196 275.156 857.596 272.456L853.796 257.256C852.996 253.756 851.096 250.456 848.496 247.956L841.996 241.656L845.296 225.856C847.496 228.656 850.196 231.056 853.196 233.056L857.396 235.856C859.296 237.056 861.896 236.556 863.096 234.656C864.496 232.656 863.896 230.156 861.996 228.856Z" fill="#23CBA2"/>
<path d="M849.15 201.137C849.7 196.086 846.051 191.545 841 190.996C835.949 190.446 831.409 194.095 830.859 199.146C830.309 204.197 833.958 208.737 839.009 209.287C844.06 209.837 848.601 206.188 849.15 201.137Z" fill="#23CBA2"/>
<path d="M453.5 184C442.1 184 437 208.6 437 231.5C437 254.4 442.2 279 453.5 279C464.8 279 470 254.4 470 231.5C470 208.6 464.9 184 453.5 184ZM453.5 271.8C450.8 271.8 444.2 257.7 444.2 231.5C444.2 205.3 450.8 191.2 453.5 191.2C456.2 191.2 462.9 205.3 462.9 231.5C462.9 257.7 456.2 271.8 453.5 271.8Z" fill="#4FC2E4"/>
<path d="M707.5 184C696.1 184 691 208.6 691 231.5C691 254.4 696.2 279 707.5 279C718.8 279 724 254.4 724 231.5C724 208.6 718.9 184 707.5 184ZM707.5 271.8C704.8 271.8 698.2 257.7 698.2 231.5C698.2 205.3 704.8 191.2 707.5 191.2C710.2 191.2 716.9 205.3 716.9 231.5C716.9 257.7 710.2 271.8 707.5 271.8Z" fill="#23CBA2"/>
<rect x="464" y="267" width="68" height="232" transform="rotate(-90 464 267)" fill="url(#paint0_linear_258_212)"/>
<circle cx="422.465" cy="406.219" r="75.2192" fill="#4FC2E4"/>
<circle cx="580.473" cy="406.219" r="75.2192" fill="#4FC2E4"/>
<circle cx="738.481" cy="406.219" r="75.2192" fill="#23CBA2"/>
<path d="M402.655 388.954C402.562 388.162 402.181 387.548 401.515 387.11C400.848 386.673 400.03 386.454 399.062 386.454C398.353 386.454 397.734 386.568 397.202 386.798C396.676 387.027 396.265 387.342 395.968 387.743C395.676 388.144 395.53 388.6 395.53 389.11C395.53 389.537 395.632 389.904 395.835 390.212C396.043 390.514 396.309 390.766 396.632 390.969C396.955 391.167 397.293 391.331 397.648 391.462C398.002 391.587 398.327 391.688 398.624 391.766L400.249 392.204C400.666 392.313 401.129 392.464 401.64 392.657C402.155 392.85 402.648 393.113 403.116 393.446C403.59 393.774 403.981 394.196 404.288 394.712C404.596 395.227 404.749 395.86 404.749 396.61C404.749 397.475 404.523 398.256 404.069 398.954C403.622 399.652 402.965 400.206 402.101 400.618C401.241 401.029 400.197 401.235 398.968 401.235C397.822 401.235 396.83 401.05 395.991 400.68C395.158 400.311 394.502 399.795 394.023 399.134C393.549 398.472 393.28 397.704 393.218 396.829H395.218C395.27 397.433 395.473 397.933 395.827 398.329C396.187 398.719 396.64 399.011 397.187 399.204C397.739 399.391 398.332 399.485 398.968 399.485C399.707 399.485 400.372 399.365 400.96 399.126C401.549 398.881 402.015 398.542 402.359 398.11C402.702 397.673 402.874 397.162 402.874 396.579C402.874 396.048 402.726 395.615 402.429 395.282C402.132 394.949 401.741 394.678 401.257 394.469C400.773 394.261 400.249 394.079 399.687 393.923L397.718 393.36C396.468 393.001 395.478 392.488 394.749 391.821C394.02 391.154 393.655 390.282 393.655 389.204C393.655 388.308 393.898 387.527 394.382 386.86C394.872 386.188 395.528 385.667 396.351 385.298C397.179 384.923 398.103 384.735 399.124 384.735C400.155 384.735 401.072 384.92 401.874 385.29C402.676 385.654 403.312 386.154 403.78 386.79C404.254 387.425 404.504 388.147 404.53 388.954H402.655ZM409.528 393.735V400.954H407.685V384.954H409.528V390.829H409.685C409.966 390.209 410.388 389.717 410.95 389.352C411.518 388.983 412.273 388.798 413.216 388.798C414.034 388.798 414.75 388.962 415.364 389.29C415.979 389.613 416.456 390.11 416.794 390.782C417.138 391.449 417.31 392.298 417.31 393.329V400.954H415.466V393.454C415.466 392.501 415.219 391.764 414.724 391.243C414.234 390.717 413.554 390.454 412.685 390.454C412.081 390.454 411.539 390.581 411.06 390.837C410.586 391.092 410.211 391.464 409.935 391.954C409.664 392.443 409.528 393.037 409.528 393.735ZM424.214 401.235C423.454 401.235 422.763 401.092 422.144 400.805C421.524 400.514 421.032 400.094 420.667 399.548C420.303 398.996 420.12 398.329 420.12 397.548C420.12 396.86 420.256 396.303 420.526 395.876C420.797 395.443 421.159 395.105 421.612 394.86C422.066 394.615 422.566 394.433 423.112 394.313C423.665 394.188 424.219 394.089 424.776 394.016C425.506 393.923 426.097 393.852 426.55 393.805C427.008 393.753 427.342 393.667 427.55 393.548C427.763 393.428 427.87 393.219 427.87 392.923V392.86C427.87 392.089 427.659 391.49 427.237 391.063C426.821 390.636 426.188 390.423 425.339 390.423C424.459 390.423 423.769 390.615 423.269 391.001C422.769 391.386 422.417 391.798 422.214 392.235L420.464 391.61C420.776 390.881 421.193 390.313 421.714 389.907C422.24 389.496 422.813 389.209 423.433 389.048C424.058 388.881 424.672 388.798 425.276 388.798C425.662 388.798 426.105 388.844 426.605 388.938C427.11 389.027 427.597 389.212 428.066 389.493C428.54 389.774 428.933 390.199 429.245 390.766C429.558 391.334 429.714 392.094 429.714 393.048V400.954H427.87V399.329H427.776C427.651 399.589 427.443 399.868 427.151 400.165C426.86 400.462 426.472 400.714 425.987 400.923C425.503 401.131 424.912 401.235 424.214 401.235ZM424.495 399.579C425.224 399.579 425.839 399.436 426.339 399.149C426.844 398.863 427.224 398.493 427.48 398.04C427.74 397.587 427.87 397.11 427.87 396.61V394.923C427.792 395.016 427.62 395.102 427.355 395.18C427.094 395.253 426.792 395.318 426.448 395.376C426.11 395.428 425.779 395.475 425.456 395.516C425.138 395.553 424.881 395.584 424.683 395.61C424.204 395.673 423.756 395.774 423.339 395.915C422.928 396.05 422.594 396.256 422.339 396.532C422.089 396.803 421.964 397.173 421.964 397.641C421.964 398.282 422.201 398.766 422.675 399.094C423.154 399.417 423.761 399.579 424.495 399.579ZM433.079 400.954V388.954H434.86V390.766H434.985C435.204 390.173 435.6 389.691 436.173 389.321C436.746 388.951 437.392 388.766 438.11 388.766C438.246 388.766 438.415 388.769 438.618 388.774C438.821 388.779 438.975 388.787 439.079 388.798V390.673C439.017 390.657 438.873 390.634 438.65 390.602C438.431 390.566 438.199 390.548 437.954 390.548C437.371 390.548 436.85 390.67 436.392 390.915C435.939 391.154 435.579 391.488 435.314 391.915C435.053 392.337 434.923 392.818 434.923 393.36V400.954H433.079ZM445.931 401.204C444.775 401.204 443.777 400.949 442.939 400.438C442.105 399.923 441.462 399.204 441.009 398.282C440.561 397.355 440.337 396.277 440.337 395.048C440.337 393.818 440.561 392.735 441.009 391.798C441.462 390.855 442.092 390.121 442.9 389.594C443.712 389.063 444.66 388.798 445.743 388.798C446.368 388.798 446.985 388.902 447.595 389.11C448.204 389.318 448.759 389.657 449.259 390.126C449.759 390.589 450.157 391.204 450.454 391.969C450.751 392.735 450.9 393.678 450.9 394.798V395.579H441.65V393.985H449.025C449.025 393.308 448.889 392.704 448.618 392.173C448.353 391.641 447.972 391.222 447.478 390.915C446.988 390.608 446.41 390.454 445.743 390.454C445.009 390.454 444.373 390.636 443.837 391.001C443.306 391.36 442.897 391.829 442.61 392.407C442.324 392.985 442.181 393.605 442.181 394.266V395.329C442.181 396.235 442.337 397.003 442.65 397.634C442.967 398.259 443.407 398.735 443.97 399.063C444.532 399.386 445.186 399.548 445.931 399.548C446.415 399.548 446.853 399.48 447.243 399.344C447.639 399.204 447.98 398.996 448.267 398.719C448.553 398.438 448.775 398.089 448.931 397.673L450.712 398.173C450.525 398.777 450.209 399.308 449.767 399.766C449.324 400.219 448.777 400.574 448.126 400.829C447.475 401.079 446.743 401.204 445.931 401.204ZM394.475 418.641L392.818 419.11C392.714 418.834 392.561 418.566 392.358 418.305C392.16 418.04 391.889 417.821 391.545 417.649C391.201 417.477 390.761 417.391 390.225 417.391C389.49 417.391 388.878 417.561 388.389 417.899C387.904 418.233 387.662 418.657 387.662 419.173C387.662 419.631 387.829 419.993 388.162 420.259C388.496 420.524 389.016 420.746 389.725 420.923L391.506 421.36C392.579 421.621 393.378 422.019 393.904 422.555C394.43 423.087 394.693 423.772 394.693 424.61C394.693 425.298 394.496 425.912 394.1 426.454C393.709 426.996 393.162 427.423 392.459 427.735C391.756 428.048 390.938 428.204 390.006 428.204C388.782 428.204 387.769 427.938 386.967 427.407C386.165 426.876 385.657 426.1 385.443 425.079L387.193 424.641C387.36 425.287 387.675 425.772 388.139 426.094C388.608 426.417 389.22 426.579 389.975 426.579C390.834 426.579 391.516 426.397 392.022 426.032C392.532 425.662 392.787 425.219 392.787 424.704C392.787 424.287 392.641 423.938 392.35 423.657C392.058 423.371 391.61 423.157 391.006 423.016L389.006 422.548C387.907 422.287 387.1 421.884 386.584 421.337C386.074 420.785 385.818 420.094 385.818 419.266C385.818 418.589 386.009 417.99 386.389 417.469C386.774 416.949 387.298 416.54 387.959 416.243C388.626 415.946 389.381 415.798 390.225 415.798C391.412 415.798 392.345 416.058 393.022 416.579C393.704 417.1 394.188 417.787 394.475 418.641ZM402.5 428.204C401.344 428.204 400.346 427.949 399.508 427.438C398.675 426.923 398.031 426.204 397.578 425.282C397.13 424.355 396.906 423.277 396.906 422.048C396.906 420.818 397.13 419.735 397.578 418.798C398.031 417.855 398.662 417.121 399.469 416.594C400.281 416.063 401.229 415.798 402.313 415.798C402.938 415.798 403.555 415.902 404.164 416.11C404.774 416.318 405.328 416.657 405.828 417.126C406.328 417.589 406.727 418.204 407.024 418.969C407.32 419.735 407.469 420.678 407.469 421.798V422.579H398.219V420.985H405.594C405.594 420.308 405.458 419.704 405.188 419.173C404.922 418.641 404.542 418.222 404.047 417.915C403.557 417.608 402.979 417.454 402.313 417.454C401.578 417.454 400.943 417.636 400.406 418.001C399.875 418.36 399.466 418.829 399.18 419.407C398.893 419.985 398.75 420.605 398.75 421.266V422.329C398.75 423.235 398.906 424.003 399.219 424.634C399.537 425.259 399.977 425.735 400.539 426.063C401.102 426.386 401.755 426.548 402.5 426.548C402.984 426.548 403.422 426.48 403.813 426.344C404.208 426.204 404.55 425.996 404.836 425.719C405.123 425.438 405.344 425.089 405.5 424.673L407.281 425.173C407.094 425.777 406.779 426.308 406.336 426.766C405.893 427.219 405.346 427.574 404.695 427.829C404.044 428.079 403.313 428.204 402.5 428.204ZM410.274 427.954V415.954H412.055V417.766H412.18C412.399 417.173 412.794 416.691 413.367 416.321C413.94 415.951 414.586 415.766 415.305 415.766C415.44 415.766 415.609 415.769 415.813 415.774C416.016 415.779 416.169 415.787 416.274 415.798V417.673C416.211 417.657 416.068 417.634 415.844 417.602C415.625 417.566 415.393 417.548 415.149 417.548C414.565 417.548 414.044 417.67 413.586 417.915C413.133 418.154 412.774 418.488 412.508 418.915C412.248 419.337 412.117 419.818 412.117 420.36V427.954H410.274ZM428.637 415.954L424.199 427.954H422.324L417.887 415.954H419.887L423.199 425.516H423.324L426.637 415.954H428.637ZM431.07 427.954V415.954H432.914V427.954H431.07ZM432.008 413.954C431.649 413.954 431.339 413.831 431.078 413.587C430.823 413.342 430.695 413.048 430.695 412.704C430.695 412.36 430.823 412.066 431.078 411.821C431.339 411.576 431.649 411.454 432.008 411.454C432.367 411.454 432.675 411.576 432.93 411.821C433.19 412.066 433.32 412.36 433.32 412.704C433.32 413.048 433.19 413.342 432.93 413.587C432.675 413.831 432.367 413.954 432.008 413.954ZM441.166 428.204C440.041 428.204 439.072 427.938 438.26 427.407C437.447 426.876 436.822 426.144 436.385 425.212C435.947 424.279 435.729 423.214 435.729 422.016C435.729 420.798 435.953 419.722 436.401 418.79C436.854 417.852 437.484 417.121 438.291 416.594C439.104 416.063 440.052 415.798 441.135 415.798C441.979 415.798 442.739 415.954 443.416 416.266C444.093 416.579 444.648 417.016 445.08 417.579C445.512 418.141 445.781 418.798 445.885 419.548H444.041C443.901 419.001 443.588 418.516 443.104 418.094C442.624 417.667 441.979 417.454 441.166 417.454C440.447 417.454 439.817 417.641 439.276 418.016C438.739 418.386 438.32 418.91 438.018 419.587C437.721 420.259 437.572 421.048 437.572 421.954C437.572 422.881 437.718 423.688 438.01 424.376C438.307 425.063 438.723 425.597 439.26 425.977C439.802 426.358 440.437 426.548 441.166 426.548C441.645 426.548 442.08 426.464 442.471 426.298C442.861 426.131 443.192 425.891 443.463 425.579C443.734 425.266 443.927 424.891 444.041 424.454H445.885C445.781 425.162 445.523 425.8 445.111 426.368C444.705 426.93 444.166 427.378 443.494 427.712C442.828 428.04 442.052 428.204 441.166 428.204ZM453.611 428.204C452.455 428.204 451.458 427.949 450.619 427.438C449.786 426.923 449.143 426.204 448.69 425.282C448.242 424.355 448.018 423.277 448.018 422.048C448.018 420.818 448.242 419.735 448.69 418.798C449.143 417.855 449.773 417.121 450.58 416.594C451.393 416.063 452.341 415.798 453.424 415.798C454.049 415.798 454.666 415.902 455.276 416.11C455.885 416.318 456.44 416.657 456.94 417.126C457.44 417.589 457.838 418.204 458.135 418.969C458.432 419.735 458.58 420.678 458.58 421.798V422.579H449.33V420.985H456.705C456.705 420.308 456.57 419.704 456.299 419.173C456.033 418.641 455.653 418.222 455.158 417.915C454.669 417.608 454.091 417.454 453.424 417.454C452.69 417.454 452.054 417.636 451.518 418.001C450.986 418.36 450.578 418.829 450.291 419.407C450.005 419.985 449.861 420.605 449.861 421.266V422.329C449.861 423.235 450.018 424.003 450.33 424.634C450.648 425.259 451.088 425.735 451.651 426.063C452.213 426.386 452.867 426.548 453.611 426.548C454.096 426.548 454.533 426.48 454.924 426.344C455.32 426.204 455.661 425.996 455.947 425.719C456.234 425.438 456.455 425.089 456.611 424.673L458.393 425.173C458.205 425.777 457.89 426.308 457.447 426.766C457.005 427.219 456.458 427.574 455.807 427.829C455.156 428.079 454.424 428.204 453.611 428.204Z" fill="black"/>
<path d="M556.177 397V413H554.239V397H556.177ZM561.655 405.781V413H559.812V401H561.593V402.875H561.749C562.03 402.266 562.457 401.776 563.03 401.406C563.603 401.031 564.343 400.844 565.249 400.844C566.062 400.844 566.772 401.01 567.382 401.344C567.991 401.672 568.465 402.172 568.804 402.844C569.142 403.51 569.312 404.354 569.312 405.375V413H567.468V405.5C567.468 404.557 567.223 403.823 566.733 403.297C566.244 402.766 565.572 402.5 564.718 402.5C564.129 402.5 563.603 402.628 563.14 402.883C562.681 403.138 562.319 403.51 562.054 404C561.788 404.49 561.655 405.083 561.655 405.781ZM582.063 401L577.626 413H575.751L571.313 401H573.313L576.626 410.562H576.751L580.063 401H582.063ZM584.497 413V401H586.341V413H584.497ZM585.435 399C585.075 399 584.765 398.878 584.505 398.633C584.25 398.388 584.122 398.094 584.122 397.75C584.122 397.406 584.25 397.112 584.505 396.867C584.765 396.622 585.075 396.5 585.435 396.5C585.794 396.5 586.101 396.622 586.356 396.867C586.617 397.112 586.747 397.406 586.747 397.75C586.747 398.094 586.617 398.388 586.356 398.633C586.101 398.878 585.794 399 585.435 399ZM594.937 401V402.562H588.718V401H594.937ZM590.53 398.125H592.374V409.562C592.374 410.083 592.45 410.474 592.601 410.734C592.757 410.99 592.955 411.161 593.194 411.25C593.439 411.333 593.697 411.375 593.968 411.375C594.171 411.375 594.338 411.365 594.468 411.344C594.598 411.318 594.702 411.297 594.78 411.281L595.155 412.937C595.03 412.984 594.856 413.031 594.632 413.078C594.408 413.13 594.124 413.156 593.78 413.156C593.259 413.156 592.749 413.044 592.249 412.82C591.754 412.596 591.343 412.255 591.015 411.797C590.692 411.339 590.53 410.76 590.53 410.062V398.125ZM602.612 413.25C601.456 413.25 600.459 412.995 599.62 412.484C598.787 411.969 598.144 411.25 597.69 410.328C597.243 409.401 597.019 408.323 597.019 407.094C597.019 405.865 597.243 404.781 597.69 403.844C598.144 402.901 598.774 402.167 599.581 401.641C600.394 401.109 601.341 400.844 602.425 400.844C603.05 400.844 603.667 400.948 604.276 401.156C604.886 401.365 605.44 401.703 605.94 402.172C606.44 402.635 606.839 403.25 607.136 404.016C607.433 404.781 607.581 405.724 607.581 406.844V407.625H598.331V406.031H605.706C605.706 405.354 605.571 404.75 605.3 404.219C605.034 403.687 604.654 403.268 604.159 402.961C603.67 402.654 603.091 402.5 602.425 402.5C601.69 402.5 601.055 402.682 600.519 403.047C599.987 403.406 599.578 403.875 599.292 404.453C599.006 405.031 598.862 405.651 598.862 406.312V407.375C598.862 408.281 599.019 409.049 599.331 409.68C599.649 410.305 600.089 410.781 600.651 411.109C601.214 411.432 601.868 411.594 602.612 411.594C603.097 411.594 603.534 411.526 603.925 411.391C604.321 411.25 604.662 411.042 604.948 410.766C605.235 410.484 605.456 410.135 605.612 409.719L607.394 410.219C607.206 410.823 606.891 411.354 606.448 411.812C606.006 412.266 605.459 412.62 604.808 412.875C604.157 413.125 603.425 413.25 602.612 413.25Z" fill="black"/>
<path d="M701.975 413H699.943L705.818 397H707.818L713.693 413H711.662L706.881 399.531H706.756L701.975 413ZM702.725 406.75H710.912V408.469H702.725V406.75ZM720.811 413.25C719.686 413.25 718.717 412.984 717.904 412.453C717.092 411.922 716.467 411.19 716.029 410.258C715.592 409.326 715.373 408.26 715.373 407.062C715.373 405.844 715.597 404.768 716.045 403.836C716.498 402.898 717.128 402.167 717.936 401.641C718.748 401.109 719.696 400.844 720.779 400.844C721.623 400.844 722.383 401 723.061 401.312C723.738 401.625 724.292 402.062 724.725 402.625C725.157 403.187 725.425 403.844 725.529 404.594H723.686C723.545 404.047 723.232 403.562 722.748 403.141C722.269 402.714 721.623 402.5 720.811 402.5C720.092 402.5 719.462 402.687 718.92 403.062C718.383 403.432 717.964 403.956 717.662 404.633C717.365 405.305 717.217 406.094 717.217 407C717.217 407.927 717.363 408.734 717.654 409.422C717.951 410.109 718.368 410.643 718.904 411.023C719.446 411.404 720.081 411.594 720.811 411.594C721.29 411.594 721.725 411.51 722.115 411.344C722.506 411.177 722.837 410.938 723.107 410.625C723.378 410.312 723.571 409.937 723.686 409.5H725.529C725.425 410.208 725.167 410.846 724.756 411.414C724.35 411.977 723.811 412.424 723.139 412.758C722.472 413.086 721.696 413.25 720.811 413.25ZM733.1 413.25C731.975 413.25 731.006 412.984 730.193 412.453C729.381 411.922 728.756 411.19 728.318 410.258C727.881 409.326 727.662 408.26 727.662 407.062C727.662 405.844 727.886 404.768 728.334 403.836C728.787 402.898 729.417 402.167 730.225 401.641C731.037 401.109 731.985 400.844 733.068 400.844C733.912 400.844 734.673 401 735.35 401.312C736.027 401.625 736.581 402.062 737.014 402.625C737.446 403.187 737.714 403.844 737.818 404.594H735.975C735.834 404.047 735.521 403.562 735.037 403.141C734.558 402.714 733.912 402.5 733.1 402.5C732.381 402.5 731.751 402.687 731.209 403.062C730.673 403.432 730.253 403.956 729.951 404.633C729.654 405.305 729.506 406.094 729.506 407C729.506 407.927 729.652 408.734 729.943 409.422C730.24 410.109 730.657 410.643 731.193 411.023C731.735 411.404 732.37 411.594 733.1 411.594C733.579 411.594 734.014 411.51 734.404 411.344C734.795 411.177 735.126 410.938 735.396 410.625C735.667 410.312 735.86 409.937 735.975 409.5H737.818C737.714 410.208 737.456 410.846 737.045 411.414C736.639 411.977 736.1 412.424 735.428 412.758C734.761 413.086 733.985 413.25 733.1 413.25ZM745.545 413.25C744.389 413.25 743.391 412.995 742.553 412.484C741.719 411.969 741.076 411.25 740.623 410.328C740.175 409.401 739.951 408.323 739.951 407.094C739.951 405.865 740.175 404.781 740.623 403.844C741.076 402.901 741.706 402.167 742.514 401.641C743.326 401.109 744.274 400.844 745.357 400.844C745.982 400.844 746.6 400.948 747.209 401.156C747.818 401.365 748.373 401.703 748.873 402.172C749.373 402.635 749.771 403.25 750.068 404.016C750.365 404.781 750.514 405.724 750.514 406.844V407.625H741.264V406.031H748.639C748.639 405.354 748.503 404.75 748.232 404.219C747.967 403.687 747.587 403.268 747.092 402.961C746.602 402.654 746.024 402.5 745.357 402.5C744.623 402.5 743.988 402.682 743.451 403.047C742.92 403.406 742.511 403.875 742.225 404.453C741.938 405.031 741.795 405.651 741.795 406.312V407.375C741.795 408.281 741.951 409.049 742.264 409.68C742.581 410.305 743.021 410.781 743.584 411.109C744.146 411.432 744.8 411.594 745.545 411.594C746.029 411.594 746.467 411.526 746.857 411.391C747.253 411.25 747.594 411.042 747.881 410.766C748.167 410.484 748.389 410.135 748.545 409.719L750.326 410.219C750.139 410.823 749.824 411.354 749.381 411.812C748.938 412.266 748.391 412.62 747.74 412.875C747.089 413.125 746.357 413.25 745.545 413.25ZM761.818 403.687L760.162 404.156C760.058 403.88 759.904 403.612 759.701 403.352C759.503 403.086 759.232 402.867 758.889 402.695C758.545 402.523 758.105 402.437 757.568 402.437C756.834 402.437 756.222 402.607 755.732 402.945C755.248 403.279 755.006 403.703 755.006 404.219C755.006 404.677 755.173 405.039 755.506 405.305C755.839 405.57 756.36 405.792 757.068 405.969L758.85 406.406C759.923 406.667 760.722 407.065 761.248 407.602C761.774 408.133 762.037 408.818 762.037 409.656C762.037 410.344 761.839 410.958 761.443 411.5C761.053 412.042 760.506 412.469 759.803 412.781C759.1 413.094 758.282 413.25 757.35 413.25C756.126 413.25 755.113 412.984 754.311 412.453C753.508 411.922 753.001 411.146 752.787 410.125L754.537 409.687C754.704 410.333 755.019 410.818 755.482 411.141C755.951 411.464 756.563 411.625 757.318 411.625C758.178 411.625 758.86 411.443 759.365 411.078C759.876 410.708 760.131 410.266 760.131 409.75C760.131 409.333 759.985 408.984 759.693 408.703C759.402 408.417 758.954 408.203 758.35 408.062L756.35 407.594C755.251 407.333 754.443 406.93 753.928 406.383C753.417 405.831 753.162 405.141 753.162 404.312C753.162 403.635 753.352 403.036 753.732 402.516C754.118 401.995 754.641 401.586 755.303 401.289C755.969 400.992 756.725 400.844 757.568 400.844C758.756 400.844 759.688 401.104 760.365 401.625C761.048 402.146 761.532 402.833 761.818 403.687ZM773.313 403.687L771.656 404.156C771.552 403.88 771.398 403.612 771.195 403.352C770.997 403.086 770.727 402.867 770.383 402.695C770.039 402.523 769.599 402.437 769.063 402.437C768.328 402.437 767.716 402.607 767.227 402.945C766.742 403.279 766.5 403.703 766.5 404.219C766.5 404.677 766.667 405.039 767 405.305C767.333 405.57 767.854 405.792 768.563 405.969L770.344 406.406C771.417 406.667 772.216 407.065 772.742 407.602C773.268 408.133 773.531 408.818 773.531 409.656C773.531 410.344 773.333 410.958 772.938 411.5C772.547 412.042 772 412.469 771.297 412.781C770.594 413.094 769.776 413.25 768.844 413.25C767.62 413.25 766.607 412.984 765.805 412.453C765.003 411.922 764.495 411.146 764.281 410.125L766.031 409.687C766.198 410.333 766.513 410.818 766.977 411.141C767.445 411.464 768.057 411.625 768.813 411.625C769.672 411.625 770.354 411.443 770.859 411.078C771.37 410.708 771.625 410.266 771.625 409.75C771.625 409.333 771.479 408.984 771.188 408.703C770.896 408.417 770.448 408.203 769.844 408.062L767.844 407.594C766.745 407.333 765.937 406.93 765.422 406.383C764.911 405.831 764.656 405.141 764.656 404.312C764.656 403.635 764.846 403.036 765.227 402.516C765.612 401.995 766.135 401.586 766.797 401.289C767.464 400.992 768.219 400.844 769.063 400.844C770.25 400.844 771.182 401.104 771.859 401.625C772.542 402.146 773.026 402.833 773.313 403.687Z" fill="black"/>
<rect x="268" y="541" width="540" height="46" fill="#4FC2E4"/>
<path d="M873 563.5L806.25 600.306L806.25 526.694L873 563.5Z" fill="#4FC2E4"/>
<path d="M503.209 558.636C503.081 557.557 502.562 556.719 501.653 556.122C500.744 555.526 499.629 555.227 498.308 555.227C497.342 555.227 496.497 555.384 495.773 555.696C495.055 556.009 494.494 556.438 494.089 556.985C493.692 557.532 493.493 558.153 493.493 558.849C493.493 559.432 493.631 559.933 493.908 560.352C494.192 560.763 494.555 561.108 494.995 561.385C495.435 561.655 495.897 561.879 496.38 562.056C496.863 562.227 497.307 562.365 497.711 562.472L499.927 563.068C500.496 563.217 501.128 563.423 501.824 563.686C502.527 563.949 503.198 564.308 503.837 564.762C504.483 565.21 505.016 565.785 505.435 566.488C505.854 567.191 506.064 568.054 506.064 569.077C506.064 570.256 505.755 571.321 505.137 572.273C504.526 573.224 503.631 573.981 502.452 574.542C501.28 575.103 499.856 575.384 498.18 575.384C496.618 575.384 495.265 575.131 494.121 574.627C492.985 574.123 492.09 573.42 491.437 572.518C490.79 571.616 490.425 570.568 490.339 569.375H493.067C493.138 570.199 493.415 570.881 493.898 571.42C494.388 571.953 495.006 572.351 495.751 572.614C496.504 572.869 497.314 572.997 498.18 572.997C499.189 572.997 500.094 572.834 500.897 572.507C501.699 572.173 502.335 571.712 502.804 571.122C503.273 570.526 503.507 569.83 503.507 569.034C503.507 568.31 503.305 567.72 502.9 567.266C502.495 566.811 501.962 566.442 501.302 566.158C500.641 565.874 499.927 565.625 499.16 565.412L496.476 564.645C494.771 564.155 493.422 563.455 492.427 562.546C491.433 561.637 490.936 560.447 490.936 558.977C490.936 557.756 491.266 556.69 491.927 555.781C492.594 554.865 493.489 554.155 494.611 553.651C495.741 553.139 497.001 552.884 498.393 552.884C499.8 552.884 501.05 553.136 502.143 553.64C503.237 554.137 504.104 554.819 504.743 555.685C505.389 556.552 505.73 557.536 505.765 558.636H503.209ZM510.408 575V553.182H513.05V562.898H524.683V553.182H527.325V575H524.683V565.241H513.05V575H510.408ZM533.51 575H530.74L538.751 553.182H541.478L549.49 575H546.72L540.2 556.634H540.029L533.51 575ZM534.532 566.477H545.697V568.821H534.532V566.477ZM552.888 575V553.182H560.26C561.965 553.182 563.364 553.473 564.458 554.055C565.551 554.631 566.361 555.423 566.887 556.431C567.412 557.44 567.675 558.587 567.675 559.872C567.675 561.158 567.412 562.298 566.887 563.292C566.361 564.286 565.555 565.067 564.468 565.636C563.382 566.197 561.993 566.477 560.303 566.477H554.337V564.091H560.218C561.382 564.091 562.32 563.92 563.03 563.58C563.748 563.239 564.266 562.756 564.586 562.131C564.912 561.499 565.076 560.746 565.076 559.872C565.076 558.999 564.912 558.235 564.586 557.582C564.259 556.928 563.737 556.424 563.02 556.069C562.302 555.707 561.354 555.526 560.175 555.526H555.53V575H552.888ZM563.158 565.199L568.527 575H565.459L560.175 565.199H563.158ZM572.078 575V553.182H585.245V555.526H574.72V562.898H584.563V565.241H574.72V572.656H585.416V575H572.078Z" fill="black"/>
<rect width="540" height="46" transform="matrix(-1 0 0 1 868 20)" fill="#23CBA2"/>
<path d="M268 42.5L334.75 79.3061L334.75 5.69392L268 42.5Z" fill="#23CBA2"/>
<path d="M541.991 54H539.221L547.233 32.1818H549.96L557.971 54H555.201L548.681 35.6335H548.511L541.991 54ZM543.014 45.4773H554.179V47.821H543.014V45.4773ZM577.901 39H575.259C575.103 38.2401 574.829 37.5724 574.439 36.9972C574.055 36.4219 573.586 35.9389 573.032 35.5483C572.486 35.1506 571.878 34.8523 571.211 34.6534C570.543 34.4545 569.847 34.3551 569.123 34.3551C567.802 34.3551 566.605 34.6889 565.532 35.3565C564.467 36.0241 563.618 37.0078 562.986 38.3075C562.361 39.6072 562.049 41.2017 562.049 43.0909C562.049 44.9801 562.361 46.5746 562.986 47.8743C563.618 49.174 564.467 50.1577 565.532 50.8253C566.605 51.4929 567.802 51.8267 569.123 51.8267C569.847 51.8267 570.543 51.7273 571.211 51.5284C571.878 51.3295 572.486 51.0348 573.032 50.6442C573.586 50.2464 574.055 49.7599 574.439 49.1847C574.829 48.6023 575.103 47.9347 575.259 47.1818H577.901C577.702 48.2969 577.34 49.2947 576.814 50.1754C576.289 51.0561 575.635 51.8054 574.854 52.4233C574.073 53.0341 573.196 53.4993 572.223 53.8189C571.257 54.1385 570.223 54.2983 569.123 54.2983C567.262 54.2983 565.607 53.8438 564.158 52.9347C562.709 52.0256 561.569 50.733 560.738 49.0568C559.907 47.3807 559.492 45.392 559.492 43.0909C559.492 40.7898 559.907 38.8011 560.738 37.125C561.569 35.4489 562.709 34.1562 564.158 33.2472C565.607 32.3381 567.262 31.8835 569.123 31.8835C570.223 31.8835 571.257 32.0433 572.223 32.3629C573.196 32.6825 574.073 33.1513 574.854 33.7692C575.635 34.38 576.289 35.1257 576.814 36.0064C577.34 36.88 577.702 37.8778 577.901 39ZM599.727 39H597.085C596.929 38.2401 596.655 37.5724 596.265 36.9972C595.881 36.4219 595.413 35.9389 594.859 35.5483C594.312 35.1506 593.704 34.8523 593.037 34.6534C592.369 34.4545 591.673 34.3551 590.949 34.3551C589.628 34.3551 588.431 34.6889 587.359 35.3565C586.293 36.0241 585.445 37.0078 584.812 38.3075C584.187 39.6072 583.875 41.2017 583.875 43.0909C583.875 44.9801 584.187 46.5746 584.812 47.8743C585.445 49.174 586.293 50.1577 587.359 50.8253C588.431 51.4929 589.628 51.8267 590.949 51.8267C591.673 51.8267 592.369 51.7273 593.037 51.5284C593.704 51.3295 594.312 51.0348 594.859 50.6442C595.413 50.2464 595.881 49.7599 596.265 49.1847C596.655 48.6023 596.929 47.9347 597.085 47.1818H599.727C599.528 48.2969 599.166 49.2947 598.641 50.1754C598.115 51.0561 597.462 51.8054 596.68 52.4233C595.899 53.0341 595.022 53.4993 594.049 53.8189C593.083 54.1385 592.05 54.2983 590.949 54.2983C589.088 54.2983 587.433 53.8438 585.984 52.9347C584.535 52.0256 583.396 50.733 582.565 49.0568C581.734 47.3807 581.318 45.392 581.318 43.0909C581.318 40.7898 581.734 38.8011 582.565 37.125C583.396 35.4489 584.535 34.1562 585.984 33.2472C587.433 32.3381 589.088 31.8835 590.949 31.8835C592.05 31.8835 593.083 32.0433 594.049 32.3629C595.022 32.6825 595.899 33.1513 596.68 33.7692C597.462 34.38 598.115 35.1257 598.641 36.0064C599.166 36.88 599.528 37.8778 599.727 39ZM603.997 54V32.1818H617.164V34.5256H606.639V41.8977H616.482V44.2415H606.639V51.6562H617.335V54H603.997ZM633.858 37.6364C633.73 36.5568 633.212 35.7188 632.303 35.1222C631.394 34.5256 630.278 34.2273 628.957 34.2273C627.992 34.2273 627.146 34.3835 626.422 34.696C625.705 35.0085 625.144 35.4382 624.739 35.9851C624.341 36.532 624.142 37.1534 624.142 37.8494C624.142 38.4318 624.281 38.9325 624.558 39.3516C624.842 39.7635 625.204 40.108 625.644 40.3849C626.085 40.6548 626.546 40.8786 627.029 41.0561C627.512 41.2266 627.956 41.3651 628.361 41.4716L630.577 42.0682C631.145 42.2173 631.777 42.4233 632.473 42.6861C633.176 42.9489 633.847 43.3075 634.487 43.7621C635.133 44.2095 635.666 44.7848 636.085 45.4879C636.504 46.1911 636.713 47.054 636.713 48.0767C636.713 49.2557 636.404 50.321 635.786 51.2727C635.176 52.2244 634.281 52.9808 633.102 53.5419C631.93 54.103 630.506 54.3835 628.83 54.3835C627.267 54.3835 625.914 54.1314 624.771 53.6271C623.634 53.1229 622.739 52.4197 622.086 51.5178C621.44 50.6158 621.074 49.5682 620.989 48.375H623.716C623.787 49.1989 624.064 49.8807 624.547 50.4205C625.037 50.9531 625.655 51.3509 626.401 51.6136C627.153 51.8693 627.963 51.9972 628.83 51.9972C629.838 51.9972 630.744 51.8338 631.546 51.5071C632.349 51.1733 632.984 50.7116 633.453 50.1222C633.922 49.5256 634.156 48.8295 634.156 48.0341C634.156 47.3097 633.954 46.7202 633.549 46.2656C633.144 45.8111 632.612 45.4418 631.951 45.1577C631.291 44.8736 630.577 44.625 629.81 44.4119L627.125 43.6449C625.421 43.1548 624.071 42.4553 623.077 41.5462C622.082 40.6371 621.585 39.4474 621.585 37.9773C621.585 36.7557 621.916 35.6903 622.576 34.7812C623.244 33.8651 624.139 33.1548 625.261 32.6506C626.39 32.1392 627.651 31.8835 629.043 31.8835C630.449 31.8835 631.699 32.1357 632.793 32.6399C633.886 33.1371 634.753 33.8189 635.392 34.6854C636.038 35.5518 636.379 36.5355 636.415 37.6364H633.858ZM652.989 37.6364C652.861 36.5568 652.343 35.7188 651.434 35.1222C650.524 34.5256 649.409 34.2273 648.088 34.2273C647.122 34.2273 646.277 34.3835 645.553 34.696C644.835 35.0085 644.274 35.4382 643.87 35.9851C643.472 36.532 643.273 37.1534 643.273 37.8494C643.273 38.4318 643.411 38.9325 643.688 39.3516C643.973 39.7635 644.335 40.108 644.775 40.3849C645.215 40.6548 645.677 40.8786 646.16 41.0561C646.643 41.2266 647.087 41.3651 647.492 41.4716L649.708 42.0682C650.276 42.2173 650.908 42.4233 651.604 42.6861C652.307 42.9489 652.978 43.3075 653.617 43.7621C654.264 44.2095 654.796 44.7848 655.215 45.4879C655.635 46.1911 655.844 47.054 655.844 48.0767C655.844 49.2557 655.535 50.321 654.917 51.2727C654.306 52.2244 653.411 52.9808 652.233 53.5419C651.061 54.103 649.637 54.3835 647.96 54.3835C646.398 54.3835 645.045 54.1314 643.902 53.6271C642.765 53.1229 641.87 52.4197 641.217 51.5178C640.571 50.6158 640.205 49.5682 640.12 48.375H642.847C642.918 49.1989 643.195 49.8807 643.678 50.4205C644.168 50.9531 644.786 51.3509 645.532 51.6136C646.284 51.8693 647.094 51.9972 647.96 51.9972C648.969 51.9972 649.875 51.8338 650.677 51.5071C651.48 51.1733 652.115 50.7116 652.584 50.1222C653.053 49.5256 653.287 48.8295 653.287 48.0341C653.287 47.3097 653.085 46.7202 652.68 46.2656C652.275 45.8111 651.742 45.4418 651.082 45.1577C650.421 44.8736 649.708 44.625 648.941 44.4119L646.256 43.6449C644.551 43.1548 643.202 42.4553 642.208 41.5462C641.213 40.6371 640.716 39.4474 640.716 37.9773C640.716 36.7557 641.046 35.6903 641.707 34.7812C642.375 33.8651 643.269 33.1548 644.392 32.6506C645.521 32.1392 646.782 31.8835 648.174 31.8835C649.58 31.8835 650.83 32.1357 651.924 32.6399C653.017 33.1371 653.884 33.8189 654.523 34.6854C655.169 35.5518 655.51 36.5355 655.546 37.6364H652.989Z" fill="black"/>
<rect x="47" y="154" width="192.778" height="104" rx="35" fill="#4FC2E4"/>
<path d="M113.125 187.874C113.027 187.047 112.629 186.404 111.932 185.947C111.235 185.49 110.38 185.261 109.368 185.261C108.627 185.261 107.979 185.381 107.424 185.62C106.874 185.86 106.444 186.189 106.133 186.608C105.828 187.028 105.676 187.504 105.676 188.038C105.676 188.484 105.782 188.868 105.994 189.189C106.212 189.505 106.49 189.769 106.828 189.982C107.165 190.189 107.519 190.36 107.889 190.496C108.26 190.627 108.6 190.733 108.91 190.815L110.609 191.272C111.045 191.387 111.529 191.544 112.063 191.746C112.602 191.947 113.117 192.222 113.607 192.571C114.102 192.914 114.511 193.355 114.832 193.894C115.153 194.433 115.314 195.095 115.314 195.879C115.314 196.783 115.077 197.599 114.603 198.329C114.135 199.059 113.449 199.639 112.545 200.069C111.646 200.499 110.555 200.714 109.27 200.714C108.072 200.714 107.034 200.521 106.158 200.134C105.287 199.747 104.601 199.208 104.1 198.517C103.604 197.825 103.324 197.022 103.258 196.107H105.349C105.404 196.739 105.616 197.262 105.986 197.676C106.362 198.084 106.836 198.389 107.407 198.59C107.985 198.786 108.605 198.884 109.27 198.884C110.043 198.884 110.737 198.759 111.352 198.509C111.968 198.253 112.455 197.899 112.814 197.447C113.174 196.99 113.353 196.456 113.353 195.846C113.353 195.291 113.198 194.839 112.888 194.49C112.578 194.142 112.169 193.859 111.663 193.641C111.156 193.423 110.609 193.232 110.021 193.069L107.963 192.481C106.656 192.105 105.621 191.569 104.859 190.872C104.097 190.175 103.716 189.263 103.716 188.136C103.716 187.199 103.969 186.383 104.475 185.686C104.987 184.983 105.673 184.439 106.534 184.052C107.399 183.66 108.366 183.464 109.433 183.464C110.511 183.464 111.469 183.657 112.308 184.044C113.147 184.425 113.811 184.948 114.301 185.612C114.796 186.276 115.058 187.03 115.085 187.874H113.125ZM123.643 200.681C122.434 200.681 121.391 200.414 120.514 199.881C119.643 199.342 118.971 198.59 118.497 197.627C118.029 196.657 117.795 195.53 117.795 194.245C117.795 192.96 118.029 191.828 118.497 190.847C118.971 189.862 119.63 189.094 120.474 188.544C121.323 187.989 122.314 187.711 123.447 187.711C124.1 187.711 124.745 187.82 125.382 188.038C126.019 188.256 126.599 188.61 127.122 189.1C127.645 189.584 128.061 190.227 128.372 191.027C128.682 191.828 128.837 192.813 128.837 193.984V194.801H119.167V193.134H126.877C126.877 192.427 126.735 191.795 126.452 191.24C126.175 190.684 125.777 190.246 125.26 189.925C124.748 189.603 124.144 189.443 123.447 189.443C122.679 189.443 122.015 189.633 121.454 190.014C120.898 190.39 120.471 190.88 120.171 191.485C119.872 192.089 119.722 192.737 119.722 193.428V194.539C119.722 195.487 119.886 196.29 120.212 196.949C120.544 197.602 121.004 198.1 121.593 198.443C122.181 198.781 122.864 198.95 123.643 198.95C124.149 198.95 124.606 198.879 125.015 198.737C125.429 198.59 125.785 198.373 126.085 198.084C126.384 197.79 126.616 197.425 126.779 196.99L128.641 197.512C128.445 198.144 128.116 198.699 127.653 199.178C127.19 199.652 126.618 200.022 125.938 200.289C125.257 200.551 124.492 200.681 123.643 200.681ZM131.769 200.42V187.874H133.632V189.769H133.762C133.991 189.149 134.405 188.645 135.004 188.258C135.603 187.872 136.278 187.678 137.029 187.678C137.171 187.678 137.348 187.681 137.56 187.687C137.773 187.692 137.933 187.7 138.042 187.711V189.671C137.977 189.655 137.827 189.631 137.593 189.598C137.364 189.56 137.122 189.541 136.866 189.541C136.256 189.541 135.712 189.669 135.232 189.925C134.759 190.175 134.383 190.523 134.105 190.97C133.833 191.411 133.697 191.915 133.697 192.481V200.42H131.769ZM150.967 187.874L146.328 200.42H144.368L139.729 187.874H141.82L145.283 197.872H145.413L148.876 187.874H150.967ZM153.512 200.42V187.874H155.439V200.42H153.512ZM154.492 185.784C154.116 185.784 153.792 185.656 153.52 185.4C153.253 185.144 153.12 184.836 153.12 184.477C153.12 184.117 153.253 183.81 153.52 183.554C153.792 183.298 154.116 183.17 154.492 183.17C154.867 183.17 155.189 183.298 155.455 183.554C155.728 183.81 155.864 184.117 155.864 184.477C155.864 184.836 155.728 185.144 155.455 185.4C155.189 185.656 154.867 185.784 154.492 185.784ZM164.066 200.681C162.89 200.681 161.877 200.404 161.028 199.848C160.178 199.293 159.525 198.528 159.068 197.553C158.61 196.578 158.382 195.465 158.382 194.213C158.382 192.938 158.616 191.814 159.084 190.839C159.558 189.859 160.217 189.094 161.061 188.544C161.91 187.989 162.901 187.711 164.034 187.711C164.916 187.711 165.711 187.874 166.418 188.201C167.126 188.528 167.706 188.985 168.158 189.573C168.61 190.161 168.891 190.847 168.999 191.632H167.072C166.925 191.06 166.598 190.553 166.092 190.112C165.591 189.666 164.916 189.443 164.066 189.443C163.315 189.443 162.656 189.639 162.09 190.031C161.529 190.417 161.09 190.965 160.775 191.672C160.464 192.375 160.309 193.2 160.309 194.147C160.309 195.116 160.462 195.96 160.766 196.679C161.077 197.398 161.512 197.956 162.073 198.354C162.64 198.751 163.304 198.95 164.066 198.95C164.567 198.95 165.022 198.863 165.43 198.688C165.839 198.514 166.184 198.264 166.467 197.937C166.751 197.61 166.952 197.218 167.072 196.761H168.999C168.891 197.501 168.621 198.168 168.191 198.762C167.766 199.35 167.203 199.818 166.5 200.167C165.803 200.51 164.992 200.681 164.066 200.681ZM177.077 200.681C175.868 200.681 174.826 200.414 173.949 199.881C173.078 199.342 172.405 198.59 171.932 197.627C171.463 196.657 171.229 195.53 171.229 194.245C171.229 192.96 171.463 191.828 171.932 190.847C172.405 189.862 173.064 189.094 173.908 188.544C174.758 187.989 175.749 187.711 176.881 187.711C177.535 187.711 178.18 187.82 178.817 188.038C179.454 188.256 180.034 188.61 180.557 189.1C181.079 189.584 181.496 190.227 181.806 191.027C182.117 191.828 182.272 192.813 182.272 193.984V194.801H172.601V193.134H180.312C180.312 192.427 180.17 191.795 179.887 191.24C179.609 190.684 179.212 190.246 178.694 189.925C178.183 189.603 177.578 189.443 176.881 189.443C176.113 189.443 175.449 189.633 174.888 190.014C174.333 190.39 173.905 190.88 173.606 191.485C173.306 192.089 173.157 192.737 173.157 193.428V194.539C173.157 195.487 173.32 196.29 173.647 196.949C173.979 197.602 174.439 198.1 175.027 198.443C175.615 198.781 176.299 198.95 177.077 198.95C177.584 198.95 178.041 198.879 178.449 198.737C178.863 198.59 179.22 198.373 179.519 198.084C179.819 197.79 180.05 197.425 180.214 196.99L182.076 197.512C181.88 198.144 181.55 198.699 181.087 199.178C180.625 199.652 180.053 200.022 179.372 200.289C178.692 200.551 177.927 200.681 177.077 200.681ZM87.36 220.873V228.42H85.4325V211.693H87.36V217.835H87.5234C87.8174 217.187 88.2585 216.672 88.8465 216.291C89.4401 215.904 90.2296 215.711 91.2152 215.711C92.07 215.711 92.8187 215.883 93.4613 216.226C94.1038 216.563 94.602 217.083 94.9559 217.786C95.3153 218.483 95.495 219.37 95.495 220.448V228.42H93.5674V220.579C93.5674 219.583 93.3088 218.812 92.7915 218.268C92.2797 217.718 91.5691 217.443 90.6598 217.443C90.0281 217.443 89.4618 217.576 88.9609 217.843C88.4654 218.11 88.0733 218.499 87.7848 219.011C87.5016 219.523 87.36 220.143 87.36 220.873ZM104.118 228.681C102.985 228.681 101.992 228.412 101.137 227.873C100.287 227.334 99.623 226.579 99.1439 225.61C98.6701 224.641 98.4333 223.508 98.4333 222.213C98.4333 220.906 98.6701 219.765 99.1439 218.79C99.623 217.816 100.287 217.059 101.137 216.52C101.992 215.981 102.985 215.711 104.118 215.711C105.251 215.711 106.242 215.981 107.091 216.52C107.946 217.059 108.61 217.816 109.084 218.79C109.563 219.765 109.803 220.906 109.803 222.213C109.803 223.508 109.563 224.641 109.084 225.61C108.61 226.579 107.946 227.334 107.091 227.873C106.242 228.412 105.251 228.681 104.118 228.681ZM104.118 226.95C104.978 226.95 105.686 226.729 106.242 226.288C106.797 225.847 107.208 225.267 107.475 224.548C107.742 223.83 107.875 223.051 107.875 222.213C107.875 221.374 107.742 220.593 107.475 219.868C107.208 219.144 106.797 218.559 106.242 218.112C105.686 217.666 104.978 217.443 104.118 217.443C103.258 217.443 102.55 217.666 101.994 218.112C101.439 218.559 101.028 219.144 100.761 219.868C100.494 220.593 100.361 221.374 100.361 222.213C100.361 223.051 100.494 223.83 100.761 224.548C101.028 225.267 101.439 225.847 101.994 226.288C102.55 226.729 103.258 226.95 104.118 226.95ZM121.631 218.684L119.9 219.174C119.791 218.886 119.63 218.605 119.418 218.333C119.211 218.055 118.928 217.827 118.568 217.647C118.209 217.467 117.749 217.377 117.188 217.377C116.42 217.377 115.781 217.554 115.269 217.908C114.762 218.257 114.509 218.7 114.509 219.24C114.509 219.719 114.683 220.097 115.032 220.375C115.38 220.653 115.925 220.884 116.665 221.069L118.528 221.526C119.649 221.799 120.485 222.215 121.035 222.776C121.585 223.331 121.86 224.048 121.86 224.924C121.86 225.643 121.653 226.285 121.239 226.852C120.831 227.418 120.259 227.865 119.524 228.191C118.789 228.518 117.934 228.681 116.959 228.681C115.68 228.681 114.621 228.404 113.782 227.848C112.944 227.293 112.413 226.481 112.19 225.414L114.019 224.957C114.193 225.632 114.523 226.138 115.007 226.476C115.497 226.814 116.137 226.982 116.927 226.982C117.825 226.982 118.539 226.792 119.067 226.411C119.6 226.024 119.867 225.561 119.867 225.022C119.867 224.587 119.715 224.222 119.41 223.928C119.105 223.628 118.637 223.405 118.005 223.258L115.914 222.768C114.765 222.496 113.921 222.074 113.382 221.502C112.848 220.925 112.582 220.203 112.582 219.338C112.582 218.63 112.78 218.003 113.178 217.459C113.581 216.914 114.128 216.487 114.82 216.177C115.517 215.866 116.306 215.711 117.188 215.711C118.43 215.711 119.404 215.983 120.112 216.528C120.825 217.072 121.332 217.791 121.631 218.684ZM130.218 215.874V217.508H123.716V215.874H130.218ZM125.611 212.869H127.539V224.826C127.539 225.371 127.618 225.779 127.775 226.051C127.939 226.318 128.146 226.498 128.396 226.59C128.652 226.677 128.922 226.721 129.205 226.721C129.417 226.721 129.591 226.71 129.727 226.688C129.864 226.661 129.973 226.639 130.054 226.623L130.446 228.355C130.316 228.404 130.133 228.453 129.899 228.502C129.665 228.556 129.368 228.583 129.009 228.583C128.464 228.583 127.931 228.466 127.408 228.232C126.891 227.998 126.46 227.641 126.117 227.162C125.78 226.683 125.611 226.079 125.611 225.349V212.869ZM134.522 228.551C134.119 228.551 133.773 228.406 133.485 228.118C133.196 227.829 133.052 227.483 133.052 227.08C133.052 226.677 133.196 226.332 133.485 226.043C133.773 225.755 134.119 225.61 134.522 225.61C134.925 225.61 135.271 225.755 135.559 226.043C135.848 226.332 135.992 226.677 135.992 227.08C135.992 227.347 135.924 227.592 135.788 227.816C135.657 228.039 135.48 228.218 135.257 228.355C135.039 228.485 134.794 228.551 134.522 228.551ZM134.522 219.24C134.119 219.24 133.773 219.095 133.485 218.807C133.196 218.518 133.052 218.172 133.052 217.769C133.052 217.366 133.196 217.021 133.485 216.732C133.773 216.443 134.119 216.299 134.522 216.299C134.925 216.299 135.271 216.443 135.559 216.732C135.848 217.021 135.992 217.366 135.992 217.769C135.992 218.036 135.924 218.281 135.788 218.504C135.657 218.728 135.48 218.907 135.257 219.044C135.039 219.174 134.794 219.24 134.522 219.24ZM139.451 233.124V215.874H141.313V217.867H141.542C141.684 217.65 141.88 217.372 142.13 217.034C142.386 216.691 142.751 216.386 143.224 216.119C143.704 215.847 144.352 215.711 145.168 215.711C146.225 215.711 147.156 215.975 147.962 216.503C148.768 217.032 149.396 217.78 149.848 218.749C150.3 219.719 150.526 220.862 150.526 222.18C150.526 223.508 150.3 224.66 149.848 225.635C149.396 226.604 148.77 227.355 147.97 227.889C147.169 228.417 146.246 228.681 145.201 228.681C144.395 228.681 143.75 228.548 143.265 228.281C142.781 228.009 142.408 227.701 142.146 227.358C141.885 227.01 141.684 226.721 141.542 226.492H141.379V233.124H139.451ZM141.346 222.147C141.346 223.095 141.485 223.93 141.762 224.655C142.04 225.373 142.446 225.937 142.979 226.345C143.513 226.748 144.166 226.95 144.94 226.95C145.746 226.95 146.418 226.737 146.957 226.313C147.502 225.883 147.91 225.305 148.182 224.581C148.46 223.852 148.599 223.04 148.599 222.147C148.599 221.265 148.463 220.47 148.19 219.762C147.924 219.049 147.518 218.485 146.973 218.072C146.434 217.652 145.756 217.443 144.94 217.443C144.156 217.443 143.497 217.641 142.963 218.039C142.429 218.431 142.027 218.981 141.754 219.689C141.482 220.391 141.346 221.211 141.346 222.147ZM158.563 228.681C157.431 228.681 156.437 228.412 155.582 227.873C154.733 227.334 154.068 226.579 153.589 225.61C153.115 224.641 152.879 223.508 152.879 222.213C152.879 220.906 153.115 219.765 153.589 218.79C154.068 217.816 154.733 217.059 155.582 216.52C156.437 215.981 157.431 215.711 158.563 215.711C159.696 215.711 160.687 215.981 161.536 216.52C162.391 217.059 163.055 217.816 163.529 218.79C164.008 219.765 164.248 220.906 164.248 222.213C164.248 223.508 164.008 224.641 163.529 225.61C163.055 226.579 162.391 227.334 161.536 227.873C160.687 228.412 159.696 228.681 158.563 228.681ZM158.563 226.95C159.424 226.95 160.131 226.729 160.687 226.288C161.242 225.847 161.653 225.267 161.92 224.548C162.187 223.83 162.32 223.051 162.32 222.213C162.32 221.374 162.187 220.593 161.92 219.868C161.653 219.144 161.242 218.559 160.687 218.112C160.131 217.666 159.424 217.443 158.563 217.443C157.703 217.443 156.995 217.666 156.44 218.112C155.884 218.559 155.473 219.144 155.206 219.868C154.94 220.593 154.806 221.374 154.806 222.213C154.806 223.051 154.94 223.83 155.206 224.548C155.473 225.267 155.884 225.847 156.44 226.288C156.995 226.729 157.703 226.95 158.563 226.95ZM167.19 228.42V215.874H169.053V217.769H169.183C169.412 217.149 169.826 216.645 170.425 216.258C171.024 215.872 171.699 215.678 172.45 215.678C172.592 215.678 172.769 215.681 172.981 215.687C173.193 215.692 173.354 215.7 173.463 215.711V217.671C173.398 217.655 173.248 217.631 173.014 217.598C172.785 217.56 172.543 217.541 172.287 217.541C171.677 217.541 171.133 217.669 170.653 217.925C170.18 218.175 169.804 218.523 169.526 218.97C169.254 219.411 169.118 219.915 169.118 220.481V228.42H167.19ZM181.99 215.874V217.508H175.489V215.874H181.99ZM177.383 212.869H179.311V224.826C179.311 225.371 179.39 225.779 179.548 226.051C179.711 226.318 179.918 226.498 180.169 226.59C180.425 226.677 180.694 226.721 180.977 226.721C181.19 226.721 181.364 226.71 181.5 226.688C181.636 226.661 181.745 226.639 181.827 226.623L182.219 228.355C182.088 228.404 181.906 228.453 181.671 228.502C181.437 228.556 181.141 228.583 180.781 228.583C180.237 228.583 179.703 228.466 179.18 228.232C178.663 227.998 178.233 227.641 177.89 227.162C177.552 226.683 177.383 226.079 177.383 225.349V212.869ZM193.547 228.42V230.217H183.093V228.42H193.547ZM198.644 211.693V228.42H196.618V213.816H196.52L192.436 216.528V214.47L196.618 211.693H198.644Z" fill="black"/>
<path d="M44.0165 141H243.283C249.463 141 254.487 145.011 254.487 149.943V264.255C254.487 269.187 249.463 273.198 243.283 273.198H44.0165C37.837 273.198 32.8125 269.187 32.8125 264.255V149.943C32.8125 145.011 37.837 141 44.0165 141ZM243.283 147.126H44.0165C42.0854 147.126 40.4874 148.402 40.4874 149.943V264.255C40.4874 265.796 42.0854 267.072 44.0165 267.072H243.283C245.214 267.072 246.812 265.796 246.812 264.255V149.943C246.812 148.402 245.214 147.126 243.283 147.126Z" fill="#4FC2E4"/>
<path d="M256.594 279.287L288.282 327.59C286.482 332.6 284.406 337.04 278.779 338.291H9.28368C3.39819 336.679 -0.506552 332.335 0.0532782 326.006L30.6926 279.287L256.594 279.287ZM252.463 286.966H34.8274L7.7421 328.256C8.4614 329.202 9.36849 329.964 10.3535 330.616H277.804C278.63 330.07 279.215 329.323 279.693 328.469L252.463 286.966Z" fill="#4FC2E4"/>
<path fill-rule="evenodd" clip-rule="evenodd" d="M36.6495 291.129H250.646L260.284 313.066H27.0117L36.6495 291.129Z" fill="#4FC2E4"/>
<rect x="916" y="156" width="198" height="104" rx="35" fill="#4FC2E4"/>
<path d="M985.429 187.455C985.331 186.627 984.934 185.984 984.237 185.527C983.54 185.07 982.685 184.841 981.672 184.841C980.932 184.841 980.284 184.961 979.728 185.2C979.178 185.44 978.748 185.769 978.438 186.189C978.133 186.608 977.98 187.084 977.98 187.618C977.98 188.064 978.086 188.448 978.299 188.77C978.517 189.085 978.794 189.349 979.132 189.562C979.47 189.769 979.823 189.94 980.194 190.076C980.564 190.207 980.904 190.313 981.215 190.395L982.914 190.852C983.349 190.967 983.834 191.125 984.367 191.326C984.906 191.527 985.421 191.802 985.911 192.151C986.407 192.494 986.815 192.935 987.136 193.474C987.457 194.013 987.618 194.675 987.618 195.459C987.618 196.363 987.381 197.179 986.907 197.909C986.439 198.639 985.753 199.219 984.849 199.649C983.951 200.079 982.859 200.294 981.574 200.294C980.376 200.294 979.339 200.101 978.462 199.714C977.591 199.328 976.905 198.788 976.404 198.097C975.908 197.405 975.628 196.602 975.563 195.688H977.654C977.708 196.319 977.92 196.842 978.291 197.256C978.666 197.664 979.14 197.969 979.712 198.17C980.289 198.366 980.91 198.464 981.574 198.464C982.347 198.464 983.041 198.339 983.657 198.089C984.272 197.833 984.759 197.479 985.119 197.027C985.478 196.57 985.658 196.036 985.658 195.426C985.658 194.871 985.503 194.419 985.192 194.07C984.882 193.722 984.474 193.439 983.967 193.221C983.461 193.003 982.914 192.812 982.325 192.649L980.267 192.061C978.96 191.685 977.926 191.149 977.164 190.452C976.401 189.755 976.02 188.843 976.02 187.716C976.02 186.779 976.273 185.963 976.78 185.266C977.291 184.563 977.978 184.019 978.838 183.632C979.704 183.24 980.67 183.044 981.737 183.044C982.816 183.044 983.774 183.237 984.612 183.624C985.451 184.005 986.115 184.528 986.605 185.192C987.101 185.856 987.362 186.611 987.389 187.455H985.429ZM995.947 200.261C994.738 200.261 993.695 199.995 992.819 199.461C991.948 198.922 991.275 198.17 990.801 197.207C990.333 196.237 990.099 195.11 990.099 193.825C990.099 192.54 990.333 191.408 990.801 190.428C991.275 189.442 991.934 188.674 992.778 188.124C993.627 187.569 994.618 187.291 995.751 187.291C996.404 187.291 997.05 187.4 997.687 187.618C998.324 187.836 998.904 188.19 999.426 188.68C999.949 189.164 1000.37 189.807 1000.68 190.607C1000.99 191.408 1001.14 192.393 1001.14 193.564V194.381H991.471V192.714H999.181C999.181 192.007 999.04 191.375 998.757 190.82C998.479 190.264 998.081 189.826 997.564 189.505C997.052 189.183 996.448 189.023 995.751 189.023C994.983 189.023 994.319 189.213 993.758 189.594C993.203 189.97 992.775 190.46 992.476 191.065C992.176 191.669 992.027 192.317 992.027 193.009V194.119C992.027 195.067 992.19 195.87 992.517 196.529C992.849 197.182 993.309 197.68 993.897 198.023C994.485 198.361 995.168 198.53 995.947 198.53C996.453 198.53 996.911 198.459 997.319 198.317C997.733 198.17 998.09 197.953 998.389 197.664C998.689 197.37 998.92 197.005 999.083 196.57L1000.95 197.092C1000.75 197.724 1000.42 198.279 999.957 198.759C999.494 199.232 998.923 199.603 998.242 199.869C997.561 200.131 996.796 200.261 995.947 200.261ZM1004.07 200V187.455H1005.94V189.349H1006.07C1006.3 188.729 1006.71 188.225 1007.31 187.838C1007.91 187.452 1008.58 187.259 1009.33 187.259C1009.48 187.259 1009.65 187.261 1009.86 187.267C1010.08 187.272 1010.24 187.28 1010.35 187.291V189.251C1010.28 189.235 1010.13 189.211 1009.9 189.178C1009.67 189.14 1009.43 189.121 1009.17 189.121C1008.56 189.121 1008.02 189.249 1007.54 189.505C1007.06 189.755 1006.69 190.104 1006.41 190.55C1006.14 190.991 1006 191.495 1006 192.061V200H1004.07ZM1023.27 187.455L1018.63 200H1016.67L1012.03 187.455H1014.12L1017.59 197.452H1017.72L1021.18 187.455H1023.27ZM1025.82 200V187.455H1027.74V200H1025.82ZM1026.8 185.364C1026.42 185.364 1026.1 185.236 1025.82 184.98C1025.56 184.724 1025.42 184.416 1025.42 184.057C1025.42 183.697 1025.56 183.39 1025.82 183.134C1026.1 182.878 1026.42 182.75 1026.8 182.75C1027.17 182.75 1027.49 182.878 1027.76 183.134C1028.03 183.39 1028.17 183.697 1028.17 184.057C1028.17 184.416 1028.03 184.724 1027.76 184.98C1027.49 185.236 1027.17 185.364 1026.8 185.364ZM1036.37 200.261C1035.19 200.261 1034.18 199.984 1033.33 199.428C1032.48 198.873 1031.83 198.108 1031.37 197.133C1030.91 196.158 1030.69 195.045 1030.69 193.793C1030.69 192.518 1030.92 191.394 1031.39 190.419C1031.86 189.439 1032.52 188.674 1033.36 188.124C1034.21 187.569 1035.21 187.291 1036.34 187.291C1037.22 187.291 1038.01 187.455 1038.72 187.781C1039.43 188.108 1040.01 188.565 1040.46 189.153C1040.91 189.741 1041.19 190.428 1041.3 191.212H1039.38C1039.23 190.64 1038.9 190.134 1038.4 189.692C1037.9 189.246 1037.22 189.023 1036.37 189.023C1035.62 189.023 1034.96 189.219 1034.39 189.611C1033.83 189.997 1033.39 190.545 1033.08 191.252C1032.77 191.955 1032.61 192.78 1032.61 193.727C1032.61 194.696 1032.77 195.54 1033.07 196.259C1033.38 196.978 1033.82 197.536 1034.38 197.934C1034.94 198.331 1035.61 198.53 1036.37 198.53C1036.87 198.53 1037.33 198.443 1037.73 198.268C1038.14 198.094 1038.49 197.844 1038.77 197.517C1039.05 197.19 1039.26 196.798 1039.38 196.341H1041.3C1041.19 197.081 1040.93 197.748 1040.5 198.342C1040.07 198.93 1039.51 199.398 1038.8 199.747C1038.11 200.09 1037.3 200.261 1036.37 200.261ZM1049.38 200.261C1048.17 200.261 1047.13 199.995 1046.25 199.461C1045.38 198.922 1044.71 198.17 1044.24 197.207C1043.77 196.237 1043.53 195.11 1043.53 193.825C1043.53 192.54 1043.77 191.408 1044.24 190.428C1044.71 189.442 1045.37 188.674 1046.21 188.124C1047.06 187.569 1048.05 187.291 1049.19 187.291C1049.84 187.291 1050.48 187.4 1051.12 187.618C1051.76 187.836 1052.34 188.19 1052.86 188.68C1053.38 189.164 1053.8 189.807 1054.11 190.607C1054.42 191.408 1054.58 192.393 1054.58 193.564V194.381H1044.91V192.714H1052.62C1052.62 192.007 1052.47 191.375 1052.19 190.82C1051.91 190.264 1051.52 189.826 1051 189.505C1050.49 189.183 1049.88 189.023 1049.19 189.023C1048.42 189.023 1047.75 189.213 1047.19 189.594C1046.64 189.97 1046.21 190.46 1045.91 191.065C1045.61 191.669 1045.46 192.317 1045.46 193.009V194.119C1045.46 195.067 1045.62 195.87 1045.95 196.529C1046.28 197.182 1046.74 197.68 1047.33 198.023C1047.92 198.361 1048.6 198.53 1049.38 198.53C1049.89 198.53 1050.35 198.459 1050.75 198.317C1051.17 198.17 1051.52 197.953 1051.82 197.664C1052.12 197.37 1052.35 197.005 1052.52 196.57L1054.38 197.092C1054.18 197.724 1053.85 198.279 1053.39 198.759C1052.93 199.232 1052.36 199.603 1051.68 199.869C1051 200.131 1050.23 200.261 1049.38 200.261ZM931.577 211.273V228H929.649V211.273H931.577ZM940.204 228.261C939.071 228.261 938.078 227.992 937.223 227.453C936.373 226.914 935.709 226.16 935.23 225.19C934.756 224.221 934.519 223.089 934.519 221.793C934.519 220.486 934.756 219.345 935.23 218.37C935.709 217.396 936.373 216.639 937.223 216.1C938.078 215.561 939.071 215.291 940.204 215.291C941.337 215.291 942.328 215.561 943.177 216.1C944.032 216.639 944.696 217.396 945.17 218.37C945.649 219.345 945.889 220.486 945.889 221.793C945.889 223.089 945.649 224.221 945.17 225.19C944.696 226.16 944.032 226.914 943.177 227.453C942.328 227.992 941.337 228.261 940.204 228.261ZM940.204 226.53C941.064 226.53 941.772 226.309 942.328 225.868C942.883 225.427 943.294 224.847 943.561 224.129C943.828 223.41 943.961 222.631 943.961 221.793C943.961 220.954 943.828 220.173 943.561 219.449C943.294 218.724 942.883 218.139 942.328 217.692C941.772 217.246 941.064 217.023 940.204 217.023C939.344 217.023 938.636 217.246 938.08 217.692C937.525 218.139 937.114 218.724 936.847 219.449C936.58 220.173 936.447 220.954 936.447 221.793C936.447 222.631 936.58 223.41 936.847 224.129C937.114 224.847 937.525 225.427 938.08 225.868C938.636 226.309 939.344 226.53 940.204 226.53ZM953.928 228.261C952.752 228.261 951.739 227.984 950.889 227.428C950.04 226.873 949.386 226.108 948.929 225.133C948.472 224.158 948.243 223.045 948.243 221.793C948.243 220.518 948.477 219.394 948.945 218.419C949.419 217.439 950.078 216.674 950.922 216.124C951.771 215.569 952.762 215.291 953.895 215.291C954.777 215.291 955.572 215.455 956.28 215.781C956.988 216.108 957.568 216.565 958.02 217.153C958.472 217.741 958.752 218.428 958.861 219.212H956.933C956.786 218.64 956.46 218.134 955.953 217.692C955.452 217.246 954.777 217.023 953.928 217.023C953.176 217.023 952.517 217.219 951.951 217.611C951.39 217.997 950.952 218.545 950.636 219.252C950.326 219.955 950.171 220.78 950.171 221.727C950.171 222.696 950.323 223.54 950.628 224.259C950.938 224.978 951.374 225.536 951.935 225.934C952.501 226.331 953.165 226.53 953.928 226.53C954.429 226.53 954.883 226.443 955.292 226.268C955.7 226.094 956.046 225.844 956.329 225.517C956.612 225.19 956.814 224.798 956.933 224.341H958.861C958.752 225.081 958.482 225.748 958.052 226.342C957.628 226.93 957.064 227.398 956.362 227.747C955.665 228.09 954.853 228.261 953.928 228.261ZM965.371 228.294C964.576 228.294 963.854 228.144 963.206 227.845C962.558 227.54 962.044 227.102 961.662 226.53C961.281 225.953 961.091 225.256 961.091 224.439C961.091 223.72 961.232 223.138 961.515 222.691C961.799 222.239 962.177 221.885 962.651 221.629C963.124 221.373 963.647 221.183 964.219 221.058C964.796 220.927 965.376 220.823 965.959 220.747C966.721 220.649 967.339 220.576 967.813 220.527C968.292 220.472 968.64 220.382 968.858 220.257C969.081 220.132 969.193 219.914 969.193 219.604V219.538C969.193 218.732 968.972 218.106 968.531 217.66C968.096 217.213 967.434 216.99 966.547 216.99C965.626 216.99 964.905 217.192 964.382 217.594C963.86 217.997 963.492 218.428 963.28 218.885L961.45 218.232C961.777 217.469 962.212 216.876 962.757 216.451C963.307 216.021 963.906 215.721 964.554 215.553C965.207 215.378 965.85 215.291 966.481 215.291C966.884 215.291 967.347 215.34 967.87 215.438C968.398 215.531 968.907 215.724 969.397 216.018C969.893 216.312 970.304 216.756 970.63 217.349C970.957 217.943 971.121 218.738 971.121 219.734V228H969.193V226.301H969.095C968.964 226.573 968.746 226.865 968.442 227.175C968.137 227.485 967.731 227.75 967.225 227.967C966.718 228.185 966.1 228.294 965.371 228.294ZM965.665 226.562C966.427 226.562 967.069 226.413 967.592 226.113C968.12 225.814 968.518 225.427 968.785 224.953C969.057 224.48 969.193 223.982 969.193 223.459V221.695C969.111 221.793 968.932 221.882 968.654 221.964C968.382 222.04 968.066 222.108 967.706 222.168C967.353 222.223 967.007 222.272 966.669 222.315C966.337 222.353 966.067 222.386 965.861 222.413C965.36 222.479 964.891 222.585 964.456 222.732C964.026 222.873 963.677 223.089 963.41 223.377C963.149 223.66 963.018 224.047 963.018 224.537C963.018 225.207 963.266 225.713 963.761 226.056C964.262 226.394 964.897 226.562 965.665 226.562ZM976.566 211.273V228H974.639V211.273H976.566ZM982.024 220.453V228H980.097V211.273H982.024V217.415H982.188C982.482 216.767 982.923 216.252 983.511 215.871C984.104 215.484 984.894 215.291 985.879 215.291C986.734 215.291 987.483 215.463 988.125 215.806C988.768 216.143 989.266 216.663 989.62 217.366C989.98 218.063 990.159 218.95 990.159 220.028V228H988.232V220.159C988.232 219.163 987.973 218.392 987.456 217.848C986.944 217.298 986.233 217.023 985.324 217.023C984.692 217.023 984.126 217.156 983.625 217.423C983.13 217.69 982.738 218.079 982.449 218.591C982.166 219.103 982.024 219.723 982.024 220.453ZM998.782 228.261C997.65 228.261 996.656 227.992 995.801 227.453C994.952 226.914 994.287 226.16 993.808 225.19C993.334 224.221 993.098 223.089 993.098 221.793C993.098 220.486 993.334 219.345 993.808 218.37C994.287 217.396 994.952 216.639 995.801 216.1C996.656 215.561 997.65 215.291 998.782 215.291C999.915 215.291 1000.91 215.561 1001.76 216.1C1002.61 216.639 1003.27 217.396 1003.75 218.37C1004.23 219.345 1004.47 220.486 1004.47 221.793C1004.47 223.089 1004.23 224.221 1003.75 225.19C1003.27 226.16 1002.61 226.914 1001.76 227.453C1000.91 227.992 999.915 228.261 998.782 228.261ZM998.782 226.53C999.643 226.53 1000.35 226.309 1000.91 225.868C1001.46 225.427 1001.87 224.847 1002.14 224.129C1002.41 223.41 1002.54 222.631 1002.54 221.793C1002.54 220.954 1002.41 220.173 1002.14 219.449C1001.87 218.724 1001.46 218.139 1000.91 217.692C1000.35 217.246 999.643 217.023 998.782 217.023C997.922 217.023 997.214 217.246 996.659 217.692C996.103 218.139 995.692 218.724 995.425 219.449C995.158 220.173 995.025 220.954 995.025 221.793C995.025 222.631 995.158 223.41 995.425 224.129C995.692 224.847 996.103 225.427 996.659 225.868C997.214 226.309 997.922 226.53 998.782 226.53ZM1016.3 218.264L1014.56 218.754C1014.46 218.466 1014.29 218.185 1014.08 217.913C1013.88 217.635 1013.59 217.407 1013.23 217.227C1012.87 217.047 1012.41 216.957 1011.85 216.957C1011.08 216.957 1010.44 217.134 1009.93 217.488C1009.43 217.837 1009.17 218.281 1009.17 218.82C1009.17 219.299 1009.35 219.677 1009.7 219.955C1010.04 220.233 1010.59 220.464 1011.33 220.649L1013.19 221.107C1014.31 221.379 1015.15 221.795 1015.7 222.356C1016.25 222.912 1016.52 223.628 1016.52 224.504C1016.52 225.223 1016.32 225.866 1015.9 226.432C1015.5 226.998 1014.92 227.445 1014.19 227.771C1013.45 228.098 1012.6 228.261 1011.62 228.261C1010.34 228.261 1009.29 227.984 1008.45 227.428C1007.61 226.873 1007.08 226.062 1006.85 224.994L1008.68 224.537C1008.86 225.212 1009.19 225.719 1009.67 226.056C1010.16 226.394 1010.8 226.562 1011.59 226.562C1012.49 226.562 1013.2 226.372 1013.73 225.991C1014.26 225.604 1014.53 225.141 1014.53 224.602C1014.53 224.167 1014.38 223.802 1014.07 223.508C1013.77 223.208 1013.3 222.985 1012.67 222.838L1010.58 222.348C1009.43 222.076 1008.59 221.654 1008.05 221.082C1007.51 220.505 1007.25 219.783 1007.25 218.918C1007.25 218.21 1007.44 217.584 1007.84 217.039C1008.25 216.495 1008.79 216.067 1009.48 215.757C1010.18 215.446 1010.97 215.291 1011.85 215.291C1013.09 215.291 1014.07 215.563 1014.78 216.108C1015.49 216.652 1016 217.371 1016.3 218.264ZM1024.88 215.455V217.088H1018.38V215.455H1024.88ZM1020.28 212.449H1022.2V224.406C1022.2 224.951 1022.28 225.359 1022.44 225.631C1022.6 225.898 1022.81 226.078 1023.06 226.17C1023.32 226.258 1023.59 226.301 1023.87 226.301C1024.08 226.301 1024.26 226.29 1024.39 226.268C1024.53 226.241 1024.64 226.219 1024.72 226.203L1025.11 227.935C1024.98 227.984 1024.8 228.033 1024.56 228.082C1024.33 228.136 1024.03 228.163 1023.67 228.163C1023.13 228.163 1022.59 228.046 1022.07 227.812C1021.55 227.578 1021.12 227.221 1020.78 226.742C1020.44 226.263 1020.28 225.659 1020.28 224.929V212.449ZM1029.19 228.131C1028.78 228.131 1028.44 227.986 1028.15 227.698C1027.86 227.409 1027.72 227.063 1027.72 226.661C1027.72 226.258 1027.86 225.912 1028.15 225.623C1028.44 225.335 1028.78 225.19 1029.19 225.19C1029.59 225.19 1029.93 225.335 1030.22 225.623C1030.51 225.912 1030.66 226.258 1030.66 226.661C1030.66 226.927 1030.59 227.172 1030.45 227.396C1030.32 227.619 1030.14 227.799 1029.92 227.935C1029.7 228.065 1029.46 228.131 1029.19 228.131ZM1029.19 218.82C1028.78 218.82 1028.44 218.675 1028.15 218.387C1027.86 218.098 1027.72 217.752 1027.72 217.349C1027.72 216.946 1027.86 216.601 1028.15 216.312C1028.44 216.024 1028.78 215.879 1029.19 215.879C1029.59 215.879 1029.93 216.024 1030.22 216.312C1030.51 216.601 1030.66 216.946 1030.66 217.349C1030.66 217.616 1030.59 217.861 1030.45 218.085C1030.32 218.308 1030.14 218.487 1029.92 218.624C1029.7 218.754 1029.46 218.82 1029.19 218.82ZM1034.12 232.705V215.455H1035.98V217.447H1036.21C1036.35 217.23 1036.54 216.952 1036.79 216.614C1037.05 216.271 1037.41 215.966 1037.89 215.7C1038.37 215.427 1039.02 215.291 1039.83 215.291C1040.89 215.291 1041.82 215.555 1042.63 216.083C1043.43 216.612 1044.06 217.36 1044.51 218.33C1044.96 219.299 1045.19 220.442 1045.19 221.76C1045.19 223.089 1044.96 224.24 1044.51 225.215C1044.06 226.184 1043.43 226.935 1042.63 227.469C1041.83 227.997 1040.91 228.261 1039.87 228.261C1039.06 228.261 1038.41 228.128 1037.93 227.861C1037.44 227.589 1037.07 227.281 1036.81 226.938C1036.55 226.59 1036.35 226.301 1036.21 226.072H1036.04V232.705H1034.12ZM1036.01 221.727C1036.01 222.675 1036.15 223.511 1036.43 224.235C1036.7 224.953 1037.11 225.517 1037.64 225.925C1038.18 226.328 1038.83 226.53 1039.6 226.53C1040.41 226.53 1041.08 226.317 1041.62 225.893C1042.17 225.463 1042.57 224.885 1042.85 224.161C1043.12 223.432 1043.26 222.62 1043.26 221.727C1043.26 220.845 1043.13 220.05 1042.85 219.342C1042.59 218.629 1042.18 218.065 1041.64 217.652C1041.1 217.232 1040.42 217.023 1039.6 217.023C1038.82 217.023 1038.16 217.221 1037.63 217.619C1037.09 218.011 1036.69 218.561 1036.42 219.269C1036.15 219.971 1036.01 220.791 1036.01 221.727ZM1053.23 228.261C1052.09 228.261 1051.1 227.992 1050.25 227.453C1049.4 226.914 1048.73 226.16 1048.25 225.19C1047.78 224.221 1047.54 223.089 1047.54 221.793C1047.54 220.486 1047.78 219.345 1048.25 218.37C1048.73 217.396 1049.4 216.639 1050.25 216.1C1051.1 215.561 1052.09 215.291 1053.23 215.291C1054.36 215.291 1055.35 215.561 1056.2 216.1C1057.06 216.639 1057.72 217.396 1058.19 218.37C1058.67 219.345 1058.91 220.486 1058.91 221.793C1058.91 223.089 1058.67 224.221 1058.19 225.19C1057.72 226.16 1057.06 226.914 1056.2 227.453C1055.35 227.992 1054.36 228.261 1053.23 228.261ZM1053.23 226.53C1054.09 226.53 1054.8 226.309 1055.35 225.868C1055.91 225.427 1056.32 224.847 1056.58 224.129C1056.85 223.41 1056.98 222.631 1056.98 221.793C1056.98 220.954 1056.85 220.173 1056.58 219.449C1056.32 218.724 1055.91 218.139 1055.35 217.692C1054.8 217.246 1054.09 217.023 1053.23 217.023C1052.37 217.023 1051.66 217.246 1051.1 217.692C1050.55 218.139 1050.14 218.724 1049.87 219.449C1049.6 220.173 1049.47 220.954 1049.47 221.793C1049.47 222.631 1049.6 223.41 1049.87 224.129C1050.14 224.847 1050.55 225.427 1051.1 225.868C1051.66 226.309 1052.37 226.53 1053.23 226.53ZM1061.85 228V215.455H1063.72V217.349H1063.85C1064.08 216.729 1064.49 216.225 1065.09 215.838C1065.69 215.452 1066.36 215.259 1067.11 215.259C1067.26 215.259 1067.43 215.261 1067.65 215.267C1067.86 215.272 1068.02 215.28 1068.13 215.291V217.251C1068.06 217.235 1067.91 217.211 1067.68 217.178C1067.45 217.14 1067.21 217.121 1066.95 217.121C1066.34 217.121 1065.8 217.249 1065.32 217.505C1064.84 217.755 1064.47 218.104 1064.19 218.55C1063.92 218.991 1063.78 219.495 1063.78 220.061V228H1061.85ZM1076.65 215.455V217.088H1070.15V215.455H1076.65ZM1072.05 212.449H1073.98V224.406C1073.98 224.951 1074.05 225.359 1074.21 225.631C1074.38 225.898 1074.58 226.078 1074.83 226.17C1075.09 226.258 1075.36 226.301 1075.64 226.301C1075.85 226.301 1076.03 226.29 1076.16 226.268C1076.3 226.241 1076.41 226.219 1076.49 226.203L1076.88 227.935C1076.75 227.984 1076.57 228.033 1076.34 228.082C1076.1 228.136 1075.8 228.163 1075.45 228.163C1074.9 228.163 1074.37 228.046 1073.84 227.812C1073.33 227.578 1072.9 227.221 1072.55 226.742C1072.22 226.263 1072.05 225.659 1072.05 224.929V212.449ZM1088.21 228V229.797H1077.76V228H1088.21ZM1089.92 228V226.53L1095.44 220.486C1096.09 219.778 1096.62 219.163 1097.04 218.64C1097.46 218.112 1097.77 217.616 1097.97 217.153C1098.18 216.685 1098.28 216.195 1098.28 215.683C1098.28 215.095 1098.14 214.586 1097.86 214.156C1097.58 213.726 1097.2 213.394 1096.72 213.159C1096.23 212.925 1095.69 212.808 1095.08 212.808C1094.44 212.808 1093.88 212.942 1093.4 213.208C1092.93 213.47 1092.56 213.837 1092.3 214.311C1092.04 214.785 1091.91 215.34 1091.91 215.977H1089.99C1089.99 214.997 1090.21 214.137 1090.66 213.396C1091.12 212.656 1091.73 212.079 1092.51 211.665C1093.29 211.251 1094.17 211.044 1095.15 211.044C1096.13 211.044 1097 211.251 1097.75 211.665C1098.51 212.079 1099.1 212.637 1099.53 213.339C1099.96 214.042 1100.18 214.823 1100.18 215.683C1100.18 216.299 1100.07 216.9 1099.84 217.488C1099.63 218.071 1099.25 218.722 1098.7 219.44C1098.16 220.154 1097.41 221.025 1096.45 222.054L1092.7 226.072V226.203H1100.47V228H1089.92Z" fill="black"/>
<path d="M915.017 141H1114.28C1120.46 141 1125.49 145.011 1125.49 149.943V264.255C1125.49 269.187 1120.46 273.198 1114.28 273.198H915.017C908.837 273.198 903.812 269.187 903.812 264.255V149.943C903.812 145.011 908.837 141 915.017 141ZM1114.28 147.126H915.017C913.085 147.126 911.487 148.402 911.487 149.943V264.255C911.487 265.796 913.085 267.072 915.017 267.072H1114.28C1116.21 267.072 1117.81 265.796 1117.81 264.255V149.943C1117.81 148.402 1116.21 147.126 1114.28 147.126Z" fill="#23CBA2"/>
<path d="M1127.59 279.287L1159.28 327.59C1157.48 332.6 1155.41 337.04 1149.78 338.291H880.284C874.398 336.679 870.493 332.335 871.053 326.006L901.693 279.287L1127.59 279.287ZM1123.46 286.966H905.827L878.742 328.256C879.461 329.202 880.368 329.964 881.354 330.616H1148.8C1149.63 330.07 1150.21 329.323 1150.69 328.469L1123.46 286.966Z" fill="#23CBA2"/>
<path fill-rule="evenodd" clip-rule="evenodd" d="M907.649 291.129H1121.65L1131.28 313.066H898.012L907.649 291.129Z" fill="#23CBA2"/>
<defs>
<linearGradient id="paint0_linear_258_212" x1="498" y1="267" x2="498" y2="499" gradientUnits="userSpaceOnUse">
<stop stop-color="#4FC2E4"/>
<stop offset="1" stop-color="#23CBA2"/>
</linearGradient>
</defs>
</svg>
