<svg width="1160" height="553" viewBox="0 0 1160 553" fill="none" xmlns="http://www.w3.org/2000/svg">
<path d="M400 364C398.896 364 398 362.208 398 360C398 357.792 398.896 356 400 356C401.104 356 402 357.792 402 360C402 362.208 401.104 364 400 364Z" fill="#4FC2E4"/>
<path d="M404.312 324.488C404.528 324.676 404.702 324.908 404.82 325.169C404.939 325.43 405 325.713 405 326V328H407C408.591 328 410.117 328.632 411.243 329.757C412.368 330.883 413 332.409 413 334V384H419C419.53 384 420.039 384.211 420.414 384.586C420.789 384.961 421 385.47 421 386C421 386.531 420.789 387.039 420.414 387.414C420.039 387.789 419.53 388 419 388H367C366.47 388 365.961 387.789 365.586 387.414C365.211 387.039 365 386.531 365 386C365 385.47 365.211 384.961 365.586 384.586C365.961 384.211 366.47 384 367 384H373V330C373 329.518 373.174 329.053 373.49 328.689C373.806 328.325 374.243 328.088 374.72 328.02L402.72 324.02C403.003 323.98 403.292 324 403.567 324.081C403.841 324.162 404.096 324.301 404.312 324.488ZM407 332H405V384H409V334C409 333.47 408.789 332.961 408.414 332.586C408.039 332.211 407.53 332 407 332ZM377 331.736V384H401V328.308L377 331.736Z" fill="#4FC2E4"/>
<path d="M765 366C763.896 366 763 364.208 763 362C763 359.792 763.896 358 765 358C766.104 358 767 359.792 767 362C767 364.208 766.104 366 765 366Z" fill="#23CBA2"/>
<path d="M774.312 326.488C774.528 326.676 774.702 326.908 774.82 327.169C774.939 327.43 775 327.713 775 328V330H777C778.591 330 780.117 330.632 781.243 331.757C782.368 332.883 783 334.409 783 336V386H789C789.53 386 790.039 386.211 790.414 386.586C790.789 386.961 791 387.47 791 388C791 388.531 790.789 389.039 790.414 389.414C790.039 389.789 789.53 390 789 390H737C736.47 390 735.961 389.789 735.586 389.414C735.211 389.039 735 388.531 735 388C735 387.47 735.211 386.961 735.586 386.586C735.961 386.211 736.47 386 737 386H743V332C743 331.518 743.174 331.053 743.49 330.689C743.806 330.325 744.243 330.088 744.72 330.02L772.72 326.02C773.003 325.98 773.292 326 773.567 326.081C773.841 326.162 774.096 326.301 774.312 326.488ZM777 334H775V386H779V336C779 335.47 778.789 334.961 778.414 334.586C778.039 334.211 777.53 334 777 334ZM747 333.736V386H771V330.308L747 333.736Z" fill="#23CBA2"/>
<path d="M308.696 371.456L308.596 371.356L307.596 377.756C307.396 378.956 306.996 380.256 306.496 381.356L298.696 397.756C297.496 400.256 298.596 403.156 301.096 404.356C301.796 404.656 302.496 404.856 303.196 404.856C305.096 404.856 306.796 403.756 307.696 401.956L315.496 385.556C316.396 383.756 316.996 381.756 317.296 379.856C316.696 379.356 316.196 378.756 315.596 378.156C312.396 375.056 309.196 371.856 308.696 371.456Z" fill="#4FC2E4"/>
<path d="M344.996 354.856L340.796 352.056C338.396 350.456 336.296 348.556 334.596 346.356C328.696 338.656 327.196 337.856 325.196 337.756L318.296 337.356C316.896 337.256 315.396 337.756 312.096 339.556C306.396 342.656 301.596 347.356 298.496 353.056L296.496 356.756C295.396 358.756 296.196 361.256 298.196 362.356C298.796 362.656 299.496 362.856 300.196 362.856C301.696 362.856 303.096 362.056 303.796 360.656L305.796 356.956C307.196 354.356 309.096 352.156 311.196 350.156C310.896 353.056 310.496 356.556 310.296 358.556C309.796 362.756 308.896 365.656 311.596 368.256C312.596 369.156 324.596 380.856 324.596 380.856C325.896 382.056 326.796 383.656 327.196 385.356L330.896 400.756C331.496 403.056 333.496 404.556 335.696 404.556C336.096 404.556 336.496 404.556 336.896 404.456C339.596 403.856 341.196 401.156 340.596 398.456L336.796 383.256C335.996 379.756 334.096 376.456 331.496 373.956L324.996 367.656L328.296 351.856C330.496 354.656 333.196 357.056 336.196 359.056L340.396 361.856C342.296 363.056 344.896 362.556 346.096 360.656C347.496 358.656 346.896 356.156 344.996 354.856Z" fill="#4FC2E4"/>
<path d="M332.15 327.137C332.7 322.086 329.051 317.545 324 316.996C318.949 316.446 314.409 320.095 313.859 325.146C313.309 330.197 316.958 334.737 322.009 335.287C327.06 335.837 331.601 332.188 332.15 327.137Z" fill="#4FC2E4"/>
<path d="M825.696 371.456L825.596 371.356L824.596 377.756C824.396 378.956 823.996 380.256 823.496 381.356L815.696 397.756C814.496 400.256 815.596 403.156 818.096 404.356C818.796 404.656 819.496 404.856 820.196 404.856C822.096 404.856 823.796 403.756 824.696 401.956L832.496 385.556C833.396 383.756 833.996 381.756 834.296 379.856C833.696 379.356 833.196 378.756 832.596 378.156C829.396 375.056 826.196 371.856 825.696 371.456Z" fill="#23CBA2"/>
<path d="M861.996 354.856L857.796 352.056C855.396 350.456 853.296 348.556 851.596 346.356C845.696 338.656 844.196 337.856 842.196 337.756L835.296 337.356C833.896 337.256 832.396 337.756 829.096 339.556C823.396 342.656 818.596 347.356 815.496 353.056L813.496 356.756C812.396 358.756 813.196 361.256 815.196 362.356C815.796 362.656 816.496 362.856 817.196 362.856C818.696 362.856 820.096 362.056 820.796 360.656L822.796 356.956C824.196 354.356 826.096 352.156 828.196 350.156C827.896 353.056 827.496 356.556 827.296 358.556C826.796 362.756 825.896 365.656 828.596 368.256C829.596 369.156 841.596 380.856 841.596 380.856C842.896 382.056 843.796 383.656 844.196 385.356L847.896 400.756C848.496 403.056 850.496 404.556 852.696 404.556C853.096 404.556 853.496 404.556 853.896 404.456C856.596 403.856 858.196 401.156 857.596 398.456L853.796 383.256C852.996 379.756 851.096 376.456 848.496 373.956L841.996 367.656L845.296 351.856C847.496 354.656 850.196 357.056 853.196 359.056L857.396 361.856C859.296 363.056 861.896 362.556 863.096 360.656C864.496 358.656 863.896 356.156 861.996 354.856Z" fill="#23CBA2"/>
<path d="M849.15 327.137C849.7 322.086 846.051 317.545 841 316.996C835.949 316.446 831.409 320.095 830.859 325.146C830.309 330.197 833.958 334.737 839.009 335.287C844.06 335.837 848.601 332.188 849.15 327.137Z" fill="#23CBA2"/>
<path d="M453.5 310C442.1 310 437 334.6 437 357.5C437 380.4 442.2 405 453.5 405C464.8 405 470 380.4 470 357.5C470 334.6 464.9 310 453.5 310ZM453.5 397.8C450.8 397.8 444.2 383.7 444.2 357.5C444.2 331.3 450.8 317.2 453.5 317.2C456.2 317.2 462.9 331.3 462.9 357.5C462.9 383.7 456.2 397.8 453.5 397.8Z" fill="#4FC2E4"/>
<path d="M707.5 310C696.1 310 691 334.6 691 357.5C691 380.4 696.2 405 707.5 405C718.8 405 724 380.4 724 357.5C724 334.6 718.9 310 707.5 310ZM707.5 397.8C704.8 397.8 698.2 383.7 698.2 357.5C698.2 331.3 704.8 317.2 707.5 317.2C710.2 317.2 716.9 331.3 716.9 357.5C716.9 383.7 710.2 397.8 707.5 397.8Z" fill="#23CBA2"/>
<rect x="464" y="393" width="68" height="232" transform="rotate(-90 464 393)" fill="url(#paint0_linear_288_2)"/>
<rect width="540" height="46" transform="matrix(-1 0 0 1 893 488)" fill="#23CBA2"/>
<path d="M293 510.5L359.75 547.306L359.75 473.694L293 510.5Z" fill="#23CBA2"/>
<path d="M566.991 522H564.221L572.233 500.182H574.96L582.971 522H580.201L573.681 503.634H573.511L566.991 522ZM568.014 513.477H579.179V515.821H568.014V513.477ZM602.901 507H600.259C600.103 506.24 599.829 505.572 599.439 504.997C599.055 504.422 598.586 503.939 598.032 503.548C597.486 503.151 596.878 502.852 596.211 502.653C595.543 502.455 594.847 502.355 594.123 502.355C592.802 502.355 591.605 502.689 590.532 503.357C589.467 504.024 588.618 505.008 587.986 506.308C587.361 507.607 587.049 509.202 587.049 511.091C587.049 512.98 587.361 514.575 587.986 515.874C588.618 517.174 589.467 518.158 590.532 518.825C591.605 519.493 592.802 519.827 594.123 519.827C594.847 519.827 595.543 519.727 596.211 519.528C596.878 519.33 597.486 519.035 598.032 518.644C598.586 518.246 599.055 517.76 599.439 517.185C599.829 516.602 600.103 515.935 600.259 515.182H602.901C602.702 516.297 602.34 517.295 601.814 518.175C601.289 519.056 600.635 519.805 599.854 520.423C599.073 521.034 598.196 521.499 597.223 521.819C596.257 522.138 595.223 522.298 594.123 522.298C592.262 522.298 590.607 521.844 589.158 520.935C587.709 520.026 586.569 518.733 585.738 517.057C584.907 515.381 584.492 513.392 584.492 511.091C584.492 508.79 584.907 506.801 585.738 505.125C586.569 503.449 587.709 502.156 589.158 501.247C590.607 500.338 592.262 499.884 594.123 499.884C595.223 499.884 596.257 500.043 597.223 500.363C598.196 500.683 599.073 501.151 599.854 501.769C600.635 502.38 601.289 503.126 601.814 504.006C602.34 504.88 602.702 505.878 602.901 507ZM624.727 507H622.085C621.929 506.24 621.655 505.572 621.265 504.997C620.881 504.422 620.413 503.939 619.859 503.548C619.312 503.151 618.704 502.852 618.037 502.653C617.369 502.455 616.673 502.355 615.949 502.355C614.628 502.355 613.431 502.689 612.359 503.357C611.293 504.024 610.445 505.008 609.812 506.308C609.187 507.607 608.875 509.202 608.875 511.091C608.875 512.98 609.187 514.575 609.812 515.874C610.445 517.174 611.293 518.158 612.359 518.825C613.431 519.493 614.628 519.827 615.949 519.827C616.673 519.827 617.369 519.727 618.037 519.528C618.704 519.33 619.312 519.035 619.859 518.644C620.413 518.246 620.881 517.76 621.265 517.185C621.655 516.602 621.929 515.935 622.085 515.182H624.727C624.528 516.297 624.166 517.295 623.641 518.175C623.115 519.056 622.462 519.805 621.68 520.423C620.899 521.034 620.022 521.499 619.049 521.819C618.083 522.138 617.05 522.298 615.949 522.298C614.088 522.298 612.433 521.844 610.984 520.935C609.535 520.026 608.396 518.733 607.565 517.057C606.734 515.381 606.318 513.392 606.318 511.091C606.318 508.79 606.734 506.801 607.565 505.125C608.396 503.449 609.535 502.156 610.984 501.247C612.433 500.338 614.088 499.884 615.949 499.884C617.05 499.884 618.083 500.043 619.049 500.363C620.022 500.683 620.899 501.151 621.68 501.769C622.462 502.38 623.115 503.126 623.641 504.006C624.166 504.88 624.528 505.878 624.727 507ZM628.997 522V500.182H642.164V502.526H631.639V509.898H641.482V512.241H631.639V519.656H642.335V522H628.997ZM658.858 505.636C658.73 504.557 658.212 503.719 657.303 503.122C656.394 502.526 655.278 502.227 653.957 502.227C652.992 502.227 652.146 502.384 651.422 502.696C650.705 503.009 650.144 503.438 649.739 503.985C649.341 504.532 649.142 505.153 649.142 505.849C649.142 506.432 649.281 506.933 649.558 507.352C649.842 507.763 650.204 508.108 650.644 508.385C651.085 508.655 651.546 508.879 652.029 509.056C652.512 509.227 652.956 509.365 653.361 509.472L655.577 510.068C656.145 510.217 656.777 510.423 657.473 510.686C658.176 510.949 658.847 511.308 659.487 511.762C660.133 512.21 660.666 512.785 661.085 513.488C661.504 514.191 661.713 515.054 661.713 516.077C661.713 517.256 661.404 518.321 660.786 519.273C660.176 520.224 659.281 520.981 658.102 521.542C656.93 522.103 655.506 522.384 653.83 522.384C652.267 522.384 650.914 522.131 649.771 521.627C648.634 521.123 647.739 520.42 647.086 519.518C646.44 518.616 646.074 517.568 645.989 516.375H648.716C648.787 517.199 649.064 517.881 649.547 518.42C650.037 518.953 650.655 519.351 651.401 519.614C652.153 519.869 652.963 519.997 653.83 519.997C654.838 519.997 655.744 519.834 656.546 519.507C657.349 519.173 657.984 518.712 658.453 518.122C658.922 517.526 659.156 516.83 659.156 516.034C659.156 515.31 658.954 514.72 658.549 514.266C658.144 513.811 657.612 513.442 656.951 513.158C656.291 512.874 655.577 512.625 654.81 512.412L652.125 511.645C650.421 511.155 649.071 510.455 648.077 509.546C647.082 508.637 646.585 507.447 646.585 505.977C646.585 504.756 646.916 503.69 647.576 502.781C648.244 501.865 649.139 501.155 650.261 500.651C651.39 500.139 652.651 499.884 654.043 499.884C655.449 499.884 656.699 500.136 657.793 500.64C658.886 501.137 659.753 501.819 660.392 502.685C661.038 503.552 661.379 504.536 661.415 505.636H658.858ZM677.989 505.636C677.861 504.557 677.343 503.719 676.434 503.122C675.524 502.526 674.409 502.227 673.088 502.227C672.122 502.227 671.277 502.384 670.553 502.696C669.835 503.009 669.274 503.438 668.87 503.985C668.472 504.532 668.273 505.153 668.273 505.849C668.273 506.432 668.411 506.933 668.688 507.352C668.973 507.763 669.335 508.108 669.775 508.385C670.215 508.655 670.677 508.879 671.16 509.056C671.643 509.227 672.087 509.365 672.492 509.472L674.708 510.068C675.276 510.217 675.908 510.423 676.604 510.686C677.307 510.949 677.978 511.308 678.617 511.762C679.264 512.21 679.796 512.785 680.215 513.488C680.635 514.191 680.844 515.054 680.844 516.077C680.844 517.256 680.535 518.321 679.917 519.273C679.306 520.224 678.411 520.981 677.233 521.542C676.061 522.103 674.637 522.384 672.96 522.384C671.398 522.384 670.045 522.131 668.902 521.627C667.765 521.123 666.87 520.42 666.217 519.518C665.571 518.616 665.205 517.568 665.12 516.375H667.847C667.918 517.199 668.195 517.881 668.678 518.42C669.168 518.953 669.786 519.351 670.532 519.614C671.284 519.869 672.094 519.997 672.96 519.997C673.969 519.997 674.875 519.834 675.677 519.507C676.48 519.173 677.115 518.712 677.584 518.122C678.053 517.526 678.287 516.83 678.287 516.034C678.287 515.31 678.085 514.72 677.68 514.266C677.275 513.811 676.742 513.442 676.082 513.158C675.421 512.874 674.708 512.625 673.941 512.412L671.256 511.645C669.551 511.155 668.202 510.455 667.208 509.546C666.213 508.637 665.716 507.447 665.716 505.977C665.716 504.756 666.046 503.69 666.707 502.781C667.375 501.865 668.269 501.155 669.392 500.651C670.521 500.139 671.782 499.884 673.174 499.884C674.58 499.884 675.83 500.136 676.924 500.64C678.017 501.137 678.884 501.819 679.523 502.685C680.169 503.552 680.51 504.536 680.546 505.636H677.989Z" fill="black"/>
<rect x="47" y="260" width="192.778" height="104" rx="35" fill="#4FC2E4"/>
<path d="M113.125 293.874C113.027 293.047 112.629 292.404 111.932 291.947C111.235 291.49 110.38 291.261 109.368 291.261C108.627 291.261 107.979 291.381 107.424 291.62C106.874 291.86 106.444 292.189 106.133 292.608C105.828 293.028 105.676 293.504 105.676 294.038C105.676 294.484 105.782 294.868 105.994 295.189C106.212 295.505 106.49 295.769 106.828 295.982C107.165 296.189 107.519 296.36 107.889 296.496C108.26 296.627 108.6 296.733 108.91 296.815L110.609 297.272C111.045 297.387 111.529 297.544 112.063 297.746C112.602 297.947 113.117 298.222 113.607 298.571C114.102 298.914 114.511 299.355 114.832 299.894C115.153 300.433 115.314 301.095 115.314 301.879C115.314 302.783 115.077 303.599 114.603 304.329C114.135 305.059 113.449 305.639 112.545 306.069C111.646 306.499 110.555 306.714 109.27 306.714C108.072 306.714 107.034 306.521 106.158 306.134C105.287 305.747 104.601 305.208 104.1 304.517C103.604 303.825 103.324 303.022 103.258 302.107H105.349C105.404 302.739 105.616 303.262 105.986 303.676C106.362 304.084 106.836 304.389 107.407 304.59C107.985 304.786 108.605 304.884 109.27 304.884C110.043 304.884 110.737 304.759 111.352 304.509C111.968 304.253 112.455 303.899 112.814 303.447C113.174 302.99 113.353 302.456 113.353 301.846C113.353 301.291 113.198 300.839 112.888 300.49C112.578 300.142 112.169 299.859 111.663 299.641C111.156 299.423 110.609 299.232 110.021 299.069L107.963 298.481C106.656 298.105 105.621 297.569 104.859 296.872C104.097 296.175 103.716 295.263 103.716 294.136C103.716 293.199 103.969 292.383 104.475 291.686C104.987 290.983 105.673 290.439 106.534 290.052C107.399 289.66 108.366 289.464 109.433 289.464C110.511 289.464 111.469 289.657 112.308 290.044C113.147 290.425 113.811 290.948 114.301 291.612C114.796 292.276 115.058 293.03 115.085 293.874H113.125ZM123.643 306.681C122.434 306.681 121.391 306.414 120.514 305.881C119.643 305.342 118.971 304.59 118.497 303.627C118.029 302.657 117.795 301.53 117.795 300.245C117.795 298.96 118.029 297.828 118.497 296.847C118.971 295.862 119.63 295.094 120.474 294.544C121.323 293.989 122.314 293.711 123.447 293.711C124.1 293.711 124.745 293.82 125.382 294.038C126.019 294.256 126.599 294.61 127.122 295.1C127.645 295.584 128.061 296.227 128.372 297.027C128.682 297.828 128.837 298.813 128.837 299.984V300.801H119.167V299.134H126.877C126.877 298.427 126.735 297.795 126.452 297.24C126.175 296.684 125.777 296.246 125.26 295.925C124.748 295.603 124.144 295.443 123.447 295.443C122.679 295.443 122.015 295.633 121.454 296.014C120.898 296.39 120.471 296.88 120.171 297.485C119.872 298.089 119.722 298.737 119.722 299.428V300.539C119.722 301.487 119.886 302.29 120.212 302.949C120.544 303.602 121.004 304.1 121.593 304.443C122.181 304.781 122.864 304.95 123.643 304.95C124.149 304.95 124.606 304.879 125.015 304.737C125.429 304.59 125.785 304.373 126.085 304.084C126.384 303.79 126.616 303.425 126.779 302.99L128.641 303.512C128.445 304.144 128.116 304.699 127.653 305.178C127.19 305.652 126.618 306.022 125.938 306.289C125.257 306.551 124.492 306.681 123.643 306.681ZM131.769 306.42V293.874H133.632V295.769H133.762C133.991 295.149 134.405 294.645 135.004 294.258C135.603 293.872 136.278 293.678 137.029 293.678C137.171 293.678 137.348 293.681 137.56 293.687C137.773 293.692 137.933 293.7 138.042 293.711V295.671C137.977 295.655 137.827 295.631 137.593 295.598C137.364 295.56 137.122 295.541 136.866 295.541C136.256 295.541 135.712 295.669 135.232 295.925C134.759 296.175 134.383 296.523 134.105 296.97C133.833 297.411 133.697 297.915 133.697 298.481V306.42H131.769ZM150.967 293.874L146.328 306.42H144.368L139.729 293.874H141.82L145.283 303.872H145.413L148.876 293.874H150.967ZM153.512 306.42V293.874H155.439V306.42H153.512ZM154.492 291.784C154.116 291.784 153.792 291.656 153.52 291.4C153.253 291.144 153.12 290.836 153.12 290.477C153.12 290.117 153.253 289.81 153.52 289.554C153.792 289.298 154.116 289.17 154.492 289.17C154.867 289.17 155.189 289.298 155.455 289.554C155.728 289.81 155.864 290.117 155.864 290.477C155.864 290.836 155.728 291.144 155.455 291.4C155.189 291.656 154.867 291.784 154.492 291.784ZM164.066 306.681C162.89 306.681 161.877 306.404 161.028 305.848C160.178 305.293 159.525 304.528 159.068 303.553C158.61 302.578 158.382 301.465 158.382 300.213C158.382 298.938 158.616 297.814 159.084 296.839C159.558 295.859 160.217 295.094 161.061 294.544C161.91 293.989 162.901 293.711 164.034 293.711C164.916 293.711 165.711 293.874 166.418 294.201C167.126 294.528 167.706 294.985 168.158 295.573C168.61 296.161 168.891 296.847 168.999 297.632H167.072C166.925 297.06 166.598 296.553 166.092 296.112C165.591 295.666 164.916 295.443 164.066 295.443C163.315 295.443 162.656 295.639 162.09 296.031C161.529 296.417 161.09 296.965 160.775 297.672C160.464 298.375 160.309 299.2 160.309 300.147C160.309 301.116 160.462 301.96 160.766 302.679C161.077 303.398 161.512 303.956 162.073 304.354C162.64 304.751 163.304 304.95 164.066 304.95C164.567 304.95 165.022 304.863 165.43 304.688C165.839 304.514 166.184 304.264 166.467 303.937C166.751 303.61 166.952 303.218 167.072 302.761H168.999C168.891 303.501 168.621 304.168 168.191 304.762C167.766 305.35 167.203 305.818 166.5 306.167C165.803 306.51 164.992 306.681 164.066 306.681ZM177.077 306.681C175.868 306.681 174.826 306.414 173.949 305.881C173.078 305.342 172.405 304.59 171.932 303.627C171.463 302.657 171.229 301.53 171.229 300.245C171.229 298.96 171.463 297.828 171.932 296.847C172.405 295.862 173.064 295.094 173.908 294.544C174.758 293.989 175.749 293.711 176.881 293.711C177.535 293.711 178.18 293.82 178.817 294.038C179.454 294.256 180.034 294.61 180.557 295.1C181.079 295.584 181.496 296.227 181.806 297.027C182.117 297.828 182.272 298.813 182.272 299.984V300.801H172.601V299.134H180.312C180.312 298.427 180.17 297.795 179.887 297.24C179.609 296.684 179.212 296.246 178.694 295.925C178.183 295.603 177.578 295.443 176.881 295.443C176.113 295.443 175.449 295.633 174.888 296.014C174.333 296.39 173.905 296.88 173.606 297.485C173.306 298.089 173.157 298.737 173.157 299.428V300.539C173.157 301.487 173.32 302.29 173.647 302.949C173.979 303.602 174.439 304.1 175.027 304.443C175.615 304.781 176.299 304.95 177.077 304.95C177.584 304.95 178.041 304.879 178.449 304.737C178.863 304.59 179.22 304.373 179.519 304.084C179.819 303.79 180.05 303.425 180.214 302.99L182.076 303.512C181.88 304.144 181.55 304.699 181.087 305.178C180.625 305.652 180.053 306.022 179.372 306.289C178.692 306.551 177.927 306.681 177.077 306.681ZM87.36 326.873V334.42H85.4325V317.693H87.36V323.835H87.5234C87.8174 323.187 88.2585 322.672 88.8465 322.291C89.4401 321.904 90.2296 321.711 91.2152 321.711C92.07 321.711 92.8187 321.883 93.4613 322.226C94.1038 322.563 94.602 323.083 94.9559 323.786C95.3153 324.483 95.495 325.37 95.495 326.448V334.42H93.5674V326.579C93.5674 325.583 93.3088 324.812 92.7915 324.268C92.2797 323.718 91.5691 323.443 90.6598 323.443C90.0281 323.443 89.4618 323.576 88.9609 323.843C88.4654 324.11 88.0733 324.499 87.7848 325.011C87.5016 325.523 87.36 326.143 87.36 326.873ZM104.118 334.681C102.985 334.681 101.992 334.412 101.137 333.873C100.287 333.334 99.623 332.579 99.1439 331.61C98.6701 330.641 98.4333 329.508 98.4333 328.213C98.4333 326.906 98.6701 325.765 99.1439 324.79C99.623 323.816 100.287 323.059 101.137 322.52C101.992 321.981 102.985 321.711 104.118 321.711C105.251 321.711 106.242 321.981 107.091 322.52C107.946 323.059 108.61 323.816 109.084 324.79C109.563 325.765 109.803 326.906 109.803 328.213C109.803 329.508 109.563 330.641 109.084 331.61C108.61 332.579 107.946 333.334 107.091 333.873C106.242 334.412 105.251 334.681 104.118 334.681ZM104.118 332.95C104.978 332.95 105.686 332.729 106.242 332.288C106.797 331.847 107.208 331.267 107.475 330.548C107.742 329.83 107.875 329.051 107.875 328.213C107.875 327.374 107.742 326.593 107.475 325.868C107.208 325.144 106.797 324.559 106.242 324.112C105.686 323.666 104.978 323.443 104.118 323.443C103.258 323.443 102.55 323.666 101.994 324.112C101.439 324.559 101.028 325.144 100.761 325.868C100.494 326.593 100.361 327.374 100.361 328.213C100.361 329.051 100.494 329.83 100.761 330.548C101.028 331.267 101.439 331.847 101.994 332.288C102.55 332.729 103.258 332.95 104.118 332.95ZM121.631 324.684L119.9 325.174C119.791 324.886 119.63 324.605 119.418 324.333C119.211 324.055 118.928 323.827 118.568 323.647C118.209 323.467 117.749 323.377 117.188 323.377C116.42 323.377 115.781 323.554 115.269 323.908C114.762 324.257 114.509 324.7 114.509 325.24C114.509 325.719 114.683 326.097 115.032 326.375C115.38 326.653 115.925 326.884 116.665 327.069L118.528 327.526C119.649 327.799 120.485 328.215 121.035 328.776C121.585 329.331 121.86 330.048 121.86 330.924C121.86 331.643 121.653 332.285 121.239 332.852C120.831 333.418 120.259 333.865 119.524 334.191C118.789 334.518 117.934 334.681 116.959 334.681C115.68 334.681 114.621 334.404 113.782 333.848C112.944 333.293 112.413 332.481 112.19 331.414L114.019 330.957C114.193 331.632 114.523 332.138 115.007 332.476C115.497 332.814 116.137 332.982 116.927 332.982C117.825 332.982 118.539 332.792 119.067 332.411C119.6 332.024 119.867 331.561 119.867 331.022C119.867 330.587 119.715 330.222 119.41 329.928C119.105 329.628 118.637 329.405 118.005 329.258L115.914 328.768C114.765 328.496 113.921 328.074 113.382 327.502C112.848 326.925 112.582 326.203 112.582 325.338C112.582 324.63 112.78 324.003 113.178 323.459C113.581 322.914 114.128 322.487 114.82 322.177C115.517 321.866 116.306 321.711 117.188 321.711C118.43 321.711 119.404 321.983 120.112 322.528C120.825 323.072 121.332 323.791 121.631 324.684ZM130.218 321.874V323.508H123.716V321.874H130.218ZM125.611 318.869H127.539V330.826C127.539 331.371 127.618 331.779 127.775 332.051C127.939 332.318 128.146 332.498 128.396 332.59C128.652 332.677 128.922 332.721 129.205 332.721C129.417 332.721 129.591 332.71 129.727 332.688C129.864 332.661 129.973 332.639 130.054 332.623L130.446 334.355C130.316 334.404 130.133 334.453 129.899 334.502C129.665 334.556 129.368 334.583 129.009 334.583C128.464 334.583 127.931 334.466 127.408 334.232C126.891 333.998 126.46 333.641 126.117 333.162C125.78 332.683 125.611 332.079 125.611 331.349V318.869ZM134.522 334.551C134.119 334.551 133.773 334.406 133.485 334.118C133.196 333.829 133.052 333.483 133.052 333.08C133.052 332.677 133.196 332.332 133.485 332.043C133.773 331.755 134.119 331.61 134.522 331.61C134.925 331.61 135.271 331.755 135.559 332.043C135.848 332.332 135.992 332.677 135.992 333.08C135.992 333.347 135.924 333.592 135.788 333.816C135.657 334.039 135.48 334.218 135.257 334.355C135.039 334.485 134.794 334.551 134.522 334.551ZM134.522 325.24C134.119 325.24 133.773 325.095 133.485 324.807C133.196 324.518 133.052 324.172 133.052 323.769C133.052 323.366 133.196 323.021 133.485 322.732C133.773 322.443 134.119 322.299 134.522 322.299C134.925 322.299 135.271 322.443 135.559 322.732C135.848 323.021 135.992 323.366 135.992 323.769C135.992 324.036 135.924 324.281 135.788 324.504C135.657 324.728 135.48 324.907 135.257 325.044C135.039 325.174 134.794 325.24 134.522 325.24ZM139.451 339.124V321.874H141.313V323.867H141.542C141.684 323.65 141.88 323.372 142.13 323.034C142.386 322.691 142.751 322.386 143.224 322.119C143.704 321.847 144.352 321.711 145.168 321.711C146.225 321.711 147.156 321.975 147.962 322.503C148.768 323.032 149.396 323.78 149.848 324.749C150.3 325.719 150.526 326.862 150.526 328.18C150.526 329.508 150.3 330.66 149.848 331.635C149.396 332.604 148.77 333.355 147.97 333.889C147.169 334.417 146.246 334.681 145.201 334.681C144.395 334.681 143.75 334.548 143.265 334.281C142.781 334.009 142.408 333.701 142.146 333.358C141.885 333.01 141.684 332.721 141.542 332.492H141.379V339.124H139.451ZM141.346 328.147C141.346 329.095 141.485 329.93 141.762 330.655C142.04 331.373 142.446 331.937 142.979 332.345C143.513 332.748 144.166 332.95 144.94 332.95C145.746 332.95 146.418 332.737 146.957 332.313C147.502 331.883 147.91 331.305 148.182 330.581C148.46 329.852 148.599 329.04 148.599 328.147C148.599 327.265 148.463 326.47 148.19 325.762C147.924 325.049 147.518 324.485 146.973 324.072C146.434 323.652 145.756 323.443 144.94 323.443C144.156 323.443 143.497 323.641 142.963 324.039C142.429 324.431 142.027 324.981 141.754 325.689C141.482 326.391 141.346 327.211 141.346 328.147ZM158.563 334.681C157.431 334.681 156.437 334.412 155.582 333.873C154.733 333.334 154.068 332.579 153.589 331.61C153.115 330.641 152.879 329.508 152.879 328.213C152.879 326.906 153.115 325.765 153.589 324.79C154.068 323.816 154.733 323.059 155.582 322.52C156.437 321.981 157.431 321.711 158.563 321.711C159.696 321.711 160.687 321.981 161.536 322.52C162.391 323.059 163.055 323.816 163.529 324.79C164.008 325.765 164.248 326.906 164.248 328.213C164.248 329.508 164.008 330.641 163.529 331.61C163.055 332.579 162.391 333.334 161.536 333.873C160.687 334.412 159.696 334.681 158.563 334.681ZM158.563 332.95C159.424 332.95 160.131 332.729 160.687 332.288C161.242 331.847 161.653 331.267 161.92 330.548C162.187 329.83 162.32 329.051 162.32 328.213C162.32 327.374 162.187 326.593 161.92 325.868C161.653 325.144 161.242 324.559 160.687 324.112C160.131 323.666 159.424 323.443 158.563 323.443C157.703 323.443 156.995 323.666 156.44 324.112C155.884 324.559 155.473 325.144 155.206 325.868C154.94 326.593 154.806 327.374 154.806 328.213C154.806 329.051 154.94 329.83 155.206 330.548C155.473 331.267 155.884 331.847 156.44 332.288C156.995 332.729 157.703 332.95 158.563 332.95ZM167.19 334.42V321.874H169.053V323.769H169.183C169.412 323.149 169.826 322.645 170.425 322.258C171.024 321.872 171.699 321.678 172.45 321.678C172.592 321.678 172.769 321.681 172.981 321.687C173.193 321.692 173.354 321.7 173.463 321.711V323.671C173.398 323.655 173.248 323.631 173.014 323.598C172.785 323.56 172.543 323.541 172.287 323.541C171.677 323.541 171.133 323.669 170.653 323.925C170.18 324.175 169.804 324.523 169.526 324.97C169.254 325.411 169.118 325.915 169.118 326.481V334.42H167.19ZM181.99 321.874V323.508H175.489V321.874H181.99ZM177.383 318.869H179.311V330.826C179.311 331.371 179.39 331.779 179.548 332.051C179.711 332.318 179.918 332.498 180.169 332.59C180.425 332.677 180.694 332.721 180.977 332.721C181.19 332.721 181.364 332.71 181.5 332.688C181.636 332.661 181.745 332.639 181.827 332.623L182.219 334.355C182.088 334.404 181.906 334.453 181.671 334.502C181.437 334.556 181.141 334.583 180.781 334.583C180.237 334.583 179.703 334.466 179.18 334.232C178.663 333.998 178.233 333.641 177.89 333.162C177.552 332.683 177.383 332.079 177.383 331.349V318.869ZM193.547 334.42V336.217H183.093V334.42H193.547ZM198.644 317.693V334.42H196.618V319.816H196.52L192.436 322.528V320.47L196.618 317.693H198.644Z" fill="black"/>
<path d="M44.0165 247H243.283C249.463 247 254.487 251.011 254.487 255.943V370.255C254.487 375.187 249.463 379.198 243.283 379.198H44.0165C37.837 379.198 32.8125 375.187 32.8125 370.255V255.943C32.8125 251.011 37.837 247 44.0165 247ZM243.283 253.126H44.0165C42.0854 253.126 40.4874 254.402 40.4874 255.943V370.255C40.4874 371.796 42.0854 373.072 44.0165 373.072H243.283C245.214 373.072 246.812 371.796 246.812 370.255V255.943C246.812 254.402 245.214 253.126 243.283 253.126Z" fill="#4FC2E4"/>
<path d="M256.594 385.287L288.282 433.59C286.482 438.6 284.406 443.04 278.779 444.291H9.28368C3.39819 442.679 -0.506552 438.335 0.0532782 432.006L30.6926 385.287L256.594 385.287ZM252.463 392.966H34.8274L7.7421 434.256C8.4614 435.202 9.36849 435.964 10.3535 436.616H277.804C278.63 436.07 279.215 435.323 279.693 434.469L252.463 392.966Z" fill="#4FC2E4"/>
<path fill-rule="evenodd" clip-rule="evenodd" d="M36.6495 397.129H250.646L260.284 419.066H27.0117L36.6495 397.129Z" fill="#4FC2E4"/>
<rect x="916" y="262" width="198" height="104" rx="35" fill="#4FC2E4"/>
<path d="M985.429 293.455C985.331 292.627 984.934 291.984 984.237 291.527C983.54 291.07 982.685 290.841 981.672 290.841C980.932 290.841 980.284 290.961 979.728 291.2C979.178 291.44 978.748 291.769 978.438 292.189C978.133 292.608 977.98 293.084 977.98 293.618C977.98 294.064 978.086 294.448 978.299 294.77C978.517 295.085 978.794 295.349 979.132 295.562C979.47 295.769 979.823 295.94 980.194 296.076C980.564 296.207 980.904 296.313 981.215 296.395L982.914 296.852C983.349 296.967 983.834 297.125 984.367 297.326C984.906 297.527 985.421 297.802 985.911 298.151C986.407 298.494 986.815 298.935 987.136 299.474C987.457 300.013 987.618 300.675 987.618 301.459C987.618 302.363 987.381 303.179 986.907 303.909C986.439 304.639 985.753 305.219 984.849 305.649C983.951 306.079 982.859 306.294 981.574 306.294C980.376 306.294 979.339 306.101 978.462 305.714C977.591 305.328 976.905 304.788 976.404 304.097C975.908 303.405 975.628 302.602 975.563 301.688H977.654C977.708 302.319 977.92 302.842 978.291 303.256C978.666 303.664 979.14 303.969 979.712 304.17C980.289 304.366 980.91 304.464 981.574 304.464C982.347 304.464 983.041 304.339 983.657 304.089C984.272 303.833 984.759 303.479 985.119 303.027C985.478 302.57 985.658 302.036 985.658 301.426C985.658 300.871 985.503 300.419 985.192 300.07C984.882 299.722 984.474 299.439 983.967 299.221C983.461 299.003 982.914 298.812 982.325 298.649L980.267 298.061C978.96 297.685 977.926 297.149 977.164 296.452C976.401 295.755 976.02 294.843 976.02 293.716C976.02 292.779 976.273 291.963 976.78 291.266C977.291 290.563 977.978 290.019 978.838 289.632C979.704 289.24 980.67 289.044 981.737 289.044C982.816 289.044 983.774 289.237 984.612 289.624C985.451 290.005 986.115 290.528 986.605 291.192C987.101 291.856 987.362 292.611 987.389 293.455H985.429ZM995.947 306.261C994.738 306.261 993.695 305.995 992.819 305.461C991.948 304.922 991.275 304.17 990.801 303.207C990.333 302.237 990.099 301.11 990.099 299.825C990.099 298.54 990.333 297.408 990.801 296.428C991.275 295.442 991.934 294.674 992.778 294.124C993.627 293.569 994.618 293.291 995.751 293.291C996.404 293.291 997.05 293.4 997.687 293.618C998.324 293.836 998.904 294.19 999.426 294.68C999.949 295.164 1000.37 295.807 1000.68 296.607C1000.99 297.408 1001.14 298.393 1001.14 299.564V300.381H991.471V298.714H999.181C999.181 298.007 999.04 297.375 998.757 296.82C998.479 296.264 998.081 295.826 997.564 295.505C997.052 295.183 996.448 295.023 995.751 295.023C994.983 295.023 994.319 295.213 993.758 295.594C993.203 295.97 992.775 296.46 992.476 297.065C992.176 297.669 992.027 298.317 992.027 299.009V300.119C992.027 301.067 992.19 301.87 992.517 302.529C992.849 303.182 993.309 303.68 993.897 304.023C994.485 304.361 995.168 304.53 995.947 304.53C996.453 304.53 996.911 304.459 997.319 304.317C997.733 304.17 998.09 303.953 998.389 303.664C998.689 303.37 998.92 303.005 999.083 302.57L1000.95 303.092C1000.75 303.724 1000.42 304.279 999.957 304.759C999.494 305.232 998.923 305.603 998.242 305.869C997.561 306.131 996.796 306.261 995.947 306.261ZM1004.07 306V293.455H1005.94V295.349H1006.07C1006.3 294.729 1006.71 294.225 1007.31 293.838C1007.91 293.452 1008.58 293.259 1009.33 293.259C1009.48 293.259 1009.65 293.261 1009.86 293.267C1010.08 293.272 1010.24 293.28 1010.35 293.291V295.251C1010.28 295.235 1010.13 295.211 1009.9 295.178C1009.67 295.14 1009.43 295.121 1009.17 295.121C1008.56 295.121 1008.02 295.249 1007.54 295.505C1007.06 295.755 1006.69 296.104 1006.41 296.55C1006.14 296.991 1006 297.495 1006 298.061V306H1004.07ZM1023.27 293.455L1018.63 306H1016.67L1012.03 293.455H1014.12L1017.59 303.452H1017.72L1021.18 293.455H1023.27ZM1025.82 306V293.455H1027.74V306H1025.82ZM1026.8 291.364C1026.42 291.364 1026.1 291.236 1025.82 290.98C1025.56 290.724 1025.42 290.416 1025.42 290.057C1025.42 289.697 1025.56 289.39 1025.82 289.134C1026.1 288.878 1026.42 288.75 1026.8 288.75C1027.17 288.75 1027.49 288.878 1027.76 289.134C1028.03 289.39 1028.17 289.697 1028.17 290.057C1028.17 290.416 1028.03 290.724 1027.76 290.98C1027.49 291.236 1027.17 291.364 1026.8 291.364ZM1036.37 306.261C1035.19 306.261 1034.18 305.984 1033.33 305.428C1032.48 304.873 1031.83 304.108 1031.37 303.133C1030.91 302.158 1030.69 301.045 1030.69 299.793C1030.69 298.518 1030.92 297.394 1031.39 296.419C1031.86 295.439 1032.52 294.674 1033.36 294.124C1034.21 293.569 1035.21 293.291 1036.34 293.291C1037.22 293.291 1038.01 293.455 1038.72 293.781C1039.43 294.108 1040.01 294.565 1040.46 295.153C1040.91 295.741 1041.19 296.428 1041.3 297.212H1039.38C1039.23 296.64 1038.9 296.134 1038.4 295.692C1037.9 295.246 1037.22 295.023 1036.37 295.023C1035.62 295.023 1034.96 295.219 1034.39 295.611C1033.83 295.997 1033.39 296.545 1033.08 297.252C1032.77 297.955 1032.61 298.78 1032.61 299.727C1032.61 300.696 1032.77 301.54 1033.07 302.259C1033.38 302.978 1033.82 303.536 1034.38 303.934C1034.94 304.331 1035.61 304.53 1036.37 304.53C1036.87 304.53 1037.33 304.443 1037.73 304.268C1038.14 304.094 1038.49 303.844 1038.77 303.517C1039.05 303.19 1039.26 302.798 1039.38 302.341H1041.3C1041.19 303.081 1040.93 303.748 1040.5 304.342C1040.07 304.93 1039.51 305.398 1038.8 305.747C1038.11 306.09 1037.3 306.261 1036.37 306.261ZM1049.38 306.261C1048.17 306.261 1047.13 305.995 1046.25 305.461C1045.38 304.922 1044.71 304.17 1044.24 303.207C1043.77 302.237 1043.53 301.11 1043.53 299.825C1043.53 298.54 1043.77 297.408 1044.24 296.428C1044.71 295.442 1045.37 294.674 1046.21 294.124C1047.06 293.569 1048.05 293.291 1049.19 293.291C1049.84 293.291 1050.48 293.4 1051.12 293.618C1051.76 293.836 1052.34 294.19 1052.86 294.68C1053.38 295.164 1053.8 295.807 1054.11 296.607C1054.42 297.408 1054.58 298.393 1054.58 299.564V300.381H1044.91V298.714H1052.62C1052.62 298.007 1052.47 297.375 1052.19 296.82C1051.91 296.264 1051.52 295.826 1051 295.505C1050.49 295.183 1049.88 295.023 1049.19 295.023C1048.42 295.023 1047.75 295.213 1047.19 295.594C1046.64 295.97 1046.21 296.46 1045.91 297.065C1045.61 297.669 1045.46 298.317 1045.46 299.009V300.119C1045.46 301.067 1045.62 301.87 1045.95 302.529C1046.28 303.182 1046.74 303.68 1047.33 304.023C1047.92 304.361 1048.6 304.53 1049.38 304.53C1049.89 304.53 1050.35 304.459 1050.75 304.317C1051.17 304.17 1051.52 303.953 1051.82 303.664C1052.12 303.37 1052.35 303.005 1052.52 302.57L1054.38 303.092C1054.18 303.724 1053.85 304.279 1053.39 304.759C1052.93 305.232 1052.36 305.603 1051.68 305.869C1051 306.131 1050.23 306.261 1049.38 306.261ZM931.577 317.273V334H929.649V317.273H931.577ZM940.204 334.261C939.071 334.261 938.078 333.992 937.223 333.453C936.373 332.914 935.709 332.16 935.23 331.19C934.756 330.221 934.519 329.089 934.519 327.793C934.519 326.486 934.756 325.345 935.23 324.37C935.709 323.396 936.373 322.639 937.223 322.1C938.078 321.561 939.071 321.291 940.204 321.291C941.337 321.291 942.328 321.561 943.177 322.1C944.032 322.639 944.696 323.396 945.17 324.37C945.649 325.345 945.889 326.486 945.889 327.793C945.889 329.089 945.649 330.221 945.17 331.19C944.696 332.16 944.032 332.914 943.177 333.453C942.328 333.992 941.337 334.261 940.204 334.261ZM940.204 332.53C941.064 332.53 941.772 332.309 942.328 331.868C942.883 331.427 943.294 330.847 943.561 330.129C943.828 329.41 943.961 328.631 943.961 327.793C943.961 326.954 943.828 326.173 943.561 325.449C943.294 324.724 942.883 324.139 942.328 323.692C941.772 323.246 941.064 323.023 940.204 323.023C939.344 323.023 938.636 323.246 938.08 323.692C937.525 324.139 937.114 324.724 936.847 325.449C936.58 326.173 936.447 326.954 936.447 327.793C936.447 328.631 936.58 329.41 936.847 330.129C937.114 330.847 937.525 331.427 938.08 331.868C938.636 332.309 939.344 332.53 940.204 332.53ZM953.928 334.261C952.752 334.261 951.739 333.984 950.889 333.428C950.04 332.873 949.386 332.108 948.929 331.133C948.472 330.158 948.243 329.045 948.243 327.793C948.243 326.518 948.477 325.394 948.945 324.419C949.419 323.439 950.078 322.674 950.922 322.124C951.771 321.569 952.762 321.291 953.895 321.291C954.777 321.291 955.572 321.455 956.28 321.781C956.988 322.108 957.568 322.565 958.02 323.153C958.472 323.741 958.752 324.428 958.861 325.212H956.933C956.786 324.64 956.46 324.134 955.953 323.692C955.452 323.246 954.777 323.023 953.928 323.023C953.176 323.023 952.517 323.219 951.951 323.611C951.39 323.997 950.952 324.545 950.636 325.252C950.326 325.955 950.171 326.78 950.171 327.727C950.171 328.696 950.323 329.54 950.628 330.259C950.938 330.978 951.374 331.536 951.935 331.934C952.501 332.331 953.165 332.53 953.928 332.53C954.429 332.53 954.883 332.443 955.292 332.268C955.7 332.094 956.046 331.844 956.329 331.517C956.612 331.19 956.814 330.798 956.933 330.341H958.861C958.752 331.081 958.482 331.748 958.052 332.342C957.628 332.93 957.064 333.398 956.362 333.747C955.665 334.09 954.853 334.261 953.928 334.261ZM965.371 334.294C964.576 334.294 963.854 334.144 963.206 333.845C962.558 333.54 962.044 333.102 961.662 332.53C961.281 331.953 961.091 331.256 961.091 330.439C961.091 329.72 961.232 329.138 961.515 328.691C961.799 328.239 962.177 327.885 962.651 327.629C963.124 327.373 963.647 327.183 964.219 327.058C964.796 326.927 965.376 326.823 965.959 326.747C966.721 326.649 967.339 326.576 967.813 326.527C968.292 326.472 968.64 326.382 968.858 326.257C969.081 326.132 969.193 325.914 969.193 325.604V325.538C969.193 324.732 968.972 324.106 968.531 323.66C968.096 323.213 967.434 322.99 966.547 322.99C965.626 322.99 964.905 323.192 964.382 323.594C963.86 323.997 963.492 324.428 963.28 324.885L961.45 324.232C961.777 323.469 962.212 322.876 962.757 322.451C963.307 322.021 963.906 321.721 964.554 321.553C965.207 321.378 965.85 321.291 966.481 321.291C966.884 321.291 967.347 321.34 967.87 321.438C968.398 321.531 968.907 321.724 969.397 322.018C969.893 322.312 970.304 322.756 970.63 323.349C970.957 323.943 971.121 324.738 971.121 325.734V334H969.193V332.301H969.095C968.964 332.573 968.746 332.865 968.442 333.175C968.137 333.485 967.731 333.75 967.225 333.967C966.718 334.185 966.1 334.294 965.371 334.294ZM965.665 332.562C966.427 332.562 967.069 332.413 967.592 332.113C968.12 331.814 968.518 331.427 968.785 330.953C969.057 330.48 969.193 329.982 969.193 329.459V327.695C969.111 327.793 968.932 327.882 968.654 327.964C968.382 328.04 968.066 328.108 967.706 328.168C967.353 328.223 967.007 328.272 966.669 328.315C966.337 328.353 966.067 328.386 965.861 328.413C965.36 328.479 964.891 328.585 964.456 328.732C964.026 328.873 963.677 329.089 963.41 329.377C963.149 329.66 963.018 330.047 963.018 330.537C963.018 331.207 963.266 331.713 963.761 332.056C964.262 332.394 964.897 332.562 965.665 332.562ZM976.566 317.273V334H974.639V317.273H976.566ZM982.024 326.453V334H980.097V317.273H982.024V323.415H982.188C982.482 322.767 982.923 322.252 983.511 321.871C984.104 321.484 984.894 321.291 985.879 321.291C986.734 321.291 987.483 321.463 988.125 321.806C988.768 322.143 989.266 322.663 989.62 323.366C989.98 324.063 990.159 324.95 990.159 326.028V334H988.232V326.159C988.232 325.163 987.973 324.392 987.456 323.848C986.944 323.298 986.233 323.023 985.324 323.023C984.692 323.023 984.126 323.156 983.625 323.423C983.13 323.69 982.738 324.079 982.449 324.591C982.166 325.103 982.024 325.723 982.024 326.453ZM998.782 334.261C997.65 334.261 996.656 333.992 995.801 333.453C994.952 332.914 994.287 332.16 993.808 331.19C993.334 330.221 993.098 329.089 993.098 327.793C993.098 326.486 993.334 325.345 993.808 324.37C994.287 323.396 994.952 322.639 995.801 322.1C996.656 321.561 997.65 321.291 998.782 321.291C999.915 321.291 1000.91 321.561 1001.76 322.1C1002.61 322.639 1003.27 323.396 1003.75 324.37C1004.23 325.345 1004.47 326.486 1004.47 327.793C1004.47 329.089 1004.23 330.221 1003.75 331.19C1003.27 332.16 1002.61 332.914 1001.76 333.453C1000.91 333.992 999.915 334.261 998.782 334.261ZM998.782 332.53C999.643 332.53 1000.35 332.309 1000.91 331.868C1001.46 331.427 1001.87 330.847 1002.14 330.129C1002.41 329.41 1002.54 328.631 1002.54 327.793C1002.54 326.954 1002.41 326.173 1002.14 325.449C1001.87 324.724 1001.46 324.139 1000.91 323.692C1000.35 323.246 999.643 323.023 998.782 323.023C997.922 323.023 997.214 323.246 996.659 323.692C996.103 324.139 995.692 324.724 995.425 325.449C995.158 326.173 995.025 326.954 995.025 327.793C995.025 328.631 995.158 329.41 995.425 330.129C995.692 330.847 996.103 331.427 996.659 331.868C997.214 332.309 997.922 332.53 998.782 332.53ZM1016.3 324.264L1014.56 324.754C1014.46 324.466 1014.29 324.185 1014.08 323.913C1013.88 323.635 1013.59 323.407 1013.23 323.227C1012.87 323.047 1012.41 322.957 1011.85 322.957C1011.08 322.957 1010.44 323.134 1009.93 323.488C1009.43 323.837 1009.17 324.281 1009.17 324.82C1009.17 325.299 1009.35 325.677 1009.7 325.955C1010.04 326.233 1010.59 326.464 1011.33 326.649L1013.19 327.107C1014.31 327.379 1015.15 327.795 1015.7 328.356C1016.25 328.912 1016.52 329.628 1016.52 330.504C1016.52 331.223 1016.32 331.866 1015.9 332.432C1015.5 332.998 1014.92 333.445 1014.19 333.771C1013.45 334.098 1012.6 334.261 1011.62 334.261C1010.34 334.261 1009.29 333.984 1008.45 333.428C1007.61 332.873 1007.08 332.062 1006.85 330.994L1008.68 330.537C1008.86 331.212 1009.19 331.719 1009.67 332.056C1010.16 332.394 1010.8 332.562 1011.59 332.562C1012.49 332.562 1013.2 332.372 1013.73 331.991C1014.26 331.604 1014.53 331.141 1014.53 330.602C1014.53 330.167 1014.38 329.802 1014.07 329.508C1013.77 329.208 1013.3 328.985 1012.67 328.838L1010.58 328.348C1009.43 328.076 1008.59 327.654 1008.05 327.082C1007.51 326.505 1007.25 325.783 1007.25 324.918C1007.25 324.21 1007.44 323.584 1007.84 323.039C1008.25 322.495 1008.79 322.067 1009.48 321.757C1010.18 321.446 1010.97 321.291 1011.85 321.291C1013.09 321.291 1014.07 321.563 1014.78 322.108C1015.49 322.652 1016 323.371 1016.3 324.264ZM1024.88 321.455V323.088H1018.38V321.455H1024.88ZM1020.28 318.449H1022.2V330.406C1022.2 330.951 1022.28 331.359 1022.44 331.631C1022.6 331.898 1022.81 332.078 1023.06 332.17C1023.32 332.258 1023.59 332.301 1023.87 332.301C1024.08 332.301 1024.26 332.29 1024.39 332.268C1024.53 332.241 1024.64 332.219 1024.72 332.203L1025.11 333.935C1024.98 333.984 1024.8 334.033 1024.56 334.082C1024.33 334.136 1024.03 334.163 1023.67 334.163C1023.13 334.163 1022.59 334.046 1022.07 333.812C1021.55 333.578 1021.12 333.221 1020.78 332.742C1020.44 332.263 1020.28 331.659 1020.28 330.929V318.449ZM1029.19 334.131C1028.78 334.131 1028.44 333.986 1028.15 333.698C1027.86 333.409 1027.72 333.063 1027.72 332.661C1027.72 332.258 1027.86 331.912 1028.15 331.623C1028.44 331.335 1028.78 331.19 1029.19 331.19C1029.59 331.19 1029.93 331.335 1030.22 331.623C1030.51 331.912 1030.66 332.258 1030.66 332.661C1030.66 332.927 1030.59 333.172 1030.45 333.396C1030.32 333.619 1030.14 333.799 1029.92 333.935C1029.7 334.065 1029.46 334.131 1029.19 334.131ZM1029.19 324.82C1028.78 324.82 1028.44 324.675 1028.15 324.387C1027.86 324.098 1027.72 323.752 1027.72 323.349C1027.72 322.946 1027.86 322.601 1028.15 322.312C1028.44 322.024 1028.78 321.879 1029.19 321.879C1029.59 321.879 1029.93 322.024 1030.22 322.312C1030.51 322.601 1030.66 322.946 1030.66 323.349C1030.66 323.616 1030.59 323.861 1030.45 324.085C1030.32 324.308 1030.14 324.487 1029.92 324.624C1029.7 324.754 1029.46 324.82 1029.19 324.82ZM1034.12 338.705V321.455H1035.98V323.447H1036.21C1036.35 323.23 1036.54 322.952 1036.79 322.614C1037.05 322.271 1037.41 321.966 1037.89 321.7C1038.37 321.427 1039.02 321.291 1039.83 321.291C1040.89 321.291 1041.82 321.555 1042.63 322.083C1043.43 322.612 1044.06 323.36 1044.51 324.33C1044.96 325.299 1045.19 326.442 1045.19 327.76C1045.19 329.089 1044.96 330.24 1044.51 331.215C1044.06 332.184 1043.43 332.935 1042.63 333.469C1041.83 333.997 1040.91 334.261 1039.87 334.261C1039.06 334.261 1038.41 334.128 1037.93 333.861C1037.44 333.589 1037.07 333.281 1036.81 332.938C1036.55 332.59 1036.35 332.301 1036.21 332.072H1036.04V338.705H1034.12ZM1036.01 327.727C1036.01 328.675 1036.15 329.511 1036.43 330.235C1036.7 330.953 1037.11 331.517 1037.64 331.925C1038.18 332.328 1038.83 332.53 1039.6 332.53C1040.41 332.53 1041.08 332.317 1041.62 331.893C1042.17 331.463 1042.57 330.885 1042.85 330.161C1043.12 329.432 1043.26 328.62 1043.26 327.727C1043.26 326.845 1043.13 326.05 1042.85 325.342C1042.59 324.629 1042.18 324.065 1041.64 323.652C1041.1 323.232 1040.42 323.023 1039.6 323.023C1038.82 323.023 1038.16 323.221 1037.63 323.619C1037.09 324.011 1036.69 324.561 1036.42 325.269C1036.15 325.971 1036.01 326.791 1036.01 327.727ZM1053.23 334.261C1052.09 334.261 1051.1 333.992 1050.25 333.453C1049.4 332.914 1048.73 332.16 1048.25 331.19C1047.78 330.221 1047.54 329.089 1047.54 327.793C1047.54 326.486 1047.78 325.345 1048.25 324.37C1048.73 323.396 1049.4 322.639 1050.25 322.1C1051.1 321.561 1052.09 321.291 1053.23 321.291C1054.36 321.291 1055.35 321.561 1056.2 322.1C1057.06 322.639 1057.72 323.396 1058.19 324.37C1058.67 325.345 1058.91 326.486 1058.91 327.793C1058.91 329.089 1058.67 330.221 1058.19 331.19C1057.72 332.16 1057.06 332.914 1056.2 333.453C1055.35 333.992 1054.36 334.261 1053.23 334.261ZM1053.23 332.53C1054.09 332.53 1054.8 332.309 1055.35 331.868C1055.91 331.427 1056.32 330.847 1056.58 330.129C1056.85 329.41 1056.98 328.631 1056.98 327.793C1056.98 326.954 1056.85 326.173 1056.58 325.449C1056.32 324.724 1055.91 324.139 1055.35 323.692C1054.8 323.246 1054.09 323.023 1053.23 323.023C1052.37 323.023 1051.66 323.246 1051.1 323.692C1050.55 324.139 1050.14 324.724 1049.87 325.449C1049.6 326.173 1049.47 326.954 1049.47 327.793C1049.47 328.631 1049.6 329.41 1049.87 330.129C1050.14 330.847 1050.55 331.427 1051.1 331.868C1051.66 332.309 1052.37 332.53 1053.23 332.53ZM1061.85 334V321.455H1063.72V323.349H1063.85C1064.08 322.729 1064.49 322.225 1065.09 321.838C1065.69 321.452 1066.36 321.259 1067.11 321.259C1067.26 321.259 1067.43 321.261 1067.65 321.267C1067.86 321.272 1068.02 321.28 1068.13 321.291V323.251C1068.06 323.235 1067.91 323.211 1067.68 323.178C1067.45 323.14 1067.21 323.121 1066.95 323.121C1066.34 323.121 1065.8 323.249 1065.32 323.505C1064.84 323.755 1064.47 324.104 1064.19 324.55C1063.92 324.991 1063.78 325.495 1063.78 326.061V334H1061.85ZM1076.65 321.455V323.088H1070.15V321.455H1076.65ZM1072.05 318.449H1073.98V330.406C1073.98 330.951 1074.05 331.359 1074.21 331.631C1074.38 331.898 1074.58 332.078 1074.83 332.17C1075.09 332.258 1075.36 332.301 1075.64 332.301C1075.85 332.301 1076.03 332.29 1076.16 332.268C1076.3 332.241 1076.41 332.219 1076.49 332.203L1076.88 333.935C1076.75 333.984 1076.57 334.033 1076.34 334.082C1076.1 334.136 1075.8 334.163 1075.45 334.163C1074.9 334.163 1074.37 334.046 1073.84 333.812C1073.33 333.578 1072.9 333.221 1072.55 332.742C1072.22 332.263 1072.05 331.659 1072.05 330.929V318.449ZM1088.21 334V335.797H1077.76V334H1088.21ZM1089.92 334V332.53L1095.44 326.486C1096.09 325.778 1096.62 325.163 1097.04 324.64C1097.46 324.112 1097.77 323.616 1097.97 323.153C1098.18 322.685 1098.28 322.195 1098.28 321.683C1098.28 321.095 1098.14 320.586 1097.86 320.156C1097.58 319.726 1097.2 319.394 1096.72 319.159C1096.23 318.925 1095.69 318.808 1095.08 318.808C1094.44 318.808 1093.88 318.942 1093.4 319.208C1092.93 319.47 1092.56 319.837 1092.3 320.311C1092.04 320.785 1091.91 321.34 1091.91 321.977H1089.99C1089.99 320.997 1090.21 320.137 1090.66 319.396C1091.12 318.656 1091.73 318.079 1092.51 317.665C1093.29 317.251 1094.17 317.044 1095.15 317.044C1096.13 317.044 1097 317.251 1097.75 317.665C1098.51 318.079 1099.1 318.637 1099.53 319.339C1099.96 320.042 1100.18 320.823 1100.18 321.683C1100.18 322.299 1100.07 322.9 1099.84 323.488C1099.63 324.071 1099.25 324.722 1098.7 325.44C1098.16 326.154 1097.41 327.025 1096.45 328.054L1092.7 332.072V332.203H1100.47V334H1089.92Z" fill="black"/>
<path d="M915.017 247H1114.28C1120.46 247 1125.49 251.011 1125.49 255.943V370.255C1125.49 375.187 1120.46 379.198 1114.28 379.198H915.017C908.837 379.198 903.812 375.187 903.812 370.255V255.943C903.812 251.011 908.837 247 915.017 247ZM1114.28 253.126H915.017C913.085 253.126 911.487 254.402 911.487 255.943V370.255C911.487 371.796 913.085 373.072 915.017 373.072H1114.28C1116.21 373.072 1117.81 371.796 1117.81 370.255V255.943C1117.81 254.402 1116.21 253.126 1114.28 253.126Z" fill="#23CBA2"/>
<path d="M1127.59 385.287L1159.28 433.59C1157.48 438.6 1155.41 443.04 1149.78 444.291H880.284C874.398 442.679 870.493 438.335 871.053 432.006L901.693 385.287L1127.59 385.287ZM1123.46 392.966H905.827L878.742 434.256C879.461 435.202 880.368 435.964 881.354 436.616H1148.8C1149.63 436.07 1150.21 435.323 1150.69 434.469L1123.46 392.966Z" fill="#23CBA2"/>
<path fill-rule="evenodd" clip-rule="evenodd" d="M907.649 397.129H1121.65L1131.28 419.066H898.012L907.649 397.129Z" fill="#23CBA2"/>
<circle cx="444.465" cy="185.219" r="75.2192" fill="#4FC2E4"/>
<circle cx="602.473" cy="185.219" r="75.2192" fill="#4FC2E4"/>
<circle cx="760.481" cy="185.219" r="75.2192" fill="#23CBA2"/>
<path d="M423.957 168.954H422.02C421.905 168.397 421.705 167.907 421.418 167.485C421.137 167.063 420.793 166.709 420.387 166.423C419.986 166.131 419.54 165.912 419.051 165.766C418.561 165.621 418.051 165.548 417.52 165.548C416.551 165.548 415.673 165.792 414.887 166.282C414.106 166.772 413.483 167.493 413.02 168.446C412.561 169.399 412.332 170.568 412.332 171.954C412.332 173.339 412.561 174.509 413.02 175.462C413.483 176.415 414.106 177.136 414.887 177.626C415.673 178.115 416.551 178.36 417.52 178.36C418.051 178.36 418.561 178.287 419.051 178.141C419.54 177.996 419.986 177.779 420.387 177.493C420.793 177.201 421.137 176.844 421.418 176.423C421.705 175.996 421.905 175.506 422.02 174.954H423.957C423.811 175.772 423.546 176.503 423.16 177.149C422.775 177.795 422.296 178.344 421.723 178.798C421.15 179.246 420.507 179.587 419.793 179.821C419.085 180.055 418.327 180.173 417.52 180.173C416.155 180.173 414.942 179.839 413.879 179.173C412.817 178.506 411.981 177.558 411.371 176.329C410.762 175.1 410.457 173.641 410.457 171.954C410.457 170.266 410.762 168.808 411.371 167.579C411.981 166.35 412.817 165.402 413.879 164.735C414.942 164.068 416.155 163.735 417.52 163.735C418.327 163.735 419.085 163.852 419.793 164.087C420.507 164.321 421.15 164.665 421.723 165.118C422.296 165.566 422.775 166.113 423.16 166.759C423.546 167.399 423.811 168.131 423.957 168.954ZM426.838 179.954V167.954H428.619V169.766H428.744C428.963 169.173 429.359 168.691 429.932 168.321C430.505 167.951 431.151 167.766 431.869 167.766C432.005 167.766 432.174 167.769 432.377 167.774C432.58 167.779 432.734 167.787 432.838 167.798V169.673C432.776 169.657 432.632 169.634 432.408 169.602C432.19 169.566 431.958 169.548 431.713 169.548C431.13 169.548 430.609 169.67 430.151 169.915C429.697 170.154 429.338 170.488 429.072 170.915C428.812 171.337 428.682 171.818 428.682 172.36V179.954H426.838ZM439.69 180.204C438.533 180.204 437.536 179.949 436.697 179.438C435.864 178.923 435.221 178.204 434.768 177.282C434.32 176.355 434.096 175.277 434.096 174.048C434.096 172.818 434.32 171.735 434.768 170.798C435.221 169.855 435.851 169.121 436.658 168.594C437.471 168.063 438.419 167.798 439.502 167.798C440.127 167.798 440.744 167.902 441.354 168.11C441.963 168.318 442.518 168.657 443.018 169.126C443.518 169.589 443.916 170.204 444.213 170.969C444.51 171.735 444.658 172.678 444.658 173.798V174.579H435.408V172.985H442.783C442.783 172.308 442.648 171.704 442.377 171.173C442.111 170.641 441.731 170.222 441.236 169.915C440.747 169.608 440.169 169.454 439.502 169.454C438.768 169.454 438.132 169.636 437.596 170.001C437.065 170.36 436.656 170.829 436.369 171.407C436.083 171.985 435.94 172.605 435.94 173.266V174.329C435.94 175.235 436.096 176.003 436.408 176.634C436.726 177.259 437.166 177.735 437.729 178.063C438.291 178.386 438.945 178.548 439.69 178.548C440.174 178.548 440.611 178.48 441.002 178.344C441.398 178.204 441.739 177.996 442.026 177.719C442.312 177.438 442.533 177.089 442.69 176.673L444.471 177.173C444.283 177.777 443.968 178.308 443.526 178.766C443.083 179.219 442.536 179.574 441.885 179.829C441.234 180.079 440.502 180.204 439.69 180.204ZM450.994 180.235C450.234 180.235 449.544 180.092 448.924 179.805C448.304 179.514 447.812 179.094 447.447 178.548C447.083 177.996 446.901 177.329 446.901 176.548C446.901 175.86 447.036 175.303 447.307 174.876C447.578 174.443 447.94 174.105 448.393 173.86C448.846 173.615 449.346 173.433 449.893 173.313C450.445 173.188 450.999 173.089 451.557 173.016C452.286 172.923 452.877 172.852 453.33 172.805C453.789 172.753 454.122 172.667 454.33 172.548C454.544 172.428 454.651 172.219 454.651 171.923V171.86C454.651 171.089 454.44 170.49 454.018 170.063C453.601 169.636 452.968 169.423 452.119 169.423C451.239 169.423 450.549 169.615 450.049 170.001C449.549 170.386 449.197 170.798 448.994 171.235L447.244 170.61C447.557 169.881 447.973 169.313 448.494 168.907C449.02 168.496 449.593 168.209 450.213 168.048C450.838 167.881 451.453 167.798 452.057 167.798C452.442 167.798 452.885 167.844 453.385 167.938C453.89 168.027 454.377 168.212 454.846 168.493C455.32 168.774 455.713 169.199 456.026 169.766C456.338 170.334 456.494 171.094 456.494 172.048V179.954H454.651V178.329H454.557C454.432 178.589 454.223 178.868 453.932 179.165C453.64 179.462 453.252 179.714 452.768 179.923C452.283 180.131 451.692 180.235 450.994 180.235ZM451.276 178.579C452.005 178.579 452.619 178.436 453.119 178.149C453.624 177.863 454.005 177.493 454.26 177.04C454.52 176.587 454.651 176.11 454.651 175.61V173.923C454.572 174.016 454.401 174.102 454.135 174.18C453.874 174.253 453.572 174.318 453.229 174.376C452.89 174.428 452.559 174.475 452.236 174.516C451.919 174.553 451.661 174.584 451.463 174.61C450.984 174.673 450.536 174.774 450.119 174.915C449.708 175.05 449.374 175.256 449.119 175.532C448.869 175.803 448.744 176.173 448.744 176.641C448.744 177.282 448.981 177.766 449.455 178.094C449.934 178.417 450.541 178.579 451.276 178.579ZM465.078 167.954V169.516H458.859V167.954H465.078ZM460.672 165.079H462.516V176.516C462.516 177.037 462.591 177.428 462.742 177.688C462.899 177.943 463.096 178.115 463.336 178.204C463.581 178.287 463.839 178.329 464.109 178.329C464.313 178.329 464.479 178.318 464.609 178.298C464.74 178.272 464.844 178.251 464.922 178.235L465.297 179.891C465.172 179.938 464.998 179.985 464.774 180.032C464.55 180.084 464.266 180.11 463.922 180.11C463.401 180.11 462.891 179.998 462.391 179.774C461.896 179.55 461.484 179.209 461.156 178.751C460.833 178.292 460.672 177.714 460.672 177.016V165.079ZM472.754 180.204C471.598 180.204 470.6 179.949 469.762 179.438C468.929 178.923 468.285 178.204 467.832 177.282C467.384 176.355 467.16 175.277 467.16 174.048C467.16 172.818 467.384 171.735 467.832 170.798C468.285 169.855 468.915 169.121 469.723 168.594C470.535 168.063 471.483 167.798 472.567 167.798C473.192 167.798 473.809 167.902 474.418 168.11C475.027 168.318 475.582 168.657 476.082 169.126C476.582 169.589 476.981 170.204 477.277 170.969C477.574 171.735 477.723 172.678 477.723 173.798V174.579H468.473V172.985H475.848C475.848 172.308 475.712 171.704 475.442 171.173C475.176 170.641 474.796 170.222 474.301 169.915C473.811 169.608 473.233 169.454 472.567 169.454C471.832 169.454 471.197 169.636 470.66 170.001C470.129 170.36 469.72 170.829 469.434 171.407C469.147 171.985 469.004 172.605 469.004 173.266V174.329C469.004 175.235 469.16 176.003 469.473 176.634C469.79 177.259 470.231 177.735 470.793 178.063C471.356 178.386 472.009 178.548 472.754 178.548C473.238 178.548 473.676 178.48 474.067 178.344C474.462 178.204 474.804 177.996 475.09 177.719C475.376 177.438 475.598 177.089 475.754 176.673L477.535 177.173C477.348 177.777 477.033 178.308 476.59 178.766C476.147 179.219 475.6 179.574 474.949 179.829C474.298 180.079 473.567 180.204 472.754 180.204ZM409.379 207.235C408.619 207.235 407.929 207.092 407.309 206.805C406.689 206.514 406.197 206.094 405.832 205.548C405.468 204.996 405.285 204.329 405.285 203.548C405.285 202.86 405.421 202.303 405.692 201.876C405.962 201.443 406.324 201.105 406.777 200.86C407.231 200.615 407.731 200.433 408.277 200.313C408.83 200.188 409.384 200.089 409.942 200.016C410.671 199.923 411.262 199.852 411.715 199.805C412.173 199.753 412.507 199.667 412.715 199.548C412.929 199.428 413.035 199.219 413.035 198.923V198.86C413.035 198.089 412.824 197.49 412.402 197.063C411.986 196.636 411.353 196.423 410.504 196.423C409.624 196.423 408.934 196.615 408.434 197.001C407.934 197.386 407.582 197.798 407.379 198.235L405.629 197.61C405.942 196.881 406.358 196.313 406.879 195.907C407.405 195.496 407.978 195.209 408.598 195.048C409.223 194.881 409.837 194.798 410.442 194.798C410.827 194.798 411.27 194.844 411.77 194.938C412.275 195.027 412.762 195.212 413.231 195.493C413.705 195.774 414.098 196.199 414.41 196.766C414.723 197.334 414.879 198.094 414.879 199.048V206.954H413.035V205.329H412.942C412.817 205.589 412.608 205.868 412.317 206.165C412.025 206.462 411.637 206.714 411.152 206.923C410.668 207.131 410.077 207.235 409.379 207.235ZM409.66 205.579C410.389 205.579 411.004 205.436 411.504 205.149C412.009 204.863 412.389 204.493 412.645 204.04C412.905 203.587 413.035 203.11 413.035 202.61V200.923C412.957 201.016 412.785 201.102 412.52 201.18C412.259 201.253 411.957 201.318 411.613 201.376C411.275 201.428 410.944 201.475 410.621 201.516C410.304 201.553 410.046 201.584 409.848 201.61C409.369 201.673 408.921 201.774 408.504 201.915C408.093 202.05 407.759 202.256 407.504 202.532C407.254 202.803 407.129 203.173 407.129 203.641C407.129 204.282 407.366 204.766 407.84 205.094C408.319 205.417 408.926 205.579 409.66 205.579ZM424.432 211.454V194.954H426.213V196.86H426.432C426.567 196.652 426.755 196.386 426.994 196.063C427.239 195.735 427.588 195.443 428.041 195.188C428.499 194.928 429.119 194.798 429.901 194.798C430.911 194.798 431.802 195.05 432.572 195.555C433.343 196.061 433.945 196.777 434.377 197.704C434.809 198.631 435.026 199.725 435.026 200.985C435.026 202.256 434.809 203.358 434.377 204.29C433.945 205.217 433.346 205.936 432.58 206.446C431.815 206.951 430.932 207.204 429.932 207.204C429.161 207.204 428.544 207.076 428.08 206.821C427.617 206.561 427.26 206.266 427.01 205.938C426.76 205.605 426.567 205.329 426.432 205.11H426.276V211.454H424.432ZM426.244 200.954C426.244 201.86 426.377 202.66 426.643 203.352C426.908 204.04 427.296 204.579 427.807 204.969C428.317 205.355 428.942 205.548 429.682 205.548C430.453 205.548 431.096 205.344 431.611 204.938C432.132 204.527 432.523 203.975 432.783 203.282C433.049 202.584 433.182 201.808 433.182 200.954C433.182 200.11 433.052 199.35 432.791 198.673C432.536 197.99 432.148 197.451 431.627 197.055C431.111 196.654 430.463 196.454 429.682 196.454C428.932 196.454 428.302 196.644 427.791 197.024C427.281 197.399 426.895 197.925 426.635 198.602C426.374 199.274 426.244 200.058 426.244 200.954ZM442.713 207.204C441.63 207.204 440.679 206.946 439.861 206.43C439.049 205.915 438.414 205.193 437.955 204.266C437.502 203.339 437.276 202.256 437.276 201.016C437.276 199.766 437.502 198.675 437.955 197.743C438.414 196.811 439.049 196.087 439.861 195.571C440.679 195.055 441.63 194.798 442.713 194.798C443.796 194.798 444.744 195.055 445.557 195.571C446.374 196.087 447.01 196.811 447.463 197.743C447.921 198.675 448.151 199.766 448.151 201.016C448.151 202.256 447.921 203.339 447.463 204.266C447.01 205.193 446.374 205.915 445.557 206.43C444.744 206.946 443.796 207.204 442.713 207.204ZM442.713 205.548C443.536 205.548 444.213 205.337 444.744 204.915C445.276 204.493 445.669 203.938 445.924 203.251C446.179 202.563 446.307 201.818 446.307 201.016C446.307 200.214 446.179 199.467 445.924 198.774C445.669 198.081 445.276 197.522 444.744 197.094C444.213 196.667 443.536 196.454 442.713 196.454C441.89 196.454 441.213 196.667 440.682 197.094C440.151 197.522 439.757 198.081 439.502 198.774C439.247 199.467 439.119 200.214 439.119 201.016C439.119 201.818 439.247 202.563 439.502 203.251C439.757 203.938 440.151 204.493 440.682 204.915C441.213 205.337 441.89 205.548 442.713 205.548ZM450.965 206.954V194.954H452.746V196.766H452.871C453.09 196.173 453.486 195.691 454.059 195.321C454.632 194.951 455.277 194.766 455.996 194.766C456.132 194.766 456.301 194.769 456.504 194.774C456.707 194.779 456.861 194.787 456.965 194.798V196.673C456.902 196.657 456.759 196.634 456.535 196.602C456.317 196.566 456.085 196.548 455.84 196.548C455.257 196.548 454.736 196.67 454.277 196.915C453.824 197.154 453.465 197.488 453.199 197.915C452.939 198.337 452.809 198.818 452.809 199.36V206.954H450.965ZM465.121 194.954V196.516H458.902V194.954H465.121ZM460.715 192.079H462.559V203.516C462.559 204.037 462.634 204.428 462.785 204.688C462.942 204.943 463.139 205.115 463.379 205.204C463.624 205.287 463.882 205.329 464.152 205.329C464.356 205.329 464.522 205.318 464.652 205.298C464.783 205.272 464.887 205.251 464.965 205.235L465.34 206.891C465.215 206.938 465.04 206.985 464.817 207.032C464.593 207.084 464.309 207.11 463.965 207.11C463.444 207.11 462.934 206.998 462.434 206.774C461.939 206.55 461.527 206.209 461.199 205.751C460.876 205.292 460.715 204.714 460.715 204.016V192.079ZM471.426 207.235C470.665 207.235 469.975 207.092 469.356 206.805C468.736 206.514 468.244 206.094 467.879 205.548C467.514 204.996 467.332 204.329 467.332 203.548C467.332 202.86 467.468 202.303 467.738 201.876C468.009 201.443 468.371 201.105 468.824 200.86C469.277 200.615 469.777 200.433 470.324 200.313C470.876 200.188 471.431 200.089 471.988 200.016C472.718 199.923 473.309 199.852 473.762 199.805C474.22 199.753 474.554 199.667 474.762 199.548C474.975 199.428 475.082 199.219 475.082 198.923V198.86C475.082 198.089 474.871 197.49 474.449 197.063C474.033 196.636 473.4 196.423 472.551 196.423C471.671 196.423 470.981 196.615 470.481 197.001C469.981 197.386 469.629 197.798 469.426 198.235L467.676 197.61C467.988 196.881 468.405 196.313 468.926 195.907C469.452 195.496 470.025 195.209 470.645 195.048C471.27 194.881 471.884 194.798 472.488 194.798C472.874 194.798 473.317 194.844 473.817 194.938C474.322 195.027 474.809 195.212 475.277 195.493C475.751 195.774 476.145 196.199 476.457 196.766C476.77 197.334 476.926 198.094 476.926 199.048V206.954H475.082V205.329H474.988C474.863 205.589 474.655 205.868 474.363 206.165C474.072 206.462 473.684 206.714 473.199 206.923C472.715 207.131 472.124 207.235 471.426 207.235ZM471.707 205.579C472.436 205.579 473.051 205.436 473.551 205.149C474.056 204.863 474.436 204.493 474.692 204.04C474.952 203.587 475.082 203.11 475.082 202.61V200.923C475.004 201.016 474.832 201.102 474.567 201.18C474.306 201.253 474.004 201.318 473.66 201.376C473.322 201.428 472.991 201.475 472.668 201.516C472.35 201.553 472.093 201.584 471.895 201.61C471.415 201.673 470.968 201.774 470.551 201.915C470.139 202.05 469.806 202.256 469.551 202.532C469.301 202.803 469.176 203.173 469.176 203.641C469.176 204.282 469.413 204.766 469.887 205.094C470.366 205.417 470.973 205.579 471.707 205.579ZM482.135 190.954V206.954H480.291V190.954H482.135Z" fill="black"/>
<path d="M578.177 176V192H576.239V176H578.177ZM583.655 184.781V192H581.812V180H583.593V181.875H583.749C584.03 181.266 584.457 180.776 585.03 180.406C585.603 180.031 586.343 179.844 587.249 179.844C588.062 179.844 588.772 180.01 589.382 180.344C589.991 180.672 590.465 181.172 590.804 181.844C591.142 182.51 591.312 183.354 591.312 184.375V192H589.468V184.5C589.468 183.557 589.223 182.823 588.733 182.297C588.244 181.766 587.572 181.5 586.718 181.5C586.129 181.5 585.603 181.628 585.14 181.883C584.681 182.138 584.319 182.51 584.054 183C583.788 183.49 583.655 184.083 583.655 184.781ZM604.063 180L599.626 192H597.751L593.313 180H595.313L598.626 189.562H598.751L602.063 180H604.063ZM606.497 192V180H608.341V192H606.497ZM607.435 178C607.075 178 606.765 177.878 606.505 177.633C606.25 177.388 606.122 177.094 606.122 176.75C606.122 176.406 606.25 176.112 606.505 175.867C606.765 175.622 607.075 175.5 607.435 175.5C607.794 175.5 608.101 175.622 608.356 175.867C608.617 176.112 608.747 176.406 608.747 176.75C608.747 177.094 608.617 177.388 608.356 177.633C608.101 177.878 607.794 178 607.435 178ZM616.937 180V181.562H610.718V180H616.937ZM612.53 177.125H614.374V188.562C614.374 189.083 614.45 189.474 614.601 189.734C614.757 189.99 614.955 190.161 615.194 190.25C615.439 190.333 615.697 190.375 615.968 190.375C616.171 190.375 616.338 190.365 616.468 190.344C616.598 190.318 616.702 190.297 616.78 190.281L617.155 191.937C617.03 191.984 616.856 192.031 616.632 192.078C616.408 192.13 616.124 192.156 615.78 192.156C615.259 192.156 614.749 192.044 614.249 191.82C613.754 191.596 613.343 191.255 613.015 190.797C612.692 190.339 612.53 189.76 612.53 189.062V177.125ZM624.612 192.25C623.456 192.25 622.459 191.995 621.62 191.484C620.787 190.969 620.144 190.25 619.69 189.328C619.243 188.401 619.019 187.323 619.019 186.094C619.019 184.865 619.243 183.781 619.69 182.844C620.144 181.901 620.774 181.167 621.581 180.641C622.394 180.109 623.341 179.844 624.425 179.844C625.05 179.844 625.667 179.948 626.276 180.156C626.886 180.365 627.44 180.703 627.94 181.172C628.44 181.635 628.839 182.25 629.136 183.016C629.433 183.781 629.581 184.724 629.581 185.844V186.625H620.331V185.031H627.706C627.706 184.354 627.571 183.75 627.3 183.219C627.034 182.687 626.654 182.268 626.159 181.961C625.67 181.654 625.091 181.5 624.425 181.5C623.69 181.5 623.055 181.682 622.519 182.047C621.987 182.406 621.578 182.875 621.292 183.453C621.006 184.031 620.862 184.651 620.862 185.312V186.375C620.862 187.281 621.019 188.049 621.331 188.68C621.649 189.305 622.089 189.781 622.651 190.109C623.214 190.432 623.868 190.594 624.612 190.594C625.097 190.594 625.534 190.526 625.925 190.391C626.321 190.25 626.662 190.042 626.948 189.766C627.235 189.484 627.456 189.135 627.612 188.719L629.394 189.219C629.206 189.823 628.891 190.354 628.448 190.812C628.006 191.266 627.459 191.62 626.808 191.875C626.157 192.125 625.425 192.25 624.612 192.25Z" fill="black"/>
<path d="M723.975 192H721.943L727.818 176H729.818L735.693 192H733.662L728.881 178.531H728.756L723.975 192ZM724.725 185.75H732.912V187.469H724.725V185.75ZM742.811 192.25C741.686 192.25 740.717 191.984 739.904 191.453C739.092 190.922 738.467 190.19 738.029 189.258C737.592 188.326 737.373 187.26 737.373 186.062C737.373 184.844 737.597 183.768 738.045 182.836C738.498 181.898 739.128 181.167 739.936 180.641C740.748 180.109 741.696 179.844 742.779 179.844C743.623 179.844 744.383 180 745.061 180.312C745.738 180.625 746.292 181.062 746.725 181.625C747.157 182.187 747.425 182.844 747.529 183.594H745.686C745.545 183.047 745.232 182.562 744.748 182.141C744.269 181.714 743.623 181.5 742.811 181.5C742.092 181.5 741.462 181.687 740.92 182.062C740.383 182.432 739.964 182.956 739.662 183.633C739.365 184.305 739.217 185.094 739.217 186C739.217 186.927 739.363 187.734 739.654 188.422C739.951 189.109 740.368 189.643 740.904 190.023C741.446 190.404 742.081 190.594 742.811 190.594C743.29 190.594 743.725 190.51 744.115 190.344C744.506 190.177 744.837 189.938 745.107 189.625C745.378 189.312 745.571 188.937 745.686 188.5H747.529C747.425 189.208 747.167 189.846 746.756 190.414C746.35 190.977 745.811 191.424 745.139 191.758C744.472 192.086 743.696 192.25 742.811 192.25ZM755.1 192.25C753.975 192.25 753.006 191.984 752.193 191.453C751.381 190.922 750.756 190.19 750.318 189.258C749.881 188.326 749.662 187.26 749.662 186.062C749.662 184.844 749.886 183.768 750.334 182.836C750.787 181.898 751.417 181.167 752.225 180.641C753.037 180.109 753.985 179.844 755.068 179.844C755.912 179.844 756.673 180 757.35 180.312C758.027 180.625 758.581 181.062 759.014 181.625C759.446 182.187 759.714 182.844 759.818 183.594H757.975C757.834 183.047 757.521 182.562 757.037 182.141C756.558 181.714 755.912 181.5 755.1 181.5C754.381 181.5 753.751 181.687 753.209 182.062C752.673 182.432 752.253 182.956 751.951 183.633C751.654 184.305 751.506 185.094 751.506 186C751.506 186.927 751.652 187.734 751.943 188.422C752.24 189.109 752.657 189.643 753.193 190.023C753.735 190.404 754.37 190.594 755.1 190.594C755.579 190.594 756.014 190.51 756.404 190.344C756.795 190.177 757.126 189.938 757.396 189.625C757.667 189.312 757.86 188.937 757.975 188.5H759.818C759.714 189.208 759.456 189.846 759.045 190.414C758.639 190.977 758.1 191.424 757.428 191.758C756.761 192.086 755.985 192.25 755.1 192.25ZM767.545 192.25C766.389 192.25 765.391 191.995 764.553 191.484C763.719 190.969 763.076 190.25 762.623 189.328C762.175 188.401 761.951 187.323 761.951 186.094C761.951 184.865 762.175 183.781 762.623 182.844C763.076 181.901 763.706 181.167 764.514 180.641C765.326 180.109 766.274 179.844 767.357 179.844C767.982 179.844 768.6 179.948 769.209 180.156C769.818 180.365 770.373 180.703 770.873 181.172C771.373 181.635 771.771 182.25 772.068 183.016C772.365 183.781 772.514 184.724 772.514 185.844V186.625H763.264V185.031H770.639C770.639 184.354 770.503 183.75 770.232 183.219C769.967 182.687 769.587 182.268 769.092 181.961C768.602 181.654 768.024 181.5 767.357 181.5C766.623 181.5 765.988 181.682 765.451 182.047C764.92 182.406 764.511 182.875 764.225 183.453C763.938 184.031 763.795 184.651 763.795 185.312V186.375C763.795 187.281 763.951 188.049 764.264 188.68C764.581 189.305 765.021 189.781 765.584 190.109C766.146 190.432 766.8 190.594 767.545 190.594C768.029 190.594 768.467 190.526 768.857 190.391C769.253 190.25 769.594 190.042 769.881 189.766C770.167 189.484 770.389 189.135 770.545 188.719L772.326 189.219C772.139 189.823 771.824 190.354 771.381 190.812C770.938 191.266 770.391 191.62 769.74 191.875C769.089 192.125 768.357 192.25 767.545 192.25ZM783.818 182.687L782.162 183.156C782.058 182.88 781.904 182.612 781.701 182.352C781.503 182.086 781.232 181.867 780.889 181.695C780.545 181.523 780.105 181.437 779.568 181.437C778.834 181.437 778.222 181.607 777.732 181.945C777.248 182.279 777.006 182.703 777.006 183.219C777.006 183.677 777.173 184.039 777.506 184.305C777.839 184.57 778.36 184.792 779.068 184.969L780.85 185.406C781.923 185.667 782.722 186.065 783.248 186.602C783.774 187.133 784.037 187.818 784.037 188.656C784.037 189.344 783.839 189.958 783.443 190.5C783.053 191.042 782.506 191.469 781.803 191.781C781.1 192.094 780.282 192.25 779.35 192.25C778.126 192.25 777.113 191.984 776.311 191.453C775.508 190.922 775.001 190.146 774.787 189.125L776.537 188.687C776.704 189.333 777.019 189.818 777.482 190.141C777.951 190.464 778.563 190.625 779.318 190.625C780.178 190.625 780.86 190.443 781.365 190.078C781.876 189.708 782.131 189.266 782.131 188.75C782.131 188.333 781.985 187.984 781.693 187.703C781.402 187.417 780.954 187.203 780.35 187.062L778.35 186.594C777.251 186.333 776.443 185.93 775.928 185.383C775.417 184.831 775.162 184.141 775.162 183.312C775.162 182.635 775.352 182.036 775.732 181.516C776.118 180.995 776.641 180.586 777.303 180.289C777.969 179.992 778.725 179.844 779.568 179.844C780.756 179.844 781.688 180.104 782.365 180.625C783.048 181.146 783.532 181.833 783.818 182.687ZM795.313 182.687L793.656 183.156C793.552 182.88 793.398 182.612 793.195 182.352C792.997 182.086 792.727 181.867 792.383 181.695C792.039 181.523 791.599 181.437 791.063 181.437C790.328 181.437 789.716 181.607 789.227 181.945C788.742 182.279 788.5 182.703 788.5 183.219C788.5 183.677 788.667 184.039 789 184.305C789.333 184.57 789.854 184.792 790.563 184.969L792.344 185.406C793.417 185.667 794.216 186.065 794.742 186.602C795.268 187.133 795.531 187.818 795.531 188.656C795.531 189.344 795.333 189.958 794.938 190.5C794.547 191.042 794 191.469 793.297 191.781C792.594 192.094 791.776 192.25 790.844 192.25C789.62 192.25 788.607 191.984 787.805 191.453C787.003 190.922 786.495 190.146 786.281 189.125L788.031 188.687C788.198 189.333 788.513 189.818 788.977 190.141C789.445 190.464 790.057 190.625 790.813 190.625C791.672 190.625 792.354 190.443 792.859 190.078C793.37 189.708 793.625 189.266 793.625 188.75C793.625 188.333 793.479 187.984 793.188 187.703C792.896 187.417 792.448 187.203 791.844 187.062L789.844 186.594C788.745 186.333 787.937 185.93 787.422 185.383C786.911 184.831 786.656 184.141 786.656 183.312C786.656 182.635 786.846 182.036 787.227 181.516C787.612 180.995 788.135 180.586 788.797 180.289C789.464 179.992 790.219 179.844 791.063 179.844C792.25 179.844 793.182 180.104 793.859 180.625C794.542 181.146 795.026 181.833 795.313 182.687Z" fill="black"/>
<rect x="290" y="20" width="540" height="46" fill="#4FC2E4"/>
<path d="M895 42.5L828.25 79.3061L828.25 5.69392L895 42.5Z" fill="#4FC2E4"/>
<path d="M525.209 37.6364C525.081 36.5568 524.562 35.7188 523.653 35.1222C522.744 34.5256 521.629 34.2273 520.308 34.2273C519.342 34.2273 518.497 34.3835 517.773 34.696C517.055 35.0085 516.494 35.4382 516.089 35.9851C515.692 36.532 515.493 37.1534 515.493 37.8494C515.493 38.4318 515.631 38.9325 515.908 39.3516C516.192 39.7635 516.555 40.108 516.995 40.3849C517.435 40.6548 517.897 40.8786 518.38 41.0561C518.863 41.2266 519.307 41.3651 519.711 41.4716L521.927 42.0682C522.496 42.2173 523.128 42.4233 523.824 42.6861C524.527 42.9489 525.198 43.3075 525.837 43.7621C526.483 44.2095 527.016 44.7848 527.435 45.4879C527.854 46.1911 528.064 47.054 528.064 48.0767C528.064 49.2557 527.755 50.321 527.137 51.2727C526.526 52.2244 525.631 52.9808 524.452 53.5419C523.28 54.103 521.856 54.3835 520.18 54.3835C518.618 54.3835 517.265 54.1314 516.121 53.6271C514.985 53.1229 514.09 52.4197 513.437 51.5178C512.79 50.6158 512.425 49.5682 512.339 48.375H515.067C515.138 49.1989 515.415 49.8807 515.898 50.4205C516.388 50.9531 517.006 51.3509 517.751 51.6136C518.504 51.8693 519.314 51.9972 520.18 51.9972C521.189 51.9972 522.094 51.8338 522.897 51.5071C523.699 51.1733 524.335 50.7116 524.804 50.1222C525.273 49.5256 525.507 48.8295 525.507 48.0341C525.507 47.3097 525.305 46.7202 524.9 46.2656C524.495 45.8111 523.962 45.4418 523.302 45.1577C522.641 44.8736 521.927 44.625 521.16 44.4119L518.476 43.6449C516.771 43.1548 515.422 42.4553 514.427 41.5462C513.433 40.6371 512.936 39.4474 512.936 37.9773C512.936 36.7557 513.266 35.6903 513.927 34.7812C514.594 33.8651 515.489 33.1548 516.611 32.6506C517.741 32.1392 519.001 31.8835 520.393 31.8835C521.8 31.8835 523.05 32.1357 524.143 32.6399C525.237 33.1371 526.104 33.8189 526.743 34.6854C527.389 35.5518 527.73 36.5355 527.765 37.6364H525.209ZM532.408 54V32.1818H535.05V41.8977H546.683V32.1818H549.325V54H546.683V44.2415H535.05V54H532.408ZM555.51 54H552.74L560.751 32.1818H563.478L571.49 54H568.72L562.2 35.6335H562.029L555.51 54ZM556.532 45.4773H567.697V47.821H556.532V45.4773ZM574.888 54V32.1818H582.26C583.965 32.1818 585.364 32.473 586.458 33.0554C587.551 33.6307 588.361 34.4226 588.887 35.4311C589.412 36.4396 589.675 37.5866 589.675 38.8722C589.675 40.1577 589.412 41.2976 588.887 42.2919C588.361 43.2862 587.555 44.0675 586.468 44.6357C585.382 45.1967 583.993 45.4773 582.303 45.4773H576.337V43.0909H582.218C583.382 43.0909 584.32 42.9205 585.03 42.5795C585.748 42.2386 586.266 41.7557 586.586 41.1307C586.912 40.4986 587.076 39.7457 587.076 38.8722C587.076 37.9986 586.912 37.2351 586.586 36.5817C586.259 35.9283 585.737 35.424 585.02 35.0689C584.302 34.7067 583.354 34.5256 582.175 34.5256H577.53V54H574.888ZM585.158 44.1989L590.527 54H587.459L582.175 44.1989H585.158ZM594.078 54V32.1818H607.245V34.5256H596.72V41.8977H606.563V44.2415H596.72V51.6562H607.416V54H594.078Z" fill="black"/>
<defs>
<linearGradient id="paint0_linear_288_2" x1="498" y1="393" x2="498" y2="625" gradientUnits="userSpaceOnUse">
<stop stop-color="#4FC2E4"/>
<stop offset="1" stop-color="#23CBA2"/>
</linearGradient>
</defs>
</svg>
