<svg width="1160" height="553" viewBox="0 0 1160 553" fill="none" xmlns="http://www.w3.org/2000/svg">
<path d="M382.262 327C364.117 327 356 351.6 356 374.5C356 397.4 364.276 422 382.262 422C400.247 422 408.523 397.4 408.523 374.5C408.523 351.6 400.406 327 382.262 327ZM382.262 414.8C377.964 414.8 367.46 400.7 367.46 374.5C367.46 348.3 377.964 334.2 382.262 334.2C386.559 334.2 397.223 348.3 397.223 374.5C397.223 400.7 386.559 414.8 382.262 414.8Z" fill="#4FC2E4"/>
<path d="M786.53 327C768.386 327 760.269 351.6 760.269 374.5C760.269 397.4 768.545 422 786.53 422C804.515 422 812.792 397.4 812.792 374.5C812.792 351.6 804.675 327 786.53 327ZM786.53 414.8C782.233 414.8 771.728 400.7 771.728 374.5C771.728 348.3 782.233 334.2 786.53 334.2C790.828 334.2 801.491 348.3 801.491 374.5C801.491 400.7 790.828 414.8 786.53 414.8Z" fill="#23CBA2"/>
<rect x="399" y="408" width="68" height="369.253" transform="rotate(-90 399 408)" fill="url(#paint0_linear_298_123)"/>
<path d="M529.176 385V363.182H536.548C538.26 363.182 539.659 363.491 540.746 364.109C541.84 364.719 542.649 365.547 543.175 366.591C543.7 367.635 543.963 368.8 543.963 370.085C543.963 371.371 543.7 372.539 543.175 373.59C542.656 374.641 541.854 375.479 540.767 376.104C539.68 376.722 538.288 377.031 536.591 377.031H531.307V374.688H536.506C537.678 374.688 538.619 374.485 539.329 374.08C540.039 373.675 540.554 373.129 540.874 372.44C541.2 371.744 541.364 370.959 541.364 370.085C541.364 369.212 541.2 368.43 540.874 367.741C540.554 367.053 540.036 366.513 539.318 366.122C538.601 365.724 537.649 365.526 536.463 365.526H531.818V385H529.176ZM566.628 374.091C566.628 376.392 566.213 378.381 565.382 380.057C564.551 381.733 563.411 383.026 561.962 383.935C560.513 384.844 558.858 385.298 556.998 385.298C555.137 385.298 553.482 384.844 552.033 383.935C550.584 383.026 549.444 381.733 548.613 380.057C547.782 378.381 547.367 376.392 547.367 374.091C547.367 371.79 547.782 369.801 548.613 368.125C549.444 366.449 550.584 365.156 552.033 364.247C553.482 363.338 555.137 362.884 556.998 362.884C558.858 362.884 560.513 363.338 561.962 364.247C563.411 365.156 564.551 366.449 565.382 368.125C566.213 369.801 566.628 371.79 566.628 374.091ZM564.071 374.091C564.071 372.202 563.755 370.607 563.123 369.308C562.498 368.008 561.65 367.024 560.577 366.357C559.512 365.689 558.319 365.355 556.998 365.355C555.677 365.355 554.48 365.689 553.407 366.357C552.342 367.024 551.493 368.008 550.861 369.308C550.236 370.607 549.924 372.202 549.924 374.091C549.924 375.98 550.236 377.575 550.861 378.874C551.493 380.174 552.342 381.158 553.407 381.825C554.48 382.493 555.677 382.827 556.998 382.827C558.319 382.827 559.512 382.493 560.577 381.825C561.65 381.158 562.498 380.174 563.123 378.874C563.755 377.575 564.071 375.98 564.071 374.091ZM571.071 385V363.182H578.443C580.147 363.182 581.547 363.473 582.64 364.055C583.734 364.631 584.544 365.423 585.069 366.431C585.595 367.44 585.858 368.587 585.858 369.872C585.858 371.158 585.595 372.298 585.069 373.292C584.544 374.286 583.738 375.067 582.651 375.636C581.564 376.197 580.176 376.477 578.486 376.477H572.52V374.091H578.4C579.565 374.091 580.503 373.92 581.213 373.58C581.93 373.239 582.449 372.756 582.768 372.131C583.095 371.499 583.258 370.746 583.258 369.872C583.258 368.999 583.095 368.235 582.768 367.582C582.441 366.928 581.919 366.424 581.202 366.069C580.485 365.707 579.537 365.526 578.358 365.526H573.713V385H571.071ZM581.341 375.199L586.71 385H583.642L578.358 375.199H581.341ZM589.067 365.526V363.182H605.431V365.526H598.57V385H595.928V365.526H589.067ZM607.854 385H605.084L613.096 363.182H615.823L623.834 385H621.065L614.545 366.634H614.374L607.854 385ZM608.877 376.477H620.042V378.821H608.877V376.477ZM627.233 385V363.182H629.875V382.656H640.017V385H627.233Z" fill="black"/>
<rect width="540" height="46" transform="matrix(-1 0 0 1 893 488)" fill="#23CBA2"/>
<path d="M293 510.5L359.75 547.306L359.75 473.694L293 510.5Z" fill="#23CBA2"/>
<path d="M566.991 522H564.221L572.233 500.182H574.96L582.971 522H580.201L573.681 503.634H573.511L566.991 522ZM568.014 513.477H579.179V515.821H568.014V513.477ZM602.901 507H600.259C600.103 506.24 599.829 505.572 599.439 504.997C599.055 504.422 598.586 503.939 598.032 503.548C597.486 503.151 596.878 502.852 596.211 502.653C595.543 502.455 594.847 502.355 594.123 502.355C592.802 502.355 591.605 502.689 590.532 503.357C589.467 504.024 588.618 505.008 587.986 506.308C587.361 507.607 587.049 509.202 587.049 511.091C587.049 512.98 587.361 514.575 587.986 515.874C588.618 517.174 589.467 518.158 590.532 518.825C591.605 519.493 592.802 519.827 594.123 519.827C594.847 519.827 595.543 519.727 596.211 519.528C596.878 519.33 597.486 519.035 598.032 518.644C598.586 518.246 599.055 517.76 599.439 517.185C599.829 516.602 600.103 515.935 600.259 515.182H602.901C602.702 516.297 602.34 517.295 601.814 518.175C601.289 519.056 600.635 519.805 599.854 520.423C599.073 521.034 598.196 521.499 597.223 521.819C596.257 522.138 595.223 522.298 594.123 522.298C592.262 522.298 590.607 521.844 589.158 520.935C587.709 520.026 586.569 518.733 585.738 517.057C584.907 515.381 584.492 513.392 584.492 511.091C584.492 508.79 584.907 506.801 585.738 505.125C586.569 503.449 587.709 502.156 589.158 501.247C590.607 500.338 592.262 499.884 594.123 499.884C595.223 499.884 596.257 500.043 597.223 500.363C598.196 500.683 599.073 501.151 599.854 501.769C600.635 502.38 601.289 503.126 601.814 504.006C602.34 504.88 602.702 505.878 602.901 507ZM624.727 507H622.085C621.929 506.24 621.655 505.572 621.265 504.997C620.881 504.422 620.413 503.939 619.859 503.548C619.312 503.151 618.704 502.852 618.037 502.653C617.369 502.455 616.673 502.355 615.949 502.355C614.628 502.355 613.431 502.689 612.359 503.357C611.293 504.024 610.445 505.008 609.812 506.308C609.187 507.607 608.875 509.202 608.875 511.091C608.875 512.98 609.187 514.575 609.812 515.874C610.445 517.174 611.293 518.158 612.359 518.825C613.431 519.493 614.628 519.827 615.949 519.827C616.673 519.827 617.369 519.727 618.037 519.528C618.704 519.33 619.312 519.035 619.859 518.644C620.413 518.246 620.881 517.76 621.265 517.185C621.655 516.602 621.929 515.935 622.085 515.182H624.727C624.528 516.297 624.166 517.295 623.641 518.175C623.115 519.056 622.462 519.805 621.68 520.423C620.899 521.034 620.022 521.499 619.049 521.819C618.083 522.138 617.05 522.298 615.949 522.298C614.088 522.298 612.433 521.844 610.984 520.935C609.535 520.026 608.396 518.733 607.565 517.057C606.734 515.381 606.318 513.392 606.318 511.091C606.318 508.79 606.734 506.801 607.565 505.125C608.396 503.449 609.535 502.156 610.984 501.247C612.433 500.338 614.088 499.884 615.949 499.884C617.05 499.884 618.083 500.043 619.049 500.363C620.022 500.683 620.899 501.151 621.68 501.769C622.462 502.38 623.115 503.126 623.641 504.006C624.166 504.88 624.528 505.878 624.727 507ZM628.997 522V500.182H642.164V502.526H631.639V509.898H641.482V512.241H631.639V519.656H642.335V522H628.997ZM658.858 505.636C658.73 504.557 658.212 503.719 657.303 503.122C656.394 502.526 655.278 502.227 653.957 502.227C652.992 502.227 652.146 502.384 651.422 502.696C650.705 503.009 650.144 503.438 649.739 503.985C649.341 504.532 649.142 505.153 649.142 505.849C649.142 506.432 649.281 506.933 649.558 507.352C649.842 507.763 650.204 508.108 650.644 508.385C651.085 508.655 651.546 508.879 652.029 509.056C652.512 509.227 652.956 509.365 653.361 509.472L655.577 510.068C656.145 510.217 656.777 510.423 657.473 510.686C658.176 510.949 658.847 511.308 659.487 511.762C660.133 512.21 660.666 512.785 661.085 513.488C661.504 514.191 661.713 515.054 661.713 516.077C661.713 517.256 661.404 518.321 660.786 519.273C660.176 520.224 659.281 520.981 658.102 521.542C656.93 522.103 655.506 522.384 653.83 522.384C652.267 522.384 650.914 522.131 649.771 521.627C648.634 521.123 647.739 520.42 647.086 519.518C646.44 518.616 646.074 517.568 645.989 516.375H648.716C648.787 517.199 649.064 517.881 649.547 518.42C650.037 518.953 650.655 519.351 651.401 519.614C652.153 519.869 652.963 519.997 653.83 519.997C654.838 519.997 655.744 519.834 656.546 519.507C657.349 519.173 657.984 518.712 658.453 518.122C658.922 517.526 659.156 516.83 659.156 516.034C659.156 515.31 658.954 514.72 658.549 514.266C658.144 513.811 657.612 513.442 656.951 513.158C656.291 512.874 655.577 512.625 654.81 512.412L652.125 511.645C650.421 511.155 649.071 510.455 648.077 509.546C647.082 508.637 646.585 507.447 646.585 505.977C646.585 504.756 646.916 503.69 647.576 502.781C648.244 501.865 649.139 501.155 650.261 500.651C651.39 500.139 652.651 499.884 654.043 499.884C655.449 499.884 656.699 500.136 657.793 500.64C658.886 501.137 659.753 501.819 660.392 502.685C661.038 503.552 661.379 504.536 661.415 505.636H658.858ZM677.989 505.636C677.861 504.557 677.343 503.719 676.434 503.122C675.524 502.526 674.409 502.227 673.088 502.227C672.122 502.227 671.277 502.384 670.553 502.696C669.835 503.009 669.274 503.438 668.87 503.985C668.472 504.532 668.273 505.153 668.273 505.849C668.273 506.432 668.411 506.933 668.688 507.352C668.973 507.763 669.335 508.108 669.775 508.385C670.215 508.655 670.677 508.879 671.16 509.056C671.643 509.227 672.087 509.365 672.492 509.472L674.708 510.068C675.276 510.217 675.908 510.423 676.604 510.686C677.307 510.949 677.978 511.308 678.617 511.762C679.264 512.21 679.796 512.785 680.215 513.488C680.635 514.191 680.844 515.054 680.844 516.077C680.844 517.256 680.535 518.321 679.917 519.273C679.306 520.224 678.411 520.981 677.233 521.542C676.061 522.103 674.637 522.384 672.96 522.384C671.398 522.384 670.045 522.131 668.902 521.627C667.765 521.123 666.87 520.42 666.217 519.518C665.571 518.616 665.205 517.568 665.12 516.375H667.847C667.918 517.199 668.195 517.881 668.678 518.42C669.168 518.953 669.786 519.351 670.532 519.614C671.284 519.869 672.094 519.997 672.96 519.997C673.969 519.997 674.875 519.834 675.677 519.507C676.48 519.173 677.115 518.712 677.584 518.122C678.053 517.526 678.287 516.83 678.287 516.034C678.287 515.31 678.085 514.72 677.68 514.266C677.275 513.811 676.742 513.442 676.082 513.158C675.421 512.874 674.708 512.625 673.941 512.412L671.256 511.645C669.551 511.155 668.202 510.455 667.208 509.546C666.213 508.637 665.716 507.447 665.716 505.977C665.716 504.756 666.046 503.69 666.707 502.781C667.375 501.865 668.269 501.155 669.392 500.651C670.521 500.139 671.782 499.884 673.174 499.884C674.58 499.884 675.83 500.136 676.924 500.64C678.017 501.137 678.884 501.819 679.523 502.685C680.169 503.552 680.51 504.536 680.546 505.636H677.989Z" fill="black"/>
<rect x="47" y="280" width="192.778" height="104" rx="35" fill="#4FC2E4"/>
<path d="M116.982 316.511C116.897 315.791 116.551 315.232 115.945 314.835C115.339 314.437 114.595 314.238 113.715 314.238C113.071 314.238 112.507 314.342 112.024 314.551C111.546 314.759 111.172 315.045 110.902 315.41C110.637 315.775 110.505 316.189 110.505 316.653C110.505 317.041 110.597 317.375 110.782 317.654C110.971 317.929 111.212 318.159 111.506 318.343C111.8 318.523 112.107 318.672 112.429 318.791C112.751 318.904 113.047 318.997 113.317 319.068L114.794 319.465C115.173 319.565 115.595 319.702 116.059 319.877C116.527 320.052 116.975 320.292 117.401 320.595C117.832 320.893 118.187 321.276 118.466 321.745C118.746 322.214 118.885 322.789 118.885 323.471C118.885 324.257 118.679 324.967 118.267 325.602C117.86 326.236 117.264 326.74 116.478 327.115C115.696 327.489 114.747 327.676 113.63 327.676C112.588 327.676 111.686 327.508 110.924 327.171C110.166 326.835 109.569 326.366 109.134 325.765C108.703 325.164 108.459 324.465 108.402 323.67H110.22C110.268 324.219 110.452 324.674 110.774 325.034C111.101 325.389 111.513 325.654 112.01 325.829C112.512 325.999 113.052 326.085 113.63 326.085C114.302 326.085 114.906 325.976 115.441 325.758C115.976 325.535 116.399 325.228 116.712 324.835C117.024 324.437 117.181 323.973 117.181 323.443C117.181 322.96 117.046 322.567 116.776 322.264C116.506 321.961 116.151 321.714 115.711 321.525C115.27 321.336 114.794 321.17 114.283 321.028L112.493 320.517C111.357 320.19 110.457 319.723 109.794 319.117C109.131 318.511 108.8 317.718 108.8 316.738C108.8 315.924 109.02 315.213 109.461 314.607C109.906 313.997 110.502 313.523 111.25 313.187C112.003 312.846 112.844 312.676 113.772 312.676C114.709 312.676 115.542 312.844 116.272 313.18C117.001 313.511 117.578 313.966 118.005 314.544C118.435 315.121 118.663 315.777 118.686 316.511H116.982ZM126.128 327.647C125.077 327.647 124.17 327.415 123.408 326.951C122.65 326.482 122.065 325.829 121.653 324.991C121.246 324.148 121.043 323.168 121.043 322.051C121.043 320.933 121.246 319.948 121.653 319.096C122.065 318.239 122.638 317.571 123.372 317.093C124.111 316.61 124.972 316.369 125.957 316.369C126.526 316.369 127.087 316.463 127.641 316.653C128.195 316.842 128.699 317.15 129.153 317.576C129.608 317.998 129.97 318.556 130.24 319.252C130.51 319.948 130.645 320.805 130.645 321.823V322.534H122.236V321.085H128.94C128.94 320.469 128.817 319.92 128.571 319.437C128.33 318.954 127.984 318.573 127.534 318.294C127.089 318.014 126.563 317.874 125.957 317.874C125.29 317.874 124.712 318.04 124.224 318.372C123.741 318.698 123.37 319.124 123.109 319.65C122.849 320.176 122.719 320.739 122.719 321.34V322.306C122.719 323.13 122.861 323.829 123.145 324.401C123.434 324.97 123.834 325.403 124.345 325.701C124.856 325.995 125.451 326.142 126.128 326.142C126.568 326.142 126.966 326.08 127.321 325.957C127.681 325.829 127.991 325.64 128.251 325.389C128.512 325.133 128.713 324.816 128.855 324.437L130.474 324.892C130.304 325.441 130.017 325.924 129.615 326.34C129.213 326.752 128.715 327.074 128.124 327.306C127.532 327.534 126.866 327.647 126.128 327.647ZM133.195 327.42V316.511H134.814V318.159H134.928C135.126 317.619 135.486 317.181 136.007 316.845C136.528 316.508 137.115 316.34 137.768 316.34C137.892 316.34 138.045 316.343 138.23 316.347C138.415 316.352 138.554 316.359 138.649 316.369V318.073C138.592 318.059 138.462 318.038 138.258 318.009C138.06 317.976 137.849 317.96 137.626 317.96C137.096 317.96 136.623 318.071 136.206 318.294C135.794 318.511 135.467 318.814 135.226 319.203C134.989 319.586 134.871 320.024 134.871 320.517V327.42H133.195ZM149.888 316.511L145.854 327.42H144.15L140.116 316.511H141.934L144.945 325.204H145.059L148.07 316.511H149.888ZM152.101 327.42V316.511H153.777V327.42H152.101ZM152.953 314.693C152.626 314.693 152.345 314.581 152.108 314.359C151.876 314.136 151.76 313.869 151.76 313.556C151.76 313.244 151.876 312.976 152.108 312.754C152.345 312.531 152.626 312.42 152.953 312.42C153.28 312.42 153.559 312.531 153.791 312.754C154.028 312.976 154.146 313.244 154.146 313.556C154.146 313.869 154.028 314.136 153.791 314.359C153.559 314.581 153.28 314.693 152.953 314.693ZM161.279 327.647C160.256 327.647 159.375 327.406 158.637 326.923C157.898 326.44 157.33 325.775 156.932 324.927C156.534 324.079 156.336 323.111 156.336 322.022C156.336 320.914 156.539 319.936 156.946 319.089C157.358 318.237 157.931 317.571 158.665 317.093C159.404 316.61 160.265 316.369 161.25 316.369C162.017 316.369 162.709 316.511 163.324 316.795C163.94 317.079 164.444 317.477 164.837 317.988C165.23 318.499 165.474 319.096 165.568 319.778H163.892C163.765 319.281 163.48 318.84 163.04 318.457C162.604 318.069 162.017 317.874 161.279 317.874C160.625 317.874 160.052 318.045 159.56 318.386C159.072 318.722 158.691 319.198 158.417 319.813C158.147 320.424 158.012 321.142 158.012 321.965C158.012 322.808 158.144 323.542 158.409 324.167C158.679 324.792 159.058 325.277 159.546 325.623C160.038 325.969 160.616 326.142 161.279 326.142C161.714 326.142 162.11 326.066 162.465 325.914C162.82 325.763 163.121 325.545 163.367 325.261C163.613 324.977 163.788 324.636 163.892 324.238H165.568C165.474 324.882 165.239 325.462 164.865 325.978C164.496 326.49 164.006 326.897 163.395 327.2C162.789 327.498 162.084 327.647 161.279 327.647ZM172.593 327.647C171.542 327.647 170.635 327.415 169.872 326.951C169.115 326.482 168.53 325.829 168.118 324.991C167.711 324.148 167.507 323.168 167.507 322.051C167.507 320.933 167.711 319.948 168.118 319.096C168.53 318.239 169.103 317.571 169.837 317.093C170.576 316.61 171.437 316.369 172.422 316.369C172.99 316.369 173.551 316.463 174.105 316.653C174.659 316.842 175.164 317.15 175.618 317.576C176.073 317.998 176.435 318.556 176.705 319.252C176.975 319.948 177.11 320.805 177.11 321.823V322.534H168.701V321.085H175.405C175.405 320.469 175.282 319.92 175.036 319.437C174.794 318.954 174.449 318.573 173.999 318.294C173.554 318.014 173.028 317.874 172.422 317.874C171.755 317.874 171.177 318.04 170.689 318.372C170.206 318.698 169.835 319.124 169.574 319.65C169.314 320.176 169.184 320.739 169.184 321.34V322.306C169.184 323.13 169.326 323.829 169.61 324.401C169.899 324.97 170.299 325.403 170.81 325.701C171.321 325.995 171.916 326.142 172.593 326.142C173.033 326.142 173.431 326.08 173.786 325.957C174.146 325.829 174.456 325.64 174.716 325.389C174.977 325.133 175.178 324.816 175.32 324.437L176.939 324.892C176.769 325.441 176.482 325.924 176.08 326.34C175.677 326.752 175.18 327.074 174.588 327.306C173.997 327.534 173.331 327.647 172.593 327.647ZM94.5777 344.857V351.42H92.9016V336.874H94.5777V342.215H94.7198C94.9755 341.652 95.359 341.204 95.8703 340.873C96.3864 340.537 97.073 340.369 97.93 340.369C98.6734 340.369 99.3244 340.518 99.8831 340.816C100.442 341.11 100.875 341.562 101.183 342.173C101.495 342.779 101.652 343.551 101.652 344.488V351.42H99.9755V344.602C99.9755 343.735 99.7505 343.065 99.3007 342.592C98.8557 342.114 98.2378 341.874 97.447 341.874C96.8978 341.874 96.4054 341.99 95.9698 342.222C95.5389 342.454 95.198 342.793 94.947 343.238C94.7008 343.683 94.5777 344.223 94.5777 344.857ZM109.15 351.647C108.165 351.647 107.301 351.413 106.557 350.944C105.819 350.475 105.241 349.82 104.825 348.977C104.413 348.134 104.207 347.149 104.207 346.022C104.207 344.886 104.413 343.894 104.825 343.046C105.241 342.199 105.819 341.541 106.557 341.072C107.301 340.603 108.165 340.369 109.15 340.369C110.135 340.369 110.996 340.603 111.735 341.072C112.478 341.541 113.056 342.199 113.468 343.046C113.885 343.894 114.093 344.886 114.093 346.022C114.093 347.149 113.885 348.134 113.468 348.977C113.056 349.82 112.478 350.475 111.735 350.944C110.996 351.413 110.135 351.647 109.15 351.647ZM109.15 350.142C109.898 350.142 110.513 349.95 110.996 349.566C111.479 349.183 111.837 348.678 112.069 348.053C112.301 347.428 112.417 346.751 112.417 346.022C112.417 345.293 112.301 344.614 112.069 343.984C111.837 343.354 111.479 342.845 110.996 342.457C110.513 342.069 109.898 341.874 109.15 341.874C108.402 341.874 107.786 342.069 107.303 342.457C106.82 342.845 106.463 343.354 106.231 343.984C105.999 344.614 105.883 345.293 105.883 346.022C105.883 346.751 105.999 347.428 106.231 348.053C106.463 348.678 106.82 349.183 107.303 349.566C107.786 349.95 108.402 350.142 109.15 350.142ZM124.379 342.954L122.873 343.38C122.778 343.129 122.639 342.885 122.454 342.649C122.274 342.407 122.028 342.208 121.716 342.052C121.403 341.896 121.003 341.818 120.515 341.818C119.848 341.818 119.291 341.972 118.846 342.279C118.406 342.582 118.186 342.968 118.186 343.437C118.186 343.854 118.337 344.183 118.64 344.424C118.943 344.666 119.417 344.867 120.061 345.028L121.68 345.426C122.655 345.662 123.382 346.025 123.86 346.512C124.339 346.995 124.578 347.618 124.578 348.38C124.578 349.005 124.398 349.564 124.038 350.056C123.683 350.549 123.186 350.937 122.546 351.221C121.907 351.505 121.164 351.647 120.316 351.647C119.204 351.647 118.283 351.406 117.554 350.923C116.824 350.44 116.363 349.734 116.169 348.806L117.76 348.409C117.911 348.996 118.198 349.436 118.619 349.73C119.045 350.023 119.601 350.17 120.288 350.17C121.069 350.17 121.689 350.004 122.149 349.673C122.613 349.337 122.845 348.934 122.845 348.465C122.845 348.087 122.712 347.769 122.447 347.514C122.182 347.253 121.775 347.059 121.225 346.931L119.407 346.505C118.408 346.268 117.674 345.901 117.206 345.404C116.742 344.902 116.51 344.275 116.51 343.522C116.51 342.907 116.682 342.362 117.028 341.889C117.378 341.415 117.854 341.044 118.456 340.774C119.062 340.504 119.748 340.369 120.515 340.369C121.595 340.369 122.442 340.606 123.058 341.079C123.678 341.552 124.118 342.177 124.379 342.954ZM131.845 340.511V341.931H126.192V340.511H131.845ZM127.839 337.897H129.516V348.295C129.516 348.768 129.584 349.124 129.722 349.36C129.864 349.592 130.044 349.749 130.261 349.829C130.484 349.905 130.718 349.943 130.964 349.943C131.149 349.943 131.301 349.933 131.419 349.914C131.537 349.891 131.632 349.872 131.703 349.857L132.044 351.363C131.93 351.406 131.772 351.448 131.568 351.491C131.365 351.538 131.106 351.562 130.794 351.562C130.321 351.562 129.856 351.46 129.402 351.257C128.952 351.053 128.578 350.743 128.28 350.326C127.986 349.91 127.839 349.384 127.839 348.749V337.897ZM135.588 351.534C135.238 351.534 134.937 351.408 134.686 351.157C134.435 350.906 134.31 350.606 134.31 350.255C134.31 349.905 134.435 349.604 134.686 349.353C134.937 349.102 135.238 348.977 135.588 348.977C135.938 348.977 136.239 349.102 136.49 349.353C136.741 349.604 136.866 349.905 136.866 350.255C136.866 350.487 136.807 350.7 136.689 350.894C136.575 351.088 136.421 351.245 136.227 351.363C136.038 351.477 135.825 351.534 135.588 351.534ZM135.588 343.437C135.238 343.437 134.937 343.311 134.686 343.061C134.435 342.81 134.31 342.509 134.31 342.159C134.31 341.808 134.435 341.508 134.686 341.257C134.937 341.006 135.238 340.88 135.588 340.88C135.938 340.88 136.239 341.006 136.49 341.257C136.741 341.508 136.866 341.808 136.866 342.159C136.866 342.391 136.807 342.604 136.689 342.798C136.575 342.992 136.421 343.148 136.227 343.267C136.038 343.38 135.825 343.437 135.588 343.437ZM139.874 355.511V340.511H141.494V342.244H141.692C141.816 342.054 141.986 341.813 142.204 341.519C142.426 341.221 142.744 340.956 143.155 340.724C143.572 340.487 144.136 340.369 144.846 340.369C145.764 340.369 146.574 340.598 147.275 341.058C147.976 341.517 148.522 342.168 148.915 343.011C149.308 343.854 149.505 344.848 149.505 345.994C149.505 347.149 149.308 348.151 148.915 348.998C148.522 349.841 147.978 350.494 147.282 350.958C146.586 351.418 145.783 351.647 144.874 351.647C144.173 351.647 143.612 351.531 143.191 351.299C142.77 351.062 142.445 350.795 142.218 350.497C141.991 350.194 141.816 349.943 141.692 349.744H141.55V355.511H139.874ZM141.522 345.965C141.522 346.789 141.643 347.516 141.884 348.146C142.126 348.771 142.478 349.261 142.942 349.616C143.406 349.966 143.975 350.142 144.647 350.142C145.348 350.142 145.932 349.957 146.401 349.588C146.875 349.213 147.23 348.712 147.467 348.082C147.708 347.447 147.829 346.742 147.829 345.965C147.829 345.198 147.71 344.507 147.474 343.892C147.242 343.271 146.889 342.781 146.415 342.421C145.947 342.057 145.357 341.874 144.647 341.874C143.965 341.874 143.392 342.047 142.928 342.393C142.464 342.734 142.114 343.212 141.877 343.828C141.64 344.438 141.522 345.151 141.522 345.965ZM156.494 351.647C155.509 351.647 154.645 351.413 153.901 350.944C153.163 350.475 152.585 349.82 152.168 348.977C151.756 348.134 151.55 347.149 151.55 346.022C151.55 344.886 151.756 343.894 152.168 343.046C152.585 342.199 153.163 341.541 153.901 341.072C154.645 340.603 155.509 340.369 156.494 340.369C157.478 340.369 158.34 340.603 159.079 341.072C159.822 341.541 160.4 342.199 160.812 343.046C161.228 343.894 161.437 344.886 161.437 346.022C161.437 347.149 161.228 348.134 160.812 348.977C160.4 349.82 159.822 350.475 159.079 350.944C158.34 351.413 157.478 351.647 156.494 351.647ZM156.494 350.142C157.242 350.142 157.857 349.95 158.34 349.566C158.823 349.183 159.181 348.678 159.413 348.053C159.645 347.428 159.761 346.751 159.761 346.022C159.761 345.293 159.645 344.614 159.413 343.984C159.181 343.354 158.823 342.845 158.34 342.457C157.857 342.069 157.242 341.874 156.494 341.874C155.745 341.874 155.13 342.069 154.647 342.457C154.164 342.845 153.807 343.354 153.575 343.984C153.343 344.614 153.227 345.293 153.227 346.022C153.227 346.751 153.343 347.428 153.575 348.053C153.807 348.678 154.164 349.183 154.647 349.566C155.13 349.95 155.745 350.142 156.494 350.142ZM163.995 351.42V340.511H165.615V342.159H165.728C165.927 341.619 166.287 341.181 166.808 340.845C167.329 340.508 167.916 340.34 168.569 340.34C168.692 340.34 168.846 340.343 169.031 340.347C169.216 340.352 169.355 340.359 169.45 340.369V342.073C169.393 342.059 169.263 342.038 169.059 342.009C168.86 341.976 168.65 341.96 168.427 341.96C167.897 341.96 167.423 342.071 167.007 342.294C166.595 342.511 166.268 342.814 166.027 343.203C165.79 343.586 165.671 344.024 165.671 344.517V351.42H163.995ZM176.865 340.511V341.931H171.211V340.511H176.865ZM172.859 337.897H174.535V348.295C174.535 348.768 174.604 349.124 174.741 349.36C174.883 349.592 175.063 349.749 175.281 349.829C175.503 349.905 175.738 349.943 175.984 349.943C176.169 349.943 176.32 349.933 176.439 349.914C176.557 349.891 176.652 349.872 176.723 349.857L177.064 351.363C176.95 351.406 176.791 351.448 176.588 351.491C176.384 351.538 176.126 351.562 175.814 351.562C175.34 351.562 174.876 351.46 174.421 351.257C173.972 351.053 173.598 350.743 173.299 350.326C173.006 349.91 172.859 349.384 172.859 348.749V337.897ZM186.914 351.42V352.982H177.823V351.42H186.914ZM191.346 336.874V351.42H189.585V338.721H189.5L185.948 341.079V339.289L189.585 336.874H191.346Z" fill="black"/>
<path d="M44.0165 267H243.283C249.463 267 254.487 271.011 254.487 275.943V390.255C254.487 395.187 249.463 399.198 243.283 399.198H44.0165C37.837 399.198 32.8125 395.187 32.8125 390.255V275.943C32.8125 271.011 37.837 267 44.0165 267ZM243.283 273.126H44.0165C42.0854 273.126 40.4874 274.402 40.4874 275.943V390.255C40.4874 391.796 42.0854 393.072 44.0165 393.072H243.283C245.214 393.072 246.812 391.796 246.812 390.255V275.943C246.812 274.402 245.214 273.126 243.283 273.126Z" fill="#4FC2E4"/>
<path d="M256.594 405.287L288.282 453.59C286.482 458.6 284.406 463.04 278.779 464.291H9.28368C3.39819 462.679 -0.506552 458.335 0.0532782 452.006L30.6926 405.287L256.594 405.287ZM252.463 412.966H34.8274L7.7421 454.256C8.4614 455.202 9.36849 455.964 10.3535 456.616H277.804C278.63 456.07 279.215 455.323 279.693 454.469L252.463 412.966Z" fill="#4FC2E4"/>
<path fill-rule="evenodd" clip-rule="evenodd" d="M36.6495 417.129H250.646L260.284 439.066H27.0117L36.6495 417.129Z" fill="#4FC2E4"/>
<rect x="916" y="282" width="198" height="104" rx="35" fill="#4FC2E4"/>
<path d="M989.286 316.091C989.201 315.371 988.855 314.812 988.249 314.415C987.643 314.017 986.9 313.818 986.019 313.818C985.375 313.818 984.812 313.922 984.329 314.131C983.851 314.339 983.477 314.625 983.207 314.99C982.942 315.355 982.809 315.769 982.809 316.233C982.809 316.621 982.901 316.955 983.086 317.234C983.275 317.509 983.517 317.739 983.81 317.923C984.104 318.103 984.412 318.252 984.734 318.371C985.056 318.484 985.352 318.577 985.621 318.648L987.099 319.045C987.478 319.145 987.899 319.282 988.363 319.457C988.832 319.633 989.279 319.872 989.705 320.175C990.136 320.473 990.491 320.857 990.771 321.325C991.05 321.794 991.19 322.369 991.19 323.051C991.19 323.837 990.984 324.547 990.572 325.182C990.165 325.816 989.568 326.321 988.782 326.695C988.001 327.069 987.051 327.256 985.934 327.256C984.892 327.256 983.99 327.088 983.228 326.751C982.47 326.415 981.874 325.946 981.438 325.345C981.007 324.744 980.763 324.045 980.707 323.25H982.525C982.572 323.799 982.757 324.254 983.079 324.614C983.406 324.969 983.817 325.234 984.315 325.409C984.817 325.58 985.356 325.665 985.934 325.665C986.606 325.665 987.21 325.556 987.745 325.338C988.28 325.116 988.704 324.808 989.016 324.415C989.329 324.017 989.485 323.553 989.485 323.023C989.485 322.54 989.35 322.147 989.08 321.844C988.81 321.541 988.455 321.295 988.015 321.105C987.575 320.916 987.099 320.75 986.587 320.608L984.798 320.097C983.661 319.77 982.762 319.304 982.099 318.697C981.436 318.091 981.104 317.298 981.104 316.318C981.104 315.504 981.325 314.794 981.765 314.188C982.21 313.577 982.807 313.103 983.555 312.767C984.308 312.426 985.148 312.256 986.076 312.256C987.013 312.256 987.847 312.424 988.576 312.76C989.305 313.091 989.883 313.546 990.309 314.124C990.74 314.701 990.967 315.357 990.991 316.091H989.286ZM998.432 327.227C997.381 327.227 996.474 326.995 995.712 326.531C994.954 326.062 994.37 325.409 993.958 324.571C993.551 323.728 993.347 322.748 993.347 321.631C993.347 320.513 993.551 319.528 993.958 318.676C994.37 317.819 994.943 317.152 995.676 316.673C996.415 316.19 997.277 315.949 998.262 315.949C998.83 315.949 999.391 316.044 999.945 316.233C1000.5 316.422 1001 316.73 1001.46 317.156C1001.91 317.578 1002.27 318.136 1002.54 318.832C1002.81 319.528 1002.95 320.385 1002.95 321.403V322.114H994.54V320.665H1001.24C1001.24 320.049 1001.12 319.5 1000.88 319.017C1000.63 318.534 1000.29 318.153 999.838 317.874C999.393 317.594 998.868 317.455 998.262 317.455C997.594 317.455 997.016 317.62 996.529 317.952C996.046 318.278 995.674 318.705 995.414 319.23C995.153 319.756 995.023 320.319 995.023 320.92V321.886C995.023 322.71 995.165 323.409 995.449 323.982C995.738 324.55 996.138 324.983 996.65 325.281C997.161 325.575 997.755 325.722 998.432 325.722C998.873 325.722 999.27 325.66 999.625 325.537C999.985 325.409 1000.3 325.22 1000.56 324.969C1000.82 324.713 1001.02 324.396 1001.16 324.017L1002.78 324.472C1002.61 325.021 1002.32 325.504 1001.92 325.92C1001.52 326.332 1001.02 326.654 1000.43 326.886C999.836 327.114 999.171 327.227 998.432 327.227ZM1005.5 327V316.091H1007.12V317.739H1007.23C1007.43 317.199 1007.79 316.761 1008.31 316.425C1008.83 316.089 1009.42 315.92 1010.07 315.92C1010.2 315.92 1010.35 315.923 1010.53 315.928C1010.72 315.932 1010.86 315.939 1010.95 315.949V317.653C1010.9 317.639 1010.77 317.618 1010.56 317.589C1010.36 317.556 1010.15 317.54 1009.93 317.54C1009.4 317.54 1008.93 317.651 1008.51 317.874C1008.1 318.091 1007.77 318.394 1007.53 318.783C1007.29 319.166 1007.18 319.604 1007.18 320.097V327H1005.5ZM1022.19 316.091L1018.16 327H1016.45L1012.42 316.091H1014.24L1017.25 324.784H1017.36L1020.37 316.091H1022.19ZM1024.41 327V316.091H1026.08V327H1024.41ZM1025.26 314.273C1024.93 314.273 1024.65 314.161 1024.41 313.939C1024.18 313.716 1024.06 313.449 1024.06 313.136C1024.06 312.824 1024.18 312.556 1024.41 312.334C1024.65 312.111 1024.93 312 1025.26 312C1025.58 312 1025.86 312.111 1026.1 312.334C1026.33 312.556 1026.45 312.824 1026.45 313.136C1026.45 313.449 1026.33 313.716 1026.1 313.939C1025.86 314.161 1025.58 314.273 1025.26 314.273ZM1033.58 327.227C1032.56 327.227 1031.68 326.986 1030.94 326.503C1030.2 326.02 1029.63 325.355 1029.24 324.507C1028.84 323.66 1028.64 322.691 1028.64 321.602C1028.64 320.494 1028.84 319.517 1029.25 318.669C1029.66 317.817 1030.24 317.152 1030.97 316.673C1031.71 316.19 1032.57 315.949 1033.55 315.949C1034.32 315.949 1035.01 316.091 1035.63 316.375C1036.24 316.659 1036.75 317.057 1037.14 317.568C1037.53 318.08 1037.78 318.676 1037.87 319.358H1036.2C1036.07 318.861 1035.78 318.42 1035.34 318.037C1034.91 317.649 1034.32 317.455 1033.58 317.455C1032.93 317.455 1032.36 317.625 1031.86 317.966C1031.38 318.302 1031 318.778 1030.72 319.393C1030.45 320.004 1030.32 320.722 1030.32 321.545C1030.32 322.388 1030.45 323.122 1030.71 323.747C1030.98 324.372 1031.36 324.857 1031.85 325.203C1032.34 325.549 1032.92 325.722 1033.58 325.722C1034.02 325.722 1034.41 325.646 1034.77 325.494C1035.12 325.343 1035.42 325.125 1035.67 324.841C1035.92 324.557 1036.09 324.216 1036.2 323.818H1037.87C1037.78 324.462 1037.54 325.042 1037.17 325.558C1036.8 326.07 1036.31 326.477 1035.7 326.78C1035.09 327.078 1034.39 327.227 1033.58 327.227ZM1044.9 327.227C1043.85 327.227 1042.94 326.995 1042.18 326.531C1041.42 326.062 1040.83 325.409 1040.42 324.571C1040.02 323.728 1039.81 322.748 1039.81 321.631C1039.81 320.513 1040.02 319.528 1040.42 318.676C1040.83 317.819 1041.41 317.152 1042.14 316.673C1042.88 316.19 1043.74 315.949 1044.73 315.949C1045.29 315.949 1045.86 316.044 1046.41 316.233C1046.96 316.422 1047.47 316.73 1047.92 317.156C1048.38 317.578 1048.74 318.136 1049.01 318.832C1049.28 319.528 1049.41 320.385 1049.41 321.403V322.114H1041V320.665H1047.71C1047.71 320.049 1047.59 319.5 1047.34 319.017C1047.1 318.534 1046.75 318.153 1046.3 317.874C1045.86 317.594 1045.33 317.455 1044.73 317.455C1044.06 317.455 1043.48 317.62 1042.99 317.952C1042.51 318.278 1042.14 318.705 1041.88 319.23C1041.62 319.756 1041.49 320.319 1041.49 320.92V321.886C1041.49 322.71 1041.63 323.409 1041.91 323.982C1042.2 324.55 1042.6 324.983 1043.11 325.281C1043.63 325.575 1044.22 325.722 1044.9 325.722C1045.34 325.722 1045.74 325.66 1046.09 325.537C1046.45 325.409 1046.76 325.22 1047.02 324.969C1047.28 324.713 1047.48 324.396 1047.62 324.017L1049.24 324.472C1049.07 325.021 1048.79 325.504 1048.38 325.92C1047.98 326.332 1047.48 326.654 1046.89 326.886C1046.3 327.114 1045.64 327.227 1044.9 327.227ZM941.02 336.455V351H937.994V336.455H941.02ZM948.373 351.213C947.269 351.213 946.315 350.979 945.51 350.51C944.71 350.036 944.092 349.378 943.657 348.536C943.221 347.688 943.003 346.705 943.003 345.588C943.003 344.461 943.221 343.476 943.657 342.634C944.092 341.786 944.71 341.128 945.51 340.659C946.315 340.186 947.269 339.949 948.373 339.949C949.476 339.949 950.428 340.186 951.228 340.659C952.033 341.128 952.653 341.786 953.089 342.634C953.524 343.476 953.742 344.461 953.742 345.588C953.742 346.705 953.524 347.688 953.089 348.536C952.653 349.378 952.033 350.036 951.228 350.51C950.428 350.979 949.476 351.213 948.373 351.213ZM948.387 348.869C948.889 348.869 949.308 348.727 949.644 348.443C949.98 348.154 950.233 347.761 950.404 347.264C950.579 346.767 950.667 346.201 950.667 345.567C950.667 344.932 950.579 344.366 950.404 343.869C950.233 343.372 949.98 342.979 949.644 342.69C949.308 342.402 948.889 342.257 948.387 342.257C947.88 342.257 947.454 342.402 947.108 342.69C946.768 342.979 946.51 343.372 946.334 343.869C946.164 344.366 946.079 344.932 946.079 345.567C946.079 346.201 946.164 346.767 946.334 347.264C946.51 347.761 946.768 348.154 947.108 348.443C947.454 348.727 947.88 348.869 948.387 348.869ZM960.638 351.213C959.521 351.213 958.56 350.976 957.755 350.503C956.955 350.025 956.339 349.362 955.908 348.514C955.482 347.667 955.269 346.691 955.269 345.588C955.269 344.471 955.484 343.491 955.915 342.648C956.351 341.8 956.969 341.14 957.769 340.666C958.569 340.188 959.521 339.949 960.624 339.949C961.576 339.949 962.409 340.122 963.124 340.467C963.839 340.813 964.405 341.298 964.822 341.923C965.238 342.548 965.468 343.282 965.51 344.125H962.655C962.575 343.58 962.362 343.143 962.016 342.811C961.675 342.475 961.228 342.307 960.674 342.307C960.205 342.307 959.796 342.435 959.445 342.69C959.099 342.941 958.83 343.308 958.635 343.791C958.441 344.274 958.344 344.859 958.344 345.545C958.344 346.241 958.439 346.833 958.628 347.321C958.823 347.809 959.095 348.18 959.445 348.436C959.796 348.692 960.205 348.82 960.674 348.82C961.019 348.82 961.33 348.749 961.604 348.607C961.884 348.464 962.113 348.259 962.293 347.989C962.478 347.714 962.599 347.385 962.655 347.001H965.51C965.463 347.835 965.236 348.569 964.829 349.203C964.426 349.833 963.87 350.325 963.16 350.68C962.449 351.036 961.609 351.213 960.638 351.213ZM970.558 351.206C969.862 351.206 969.242 351.085 968.698 350.844C968.153 350.598 967.722 350.235 967.405 349.757C967.093 349.274 966.936 348.673 966.936 347.953C966.936 347.347 967.048 346.838 967.27 346.426C967.493 346.014 967.796 345.683 968.179 345.432C968.563 345.181 968.998 344.991 969.486 344.864C969.978 344.736 970.494 344.646 971.034 344.594C971.669 344.527 972.18 344.466 972.568 344.409C972.957 344.348 973.238 344.258 973.414 344.139C973.589 344.021 973.676 343.846 973.676 343.614V343.571C973.676 343.121 973.534 342.773 973.25 342.527C972.971 342.281 972.573 342.158 972.057 342.158C971.512 342.158 971.079 342.278 970.757 342.52C970.435 342.757 970.222 343.055 970.118 343.415L967.32 343.188C967.462 342.525 967.741 341.952 968.158 341.469C968.575 340.981 969.112 340.607 969.77 340.347C970.433 340.081 971.2 339.949 972.071 339.949C972.677 339.949 973.257 340.02 973.811 340.162C974.37 340.304 974.865 340.524 975.296 340.822C975.731 341.121 976.075 341.504 976.325 341.973C976.576 342.437 976.702 342.993 976.702 343.642V351H973.833V349.487H973.747C973.572 349.828 973.338 350.129 973.044 350.389C972.751 350.645 972.398 350.846 971.986 350.993C971.574 351.135 971.098 351.206 970.558 351.206ZM971.425 349.118C971.87 349.118 972.263 349.03 972.604 348.855C972.945 348.675 973.212 348.434 973.406 348.131C973.601 347.828 973.698 347.484 973.698 347.101V345.943C973.603 346.005 973.473 346.062 973.307 346.114C973.146 346.161 972.964 346.206 972.76 346.249C972.557 346.286 972.353 346.322 972.149 346.355C971.946 346.384 971.761 346.41 971.595 346.433C971.24 346.485 970.93 346.568 970.665 346.682C970.4 346.795 970.194 346.949 970.047 347.143C969.9 347.333 969.827 347.57 969.827 347.854C969.827 348.266 969.976 348.58 970.274 348.798C970.577 349.011 970.961 349.118 971.425 349.118ZM982.075 336.455V351H979.049V336.455H982.075ZM987.524 344.693V351H984.498V336.455H987.439V342.016H987.567C987.813 341.372 988.211 340.867 988.76 340.503C989.309 340.134 989.998 339.949 990.827 339.949C991.584 339.949 992.245 340.115 992.808 340.446C993.376 340.773 993.817 341.244 994.129 341.859C994.446 342.47 994.603 343.202 994.598 344.054V351H991.572V344.594C991.577 343.921 991.407 343.398 991.061 343.024C990.72 342.65 990.242 342.463 989.626 342.463C989.214 342.463 988.85 342.551 988.532 342.726C988.22 342.901 987.974 343.157 987.794 343.493C987.619 343.824 987.529 344.224 987.524 344.693ZM1001.91 351.213C1000.8 351.213 999.851 350.979 999.046 350.51C998.245 350.036 997.628 349.378 997.192 348.536C996.756 347.688 996.539 346.705 996.539 345.588C996.539 344.461 996.756 343.476 997.192 342.634C997.628 341.786 998.245 341.128 999.046 340.659C999.851 340.186 1000.8 339.949 1001.91 339.949C1003.01 339.949 1003.96 340.186 1004.76 340.659C1005.57 341.128 1006.19 341.786 1006.62 342.634C1007.06 343.476 1007.28 344.461 1007.28 345.588C1007.28 346.705 1007.06 347.688 1006.62 348.536C1006.19 349.378 1005.57 350.036 1004.76 350.51C1003.96 350.979 1003.01 351.213 1001.91 351.213ZM1001.92 348.869C1002.42 348.869 1002.84 348.727 1003.18 348.443C1003.52 348.154 1003.77 347.761 1003.94 347.264C1004.11 346.767 1004.2 346.201 1004.2 345.567C1004.2 344.932 1004.11 344.366 1003.94 343.869C1003.77 343.372 1003.52 342.979 1003.18 342.69C1002.84 342.402 1002.42 342.257 1001.92 342.257C1001.42 342.257 1000.99 342.402 1000.64 342.69C1000.3 342.979 1000.04 343.372 999.869 343.869C999.699 344.366 999.614 344.932 999.614 345.567C999.614 346.201 999.699 346.767 999.869 347.264C1000.04 347.761 1000.3 348.154 1000.64 348.443C1000.99 348.727 1001.42 348.869 1001.92 348.869ZM1018.32 343.202L1015.55 343.372C1015.5 343.135 1015.4 342.922 1015.25 342.733C1015.09 342.539 1014.88 342.385 1014.63 342.271C1014.38 342.153 1014.08 342.094 1013.73 342.094C1013.26 342.094 1012.86 342.193 1012.54 342.392C1012.22 342.586 1012.06 342.847 1012.06 343.173C1012.06 343.434 1012.16 343.654 1012.37 343.834C1012.58 344.014 1012.94 344.158 1013.44 344.267L1015.42 344.665C1016.48 344.883 1017.27 345.233 1017.79 345.716C1018.31 346.199 1018.57 346.833 1018.57 347.619C1018.57 348.334 1018.36 348.962 1017.94 349.501C1017.52 350.041 1016.95 350.463 1016.22 350.766C1015.49 351.064 1014.66 351.213 1013.71 351.213C1012.27 351.213 1011.12 350.912 1010.26 350.311C1009.41 349.705 1008.91 348.881 1008.76 347.839L1011.74 347.683C1011.83 348.124 1012.05 348.46 1012.39 348.692C1012.74 348.919 1013.18 349.033 1013.72 349.033C1014.25 349.033 1014.68 348.931 1015 348.727C1015.32 348.519 1015.49 348.251 1015.49 347.925C1015.49 347.65 1015.37 347.425 1015.15 347.25C1014.92 347.07 1014.57 346.933 1014.1 346.838L1012.21 346.462C1011.14 346.249 1010.35 345.879 1009.83 345.354C1009.31 344.828 1009.05 344.158 1009.05 343.344C1009.05 342.643 1009.24 342.039 1009.62 341.533C1010 341.026 1010.54 340.635 1011.23 340.361C1011.93 340.086 1012.74 339.949 1013.68 339.949C1015.05 339.949 1016.14 340.24 1016.93 340.822C1017.72 341.405 1018.19 342.198 1018.32 343.202ZM1026.28 340.091V342.364H1019.71V340.091H1026.28ZM1021.2 337.477H1024.22V347.648C1024.22 347.927 1024.27 348.145 1024.35 348.301C1024.44 348.453 1024.56 348.559 1024.71 348.621C1024.86 348.682 1025.04 348.713 1025.25 348.713C1025.39 348.713 1025.53 348.701 1025.67 348.678C1025.82 348.649 1025.92 348.628 1026 348.614L1026.48 350.865C1026.32 350.912 1026.11 350.967 1025.84 351.028C1025.56 351.095 1025.23 351.135 1024.84 351.149C1024.11 351.178 1023.47 351.08 1022.92 350.858C1022.37 350.635 1021.95 350.29 1021.65 349.821C1021.34 349.352 1021.19 348.76 1021.2 348.045V337.477ZM1029.8 351.114C1029.45 351.114 1029.15 350.988 1028.89 350.737C1028.64 350.486 1028.52 350.186 1028.52 349.835C1028.52 349.485 1028.64 349.184 1028.89 348.933C1029.15 348.682 1029.45 348.557 1029.8 348.557C1030.15 348.557 1030.45 348.682 1030.7 348.933C1030.95 349.184 1031.08 349.485 1031.08 349.835C1031.08 350.067 1031.02 350.28 1030.9 350.474C1030.78 350.669 1030.63 350.825 1030.44 350.943C1030.25 351.057 1030.03 351.114 1029.8 351.114ZM1029.8 343.017C1029.45 343.017 1029.15 342.892 1028.89 342.641C1028.64 342.39 1028.52 342.089 1028.52 341.739C1028.52 341.388 1028.64 341.088 1028.89 340.837C1029.15 340.586 1029.45 340.46 1029.8 340.46C1030.15 340.46 1030.45 340.586 1030.7 340.837C1030.95 341.088 1031.08 341.388 1031.08 341.739C1031.08 341.971 1031.02 342.184 1030.9 342.378C1030.78 342.572 1030.63 342.728 1030.44 342.847C1030.25 342.96 1030.03 343.017 1029.8 343.017ZM1034.08 355.091V340.091H1035.7V341.824H1035.9C1036.02 341.634 1036.19 341.393 1036.41 341.099C1036.64 340.801 1036.95 340.536 1037.36 340.304C1037.78 340.067 1038.34 339.949 1039.05 339.949C1039.97 339.949 1040.78 340.179 1041.48 340.638C1042.18 341.097 1042.73 341.748 1043.12 342.591C1043.52 343.434 1043.71 344.428 1043.71 345.574C1043.71 346.729 1043.52 347.731 1043.12 348.578C1042.73 349.421 1042.19 350.074 1041.49 350.538C1040.79 350.998 1039.99 351.227 1039.08 351.227C1038.38 351.227 1037.82 351.111 1037.4 350.879C1036.98 350.643 1036.65 350.375 1036.43 350.077C1036.2 349.774 1036.02 349.523 1035.9 349.324H1035.76V355.091H1034.08ZM1035.73 345.545C1035.73 346.369 1035.85 347.096 1036.09 347.726C1036.33 348.351 1036.69 348.841 1037.15 349.196C1037.62 349.546 1038.18 349.722 1038.86 349.722C1039.56 349.722 1040.14 349.537 1040.61 349.168C1041.08 348.794 1041.44 348.292 1041.68 347.662C1041.92 347.027 1042.04 346.322 1042.04 345.545C1042.04 344.778 1041.92 344.087 1041.68 343.472C1041.45 342.851 1041.1 342.361 1040.62 342.001C1040.16 341.637 1039.57 341.455 1038.86 341.455C1038.17 341.455 1037.6 341.627 1037.14 341.973C1036.67 342.314 1036.32 342.792 1036.09 343.408C1035.85 344.018 1035.73 344.731 1035.73 345.545ZM1050.7 351.227C1049.72 351.227 1048.85 350.993 1048.11 350.524C1047.37 350.055 1046.79 349.4 1046.38 348.557C1045.97 347.714 1045.76 346.729 1045.76 345.602C1045.76 344.466 1045.97 343.474 1046.38 342.626C1046.79 341.779 1047.37 341.121 1048.11 340.652C1048.85 340.183 1049.72 339.949 1050.7 339.949C1051.69 339.949 1052.55 340.183 1053.29 340.652C1054.03 341.121 1054.61 341.779 1055.02 342.626C1055.44 343.474 1055.65 344.466 1055.65 345.602C1055.65 346.729 1055.44 347.714 1055.02 348.557C1054.61 349.4 1054.03 350.055 1053.29 350.524C1052.55 350.993 1051.69 351.227 1050.7 351.227ZM1050.7 349.722C1051.45 349.722 1052.07 349.53 1052.55 349.146C1053.03 348.763 1053.39 348.259 1053.62 347.634C1053.85 347.009 1053.97 346.331 1053.97 345.602C1053.97 344.873 1053.85 344.194 1053.62 343.564C1053.39 342.934 1053.03 342.425 1052.55 342.037C1052.07 341.649 1051.45 341.455 1050.7 341.455C1049.95 341.455 1049.34 341.649 1048.86 342.037C1048.37 342.425 1048.02 342.934 1047.78 343.564C1047.55 344.194 1047.44 344.873 1047.44 345.602C1047.44 346.331 1047.55 347.009 1047.78 347.634C1048.02 348.259 1048.37 348.763 1048.86 349.146C1049.34 349.53 1049.95 349.722 1050.7 349.722ZM1058.2 351V340.091H1059.82V341.739H1059.94C1060.14 341.199 1060.5 340.761 1061.02 340.425C1061.54 340.089 1062.12 339.92 1062.78 339.92C1062.9 339.92 1063.05 339.923 1063.24 339.928C1063.42 339.932 1063.56 339.939 1063.66 339.949V341.653C1063.6 341.639 1063.47 341.618 1063.27 341.589C1063.07 341.556 1062.86 341.54 1062.64 341.54C1062.11 341.54 1061.63 341.651 1061.22 341.874C1060.8 342.091 1060.48 342.394 1060.24 342.783C1060 343.166 1059.88 343.604 1059.88 344.097V351H1058.2ZM1071.07 340.091V341.511H1065.42V340.091H1071.07ZM1067.07 337.477H1068.74V347.875C1068.74 348.348 1068.81 348.704 1068.95 348.94C1069.09 349.172 1069.27 349.329 1069.49 349.409C1069.71 349.485 1069.95 349.523 1070.19 349.523C1070.38 349.523 1070.53 349.513 1070.65 349.494C1070.77 349.471 1070.86 349.452 1070.93 349.438L1071.27 350.943C1071.16 350.986 1071 351.028 1070.8 351.071C1070.59 351.118 1070.33 351.142 1070.02 351.142C1069.55 351.142 1069.08 351.04 1068.63 350.837C1068.18 350.633 1067.81 350.323 1067.51 349.906C1067.21 349.49 1067.07 348.964 1067.07 348.33V337.477ZM1081.12 351V352.562H1072.03V351H1081.12ZM1082.61 351V349.722L1087.41 344.466C1087.97 343.85 1088.44 343.315 1088.8 342.861C1089.17 342.402 1089.44 341.971 1089.61 341.568C1089.79 341.161 1089.88 340.735 1089.88 340.29C1089.88 339.778 1089.76 339.336 1089.51 338.962C1089.27 338.588 1088.94 338.299 1088.52 338.095C1088.1 337.892 1087.62 337.79 1087.1 337.79C1086.54 337.79 1086.05 337.906 1085.63 338.138C1085.22 338.365 1084.9 338.685 1084.68 339.097C1084.45 339.509 1084.34 339.991 1084.34 340.545H1082.67C1082.67 339.693 1082.86 338.945 1083.26 338.301C1083.65 337.657 1084.18 337.155 1084.86 336.795C1085.54 336.436 1086.31 336.256 1087.15 336.256C1088.01 336.256 1088.76 336.436 1089.42 336.795C1090.08 337.155 1090.59 337.641 1090.97 338.251C1091.34 338.862 1091.53 339.542 1091.53 340.29C1091.53 340.825 1091.43 341.348 1091.24 341.859C1091.05 342.366 1090.72 342.932 1090.24 343.557C1089.78 344.177 1089.12 344.935 1088.29 345.83L1085.02 349.324V349.438H1091.79V351H1082.61Z" fill="black"/>
<path d="M915.017 267H1114.28C1120.46 267 1125.49 271.011 1125.49 275.943V390.255C1125.49 395.187 1120.46 399.198 1114.28 399.198H915.017C908.837 399.198 903.812 395.187 903.812 390.255V275.943C903.812 271.011 908.837 267 915.017 267ZM1114.28 273.126H915.017C913.085 273.126 911.487 274.402 911.487 275.943V390.255C911.487 391.796 913.085 393.072 915.017 393.072H1114.28C1116.21 393.072 1117.81 391.796 1117.81 390.255V275.943C1117.81 274.402 1116.21 273.126 1114.28 273.126Z" fill="#23CBA2"/>
<path d="M1127.59 405.287L1159.28 453.59C1157.48 458.6 1155.41 463.04 1149.78 464.291H880.284C874.398 462.679 870.493 458.335 871.053 452.006L901.693 405.287L1127.59 405.287ZM1123.46 412.966H905.827L878.742 454.256C879.461 455.202 880.368 455.964 881.354 456.616H1148.8C1149.63 456.07 1150.21 455.323 1150.69 454.469L1123.46 412.966Z" fill="#23CBA2"/>
<path fill-rule="evenodd" clip-rule="evenodd" d="M907.649 417.129H1121.65L1131.28 439.066H898.012L907.649 417.129Z" fill="#23CBA2"/>
<circle cx="444.465" cy="95.2192" r="75.2192" fill="#4FC2E4"/>
<path d="M423.957 78.9541H422.02C421.905 78.3968 421.705 77.9072 421.418 77.4854C421.137 77.0635 420.793 76.7093 420.387 76.4229C419.986 76.1312 419.54 75.9124 419.051 75.7666C418.561 75.6208 418.051 75.5479 417.52 75.5479C416.551 75.5479 415.673 75.7926 414.887 76.2822C414.106 76.7718 413.483 77.4932 413.02 78.4463C412.561 79.3994 412.332 80.5687 412.332 81.9541C412.332 83.3395 412.561 84.5088 413.02 85.4619C413.483 86.415 414.106 87.1364 414.887 87.626C415.673 88.1156 416.551 88.3604 417.52 88.3604C418.051 88.3604 418.561 88.2874 419.051 88.1416C419.54 87.9958 419.986 87.7796 420.387 87.4932C420.793 87.2015 421.137 86.8447 421.418 86.4229C421.705 85.9958 421.905 85.5062 422.02 84.9541H423.957C423.811 85.7718 423.546 86.5036 423.16 87.1494C422.775 87.7952 422.296 88.3447 421.723 88.7979C421.15 89.2458 420.507 89.5869 419.793 89.8213C419.085 90.0557 418.327 90.1729 417.52 90.1729C416.155 90.1729 414.942 89.8395 413.879 89.1729C412.817 88.5062 411.981 87.5583 411.371 86.3291C410.762 85.0999 410.457 83.6416 410.457 81.9541C410.457 80.2666 410.762 78.8083 411.371 77.5791C411.981 76.3499 412.817 75.402 413.879 74.7354C414.942 74.0687 416.155 73.7354 417.52 73.7354C418.327 73.7354 419.085 73.8525 419.793 74.0869C420.507 74.3213 421.15 74.665 421.723 75.1182C422.296 75.5661 422.775 76.113 423.16 76.7588C423.546 77.3994 423.811 78.1312 423.957 78.9541ZM426.838 89.9541V77.9541H428.619V79.7666H428.744C428.963 79.1729 429.359 78.6911 429.932 78.3213C430.505 77.9515 431.151 77.7666 431.869 77.7666C432.005 77.7666 432.174 77.7692 432.377 77.7744C432.58 77.7796 432.734 77.7874 432.838 77.7979V79.6729C432.776 79.6572 432.632 79.6338 432.408 79.6025C432.19 79.5661 431.958 79.5479 431.713 79.5479C431.13 79.5479 430.609 79.6702 430.151 79.915C429.697 80.1546 429.338 80.488 429.072 80.915C428.812 81.3369 428.682 81.8187 428.682 82.3604V89.9541H426.838ZM439.69 90.2041C438.533 90.2041 437.536 89.9489 436.697 89.4385C435.864 88.9229 435.221 88.2041 434.768 87.2822C434.32 86.3551 434.096 85.277 434.096 84.0479C434.096 82.8187 434.32 81.7354 434.768 80.7979C435.221 79.8551 435.851 79.1208 436.658 78.5947C437.471 78.0635 438.419 77.7979 439.502 77.7979C440.127 77.7979 440.744 77.902 441.354 78.1104C441.963 78.3187 442.518 78.6572 443.018 79.126C443.518 79.5895 443.916 80.2041 444.213 80.9697C444.51 81.7354 444.658 82.6781 444.658 83.7979V84.5791H435.408V82.9854H442.783C442.783 82.3083 442.648 81.7041 442.377 81.1729C442.111 80.6416 441.731 80.2223 441.236 79.915C440.747 79.6077 440.169 79.4541 439.502 79.4541C438.768 79.4541 438.132 79.6364 437.596 80.001C437.065 80.3604 436.656 80.8291 436.369 81.4072C436.083 81.9854 435.94 82.6051 435.94 83.2666V84.3291C435.94 85.2354 436.096 86.0036 436.408 86.6338C436.726 87.2588 437.166 87.7354 437.729 88.0635C438.291 88.3864 438.945 88.5479 439.69 88.5479C440.174 88.5479 440.611 88.4801 441.002 88.3447C441.398 88.2041 441.739 87.9958 442.026 87.7197C442.312 87.4385 442.533 87.0895 442.69 86.6729L444.471 87.1729C444.283 87.777 443.968 88.3083 443.526 88.7666C443.083 89.2197 442.536 89.5739 441.885 89.8291C441.234 90.0791 440.502 90.2041 439.69 90.2041ZM450.994 90.2354C450.234 90.2354 449.544 90.0921 448.924 89.8057C448.304 89.514 447.812 89.0947 447.447 88.5479C447.083 87.9958 446.901 87.3291 446.901 86.5479C446.901 85.8604 447.036 85.3031 447.307 84.876C447.578 84.4437 447.94 84.1051 448.393 83.8604C448.846 83.6156 449.346 83.4333 449.893 83.3135C450.445 83.1885 450.999 83.0895 451.557 83.0166C452.286 82.9229 452.877 82.8525 453.33 82.8057C453.789 82.7536 454.122 82.6676 454.33 82.5479C454.544 82.4281 454.651 82.2197 454.651 81.9229V81.8604C454.651 81.0895 454.44 80.4906 454.018 80.0635C453.601 79.6364 452.968 79.4229 452.119 79.4229C451.239 79.4229 450.549 79.6156 450.049 80.001C449.549 80.3864 449.197 80.7979 448.994 81.2354L447.244 80.6104C447.557 79.8812 447.973 79.3135 448.494 78.9072C449.02 78.4958 449.593 78.2093 450.213 78.0479C450.838 77.8812 451.453 77.7979 452.057 77.7979C452.442 77.7979 452.885 77.8447 453.385 77.9385C453.89 78.027 454.377 78.2119 454.846 78.4932C455.32 78.7744 455.713 79.1989 456.026 79.7666C456.338 80.3343 456.494 81.0947 456.494 82.0479V89.9541H454.651V88.3291H454.557C454.432 88.5895 454.223 88.8682 453.932 89.165C453.64 89.4619 453.252 89.7145 452.768 89.9229C452.283 90.1312 451.692 90.2354 450.994 90.2354ZM451.276 88.5791C452.005 88.5791 452.619 88.4359 453.119 88.1494C453.624 87.863 454.005 87.4932 454.26 87.04C454.52 86.5869 454.651 86.1104 454.651 85.6104V83.9229C454.572 84.0166 454.401 84.1025 454.135 84.1807C453.874 84.2536 453.572 84.3187 453.229 84.376C452.89 84.4281 452.559 84.4749 452.236 84.5166C451.919 84.5531 451.661 84.5843 451.463 84.6104C450.984 84.6729 450.536 84.7744 450.119 84.915C449.708 85.0505 449.374 85.2562 449.119 85.5322C448.869 85.8031 448.744 86.1729 448.744 86.6416C448.744 87.2822 448.981 87.7666 449.455 88.0947C449.934 88.4176 450.541 88.5791 451.276 88.5791ZM465.078 77.9541V79.5166H458.859V77.9541H465.078ZM460.672 75.0791H462.516V86.5166C462.516 87.0374 462.591 87.4281 462.742 87.6885C462.899 87.9437 463.096 88.1156 463.336 88.2041C463.581 88.2874 463.839 88.3291 464.109 88.3291C464.313 88.3291 464.479 88.3187 464.609 88.2979C464.74 88.2718 464.844 88.251 464.922 88.2354L465.297 89.8916C465.172 89.9385 464.998 89.9854 464.774 90.0322C464.55 90.0843 464.266 90.1104 463.922 90.1104C463.401 90.1104 462.891 89.9984 462.391 89.7744C461.896 89.5505 461.484 89.2093 461.156 88.751C460.833 88.2926 460.672 87.7145 460.672 87.0166V75.0791ZM472.754 90.2041C471.598 90.2041 470.6 89.9489 469.762 89.4385C468.929 88.9229 468.285 88.2041 467.832 87.2822C467.384 86.3551 467.16 85.277 467.16 84.0479C467.16 82.8187 467.384 81.7354 467.832 80.7979C468.285 79.8551 468.915 79.1208 469.723 78.5947C470.535 78.0635 471.483 77.7979 472.567 77.7979C473.192 77.7979 473.809 77.902 474.418 78.1104C475.027 78.3187 475.582 78.6572 476.082 79.126C476.582 79.5895 476.981 80.2041 477.277 80.9697C477.574 81.7354 477.723 82.6781 477.723 83.7979V84.5791H468.473V82.9854H475.848C475.848 82.3083 475.712 81.7041 475.442 81.1729C475.176 80.6416 474.796 80.2223 474.301 79.915C473.811 79.6077 473.233 79.4541 472.567 79.4541C471.832 79.4541 471.197 79.6364 470.66 80.001C470.129 80.3604 469.72 80.8291 469.434 81.4072C469.147 81.9854 469.004 82.6051 469.004 83.2666V84.3291C469.004 85.2354 469.16 86.0036 469.473 86.6338C469.79 87.2588 470.231 87.7354 470.793 88.0635C471.356 88.3864 472.009 88.5479 472.754 88.5479C473.238 88.5479 473.676 88.4801 474.067 88.3447C474.462 88.2041 474.804 87.9958 475.09 87.7197C475.376 87.4385 475.598 87.0895 475.754 86.6729L477.535 87.1729C477.348 87.777 477.033 88.3083 476.59 88.7666C476.147 89.2197 475.6 89.5739 474.949 89.8291C474.298 90.0791 473.567 90.2041 472.754 90.2041ZM409.379 117.235C408.619 117.235 407.929 117.092 407.309 116.806C406.689 116.514 406.197 116.095 405.832 115.548C405.468 114.996 405.285 114.329 405.285 113.548C405.285 112.86 405.421 112.303 405.692 111.876C405.962 111.444 406.324 111.105 406.777 110.86C407.231 110.616 407.731 110.433 408.277 110.313C408.83 110.188 409.384 110.09 409.942 110.017C410.671 109.923 411.262 109.853 411.715 109.806C412.173 109.754 412.507 109.668 412.715 109.548C412.929 109.428 413.035 109.22 413.035 108.923V108.86C413.035 108.09 412.824 107.491 412.402 107.063C411.986 106.636 411.353 106.423 410.504 106.423C409.624 106.423 408.934 106.616 408.434 107.001C407.934 107.386 407.582 107.798 407.379 108.235L405.629 107.61C405.942 106.881 406.358 106.313 406.879 105.907C407.405 105.496 407.978 105.209 408.598 105.048C409.223 104.881 409.837 104.798 410.442 104.798C410.827 104.798 411.27 104.845 411.77 104.938C412.275 105.027 412.762 105.212 413.231 105.493C413.705 105.774 414.098 106.199 414.41 106.767C414.723 107.334 414.879 108.095 414.879 109.048V116.954H413.035V115.329H412.942C412.817 115.59 412.608 115.868 412.317 116.165C412.025 116.462 411.637 116.715 411.152 116.923C410.668 117.131 410.077 117.235 409.379 117.235ZM409.66 115.579C410.389 115.579 411.004 115.436 411.504 115.149C412.009 114.863 412.389 114.493 412.645 114.04C412.905 113.587 413.035 113.11 413.035 112.61V110.923C412.957 111.017 412.785 111.103 412.52 111.181C412.259 111.254 411.957 111.319 411.613 111.376C411.275 111.428 410.944 111.475 410.621 111.517C410.304 111.553 410.046 111.584 409.848 111.61C409.369 111.673 408.921 111.774 408.504 111.915C408.093 112.05 407.759 112.256 407.504 112.532C407.254 112.803 407.129 113.173 407.129 113.642C407.129 114.282 407.366 114.767 407.84 115.095C408.319 115.418 408.926 115.579 409.66 115.579ZM424.432 121.454V104.954H426.213V106.86H426.432C426.567 106.652 426.755 106.386 426.994 106.063C427.239 105.735 427.588 105.444 428.041 105.188C428.499 104.928 429.119 104.798 429.901 104.798C430.911 104.798 431.802 105.05 432.572 105.556C433.343 106.061 433.945 106.777 434.377 107.704C434.809 108.631 435.026 109.725 435.026 110.985C435.026 112.256 434.809 113.358 434.377 114.29C433.945 115.217 433.346 115.936 432.58 116.446C431.815 116.951 430.932 117.204 429.932 117.204C429.161 117.204 428.544 117.076 428.08 116.821C427.617 116.561 427.26 116.267 427.01 115.938C426.76 115.605 426.567 115.329 426.432 115.11H426.276V121.454H424.432ZM426.244 110.954C426.244 111.86 426.377 112.66 426.643 113.353C426.908 114.04 427.296 114.579 427.807 114.97C428.317 115.355 428.942 115.548 429.682 115.548C430.453 115.548 431.096 115.345 431.611 114.938C432.132 114.527 432.523 113.975 432.783 113.282C433.049 112.584 433.182 111.808 433.182 110.954C433.182 110.11 433.052 109.35 432.791 108.673C432.536 107.991 432.148 107.451 431.627 107.056C431.111 106.655 430.463 106.454 429.682 106.454C428.932 106.454 428.302 106.644 427.791 107.024C427.281 107.399 426.895 107.925 426.635 108.603C426.374 109.274 426.244 110.058 426.244 110.954ZM442.713 117.204C441.63 117.204 440.679 116.946 439.861 116.431C439.049 115.915 438.414 115.194 437.955 114.267C437.502 113.34 437.276 112.256 437.276 111.017C437.276 109.767 437.502 108.675 437.955 107.743C438.414 106.811 439.049 106.087 439.861 105.571C440.679 105.056 441.63 104.798 442.713 104.798C443.796 104.798 444.744 105.056 445.557 105.571C446.374 106.087 447.01 106.811 447.463 107.743C447.921 108.675 448.151 109.767 448.151 111.017C448.151 112.256 447.921 113.34 447.463 114.267C447.01 115.194 446.374 115.915 445.557 116.431C444.744 116.946 443.796 117.204 442.713 117.204ZM442.713 115.548C443.536 115.548 444.213 115.337 444.744 114.915C445.276 114.493 445.669 113.938 445.924 113.251C446.179 112.563 446.307 111.819 446.307 111.017C446.307 110.215 446.179 109.467 445.924 108.774C445.669 108.082 445.276 107.522 444.744 107.095C444.213 106.668 443.536 106.454 442.713 106.454C441.89 106.454 441.213 106.668 440.682 107.095C440.151 107.522 439.757 108.082 439.502 108.774C439.247 109.467 439.119 110.215 439.119 111.017C439.119 111.819 439.247 112.563 439.502 113.251C439.757 113.938 440.151 114.493 440.682 114.915C441.213 115.337 441.89 115.548 442.713 115.548ZM450.965 116.954V104.954H452.746V106.767H452.871C453.09 106.173 453.486 105.691 454.059 105.321C454.632 104.951 455.277 104.767 455.996 104.767C456.132 104.767 456.301 104.769 456.504 104.774C456.707 104.78 456.861 104.787 456.965 104.798V106.673C456.902 106.657 456.759 106.634 456.535 106.603C456.317 106.566 456.085 106.548 455.84 106.548C455.257 106.548 454.736 106.67 454.277 106.915C453.824 107.155 453.465 107.488 453.199 107.915C452.939 108.337 452.809 108.819 452.809 109.36V116.954H450.965ZM465.121 104.954V106.517H458.902V104.954H465.121ZM460.715 102.079H462.559V113.517C462.559 114.037 462.634 114.428 462.785 114.688C462.942 114.944 463.139 115.116 463.379 115.204C463.624 115.287 463.882 115.329 464.152 115.329C464.356 115.329 464.522 115.319 464.652 115.298C464.783 115.272 464.887 115.251 464.965 115.235L465.34 116.892C465.215 116.938 465.04 116.985 464.817 117.032C464.593 117.084 464.309 117.11 463.965 117.11C463.444 117.11 462.934 116.998 462.434 116.774C461.939 116.55 461.527 116.209 461.199 115.751C460.876 115.293 460.715 114.715 460.715 114.017V102.079ZM471.426 117.235C470.665 117.235 469.975 117.092 469.356 116.806C468.736 116.514 468.244 116.095 467.879 115.548C467.514 114.996 467.332 114.329 467.332 113.548C467.332 112.86 467.468 112.303 467.738 111.876C468.009 111.444 468.371 111.105 468.824 110.86C469.277 110.616 469.777 110.433 470.324 110.313C470.876 110.188 471.431 110.09 471.988 110.017C472.718 109.923 473.309 109.853 473.762 109.806C474.22 109.754 474.554 109.668 474.762 109.548C474.975 109.428 475.082 109.22 475.082 108.923V108.86C475.082 108.09 474.871 107.491 474.449 107.063C474.033 106.636 473.4 106.423 472.551 106.423C471.671 106.423 470.981 106.616 470.481 107.001C469.981 107.386 469.629 107.798 469.426 108.235L467.676 107.61C467.988 106.881 468.405 106.313 468.926 105.907C469.452 105.496 470.025 105.209 470.645 105.048C471.27 104.881 471.884 104.798 472.488 104.798C472.874 104.798 473.317 104.845 473.817 104.938C474.322 105.027 474.809 105.212 475.277 105.493C475.751 105.774 476.145 106.199 476.457 106.767C476.77 107.334 476.926 108.095 476.926 109.048V116.954H475.082V115.329H474.988C474.863 115.59 474.655 115.868 474.363 116.165C474.072 116.462 473.684 116.715 473.199 116.923C472.715 117.131 472.124 117.235 471.426 117.235ZM471.707 115.579C472.436 115.579 473.051 115.436 473.551 115.149C474.056 114.863 474.436 114.493 474.692 114.04C474.952 113.587 475.082 113.11 475.082 112.61V110.923C475.004 111.017 474.832 111.103 474.567 111.181C474.306 111.254 474.004 111.319 473.66 111.376C473.322 111.428 472.991 111.475 472.668 111.517C472.35 111.553 472.093 111.584 471.895 111.61C471.415 111.673 470.968 111.774 470.551 111.915C470.139 112.05 469.806 112.256 469.551 112.532C469.301 112.803 469.176 113.173 469.176 113.642C469.176 114.282 469.413 114.767 469.887 115.095C470.366 115.418 470.973 115.579 471.707 115.579ZM482.135 100.954V116.954H480.291V100.954H482.135Z" fill="black"/>
<circle cx="602.473" cy="95.2192" r="75.2192" fill="#4FC2E4"/>
<path d="M578.177 86V102H576.239V86H578.177ZM583.655 94.7812V102H581.812V90H583.593V91.875H583.749C584.03 91.2656 584.457 90.776 585.03 90.4063C585.603 90.0313 586.343 89.8438 587.249 89.8438C588.062 89.8438 588.772 90.0104 589.382 90.3437C589.991 90.6719 590.465 91.1719 590.804 91.8437C591.142 92.5104 591.312 93.3542 591.312 94.375V102H589.468V94.5C589.468 93.5573 589.223 92.8229 588.733 92.2969C588.244 91.7656 587.572 91.5 586.718 91.5C586.129 91.5 585.603 91.6276 585.14 91.8828C584.681 92.138 584.319 92.5104 584.054 93C583.788 93.4896 583.655 94.0833 583.655 94.7812ZM604.063 90L599.626 102H597.751L593.313 90H595.313L598.626 99.5625H598.751L602.063 90H604.063ZM606.497 102V90H608.341V102H606.497ZM607.435 88C607.075 88 606.765 87.8776 606.505 87.6328C606.25 87.388 606.122 87.0938 606.122 86.75C606.122 86.4063 606.25 86.112 606.505 85.8672C606.765 85.6224 607.075 85.5 607.435 85.5C607.794 85.5 608.101 85.6224 608.356 85.8672C608.617 86.112 608.747 86.4063 608.747 86.75C608.747 87.0938 608.617 87.388 608.356 87.6328C608.101 87.8776 607.794 88 607.435 88ZM616.937 90V91.5625H610.718V90H616.937ZM612.53 87.125H614.374V98.5625C614.374 99.0833 614.45 99.474 614.601 99.7344C614.757 99.9896 614.955 100.161 615.194 100.25C615.439 100.333 615.697 100.375 615.968 100.375C616.171 100.375 616.338 100.365 616.468 100.344C616.598 100.318 616.702 100.297 616.78 100.281L617.155 101.937C617.03 101.984 616.856 102.031 616.632 102.078C616.408 102.13 616.124 102.156 615.78 102.156C615.259 102.156 614.749 102.044 614.249 101.82C613.754 101.596 613.343 101.255 613.015 100.797C612.692 100.339 612.53 99.7604 612.53 99.0625V87.125ZM624.612 102.25C623.456 102.25 622.459 101.995 621.62 101.484C620.787 100.969 620.144 100.25 619.69 99.3281C619.243 98.401 619.019 97.3229 619.019 96.0938C619.019 94.8646 619.243 93.7812 619.69 92.8437C620.144 91.901 620.774 91.1667 621.581 90.6406C622.394 90.1094 623.341 89.8438 624.425 89.8438C625.05 89.8438 625.667 89.9479 626.276 90.1562C626.886 90.3646 627.44 90.7031 627.94 91.1719C628.44 91.6354 628.839 92.25 629.136 93.0156C629.433 93.7812 629.581 94.724 629.581 95.8437V96.625H620.331V95.0312H627.706C627.706 94.3542 627.571 93.75 627.3 93.2187C627.034 92.6875 626.654 92.2682 626.159 91.9609C625.67 91.6536 625.091 91.5 624.425 91.5C623.69 91.5 623.055 91.6823 622.519 92.0469C621.987 92.4062 621.578 92.875 621.292 93.4531C621.006 94.0312 620.862 94.651 620.862 95.3125V96.375C620.862 97.2813 621.019 98.0495 621.331 98.6797C621.649 99.3047 622.089 99.7812 622.651 100.109C623.214 100.432 623.868 100.594 624.612 100.594C625.097 100.594 625.534 100.526 625.925 100.391C626.321 100.25 626.662 100.042 626.948 99.7656C627.235 99.4844 627.456 99.1354 627.612 98.7187L629.394 99.2188C629.206 99.8229 628.891 100.354 628.448 100.812C628.006 101.266 627.459 101.62 626.808 101.875C626.157 102.125 625.425 102.25 624.612 102.25Z" fill="black"/>
<circle cx="760.481" cy="95.2192" r="75.2192" fill="#23CBA2"/>
<path d="M723.975 102H721.943L727.818 86H729.818L735.693 102H733.662L728.881 88.5312H728.756L723.975 102ZM724.725 95.75H732.912V97.4687H724.725V95.75ZM742.811 102.25C741.686 102.25 740.717 101.984 739.904 101.453C739.092 100.922 738.467 100.19 738.029 99.2578C737.592 98.3255 737.373 97.2604 737.373 96.0625C737.373 94.8437 737.597 93.7682 738.045 92.8359C738.498 91.8984 739.128 91.1667 739.936 90.6406C740.748 90.1094 741.696 89.8438 742.779 89.8438C743.623 89.8438 744.383 90 745.061 90.3125C745.738 90.625 746.292 91.0625 746.725 91.625C747.157 92.1875 747.425 92.8437 747.529 93.5937H745.686C745.545 93.0469 745.232 92.5625 744.748 92.1406C744.269 91.7135 743.623 91.5 742.811 91.5C742.092 91.5 741.462 91.6875 740.92 92.0625C740.383 92.4323 739.964 92.9557 739.662 93.6328C739.365 94.3047 739.217 95.0937 739.217 96C739.217 96.9271 739.363 97.7344 739.654 98.4219C739.951 99.1094 740.368 99.6432 740.904 100.023C741.446 100.404 742.081 100.594 742.811 100.594C743.29 100.594 743.725 100.51 744.115 100.344C744.506 100.177 744.837 99.9375 745.107 99.625C745.378 99.3125 745.571 98.9375 745.686 98.5H747.529C747.425 99.2083 747.167 99.8464 746.756 100.414C746.35 100.977 745.811 101.424 745.139 101.758C744.472 102.086 743.696 102.25 742.811 102.25ZM755.1 102.25C753.975 102.25 753.006 101.984 752.193 101.453C751.381 100.922 750.756 100.19 750.318 99.2578C749.881 98.3255 749.662 97.2604 749.662 96.0625C749.662 94.8437 749.886 93.7682 750.334 92.8359C750.787 91.8984 751.417 91.1667 752.225 90.6406C753.037 90.1094 753.985 89.8438 755.068 89.8438C755.912 89.8438 756.673 90 757.35 90.3125C758.027 90.625 758.581 91.0625 759.014 91.625C759.446 92.1875 759.714 92.8437 759.818 93.5937H757.975C757.834 93.0469 757.521 92.5625 757.037 92.1406C756.558 91.7135 755.912 91.5 755.1 91.5C754.381 91.5 753.751 91.6875 753.209 92.0625C752.673 92.4323 752.253 92.9557 751.951 93.6328C751.654 94.3047 751.506 95.0937 751.506 96C751.506 96.9271 751.652 97.7344 751.943 98.4219C752.24 99.1094 752.657 99.6432 753.193 100.023C753.735 100.404 754.37 100.594 755.1 100.594C755.579 100.594 756.014 100.51 756.404 100.344C756.795 100.177 757.126 99.9375 757.396 99.625C757.667 99.3125 757.86 98.9375 757.975 98.5H759.818C759.714 99.2083 759.456 99.8464 759.045 100.414C758.639 100.977 758.1 101.424 757.428 101.758C756.761 102.086 755.985 102.25 755.1 102.25ZM767.545 102.25C766.389 102.25 765.391 101.995 764.553 101.484C763.719 100.969 763.076 100.25 762.623 99.3281C762.175 98.401 761.951 97.3229 761.951 96.0938C761.951 94.8646 762.175 93.7812 762.623 92.8437C763.076 91.901 763.706 91.1667 764.514 90.6406C765.326 90.1094 766.274 89.8438 767.357 89.8438C767.982 89.8438 768.6 89.9479 769.209 90.1562C769.818 90.3646 770.373 90.7031 770.873 91.1719C771.373 91.6354 771.771 92.25 772.068 93.0156C772.365 93.7812 772.514 94.724 772.514 95.8437V96.625H763.264V95.0312H770.639C770.639 94.3542 770.503 93.75 770.232 93.2187C769.967 92.6875 769.587 92.2682 769.092 91.9609C768.602 91.6536 768.024 91.5 767.357 91.5C766.623 91.5 765.988 91.6823 765.451 92.0469C764.92 92.4062 764.511 92.875 764.225 93.4531C763.938 94.0312 763.795 94.651 763.795 95.3125V96.375C763.795 97.2813 763.951 98.0495 764.264 98.6797C764.581 99.3047 765.021 99.7812 765.584 100.109C766.146 100.432 766.8 100.594 767.545 100.594C768.029 100.594 768.467 100.526 768.857 100.391C769.253 100.25 769.594 100.042 769.881 99.7656C770.167 99.4844 770.389 99.1354 770.545 98.7187L772.326 99.2188C772.139 99.8229 771.824 100.354 771.381 100.812C770.938 101.266 770.391 101.62 769.74 101.875C769.089 102.125 768.357 102.25 767.545 102.25ZM783.818 92.6875L782.162 93.1562C782.058 92.8802 781.904 92.612 781.701 92.3516C781.503 92.0859 781.232 91.8672 780.889 91.6953C780.545 91.5234 780.105 91.4375 779.568 91.4375C778.834 91.4375 778.222 91.6068 777.732 91.9453C777.248 92.2786 777.006 92.7031 777.006 93.2187C777.006 93.6771 777.173 94.0391 777.506 94.3047C777.839 94.5703 778.36 94.7917 779.068 94.9687L780.85 95.4063C781.923 95.6667 782.722 96.0651 783.248 96.6016C783.774 97.1328 784.037 97.8177 784.037 98.6562C784.037 99.3437 783.839 99.9583 783.443 100.5C783.053 101.042 782.506 101.469 781.803 101.781C781.1 102.094 780.282 102.25 779.35 102.25C778.126 102.25 777.113 101.984 776.311 101.453C775.508 100.922 775.001 100.146 774.787 99.125L776.537 98.6875C776.704 99.3333 777.019 99.8177 777.482 100.141C777.951 100.464 778.563 100.625 779.318 100.625C780.178 100.625 780.86 100.443 781.365 100.078C781.876 99.7083 782.131 99.2656 782.131 98.75C782.131 98.3333 781.985 97.9844 781.693 97.7031C781.402 97.4167 780.954 97.2031 780.35 97.0625L778.35 96.5937C777.251 96.3333 776.443 95.9297 775.928 95.3828C775.417 94.8307 775.162 94.1406 775.162 93.3125C775.162 92.6354 775.352 92.0365 775.732 91.5156C776.118 90.9948 776.641 90.5859 777.303 90.2891C777.969 89.9922 778.725 89.8438 779.568 89.8438C780.756 89.8438 781.688 90.1042 782.365 90.625C783.048 91.1458 783.532 91.8333 783.818 92.6875ZM795.313 92.6875L793.656 93.1562C793.552 92.8802 793.398 92.612 793.195 92.3516C792.997 92.0859 792.727 91.8672 792.383 91.6953C792.039 91.5234 791.599 91.4375 791.063 91.4375C790.328 91.4375 789.716 91.6068 789.227 91.9453C788.742 92.2786 788.5 92.7031 788.5 93.2187C788.5 93.6771 788.667 94.0391 789 94.3047C789.333 94.5703 789.854 94.7917 790.563 94.9687L792.344 95.4063C793.417 95.6667 794.216 96.0651 794.742 96.6016C795.268 97.1328 795.531 97.8177 795.531 98.6562C795.531 99.3437 795.333 99.9583 794.938 100.5C794.547 101.042 794 101.469 793.297 101.781C792.594 102.094 791.776 102.25 790.844 102.25C789.62 102.25 788.607 101.984 787.805 101.453C787.003 100.922 786.495 100.146 786.281 99.125L788.031 98.6875C788.198 99.3333 788.513 99.8177 788.977 100.141C789.445 100.464 790.057 100.625 790.813 100.625C791.672 100.625 792.354 100.443 792.859 100.078C793.37 99.7083 793.625 99.2656 793.625 98.75C793.625 98.3333 793.479 97.9844 793.188 97.7031C792.896 97.4167 792.448 97.2031 791.844 97.0625L789.844 96.5937C788.745 96.3333 787.937 95.9297 787.422 95.3828C786.911 94.8307 786.656 94.1406 786.656 93.3125C786.656 92.6354 786.846 92.0365 787.227 91.5156C787.612 90.9948 788.135 90.5859 788.797 90.2891C789.464 89.9922 790.219 89.8438 791.063 89.8438C792.25 89.8438 793.182 90.1042 793.859 90.625C794.542 91.1458 795.026 91.8333 795.313 92.6875Z" fill="black"/>
<rect x="290" y="216" width="540" height="46" fill="#4FC2E4"/>
<path d="M895 238.5L828.25 275.306L828.25 201.694L895 238.5Z" fill="#4FC2E4"/>
<path d="M525.209 233.636C525.081 232.557 524.562 231.719 523.653 231.122C522.744 230.526 521.629 230.227 520.308 230.227C519.342 230.227 518.497 230.384 517.773 230.696C517.055 231.009 516.494 231.438 516.089 231.985C515.692 232.532 515.493 233.153 515.493 233.849C515.493 234.432 515.631 234.933 515.908 235.352C516.192 235.763 516.555 236.108 516.995 236.385C517.435 236.655 517.897 236.879 518.38 237.056C518.863 237.227 519.307 237.365 519.711 237.472L521.927 238.068C522.496 238.217 523.128 238.423 523.824 238.686C524.527 238.949 525.198 239.308 525.837 239.762C526.483 240.21 527.016 240.785 527.435 241.488C527.854 242.191 528.064 243.054 528.064 244.077C528.064 245.256 527.755 246.321 527.137 247.273C526.526 248.224 525.631 248.981 524.452 249.542C523.28 250.103 521.856 250.384 520.18 250.384C518.618 250.384 517.265 250.131 516.121 249.627C514.985 249.123 514.09 248.42 513.437 247.518C512.79 246.616 512.425 245.568 512.339 244.375H515.067C515.138 245.199 515.415 245.881 515.898 246.42C516.388 246.953 517.006 247.351 517.751 247.614C518.504 247.869 519.314 247.997 520.18 247.997C521.189 247.997 522.094 247.834 522.897 247.507C523.699 247.173 524.335 246.712 524.804 246.122C525.273 245.526 525.507 244.83 525.507 244.034C525.507 243.31 525.305 242.72 524.9 242.266C524.495 241.811 523.962 241.442 523.302 241.158C522.641 240.874 521.927 240.625 521.16 240.412L518.476 239.645C516.771 239.155 515.422 238.455 514.427 237.546C513.433 236.637 512.936 235.447 512.936 233.977C512.936 232.756 513.266 231.69 513.927 230.781C514.594 229.865 515.489 229.155 516.611 228.651C517.741 228.139 519.001 227.884 520.393 227.884C521.8 227.884 523.05 228.136 524.143 228.64C525.237 229.137 526.104 229.819 526.743 230.685C527.389 231.552 527.73 232.536 527.765 233.636H525.209ZM532.408 250V228.182H535.05V237.898H546.683V228.182H549.325V250H546.683V240.241H535.05V250H532.408ZM555.51 250H552.74L560.751 228.182H563.478L571.49 250H568.72L562.2 231.634H562.029L555.51 250ZM556.532 241.477H567.697V243.821H556.532V241.477ZM574.888 250V228.182H582.26C583.965 228.182 585.364 228.473 586.458 229.055C587.551 229.631 588.361 230.423 588.887 231.431C589.412 232.44 589.675 233.587 589.675 234.872C589.675 236.158 589.412 237.298 588.887 238.292C588.361 239.286 587.555 240.067 586.468 240.636C585.382 241.197 583.993 241.477 582.303 241.477H576.337V239.091H582.218C583.382 239.091 584.32 238.92 585.03 238.58C585.748 238.239 586.266 237.756 586.586 237.131C586.912 236.499 587.076 235.746 587.076 234.872C587.076 233.999 586.912 233.235 586.586 232.582C586.259 231.928 585.737 231.424 585.02 231.069C584.302 230.707 583.354 230.526 582.175 230.526H577.53V250H574.888ZM585.158 240.199L590.527 250H587.459L582.175 240.199H585.158ZM594.078 250V228.182H607.245V230.526H596.72V237.898H606.563V240.241H596.72V247.656H607.416V250H594.078Z" fill="black"/>
<defs>
<linearGradient id="paint0_linear_298_123" x1="433" y1="408" x2="433" y2="777.253" gradientUnits="userSpaceOnUse">
<stop stop-color="#4FC2E4"/>
<stop offset="1" stop-color="#23CBA2"/>
</linearGradient>
</defs>
</svg>
