<?xml version="1.0" encoding="UTF-8" standalone="no"?>
<!DOCTYPE svg PUBLIC "-//W3C//DTD SVG 1.1//EN"
 "http://www.w3.org/Graphics/SVG/1.1/DTD/svg11.dtd">
<!-- Generated by graphviz version 2.43.0 (0)
 -->
<!-- Title: %3 Pages: 1 -->
<svg width="1905pt" height="548pt"
 viewBox="0.00 0.00 1904.93 548.00" xmlns="http://www.w3.org/2000/svg" xmlns:xlink="http://www.w3.org/1999/xlink">
<g id="graph0" class="graph" transform="scale(1 1) rotate(0) translate(4 544)">
<title>%3</title>
<polygon fill="white" stroke="transparent" points="-4,4 -4,-544 1900.93,-544 1900.93,4 -4,4"/>
<!-- ockam_core -->
<g id="node1" class="node">
<title>ockam_core</title>
<ellipse fill="none" stroke="red" cx="637.89" cy="-522" rx="64.99" ry="18"/>
<text text-anchor="middle" x="637.89" y="-518.3" font-family="Times,serif" font-size="14.00">ockam_core</text>
</g>
<!-- ockam_ffi -->
<g id="node2" class="node">
<title>ockam_ffi</title>
<ellipse fill="none" stroke="black" cx="1506.89" cy="-234" rx="54.69" ry="18"/>
<text text-anchor="middle" x="1506.89" y="-230.3" font-family="Times,serif" font-size="14.00">ockam_ffi</text>
</g>
<!-- ockam_core&#45;&gt;ockam_ffi -->
<g id="edge1" class="edge">
<title>ockam_core&#45;&gt;ockam_ffi</title>
<path fill="none" stroke="red" d="M702.76,-520.79C852.81,-519.54 1219.73,-511.94 1333.89,-468 1430.8,-430.7 1472.65,-417.47 1517.89,-324 1527.33,-304.49 1523.25,-279.88 1517.56,-261.48"/>
<polygon fill="red" stroke="red" points="1520.86,-260.31 1514.31,-251.98 1514.24,-262.57 1520.86,-260.31"/>
</g>
<!-- ockam_key_exchange_core -->
<g id="node3" class="node">
<title>ockam_key_exchange_core</title>
<ellipse fill="none" stroke="orange" cx="1041.89" cy="-306" rx="133.78" ry="18"/>
<text text-anchor="middle" x="1041.89" y="-302.3" font-family="Times,serif" font-size="14.00">ockam_key_exchange_core</text>
</g>
<!-- ockam_core&#45;&gt;ockam_key_exchange_core -->
<g id="edge2" class="edge">
<title>ockam_core&#45;&gt;ockam_key_exchange_core</title>
<path fill="none" stroke="red" d="M634.54,-503.78C629.21,-470.77 623.04,-398.48 661.89,-360 695.11,-327.09 806.17,-314.34 899.7,-309.53"/>
<polygon fill="red" stroke="red" points="900.04,-313.02 909.85,-309.04 899.7,-306.03 900.04,-313.02"/>
</g>
<!-- ockam_key_exchange_x3dh -->
<g id="node4" class="node">
<title>ockam_key_exchange_x3dh</title>
<ellipse fill="none" stroke="black" cx="1145.89" cy="-234" rx="136.48" ry="18"/>
<text text-anchor="middle" x="1145.89" y="-230.3" font-family="Times,serif" font-size="14.00">ockam_key_exchange_x3dh</text>
</g>
<!-- ockam_core&#45;&gt;ockam_key_exchange_x3dh -->
<g id="edge3" class="edge">
<title>ockam_core&#45;&gt;ockam_key_exchange_x3dh</title>
<path fill="none" stroke="red" d="M641.5,-503.84C649.79,-466.14 671.32,-377.99 694.89,-360 781.68,-293.76 1110.57,-403.98 1184.89,-324 1201.85,-305.75 1186.27,-278.95 1170.05,-259.53"/>
<polygon fill="red" stroke="red" points="1172.62,-257.15 1163.39,-251.96 1167.37,-261.78 1172.62,-257.15"/>
</g>
<!-- ockam_key_exchange_xx -->
<g id="node5" class="node">
<title>ockam_key_exchange_xx</title>
<ellipse fill="none" stroke="yellow" cx="841.89" cy="-162" rx="124.28" ry="18"/>
<text text-anchor="middle" x="841.89" y="-158.3" font-family="Times,serif" font-size="14.00">ockam_key_exchange_xx</text>
</g>
<!-- ockam_core&#45;&gt;ockam_key_exchange_xx -->
<g id="edge4" class="edge">
<title>ockam_core&#45;&gt;ockam_key_exchange_xx</title>
<path fill="none" stroke="red" d="M630.84,-503.99C611.1,-453.35 561.26,-301.76 632.89,-216 647.76,-198.2 697.22,-185.21 744.29,-176.55"/>
<polygon fill="red" stroke="red" points="745.05,-179.97 754.28,-174.77 743.82,-173.08 745.05,-179.97"/>
</g>
<!-- ockam_channel -->
<g id="node6" class="node">
<title>ockam_channel</title>
<ellipse fill="none" stroke="black" cx="917.89" cy="-90" rx="81.49" ry="18"/>
<text text-anchor="middle" x="917.89" y="-86.3" font-family="Times,serif" font-size="14.00">ockam_channel</text>
</g>
<!-- ockam_core&#45;&gt;ockam_channel -->
<g id="edge5" class="edge">
<title>ockam_core&#45;&gt;ockam_channel</title>
<path fill="none" stroke="red" d="M581.86,-512.8C473.08,-495.29 243.89,-449.98 243.89,-379 243.89,-379 243.89,-379 243.89,-233 243.89,-171.14 293.76,-167.72 350.89,-144 434.63,-109.24 689.42,-97.08 827.18,-92.98"/>
<polygon fill="red" stroke="red" points="827.4,-96.48 837.29,-92.69 827.2,-89.48 827.4,-96.48"/>
</g>
<!-- ockam_node -->
<g id="node7" class="node">
<title>ockam_node</title>
<ellipse fill="none" stroke="green" cx="451.89" cy="-306" rx="67.69" ry="18"/>
<text text-anchor="middle" x="451.89" y="-302.3" font-family="Times,serif" font-size="14.00">ockam_node</text>
</g>
<!-- ockam_core&#45;&gt;ockam_node -->
<g id="edge6" class="edge">
<title>ockam_core&#45;&gt;ockam_node</title>
<path fill="none" stroke="red" d="M604.37,-506.34C586.15,-497.2 564.09,-484.11 547.89,-468 507.67,-428 477.72,-367.84 462.69,-333.51"/>
<polygon fill="red" stroke="red" points="465.84,-331.96 458.69,-324.14 459.4,-334.71 465.84,-331.96"/>
</g>
<!-- ockam_vault -->
<g id="node8" class="node">
<title>ockam_vault</title>
<ellipse fill="none" stroke="purple" cx="1341.89" cy="-306" rx="68.49" ry="18"/>
<text text-anchor="middle" x="1341.89" y="-302.3" font-family="Times,serif" font-size="14.00">ockam_vault</text>
</g>
<!-- ockam_core&#45;&gt;ockam_vault -->
<g id="edge7" class="edge">
<title>ockam_core&#45;&gt;ockam_vault</title>
<path fill="none" stroke="red" d="M702.89,-521.37C873.17,-520.75 1324.91,-508.34 1408.89,-396 1418.47,-383.18 1415.86,-374.4 1408.89,-360 1402.65,-347.11 1391.59,-336.4 1380.22,-328.07"/>
<polygon fill="red" stroke="red" points="1382.19,-325.17 1371.96,-322.42 1378.24,-330.95 1382.19,-325.17"/>
</g>
<!-- ockam_transport_tcp -->
<g id="node9" class="node">
<title>ockam_transport_tcp</title>
<ellipse fill="none" stroke="black" cx="107.89" cy="-234" rx="107.78" ry="18"/>
<text text-anchor="middle" x="107.89" y="-230.3" font-family="Times,serif" font-size="14.00">ockam_transport_tcp</text>
</g>
<!-- ockam_core&#45;&gt;ockam_transport_tcp -->
<g id="edge8" class="edge">
<title>ockam_core&#45;&gt;ockam_transport_tcp</title>
<path fill="none" stroke="red" d="M573.25,-519.74C472.51,-516.61 284.02,-505.73 229.89,-468 158,-417.88 125.33,-311.96 113.48,-262.07"/>
<polygon fill="red" stroke="red" points="116.83,-261.01 111.2,-252.04 110.01,-262.56 116.83,-261.01"/>
</g>
<!-- ockam_vault_core -->
<g id="node10" class="node">
<title>ockam_vault_core</title>
<ellipse fill="none" stroke="blue" cx="1062.89" cy="-450" rx="92.88" ry="18"/>
<text text-anchor="middle" x="1062.89" y="-446.3" font-family="Times,serif" font-size="14.00">ockam_vault_core</text>
</g>
<!-- ockam_core&#45;&gt;ockam_vault_core -->
<g id="edge9" class="edge">
<title>ockam_core&#45;&gt;ockam_vault_core</title>
<path fill="none" stroke="red" d="M692.15,-512.06C766.23,-499.86 899.5,-477.91 984.45,-463.92"/>
<polygon fill="red" stroke="red" points="985.27,-467.33 994.57,-462.25 984.13,-460.42 985.27,-467.33"/>
</g>
<!-- ockam_vault_sync_core -->
<g id="node11" class="node">
<title>ockam_vault_sync_core</title>
<ellipse fill="none" stroke="cadetblue" cx="759.89" cy="-234" rx="118.08" ry="18"/>
<text text-anchor="middle" x="759.89" y="-230.3" font-family="Times,serif" font-size="14.00">ockam_vault_sync_core</text>
</g>
<!-- ockam_core&#45;&gt;ockam_vault_sync_core -->
<g id="edge10" class="edge">
<title>ockam_core&#45;&gt;ockam_vault_sync_core</title>
<path fill="none" stroke="red" d="M633.05,-503.91C625.34,-473.25 613.42,-407.64 636.89,-360 657.83,-317.49 698.77,-280.47 727.65,-257.97"/>
<polygon fill="red" stroke="red" points="729.99,-260.59 735.82,-251.74 725.75,-255.02 729.99,-260.59"/>
</g>
<!-- ockam_vault_test_suite -->
<g id="node12" class="node">
<title>ockam_vault_test_suite</title>
<ellipse fill="none" stroke="black" cx="821.89" cy="-378" rx="118.08" ry="18"/>
<text text-anchor="middle" x="821.89" y="-374.3" font-family="Times,serif" font-size="14.00">ockam_vault_test_suite</text>
</g>
<!-- ockam_core&#45;&gt;ockam_vault_test_suite -->
<g id="edge11" class="edge">
<title>ockam_core&#45;&gt;ockam_vault_test_suite</title>
<path fill="none" stroke="red" d="M659,-504.71C691.73,-479.45 754.85,-430.74 792.17,-401.93"/>
<polygon fill="red" stroke="red" points="794.4,-404.64 800.18,-395.76 790.12,-399.1 794.4,-404.64"/>
</g>
<!-- ockam_key_exchange_core&#45;&gt;ockam_key_exchange_x3dh -->
<g id="edge13" class="edge">
<title>ockam_key_exchange_core&#45;&gt;ockam_key_exchange_x3dh</title>
<path fill="none" stroke="orange" d="M1066.8,-288.23C1080.46,-279.04 1097.59,-267.51 1112.41,-257.54"/>
<polygon fill="orange" stroke="orange" points="1114.48,-260.36 1120.82,-251.87 1110.57,-254.55 1114.48,-260.36"/>
</g>
<!-- ockam_key_exchange_core&#45;&gt;ockam_key_exchange_xx -->
<g id="edge12" class="edge">
<title>ockam_key_exchange_core&#45;&gt;ockam_key_exchange_xx</title>
<path fill="none" stroke="orange" d="M1018.13,-288.18C1003.57,-277.83 984.59,-264.24 967.89,-252 946.38,-236.24 941.59,-231.5 919.89,-216 905.44,-205.68 889.23,-194.59 875.34,-185.23"/>
<polygon fill="orange" stroke="orange" points="877.29,-182.32 867.04,-179.65 873.39,-188.13 877.29,-182.32"/>
</g>
<!-- ockam_key_exchange_core&#45;&gt;ockam_channel -->
<g id="edge14" class="edge">
<title>ockam_key_exchange_core&#45;&gt;ockam_channel</title>
<path fill="none" stroke="orange" d="M1025.82,-288.1C1017.26,-278.26 1007.23,-265.22 1000.89,-252 979.53,-207.49 999.81,-186.62 974.89,-144 968.34,-132.79 958.67,-122.53 949.16,-114.08"/>
<polygon fill="orange" stroke="orange" points="951.17,-111.2 941.27,-107.43 946.66,-116.55 951.17,-111.2"/>
</g>
<!-- ockam_key_exchange_xx&#45;&gt;ockam_channel -->
<g id="edge15" class="edge">
<title>ockam_key_exchange_xx&#45;&gt;ockam_channel</title>
<path fill="none" stroke="yellow" d="M860.29,-144.05C869.81,-135.28 881.59,-124.43 892.02,-114.83"/>
<polygon fill="yellow" stroke="yellow" points="894.68,-117.14 899.66,-107.79 889.94,-111.99 894.68,-117.14"/>
</g>
<!-- ockam -->
<g id="node13" class="node">
<title>ockam</title>
<ellipse fill="none" stroke="black" cx="1193.89" cy="-18" rx="40.09" ry="18"/>
<text text-anchor="middle" x="1193.89" y="-14.3" font-family="Times,serif" font-size="14.00">ockam</text>
</g>
<!-- ockam_channel&#45;&gt;ockam -->
<g id="edge51" class="edge">
<title>ockam_channel&#45;&gt;ockam</title>
<path fill="none" stroke="black" d="M969.16,-76C1021.08,-62.83 1100.55,-42.67 1149.75,-30.19"/>
<polygon fill="black" stroke="black" points="1150.64,-33.58 1159.47,-27.73 1148.92,-26.8 1150.64,-33.58"/>
</g>
<!-- ockam_node&#45;&gt;ockam_channel -->
<g id="edge18" class="edge">
<title>ockam_node&#45;&gt;ockam_channel</title>
<path fill="none" stroke="green" d="M399.16,-294.71C343.67,-281.54 268.53,-255.58 300.89,-216 366.62,-135.62 674.68,-105.7 829.13,-95.61"/>
<polygon fill="green" stroke="green" points="829.78,-99.08 839.53,-94.95 829.33,-92.09 829.78,-99.08"/>
</g>
<!-- ockam_node&#45;&gt;ockam_transport_tcp -->
<g id="edge19" class="edge">
<title>ockam_node&#45;&gt;ockam_transport_tcp</title>
<path fill="none" stroke="green" d="M400.02,-294.44C342.44,-282.73 249,-263.71 183.33,-250.35"/>
<polygon fill="green" stroke="green" points="183.94,-246.9 173.44,-248.34 182.55,-253.76 183.94,-246.9"/>
</g>
<!-- ockam_node&#45;&gt;ockam_vault_sync_core -->
<g id="edge20" class="edge">
<title>ockam_node&#45;&gt;ockam_vault_sync_core</title>
<path fill="none" stroke="green" d="M501.72,-293.68C551.91,-282.27 629.89,-264.54 687.02,-251.56"/>
<polygon fill="green" stroke="green" points="688.1,-254.9 697.08,-249.28 686.55,-248.08 688.1,-254.9"/>
</g>
<!-- ockam_node&#45;&gt;ockam -->
<g id="edge16" class="edge">
<title>ockam_node&#45;&gt;ockam</title>
<path fill="none" stroke="green" d="M487.69,-290.65C508.87,-281.29 535.61,-267.87 556.89,-252 645.11,-186.22 628.46,-121.19 726.89,-72 799.03,-35.95 1038.19,-23.97 1143.44,-20.39"/>
<polygon fill="green" stroke="green" points="1143.61,-23.88 1153.49,-20.05 1143.38,-16.89 1143.61,-23.88"/>
</g>
<!-- ockam_key_exchange_x -->
<g id="node14" class="node">
<title>ockam_key_exchange_x</title>
<ellipse fill="none" stroke="black" cx="428.89" cy="-234" rx="118.88" ry="18"/>
<text text-anchor="middle" x="428.89" y="-230.3" font-family="Times,serif" font-size="14.00">ockam_key_exchange_x</text>
</g>
<!-- ockam_node&#45;&gt;ockam_key_exchange_x -->
<g id="edge17" class="edge">
<title>ockam_node&#45;&gt;ockam_key_exchange_x</title>
<path fill="none" stroke="green" d="M446.32,-288.05C443.73,-280.18 440.59,-270.62 437.69,-261.79"/>
<polygon fill="green" stroke="green" points="441.01,-260.68 434.57,-252.28 434.36,-262.87 441.01,-260.68"/>
</g>
<!-- ockam_vault&#45;&gt;ockam_ffi -->
<g id="edge34" class="edge">
<title>ockam_vault&#45;&gt;ockam_ffi</title>
<path fill="none" stroke="purple" d="M1376.48,-290.33C1402.43,-279.32 1438.06,-264.2 1465.52,-252.55"/>
<polygon fill="purple" stroke="purple" points="1467.03,-255.71 1474.87,-248.59 1464.29,-249.27 1467.03,-255.71"/>
</g>
<!-- ockam_vault&#45;&gt;ockam_key_exchange_x3dh -->
<g id="edge35" class="edge">
<title>ockam_vault&#45;&gt;ockam_key_exchange_x3dh</title>
<path fill="none" stroke="purple" d="M1303.17,-291.17C1273.72,-280.65 1232.84,-266.05 1200.13,-254.37"/>
<polygon fill="purple" stroke="purple" points="1201.3,-251.07 1190.71,-251.01 1198.95,-257.67 1201.3,-251.07"/>
</g>
<!-- ockam_vault&#45;&gt;ockam_key_exchange_xx -->
<g id="edge36" class="edge">
<title>ockam_vault&#45;&gt;ockam_key_exchange_xx</title>
<path fill="none" stroke="purple" d="M1337.28,-288C1330.68,-267.26 1316.44,-232.89 1290.89,-216 1240.36,-182.6 1087.55,-170.21 974.16,-165.64"/>
<polygon fill="purple" stroke="purple" points="974.13,-162.13 964.01,-165.24 973.86,-169.13 974.13,-162.13"/>
</g>
<!-- ockam_vault&#45;&gt;ockam_channel -->
<g id="edge37" class="edge">
<title>ockam_vault&#45;&gt;ockam_channel</title>
<path fill="none" stroke="purple" d="M1342.61,-287.95C1342.48,-268.12 1339.2,-235.62 1320.89,-216 1239.84,-129.15 1099.75,-102.17 1007.95,-94.07"/>
<polygon fill="purple" stroke="purple" points="1008.09,-90.56 997.84,-93.23 1007.52,-97.54 1008.09,-90.56"/>
</g>
<!-- ockam_vault&#45;&gt;ockam_vault_sync_core -->
<g id="edge38" class="edge">
<title>ockam_vault&#45;&gt;ockam_vault_sync_core</title>
<path fill="none" stroke="purple" d="M1281.25,-297.71C1181.22,-285.68 980.65,-261.55 859.54,-246.98"/>
<polygon fill="purple" stroke="purple" points="859.86,-243.5 849.51,-245.78 859.02,-250.45 859.86,-243.5"/>
</g>
<!-- ockam_vault&#45;&gt;ockam -->
<g id="edge33" class="edge">
<title>ockam_vault&#45;&gt;ockam</title>
<path fill="none" stroke="purple" d="M1346.45,-287.76C1350.43,-269.19 1354.13,-239.19 1343.89,-216 1324.7,-172.54 1303.2,-172.09 1264.89,-144 1239.19,-125.16 1220.16,-134.78 1202.89,-108 1191.16,-89.8 1189.53,-65.03 1190.49,-46.24"/>
<polygon fill="purple" stroke="purple" points="1193.98,-46.47 1191.26,-36.23 1187,-45.93 1193.98,-46.47"/>
</g>
<!-- ockam_transport_tcp&#45;&gt;ockam -->
<g id="edge50" class="edge">
<title>ockam_transport_tcp&#45;&gt;ockam</title>
<path fill="none" stroke="black" d="M125.78,-216.15C148.3,-195.9 188.99,-162.36 229.89,-144 367.64,-82.17 412.57,-94.36 561.89,-72 776.87,-39.81 1036.15,-25.75 1143.54,-21"/>
<polygon fill="black" stroke="black" points="1143.91,-24.49 1153.75,-20.56 1143.61,-17.49 1143.91,-24.49"/>
</g>
<!-- ockam_vault_core&#45;&gt;ockam_ffi -->
<g id="edge22" class="edge">
<title>ockam_vault_core&#45;&gt;ockam_ffi</title>
<path fill="none" stroke="blue" d="M1155.75,-448.17C1259.12,-445.32 1417.51,-434.55 1461.89,-396 1500.51,-362.45 1507.28,-298.78 1507.75,-262.36"/>
<polygon fill="blue" stroke="blue" points="1511.25,-261.99 1507.73,-252 1504.25,-262.01 1511.25,-261.99"/>
</g>
<!-- ockam_vault_core&#45;&gt;ockam_key_exchange_core -->
<g id="edge23" class="edge">
<title>ockam_vault_core&#45;&gt;ockam_key_exchange_core</title>
<path fill="none" stroke="blue" d="M1060.36,-431.87C1056.78,-407.67 1050.2,-363.21 1045.94,-334.39"/>
<polygon fill="blue" stroke="blue" points="1049.36,-333.57 1044.43,-324.19 1042.43,-334.59 1049.36,-333.57"/>
</g>
<!-- ockam_vault_core&#45;&gt;ockam_key_exchange_x3dh -->
<g id="edge24" class="edge">
<title>ockam_vault_core&#45;&gt;ockam_key_exchange_x3dh</title>
<path fill="none" stroke="blue" d="M1065.76,-431.73C1069.99,-411.7 1079.79,-379 1100.89,-360 1141.33,-323.6 1185.57,-367.76 1217.89,-324 1227.4,-311.13 1225.11,-302.28 1217.89,-288 1211.52,-275.4 1200.59,-265.07 1189.15,-256.98"/>
<polygon fill="blue" stroke="blue" points="1191.06,-254.05 1180.78,-251.49 1187.22,-259.9 1191.06,-254.05"/>
</g>
<!-- ockam_vault_core&#45;&gt;ockam_key_exchange_xx -->
<g id="edge26" class="edge">
<title>ockam_vault_core&#45;&gt;ockam_key_exchange_xx</title>
<path fill="none" stroke="blue" d="M1051.51,-431.83C1037.74,-412.19 1012.91,-380.16 984.89,-360 951.26,-335.8 923.72,-357.17 898.89,-324 869.95,-285.33 906.02,-260.34 886.89,-216 882.47,-205.75 875.37,-196 868.11,-187.71"/>
<polygon fill="blue" stroke="blue" points="870.55,-185.19 861.18,-180.25 865.42,-189.96 870.55,-185.19"/>
</g>
<!-- ockam_vault_core&#45;&gt;ockam_channel -->
<g id="edge25" class="edge">
<title>ockam_vault_core&#45;&gt;ockam_channel</title>
<path fill="none" stroke="blue" d="M1154.6,-446.99C1244.95,-442.96 1374.33,-431.05 1408.89,-396 1442.74,-361.68 1437.79,-332.35 1418.89,-288 1382.15,-201.8 1349.46,-184.36 1264.89,-144 1219.79,-122.47 1090.06,-106.78 1002.64,-98.27"/>
<polygon fill="blue" stroke="blue" points="1002.75,-94.77 992.46,-97.3 1002.09,-101.74 1002.75,-94.77"/>
</g>
<!-- ockam_vault_core&#45;&gt;ockam_vault -->
<g id="edge27" class="edge">
<title>ockam_vault_core&#45;&gt;ockam_vault</title>
<path fill="none" stroke="blue" d="M1154.86,-447.02C1241.08,-442.98 1361.07,-431.03 1390.89,-396 1407.85,-376.08 1388.71,-349.37 1369.61,-330.42"/>
<polygon fill="blue" stroke="blue" points="1371.76,-327.64 1362.09,-323.32 1366.96,-332.73 1371.76,-327.64"/>
</g>
<!-- ockam_vault_core&#45;&gt;ockam_vault_sync_core -->
<g id="edge28" class="edge">
<title>ockam_vault_core&#45;&gt;ockam_vault_sync_core</title>
<path fill="none" stroke="blue" d="M1039.94,-432.37C1025.92,-422.08 1007.7,-408.5 991.89,-396 972.34,-380.54 970.85,-371.8 948.89,-360 899.47,-333.44 874.08,-355.86 827.89,-324 804.4,-307.8 785.49,-280.92 773.64,-260.94"/>
<polygon fill="blue" stroke="blue" points="776.55,-258.97 768.54,-252.03 770.47,-262.45 776.55,-258.97"/>
</g>
<!-- ockam_vault_core&#45;&gt;ockam_vault_test_suite -->
<g id="edge29" class="edge">
<title>ockam_vault_core&#45;&gt;ockam_vault_test_suite</title>
<path fill="none" stroke="blue" d="M1013.54,-434.67C976.01,-423.76 924.13,-408.7 883.82,-396.99"/>
<polygon fill="blue" stroke="blue" points="884.67,-393.59 874.09,-394.16 882.72,-400.31 884.67,-393.59"/>
</g>
<!-- ockam_vault_core&#45;&gt;ockam -->
<g id="edge21" class="edge">
<title>ockam_vault_core&#45;&gt;ockam</title>
<path fill="none" stroke="blue" d="M1149.47,-443.34C1255.88,-435.5 1429.74,-419.59 1489.89,-396 1693.83,-316.02 1790.02,-302.97 1889.89,-108 1897.18,-93.76 1900.77,-83.74 1889.89,-72 1846.21,-24.86 1397.04,-19.45 1244.36,-18.98"/>
<polygon fill="blue" stroke="blue" points="1244.33,-15.48 1234.32,-18.96 1244.31,-22.48 1244.33,-15.48"/>
</g>
<!-- ockam_vault_sync_core&#45;&gt;ockam_key_exchange_xx -->
<g id="edge31" class="edge">
<title>ockam_vault_sync_core&#45;&gt;ockam_key_exchange_xx</title>
<path fill="none" stroke="cadetblue" d="M779.74,-216.05C790.11,-207.2 802.98,-196.22 814.3,-186.55"/>
<polygon fill="cadetblue" stroke="cadetblue" points="816.89,-188.94 822.22,-179.79 812.35,-183.62 816.89,-188.94"/>
</g>
<!-- ockam_vault_sync_core&#45;&gt;ockam_channel -->
<g id="edge32" class="edge">
<title>ockam_vault_sync_core&#45;&gt;ockam_channel</title>
<path fill="none" stroke="cadetblue" d="M738.3,-216.05C717.25,-197.46 690.85,-167.19 708.89,-144 725.03,-123.25 786.37,-109.32 838.45,-100.97"/>
<polygon fill="cadetblue" stroke="cadetblue" points="839.05,-104.41 848.39,-99.42 837.97,-97.5 839.05,-104.41"/>
</g>
<!-- ockam_vault_sync_core&#45;&gt;ockam -->
<g id="edge30" class="edge">
<title>ockam_vault_sync_core&#45;&gt;ockam</title>
<path fill="none" stroke="cadetblue" d="M732.26,-216.43C719.91,-207.38 706.63,-194.95 699.89,-180 693.31,-165.41 691.81,-157.81 699.89,-144 732.84,-87.66 766.1,-93.03 827.89,-72 936.51,-35.03 1071.84,-23.85 1143.65,-20.47"/>
<polygon fill="cadetblue" stroke="cadetblue" points="1143.94,-23.96 1153.78,-20.02 1143.63,-16.96 1143.94,-23.96"/>
</g>
<!-- ockam_vault_test_suite&#45;&gt;ockam_vault -->
<g id="edge45" class="edge">
<title>ockam_vault_test_suite&#45;&gt;ockam_vault</title>
<path fill="none" stroke="black" d="M908.03,-365.55C988.26,-354.87 1111.18,-338.46 1217.89,-324 1235.7,-321.59 1254.95,-318.96 1272.85,-316.51"/>
<polygon fill="black" stroke="black" points="1273.49,-319.95 1282.92,-315.12 1272.54,-313.02 1273.49,-319.95"/>
</g>
<!-- ockam_vault_test_suite&#45;&gt;ockam_vault_sync_core -->
<g id="edge46" class="edge">
<title>ockam_vault_test_suite&#45;&gt;ockam_vault_sync_core</title>
<path fill="none" stroke="black" d="M810.23,-359.86C803.68,-349.73 795.68,-336.48 789.89,-324 780.54,-303.84 772.65,-279.93 767.31,-261.97"/>
<polygon fill="black" stroke="black" points="770.61,-260.79 764.47,-252.16 763.88,-262.74 770.61,-260.79"/>
</g>
<!-- signature_core -->
<g id="node15" class="node">
<title>signature_core</title>
<ellipse fill="none" stroke="brown" cx="1492.89" cy="-162" rx="79.09" ry="18"/>
<text text-anchor="middle" x="1492.89" y="-158.3" font-family="Times,serif" font-size="14.00">signature_core</text>
</g>
<!-- signature_core&#45;&gt;ockam -->
<g id="edge39" class="edge">
<title>signature_core&#45;&gt;ockam</title>
<path fill="none" stroke="brown" d="M1434.16,-149.77C1358.41,-135.19 1235.84,-111.22 1231.89,-108 1213.04,-92.63 1203.35,-66.19 1198.5,-46.1"/>
<polygon fill="brown" stroke="brown" points="1201.91,-45.31 1196.38,-36.27 1195.07,-46.79 1201.91,-45.31"/>
</g>
<!-- signature_bbs_plus -->
<g id="node16" class="node">
<title>signature_bbs_plus</title>
<ellipse fill="none" stroke="black" cx="1340.89" cy="-90" rx="100.18" ry="18"/>
<text text-anchor="middle" x="1340.89" y="-86.3" font-family="Times,serif" font-size="14.00">signature_bbs_plus</text>
</g>
<!-- signature_core&#45;&gt;signature_bbs_plus -->
<g id="edge40" class="edge">
<title>signature_core&#45;&gt;signature_bbs_plus</title>
<path fill="none" stroke="brown" d="M1459.53,-145.64C1437.55,-135.51 1408.52,-122.14 1384.68,-111.17"/>
<polygon fill="brown" stroke="brown" points="1386.03,-107.94 1375.49,-106.93 1383.11,-114.3 1386.03,-107.94"/>
</g>
<!-- signature_ps -->
<g id="node17" class="node">
<title>signature_ps</title>
<ellipse fill="none" stroke="black" cx="1528.89" cy="-90" rx="70.39" ry="18"/>
<text text-anchor="middle" x="1528.89" y="-86.3" font-family="Times,serif" font-size="14.00">signature_ps</text>
</g>
<!-- signature_core&#45;&gt;signature_ps -->
<g id="edge41" class="edge">
<title>signature_core&#45;&gt;signature_ps</title>
<path fill="none" stroke="brown" d="M1501.61,-144.05C1505.74,-136.01 1510.79,-126.2 1515.4,-117.23"/>
<polygon fill="brown" stroke="brown" points="1518.54,-118.77 1520.01,-108.28 1512.32,-115.57 1518.54,-118.77"/>
</g>
<!-- signature_bbs_plus&#45;&gt;ockam -->
<g id="edge52" class="edge">
<title>signature_bbs_plus&#45;&gt;ockam</title>
<path fill="none" stroke="black" d="M1307.17,-72.94C1284.07,-61.94 1253.48,-47.38 1229.91,-36.15"/>
<polygon fill="black" stroke="black" points="1231.14,-32.86 1220.6,-31.72 1228.13,-39.18 1231.14,-32.86"/>
</g>
<!-- signature_bls -->
<g id="node18" class="node">
<title>signature_bls</title>
<ellipse fill="none" stroke="darkred" cx="1663.89" cy="-162" rx="73.39" ry="18"/>
<text text-anchor="middle" x="1663.89" y="-158.3" font-family="Times,serif" font-size="14.00">signature_bls</text>
</g>
<!-- signature_bls&#45;&gt;ockam -->
<g id="edge44" class="edge">
<title>signature_bls&#45;&gt;ockam</title>
<path fill="none" stroke="darkred" d="M1658.31,-144C1650.54,-123.27 1634.36,-88.9 1607.89,-72 1548.6,-34.14 1341.07,-23.22 1244.29,-20.16"/>
<polygon fill="darkred" stroke="darkred" points="1244.27,-16.65 1234.17,-19.85 1244.06,-23.65 1244.27,-16.65"/>
</g>
<!-- signature_bls&#45;&gt;signature_bbs_plus -->
<g id="edge42" class="edge">
<title>signature_bls&#45;&gt;signature_bbs_plus</title>
<path fill="none" stroke="darkred" d="M1610.92,-149.52C1556.66,-137.76 1472,-119.41 1411.96,-106.4"/>
<polygon fill="darkred" stroke="darkred" points="1412.68,-102.98 1402.17,-104.28 1411.2,-109.82 1412.68,-102.98"/>
</g>
<!-- signature_bls&#45;&gt;signature_ps -->
<g id="edge43" class="edge">
<title>signature_bls&#45;&gt;signature_ps</title>
<path fill="none" stroke="darkred" d="M1633.93,-145.46C1614.44,-135.36 1588.83,-122.08 1567.78,-111.16"/>
<polygon fill="darkred" stroke="darkred" points="1569.26,-107.99 1558.77,-106.49 1566.03,-114.2 1569.26,-107.99"/>
</g>
<!-- ockam_vault_test_attribute -->
<g id="node19" class="node">
<title>ockam_vault_test_attribute</title>
<ellipse fill="none" stroke="black" cx="1245.89" cy="-378" rx="136.48" ry="18"/>
<text text-anchor="middle" x="1245.89" y="-374.3" font-family="Times,serif" font-size="14.00">ockam_vault_test_attribute</text>
</g>
<!-- ockam_vault_test_attribute&#45;&gt;ockam_vault -->
<g id="edge47" class="edge">
<title>ockam_vault_test_attribute&#45;&gt;ockam_vault</title>
<path fill="none" stroke="black" d="M1269.13,-360.05C1281.9,-350.74 1297.9,-339.07 1311.64,-329.06"/>
<polygon fill="black" stroke="black" points="1313.84,-331.79 1319.85,-323.07 1309.71,-326.13 1313.84,-331.79"/>
</g>
<!-- ockam_vault_test_attribute&#45;&gt;ockam_vault_sync_core -->
<g id="edge48" class="edge">
<title>ockam_vault_test_attribute&#45;&gt;ockam_vault_sync_core</title>
<path fill="none" stroke="black" d="M1121.07,-370.56C1053.56,-363.98 969.74,-350.71 898.89,-324 857.28,-308.31 815.03,-278.93 788.21,-258.23"/>
<polygon fill="black" stroke="black" points="790.1,-255.26 780.07,-251.84 785.78,-260.77 790.1,-255.26"/>
</g>
<!-- ockam_node_attribute -->
<g id="node20" class="node">
<title>ockam_node_attribute</title>
<ellipse fill="none" stroke="black" cx="1767.89" cy="-90" rx="113.18" ry="18"/>
<text text-anchor="middle" x="1767.89" y="-86.3" font-family="Times,serif" font-size="14.00">ockam_node_attribute</text>
</g>
<!-- ockam_node_attribute&#45;&gt;ockam -->
<g id="edge49" class="edge">
<title>ockam_node_attribute&#45;&gt;ockam</title>
<path fill="none" stroke="black" d="M1684.91,-77.71C1670.25,-75.77 1655.13,-73.8 1640.89,-72 1496.09,-53.73 1324.66,-33.91 1242.52,-24.52"/>
<polygon fill="black" stroke="black" points="1242.81,-21.03 1232.48,-23.38 1242.02,-27.99 1242.81,-21.03"/>
</g>
</g>
</svg>
