<?xml version="1.0" encoding="UTF-8" standalone="no"?>
<svg
   width="100"
   height="100"
   viewBox="0 0 100 100"
   fill="none"
   version="1.1"
   id="svg36"
   sodipodi:docname="AppIcon.svg"
   inkscape:export-xdpi="491.51999"
   inkscape:export-ydpi="491.51999"
   xml:space="preserve"
   inkscape:version="1.3 (0e150ed, 2023-07-21)"
   inkscape:export-filename="AppIcon.png"
   xmlns:inkscape="http://www.inkscape.org/namespaces/inkscape"
   xmlns:sodipodi="http://sodipodi.sourceforge.net/DTD/sodipodi-0.dtd"
   xmlns="http://www.w3.org/2000/svg"
   xmlns:svg="http://www.w3.org/2000/svg"><defs
     id="defs36"><filter
       inkscape:collect="always"
       style="color-interpolation-filters:sRGB"
       id="filter37"
       x="-0.034690208"
       y="-0.035095692"
       width="1.0693804"
       height="1.0701914"><feGaussianBlur
         inkscape:collect="always"
         stdDeviation="1.373 1.373"
         id="feGaussianBlur37" /></filter></defs><sodipodi:namedview
     id="namedview36"
     pagecolor="#c0becc"
     bordercolor="#000000"
     borderopacity="0.25"
     inkscape:showpageshadow="2"
     inkscape:pageopacity="0.0"
     inkscape:pagecheckerboard="0"
     inkscape:deskcolor="#d1d1d1"
     inkscape:zoom="2.2882207"
     inkscape:cx="104.66648"
     inkscape:cy="55.501639"
     inkscape:window-width="1312"
     inkscape:window-height="449"
     inkscape:window-x="0"
     inkscape:window-y="38"
     inkscape:window-maximized="0"
     inkscape:current-layer="svg36" /><g
     id="g1"
     transform="matrix(0.84592093,0,0,0.84592093,7.7039558,7.4421019)"><rect
       style="mix-blend-mode:normal;fill:#7e7e7e;fill-opacity:1;stroke:none;stroke-width:1.04361;stroke-dasharray:none;stroke-opacity:1;paint-order:stroke fill markers;filter:url(#filter37)"
       id="rect37"
       width="94.989342"
       height="93.891869"
       x="4.0106549"
       y="1.9622574"
       ry="21.196474"
       transform="matrix(1.0000505,0,0,0.99999936,-1.5079288,1.4013858)"
       rx="23.833813" /><rect
       style="fill:#ffffff;fill-opacity:1;stroke:none;stroke-width:1.01166;stroke-dasharray:none;stroke-opacity:1;paint-order:stroke fill markers"
       id="rect36"
       width="95"
       height="95"
       x="2.5"
       y="2.5"
       ry="22.498056" /><g
       id="g36"
       transform="matrix(0.86239054,0,0,0.86239054,9.6152418,6.8197768)"><path
         d="m 25.8963,15.9453 c 1.1617,0 2.1034,-0.9412 2.1034,-2.1022 0,-1.161 -0.9417,-2.1021 -2.1034,-2.1021 -1.1616,0 -2.1033,0.9411 -2.1033,2.1021 0,1.161 0.9417,2.1022 2.1033,2.1022 z"
         fill="#ec432d"
         id="path1" /><path
         d="m 25.9315,40.0852 c 1.1616,0 2.1033,-0.9412 2.1033,-2.1022 0,-1.161 -0.9417,-2.1021 -2.1033,-2.1021 -1.1617,0 -2.1034,0.9411 -2.1034,2.1021 0,1.161 0.9417,2.1022 2.1034,2.1022 z"
         fill="#ec432d"
         id="path2" /><path
         d="m 67.7518,88.4001 c 1.1616,0 2.1033,-0.9411 2.1033,-2.1021 0,-1.161 -0.9417,-2.1022 -2.1033,-2.1022 -1.1617,0 -2.1034,0.9412 -2.1034,2.1022 0,1.161 0.9417,2.1021 2.1034,2.1021 z"
         fill="#ec432d"
         id="path3" /><path
         d="m 5.00178,52.1726 c 1.16165,0 2.10335,-0.9412 2.10335,-2.1022 0,-1.161 -0.9417,-2.1021 -2.10335,-2.1021 -1.16164,0 -2.10334,0.9411 -2.10334,2.1021 0,1.161 0.9417,2.1022 2.10334,2.1022 z"
         fill="#ec432d"
         id="path4" /><path
         d="m 88.6815,52.1726 c 1.1616,0 2.1033,-0.9412 2.1033,-2.1022 0,-1.161 -0.9417,-2.1021 -2.1033,-2.1021 -1.1617,0 -2.1034,0.9411 -2.1034,2.1021 0,1.161 0.9417,2.1022 2.1034,2.1022 z"
         fill="#ec432d"
         id="path5" /><path
         d="m 67.7518,15.9455 c 1.1616,0 2.1033,-0.9411 2.1033,-2.1021 0,-1.161 -0.9417,-2.1022 -2.1033,-2.1022 -1.1617,0 -2.1034,0.9412 -2.1034,2.1022 0,1.161 0.9417,2.1021 2.1034,2.1021 z"
         fill="#ec432d"
         id="path6" /><path
         d="m 67.7518,64.26 c 1.1616,0 2.1033,-0.9412 2.1033,-2.1022 0,-1.161 -0.9417,-2.1021 -2.1033,-2.1021 -1.1617,0 -2.1034,0.9411 -2.1034,2.1021 0,1.161 0.9417,2.1022 2.1034,2.1022 z"
         fill="#ec432d"
         id="path7" /><path
         d="m 25.9315,64.2253 c 1.1616,0 2.1033,-0.9412 2.1033,-2.1021 0,-1.161 -0.9417,-2.1022 -2.1033,-2.1022 -1.1617,0 -2.1034,0.9412 -2.1034,2.1022 0,1.1609 0.9417,2.1021 2.1034,2.1021 z"
         fill="#ec432d"
         id="path8" /><path
         d="m 67.7518,40.1203 c 1.1616,0 2.1033,-0.9411 2.1033,-2.1021 0,-1.161 -0.9417,-2.1022 -2.1033,-2.1022 -1.1617,0 -2.1034,0.9412 -2.1034,2.1022 0,1.161 0.9417,2.1021 2.1034,2.1021 z"
         fill="#ec432d"
         id="path9" /><path
         d="m 46.826,76.3127 c 1.1616,0 2.1033,-0.9412 2.1033,-2.1021 0,-1.161 -0.9417,-2.1022 -2.1033,-2.1022 -1.1616,0 -2.1033,0.9412 -2.1033,2.1022 0,1.1609 0.9417,2.1021 2.1033,2.1021 z"
         fill="#ec432d"
         id="path10" /><path
         d="m 46.8612,28.0329 c 1.1616,0 2.1033,-0.9411 2.1033,-2.1021 0,-1.161 -0.9417,-2.1022 -2.1033,-2.1022 -1.1617,0 -2.1034,0.9412 -2.1034,2.1022 0,1.161 0.9417,2.1021 2.1034,2.1021 z"
         fill="#ec432d"
         id="path11" /><path
         d="m 25.8963,88.4001 c 1.1617,0 2.1034,-0.9411 2.1034,-2.1021 0,-1.161 -0.9417,-2.1022 -2.1034,-2.1022 -1.1616,0 -2.1033,0.9412 -2.1033,2.1022 0,1.161 0.9417,2.1021 2.1033,2.1021 z"
         fill="#ec432d"
         id="path12" /><path
         d="m 29.4337,11.7411 c 7.7823,-9.59991 21.8397,-11.106463 31.48,-3.32846 1.227,0.98101 2.3488,2.10216 3.3303,3.32846 0.3506,-0.5957 0.8414,-1.1212 1.4724,-1.4716 0.4207,-0.2452 0.8413,-0.38535 1.3321,-0.45542 C 58.1794,-1.32738 41.9486,-3.14926 30.8359,5.71486 c -1.5074,1.22626 -2.9096,2.59267 -4.1015,4.09922 1.0867,0.24522 2.1033,0.94602 2.6993,1.92702 z"
         fill="#52c7ea"
         id="path13" /><path
         d="m 50.3633,23.8284 c 3.4354,-4.2744 8.3432,-7.1124 13.7769,-7.9883 -0.5609,-1.016 -0.6661,-2.2423 -0.2454,-3.3284 -6.4152,0.946 -12.2345,4.3095 -16.2659,9.4247 1.1568,0.1752 2.1384,0.8759 2.7344,1.892 z"
         fill="#52c7ea"
         id="path14" /><path
         d="m 37.1461,18.5379 c 2.3838,1.3664 4.452,3.1883 6.1698,5.3255 0.3505,-0.5956 0.8413,-1.1212 1.4723,-1.4715 0.3856,-0.2102 0.8063,-0.3854 1.262,-0.4555 -3.9963,-5.1152 -9.8506,-8.5137 -16.2658,-9.4247 0.1752,0.4205 0.2453,0.911 0.2453,1.3664 0,0.7007 -0.1752,1.3664 -0.5258,1.962 2.6993,0.4205 5.2934,1.3314 7.6422,2.6978 z"
         fill="#52c7ea"
         id="path15" /><path
         d="m 67.7891,33.9188 c 1.1919,0 2.3136,0.5255 3.0849,1.4365 2.4188,-6.0613 2.4188,-12.7882 0.035,-18.8494 -0.3155,0.3503 -0.666,0.6656 -1.0867,0.9109 -0.596,0.3504 -1.262,0.5255 -1.9631,0.5255 1.9981,5.1503 1.9631,10.8262 -0.0701,15.9765 z"
         fill="#52c7ea"
         id="path16" /><path
         d="m 64.2457,35.8811 c 0.5959,-1.016 1.6125,-1.6817 2.7694,-1.8919 -4.0314,-5.0803 -9.8507,-8.4437 -16.2659,-9.4247 0.3856,1.1211 0.2804,2.3474 -0.2804,3.3634 5.3985,0.8759 10.3064,3.7138 13.7769,7.9532 z"
         fill="#52c7ea"
         id="path17" /><path
         d="m 73.5717,16.2959 c 11.9891,3.1882 19.0703,15.4859 15.8803,27.4332 -0.2104,0.7708 -0.4558,1.5065 -0.7362,2.2423 0.7011,0 1.4022,0.1752 1.9982,0.5255 0.4206,0.2453 0.7712,0.5606 1.0867,0.911 0.3506,-0.911 0.6661,-1.8219 0.9114,-2.7328 3.6809,-13.7692 -4.4871,-27.9238 -18.264,-31.6376 -0.9465,-0.2452 -1.858,-0.4555 -2.8395,-0.5956 0.3856,1.1211 0.2804,2.3474 -0.2805,3.3635 0.7713,0.1401 1.5074,0.2802 2.2436,0.4905 z"
         fill="#52c7ea"
         id="path18" /><path
         d="m 80.688,39.7699 c -2.8044,-1.6116 -5.8894,-2.6977 -9.0794,-3.1532 0.3856,1.1212 0.3155,2.3474 -0.2805,3.3635 5.4337,0.8408 10.3415,3.6437 13.812,7.9181 0.5959,-0.981 1.6126,-1.6817 2.7694,-1.8919 -1.9982,-2.4876 -4.4521,-4.6248 -7.2215,-6.2365 z"
         fill="#52c7ea"
         id="path19" /><path
         d="m 71.8539,62.1579 c 0,0.4554 -0.0702,0.9109 -0.2454,1.3664 6.4502,-0.911 12.2695,-4.3095 16.3009,-9.3897 -1.1568,-0.1752 -2.1735,-0.8759 -2.7694,-1.8919 -3.4705,4.2744 -8.4134,7.1123 -13.847,7.9532 0.3856,0.5605 0.5609,1.2613 0.5609,1.962 z"
         fill="#52c7ea"
         id="path20" /><path
         d="m 67.8203,58.0585 c 1.1919,0.0351 2.2786,0.5606 3.0499,1.4716 2.3838,-6.0613 2.3838,-12.7882 0,-18.8494 -0.7713,0.8759 -1.858,1.4014 -3.0148,1.4364 1.9631,5.1153 1.928,10.7911 -0.0351,15.9414 z"
         fill="#52c7ea"
         id="path21" /><path
         d="m 67.8555,82.1987 c 1.1919,0.035 2.2786,0.5606 3.0498,1.4715 2.4189,-6.0612 2.3838,-12.7882 0,-18.8494 -0.7712,0.9109 -1.8579,1.4365 -3.0498,1.4715 1.9631,5.0802 1.9631,10.7561 0,15.9064 z"
         fill="#52c7ea"
         id="path22" /><path
         d="m 92.7122,55.4662 c -0.2453,-0.946 -0.5609,-1.8569 -0.9114,-2.7328 -0.7712,0.9109 -1.893,1.4365 -3.0499,1.4365 0.2805,0.7007 0.5259,1.4365 0.7362,2.1722 3.2251,11.9823 -3.8912,24.315 -15.8802,27.5383 -0.7362,0.1752 -1.4724,0.3504 -2.2436,0.4555 0.5959,1.0161 0.7011,2.2774 0.2804,3.3635 0.9465,-0.1402 1.893,-0.3504 2.8395,-0.5956 13.7419,-3.7139 21.945,-17.8684 18.229,-31.6376 z"
         fill="#52c7ea"
         id="path23" /><path
         d="m 50.679,75.5768 c 6.4502,-0.946 12.2695,-4.3095 16.336,-9.3897 -1.1569,-0.2102 -2.1735,-0.9109 -2.7694,-1.8919 -3.4706,4.2393 -8.3784,7.0772 -13.812,7.9531 0.5609,1.0161 0.631,2.2424 0.2454,3.3285 z"
         fill="#52c7ea"
         id="path24" /><path
         d="m 56.5331,81.6028 c -2.3838,-1.3664 -4.4521,-3.1883 -6.1698,-5.3255 -0.3506,0.5957 -0.8414,1.1212 -1.4724,1.4716 -0.3856,0.2102 -0.8063,0.3854 -1.262,0.4554 3.9964,5.1153 9.8156,8.5138 16.2659,9.4247 -0.4207,-1.0861 -0.3155,-2.3124 0.2804,-3.3284 -2.6993,-0.4204 -5.2934,-1.3314 -7.6421,-2.6978 z"
         fill="#52c7ea"
         id="path25" /><path
         d="m 37.1461,81.6029 c -2.3488,1.3664 -4.9429,2.2774 -7.6422,2.7329 0.5609,1.016 0.631,2.2423 0.2454,3.3284 6.4503,-0.946 12.2695,-4.3445 16.2659,-9.4598 -1.1569,-0.2102 -2.1384,-0.9109 -2.7344,-1.8919 -1.7177,2.1372 -3.786,3.924 -6.1347,5.2904 z"
         fill="#52c7ea"
         id="path26" /><path
         d="m 64.2477,88.3999 c -7.7823,9.5999 -21.8748,11.1064 -31.48,3.3284 -1.227,-0.981 -2.3488,-2.1021 -3.3303,-3.3284 -0.3506,0.5956 -0.8414,1.1212 -1.4724,1.4715 -0.4206,0.2453 -0.8413,0.3854 -1.297,0.4555 8.8691,11.1411 25.0648,12.9631 36.2126,4.0992 1.5074,-1.2263 2.9096,-2.5927 4.1015,-4.0992 -1.1218,-0.2102 -2.1384,-0.911 -2.7344,-1.927 z"
         fill="#52c7ea"
         id="path27" /><path
         d="m 25.8606,66.222 c -0.7011,0 -1.4022,-0.1752 -1.9982,-0.5255 -0.3856,-0.2453 -0.7712,-0.5256 -1.0517,-0.8759 -2.4188,6.0612 -2.4188,12.7881 -0.035,18.8494 0.2804,-0.3504 0.666,-0.6657 1.0516,-0.911 0.596,-0.3503 1.2971,-0.5255 1.9632,-0.5255 -1.9632,-5.1854 -1.9632,-10.8962 0.0701,-16.0115 z"
         fill="#52c7ea"
         id="path28" /><path
         d="m 29.4374,64.2603 c -0.596,1.016 -1.6126,1.6817 -2.7694,1.8919 4.0314,5.0802 9.8506,8.4787 16.3009,9.4597 -0.3856,-1.1211 -0.3155,-2.3474 0.2804,-3.3634 -5.4336,-0.911 -10.3414,-3.7489 -13.8119,-7.9882 z"
         fill="#52c7ea"
         id="path29" /><path
         d="M 1.84868,47.408 C 2.61991,46.4971 3.74169,46.0065 4.89853,45.9715 4.61809,45.2708 4.3727,44.535 4.16236,43.7993 0.937231,31.8169 8.05355,19.4843 20.0426,16.296 c 0.7362,-0.1752 1.4724,-0.3504 2.2436,-0.4555 -0.596,-1.016 -0.7011,-2.2773 -0.2805,-3.3634 -0.9465,0.1401 -1.893,0.3503 -2.8044,0.5956 C 5.42437,16.7514 -2.74362,30.941 0.937231,44.7102 1.21768,45.6211 1.49812,46.4971 1.84868,47.408 Z"
         fill="#52c7ea"
         id="path30" /><path
         d="m 12.9988,60.371 c 2.8045,1.6117 5.8894,2.6978 9.0795,3.1533 -0.3856,-1.1212 -0.3155,-2.3474 0.2454,-3.3635 C 16.89,59.32 11.9822,56.482 8.51169,52.2427 c -0.59594,0.981 -1.61256,1.6817 -2.73435,1.8919 1.96313,2.4876 4.41706,4.6248 7.22146,6.2364 z"
         fill="#52c7ea"
         id="path31" /><path
         d="M 20.0762,83.8454 C 8.08718,80.6221 0.970856,68.3244 4.16093,56.3421 4.37127,55.6064 4.61666,54.8706 4.8971,54.1699 4.19599,54.1699 3.49487,53.9947 2.89892,53.6443 2.51331,53.3991 2.1277,53.0838 1.84725,52.7334 1.49669,53.6093 1.18119,54.5553 0.9358,55.4662 c -3.68085,13.7692 4.45208,27.8887 18.229,31.6025 0.9465,0.2453 1.893,0.4555 2.8395,0.5956 -0.3856,-1.1211 -0.2804,-2.3123 0.2805,-3.3284 -0.7012,-0.1401 -1.4724,-0.2803 -2.2086,-0.4905 z"
         fill="#52c7ea"
         id="path32" /><path
         d="m 25.8606,33.8839 c -1.9982,-5.1153 -1.9982,-10.7911 -0.0351,-15.9064 -1.1568,-0.035 -2.2786,-0.5606 -3.0498,-1.4365 -2.3838,6.0613 -2.3838,12.7882 0.035,18.8144 0.7362,-0.911 1.858,-1.4715 3.0499,-1.4715 z"
         fill="#52c7ea"
         id="path33" /><path
         d="m 21.8329,37.9832 c 0,-0.4554 0.1052,-0.9109 0.2454,-1.3313 -6.4503,0.9459 -12.26954,4.3094 -16.30096,9.3896 0.45573,0.0701 0.91145,0.2453 1.29707,0.4555 0.59595,0.3503 1.08673,0.8409 1.43728,1.4365 3.47051,-4.2744 8.41341,-7.1124 13.88211,-7.9532 -0.3856,-0.5956 -0.5609,-1.2964 -0.5609,-1.9971 z"
         fill="#52c7ea"
         id="path34" /><path
         d="m 43.0041,24.5293 c -6.4152,0.981 -12.2345,4.3445 -16.301,9.4247 1.1569,0.2102 2.1384,0.9109 2.7344,1.927 3.4705,-4.2394 8.3783,-7.0773 13.8119,-7.9532 -0.5608,-1.0511 -0.666,-2.2773 -0.2453,-3.3985 z"
         fill="#52c7ea"
         id="path35" /><path
         d="m 25.8242,42.0824 c -1.1569,-0.0351 -2.2787,-0.5606 -3.0148,-1.4716 -2.3838,6.0613 -2.4189,12.7882 -0.0351,18.8494 0.7712,-0.8759 1.858,-1.4364 3.0148,-1.4364 C 23.861,52.8735 23.861,47.1976 25.8242,42.0824 Z"
         fill="#52c7ea"
         id="path36" /></g></g></svg>
