<svg width="121" height="121" viewBox="0 0 121 121" fill="none" xmlns="http://www.w3.org/2000/svg">
<g clip-path="url(#clip0_4790_30389)">
<path d="M48.057 115.319C46.941 116.219 45.585 116.675 44.037 116.675C43.173 116.687 42.309 116.519 41.505 116.183C40.749 115.871 40.053 115.403 39.477 114.827C38.901 114.251 38.445 113.567 38.121 112.811C37.797 112.031 37.629 111.191 37.629 110.351C37.617 109.487 37.785 108.623 38.121 107.819C38.433 107.063 38.889 106.379 39.477 105.815C40.701 104.627 42.345 103.967 44.049 103.991C45.609 103.991 46.965 104.447 48.081 105.347L48.369 105.587L50.361 103.199L50.073 102.971C49.245 102.299 48.309 101.783 47.313 101.423C46.269 101.063 45.165 100.871 44.049 100.883C42.765 100.871 41.493 101.135 40.305 101.627C39.177 102.107 38.145 102.791 37.269 103.643C35.481 105.419 34.473 107.831 34.473 110.351C34.461 111.611 34.725 112.871 35.217 114.023C35.697 115.139 36.393 116.159 37.257 117.011C38.133 117.863 39.165 118.547 40.293 119.027C41.481 119.531 42.753 119.783 44.037 119.771C45.141 119.783 46.233 119.591 47.277 119.231C48.273 118.871 49.197 118.355 50.025 117.683L50.325 117.443L48.357 115.079L48.057 115.319Z" fill="#575E60"/>
<path d="M61.0386 108.707C62.0466 107.771 63.0306 106.847 63.9546 105.947C64.9746 104.963 66.0306 103.955 67.0986 102.971L67.3866 102.707L65.4186 100.679L65.1426 100.943C63.5226 102.479 61.9506 103.955 60.4506 105.359C59.1306 106.583 57.7746 107.843 56.3826 109.139V87.2148H53.2266V119.435H56.3826V113.039L58.7826 110.831L65.1306 119.435H68.8506L61.0386 108.707Z" fill="#575E60"/>
<path d="M84.4532 101.267L84.3212 103.979C84.2252 103.847 84.1172 103.727 84.0212 103.595C83.5652 103.067 83.0252 102.599 82.4372 102.215C81.7772 101.783 81.0692 101.459 80.3132 101.231C79.4852 100.979 78.6212 100.859 77.7692 100.871C76.5092 100.859 75.2492 101.123 74.0972 101.615C72.9692 102.107 71.9492 102.803 71.0852 103.679C70.2212 104.555 69.5252 105.599 69.0452 106.739C68.5412 107.903 68.2892 109.163 68.3012 110.435C68.3012 111.671 68.5532 112.895 69.0332 114.035C69.5012 115.139 70.1612 116.147 71.0012 116.999C71.8532 117.863 72.8732 118.547 74.0012 119.015C75.2012 119.519 76.4852 119.771 77.7812 119.759C78.6452 119.771 79.5212 119.651 80.3492 119.423C81.0932 119.207 81.8132 118.895 82.4732 118.487C83.0612 118.127 83.5892 117.683 84.0572 117.179C84.1292 117.095 84.2012 117.011 84.2732 116.939C84.2732 117.047 84.2732 117.155 84.2732 117.263V119.423H87.4292V101.267H84.4532ZM84.2612 110.303C84.2732 111.167 84.1052 112.019 83.7692 112.811C83.4452 113.567 82.9892 114.251 82.4132 114.827C81.8252 115.403 81.1292 115.871 80.3732 116.183C78.7532 116.831 76.9412 116.831 75.3092 116.183C74.5532 115.871 73.8572 115.403 73.2692 114.827C72.6932 114.251 72.2372 113.567 71.9132 112.811C71.2532 111.203 71.2532 109.403 71.9132 107.795C72.2252 107.051 72.6932 106.379 73.2692 105.803C75.1652 104.003 77.9372 103.475 80.3612 104.471C81.1172 104.783 81.8132 105.251 82.4012 105.827C82.9772 106.403 83.4332 107.087 83.7572 107.843C84.0932 108.623 84.2612 109.463 84.2612 110.303Z" fill="#575E60"/>
<path d="M117.92 102.419C116.852 101.399 115.376 100.883 113.54 100.883C111.752 100.907 110.24 101.375 109.04 102.263C108.104 102.959 107.312 103.835 106.7 104.831C106.412 103.835 105.836 102.935 105.044 102.263C103.988 101.351 102.584 100.883 100.868 100.883C99.0564 100.907 97.5084 101.399 96.2724 102.335C95.4084 102.983 94.6764 103.787 94.1124 104.699C94.1004 104.459 94.0884 104.219 94.0764 103.967C94.0524 103.523 94.0284 103.091 94.0164 102.671C94.0044 102.251 93.9804 101.891 93.9444 101.615L93.9084 101.279H91.1484V119.447H94.3044V109.847C94.2924 109.043 94.4484 108.251 94.7484 107.507C95.0364 106.811 95.4684 106.199 96.0084 105.683C96.5604 105.167 97.2084 104.759 97.9044 104.483C98.6604 104.195 99.4764 104.039 100.292 104.051C101.432 104.099 102.296 104.447 102.86 105.059C103.436 105.683 103.772 106.487 103.808 107.327V119.447H106.964V109.727C106.988 108.947 107.144 108.167 107.456 107.447C107.744 106.775 108.164 106.163 108.692 105.659C109.232 105.143 109.88 104.747 110.576 104.471C111.32 104.183 112.124 104.039 112.928 104.039C114.092 104.087 114.968 104.435 115.544 105.047C116.12 105.671 116.456 106.475 116.492 107.315V119.435H119.648V106.463C119.564 104.795 118.988 103.439 117.92 102.419Z" fill="#575E60"/>
<path d="M16.9405 90.3948C24.2005 90.3948 30.0685 96.2868 30.0685 103.535C30.0685 110.795 24.1765 116.663 16.9285 116.663C9.68053 116.663 3.80053 110.783 3.80053 103.523C3.81253 96.2748 9.69253 90.3948 16.9405 90.3948ZM16.9405 87.2388C7.94053 87.2388 0.644531 94.5228 0.644531 103.523C0.644531 112.523 7.92853 119.819 16.9285 119.819C25.9285 119.819 33.2245 112.535 33.2245 103.535C33.2245 103.535 33.2245 103.535 33.2245 103.523C33.2245 94.5348 25.9285 87.2388 16.9405 87.2388Z" fill="#575E60"/>
<path d="M103.304 14.0628C113.444 16.7748 119.456 27.2028 116.744 37.3308C116.744 37.3308 116.744 37.3308 116.744 37.3428C116.54 38.0988 116.3 38.8308 116 39.5508C116.948 39.5508 117.848 39.9948 118.436 40.7508C118.796 39.8628 119.108 38.9628 119.36 38.0388C122.468 26.4588 115.592 14.5548 104.012 11.4468C103.088 11.1948 102.152 11.0148 101.192 10.8828C101.564 11.7588 101.492 12.7668 101.012 13.5828C101.792 13.7028 102.548 13.8588 103.304 14.0628Z" fill="#52C7EA"/>
<path d="M118.435 44.4468C117.859 45.2028 116.959 45.6468 115.999 45.6468C116.287 46.3668 116.539 47.1108 116.743 47.8548C119.467 57.9948 113.443 68.4108 103.315 71.1348C103.315 71.1348 103.315 71.1348 103.303 71.1348C102.547 71.3388 101.791 71.4948 101.023 71.6028C101.503 72.4308 101.563 73.4268 101.203 74.3028C102.151 74.1828 103.087 73.9908 104.011 73.7388C115.591 70.6308 122.467 58.7388 119.359 47.1588C119.107 46.2348 118.795 45.3348 118.435 44.4468Z" fill="#52C7EA"/>
<path d="M101.192 53.9388C106.916 53.2068 112.112 50.2188 115.628 45.6348C114.68 45.5148 113.84 44.9628 113.372 44.1348C110.336 48.0228 105.896 50.5668 101 51.2388C101.48 52.0548 101.552 53.0508 101.192 53.9388Z" fill="#52C7EA"/>
<path d="M95.7227 54.2988C92.6867 58.1748 88.2707 60.7308 83.3867 61.4268C83.8547 62.2548 83.9147 63.2508 83.5547 64.1268C89.2787 63.3828 94.4627 60.3828 97.9787 55.8108C97.0307 55.6788 96.2027 55.1268 95.7227 54.2988Z" fill="#52C7EA"/>
<path d="M100.784 54.6348C100.208 55.3908 99.3077 55.8348 98.3597 55.8348H98.3477C100.208 60.3948 100.22 65.5188 98.3597 70.0788C99.3077 70.0788 100.208 70.5228 100.784 71.2788C103.016 65.9628 103.004 59.9628 100.784 54.6348Z" fill="#52C7EA"/>
<path d="M73.9778 71.5909C76.4498 70.1629 78.6218 68.2549 80.3498 65.9749C79.4018 65.8549 78.5738 65.3029 78.0938 64.4749C75.0698 68.3749 70.6418 70.9309 65.7578 71.6149V71.6269C66.2378 72.4429 66.2978 73.4389 65.9378 74.3149C68.7698 73.9429 71.5058 73.0189 73.9778 71.5909Z" fill="#52C7EA"/>
<path d="M77.9237 64.1269C77.5517 63.2509 77.6117 62.2429 78.0917 61.4269C73.2197 60.7309 68.7917 58.1749 65.7677 54.2869C65.2877 55.1149 64.4597 55.6669 63.5117 55.7869C67.0157 60.3709 72.2117 63.3709 77.9237 64.1269Z" fill="#52C7EA"/>
<path d="M52.271 51.2268C54.743 52.6548 57.479 53.5788 60.311 53.9388C59.939 53.0628 60.011 52.0548 60.479 51.2388C55.595 50.5668 51.167 48.0228 48.131 44.1348C47.651 44.9628 46.823 45.5148 45.875 45.6348C47.627 47.8908 49.799 49.7988 52.271 51.2268Z" fill="#52C7EA"/>
<path d="M63.1299 49.7028C61.2939 45.1308 61.2939 40.0308 63.1419 35.4588C62.1939 35.4588 61.2939 35.0148 60.7179 34.2588C58.4979 39.5868 58.4859 45.5748 60.7059 50.9028C61.2819 50.1588 62.1699 49.7028 63.1299 49.7028Z" fill="#52C7EA"/>
<path d="M65.7674 10.5589C72.1994 2.27886 84.1274 0.79086 92.4074 7.23486C93.6434 8.19486 94.7594 9.31086 95.7194 10.5469C96.1994 9.71886 97.0274 9.16686 97.9754 9.04686C90.7034 -0.469141 77.0954 -2.28114 67.5794 4.99086C66.0554 6.15486 64.6874 7.52286 63.5234 9.04686C64.4714 9.17886 65.2994 9.73086 65.7674 10.5589Z" fill="#52C7EA"/>
<path d="M72.6215 15.9588C74.7455 17.1828 76.6055 18.8148 78.1055 20.7588C78.5735 19.9308 79.4015 19.3668 80.3495 19.2348C76.8575 14.6388 71.6615 11.6388 65.9495 10.8948C66.3215 11.7708 66.2495 12.7788 65.7695 13.6068C68.1815 13.9428 70.5095 14.7468 72.6215 15.9588Z" fill="#52C7EA"/>
<path d="M88.8801 15.9588C90.9921 14.7348 93.3201 13.9308 95.7321 13.5948C95.2521 12.7668 95.1921 11.7708 95.5641 10.8828C89.8521 11.6388 84.6681 14.6388 81.1641 19.2228C82.1121 19.3428 82.9401 19.8948 83.4081 20.7228V20.7348C84.9081 18.8028 86.7681 17.1828 88.8801 15.9588Z" fill="#52C7EA"/>
<path d="M65.7948 30.8988C68.8308 27.0228 73.2468 24.4668 78.1308 23.7828C77.6508 22.9548 77.5908 21.9588 77.9628 21.0828C72.2508 21.8268 67.0668 24.8148 63.5508 29.3988C64.4868 29.5068 65.3148 30.0708 65.7948 30.8988Z" fill="#52C7EA"/>
<path d="M60.7161 30.5629C61.2921 29.8069 62.1921 29.3629 63.1401 29.3629C61.2801 24.8029 61.2801 19.6909 63.1281 15.1189H63.1161C62.1681 15.1189 61.2801 14.6749 60.6921 13.9309C58.4841 19.2589 58.4841 25.2469 60.7161 30.5629Z" fill="#52C7EA"/>
<path d="M87.5246 71.5909C89.9966 73.0189 92.7206 73.9549 95.5526 74.3269C95.1806 73.4509 95.2526 72.4429 95.7206 71.6269C90.8366 70.9309 86.4086 68.3629 83.3846 64.4629C82.9166 65.2909 82.0886 65.8549 81.1406 65.9869C82.8926 68.2429 85.0526 70.1509 87.5246 71.5909Z" fill="#52C7EA"/>
<path d="M95.7314 74.6509C89.2874 82.9189 77.3714 84.4069 69.0914 77.9749C67.8554 77.0149 66.7394 75.8989 65.7674 74.6509C65.2994 75.4789 64.4714 76.0429 63.5234 76.1629C70.7954 85.6789 84.4034 87.4909 93.9194 80.2189C95.4434 79.0549 96.7994 77.6869 97.9754 76.1629C97.0274 76.0429 96.1994 75.4789 95.7314 74.6509Z" fill="#52C7EA"/>
<path d="M53.615 36.3227C55.739 35.0987 58.079 34.2948 60.515 33.9708C60.023 33.1548 59.951 32.1468 60.311 31.2708C54.587 32.0028 49.391 35.0028 45.875 39.5747C46.823 39.6947 47.663 40.2588 48.143 41.0868C49.643 39.1668 51.503 37.5467 53.615 36.3227Z" fill="#52C7EA"/>
<path d="M43.0653 40.7507C43.6413 39.9947 44.5413 39.5507 45.5013 39.5507C45.2133 38.8307 44.9613 38.0867 44.7573 37.3427C42.0333 27.2147 48.0453 16.7987 58.1733 14.0747C58.9293 13.8707 59.6973 13.7147 60.4773 13.6067C59.9973 12.7787 59.9253 11.7827 60.2853 10.9067C48.4053 12.4547 40.0293 23.3507 41.5893 35.2307C41.7093 36.1787 41.9013 37.1147 42.1413 38.0387C42.3933 38.9627 42.7053 39.8627 43.0653 40.7507Z" fill="#52C7EA"/>
<path d="M61.5945 70.4988C62.0625 70.2228 62.6025 70.0908 63.1425 70.0908C61.2825 65.5068 61.2945 60.3828 63.1665 55.8108C62.2185 55.8228 61.3065 55.3908 60.7185 54.6348C58.4865 59.9628 58.4865 65.9508 60.7065 71.2788C60.9465 70.9548 61.2465 70.6908 61.5945 70.4988Z" fill="#52C7EA"/>
<path d="M60.4892 71.5908C50.0972 70.1388 42.8492 60.5508 44.3012 50.1588C44.4092 49.3788 44.5652 48.6108 44.7692 47.8548C44.9732 47.1108 45.2132 46.3668 45.5012 45.6468C44.5532 45.6468 43.6412 45.2148 43.0652 44.4468C42.7052 45.3228 42.3932 46.2228 42.1532 47.1468C39.0452 58.7268 45.9212 70.6188 57.4892 73.7268C58.4132 73.9788 59.3492 74.1588 60.2972 74.2788C59.9372 73.4148 60.0092 72.4188 60.4892 71.5908Z" fill="#52C7EA"/>
<path d="M98.3477 29.3869C99.2957 29.3749 100.208 29.8189 100.784 30.5629C103.016 25.2349 103.016 19.2469 100.796 13.9189C100.22 14.6749 99.3197 15.1189 98.3597 15.1189C100.232 19.6909 100.22 24.8149 98.3477 29.3869Z" fill="#52C7EA"/>
<path d="M109.244 33.9827C106.772 32.5547 104.036 31.6308 101.204 31.2708C101.564 32.1468 101.504 33.1428 101.024 33.9708L101.012 33.9827C105.896 34.6547 110.324 37.1988 113.36 41.0747C113.84 40.2467 114.68 39.6947 115.628 39.5747C113.888 37.3067 111.716 35.4107 109.244 33.9827Z" fill="#52C7EA"/>
<path d="M95.7344 30.9108C96.2144 30.0828 97.0424 29.5308 97.9784 29.4108C94.4744 24.8268 89.2904 21.8388 83.5784 21.0828C83.9384 21.9588 83.8784 22.9668 83.3984 23.7828C88.2824 24.4788 92.7104 27.0348 95.7344 30.9108Z" fill="#52C7EA"/>
<path d="M98.3867 35.4949C100.235 40.0669 100.235 45.1669 98.3867 49.7389C99.3347 49.7389 100.235 50.1829 100.811 50.9509C103.031 45.6229 103.031 39.6349 100.823 34.3069C100.235 35.0509 99.3347 35.4949 98.3867 35.4949Z" fill="#52C7EA"/>
<path d="M64.8823 32.6965C65.0383 31.7348 64.3853 30.8287 63.4236 30.6727C62.462 30.5166 61.5559 31.1696 61.3998 32.1313C61.2437 33.093 61.8968 33.9991 62.8584 34.1552C63.8201 34.3112 64.7262 33.6582 64.8823 32.6965Z" fill="#EC432D"/>
<path d="M98.3851 74.9028C99.3593 74.9028 100.149 74.113 100.149 73.1387C100.149 72.1645 99.3593 71.3748 98.3851 71.3748C97.4109 71.3748 96.6211 72.1645 96.6211 73.1387C96.6211 74.113 97.4109 74.9028 98.3851 74.9028Z" fill="#EC432D"/>
<path d="M45.4906 44.363C46.4648 44.363 47.2546 43.5732 47.2546 42.599C47.2546 41.6247 46.4648 40.835 45.4906 40.835C44.5163 40.835 43.7266 41.6247 43.7266 42.599C43.7266 43.5732 44.5163 44.363 45.4906 44.363Z" fill="#EC432D"/>
<path d="M116.002 44.363C116.977 44.363 117.766 43.5732 117.766 42.599C117.766 41.6247 116.977 40.835 116.002 40.835C115.028 40.835 114.238 41.6247 114.238 42.599C114.238 43.5732 115.028 44.363 116.002 44.363Z" fill="#EC432D"/>
<path d="M98.3734 13.8349C99.3476 13.8349 100.137 13.0451 100.137 12.0709C100.137 11.0967 99.3476 10.3069 98.3734 10.3069C97.3991 10.3069 96.6094 11.0967 96.6094 12.0709C96.6094 13.0451 97.3991 13.8349 98.3734 13.8349Z" fill="#EC432D"/>
<path d="M98.3617 54.551C99.3359 54.551 100.126 53.7612 100.126 52.787C100.126 51.8127 99.3359 51.0229 98.3617 51.0229C97.3874 51.0229 96.5977 51.8127 96.5977 52.787C96.5977 53.7612 97.3874 54.551 98.3617 54.551Z" fill="#EC432D"/>
<path d="M64.8745 53.0405C65.0305 52.0788 64.3775 51.1727 63.4158 51.0167C62.4541 50.8606 61.548 51.5136 61.392 52.4753C61.2359 53.437 61.889 54.3431 62.8506 54.4991C63.8123 54.6552 64.7184 54.0022 64.8745 53.0405Z" fill="#EC432D"/>
<path d="M98.3851 34.1989C99.3593 34.1989 100.149 33.4091 100.149 32.4349C100.149 31.4607 99.3593 30.6709 98.3851 30.6709C97.4109 30.6709 96.6211 31.4607 96.6211 32.4349C96.6211 33.4091 97.4109 34.1989 98.3851 34.1989Z" fill="#EC432D"/>
<path d="M80.7445 64.7028C81.7187 64.7028 82.5085 63.913 82.5085 62.9388C82.5085 61.9646 81.7187 61.1748 80.7445 61.1748C79.7702 61.1748 78.9805 61.9646 78.9805 62.9388C78.9805 63.913 79.7702 64.7028 80.7445 64.7028Z" fill="#EC432D"/>
<path d="M80.7679 24.0229C81.7421 24.0229 82.5319 23.2331 82.5319 22.2589C82.5319 21.2846 81.7421 20.4949 80.7679 20.4949C79.7937 20.4949 79.0039 21.2846 79.0039 22.2589C79.0039 23.2331 79.7937 24.0229 80.7679 24.0229Z" fill="#EC432D"/>
<path d="M63.7963 74.7705C64.6964 74.3976 65.1238 73.3657 64.751 72.4656C64.3782 71.5655 63.3463 71.1381 62.4462 71.511C61.5461 71.8838 61.1186 72.9157 61.4915 73.8158C61.8643 74.7159 62.8962 75.1433 63.7963 74.7705Z" fill="#EC432D"/>
<path d="M64.8627 12.353C65.0188 11.3913 64.3657 10.4852 63.4041 10.3292C62.4424 10.1731 61.5363 10.8261 61.3802 11.7878C61.2242 12.7495 61.8772 13.6556 62.8389 13.8116C63.8006 13.9677 64.7067 13.3147 64.8627 12.353Z" fill="#EC432D"/>
</g>
<defs>
<clipPath id="clip0_4790_30389">
<rect width="120" height="120" fill="white" transform="translate(0.5 0.046875)"/>
</clipPath>
</defs>
</svg>
