<svg width="95" height="100" viewBox="0 0 95 100" fill="none" xmlns="http://www.w3.org/2000/svg">
<path d="M26.9612 15.8791C28.1285 15.8791 29.0748 14.9377 29.0748 13.7763C29.0748 12.615 28.1285 11.6736 26.9612 11.6736C25.7939 11.6736 24.8477 12.615 24.8477 13.7763C24.8477 14.9377 25.7939 15.8791 26.9612 15.8791Z" fill="#EC432D"/>
<path d="M26.9964 40.0258C28.1637 40.0258 29.11 39.0844 29.11 37.9231C29.11 36.7617 28.1637 35.8203 26.9964 35.8203C25.8291 35.8203 24.8828 36.7617 24.8828 37.9231C24.8828 39.0844 25.8291 40.0258 26.9964 40.0258Z" fill="#EC432D"/>
<path d="M69.0198 88.3544C70.1871 88.3544 71.1334 87.413 71.1334 86.2517C71.1334 85.0904 70.1871 84.1489 69.0198 84.1489C67.8525 84.1489 66.9062 85.0904 66.9062 86.2517C66.9062 87.413 67.8525 88.3544 69.0198 88.3544Z" fill="#EC432D"/>
<path d="M5.96515 52.1166C7.13245 52.1166 8.07874 51.1752 8.07874 50.0139C8.07874 48.8526 7.13245 47.9111 5.96515 47.9111C4.79785 47.9111 3.85156 48.8526 3.85156 50.0139C3.85156 51.1752 4.79785 52.1166 5.96515 52.1166Z" fill="#EC432D"/>
<path d="M90.0511 52.1166C91.2184 52.1166 92.1647 51.1752 92.1647 50.0139C92.1647 48.8526 91.2184 47.9111 90.0511 47.9111C88.8838 47.9111 87.9375 48.8526 87.9375 50.0139C87.9375 51.1752 88.8838 52.1166 90.0511 52.1166Z" fill="#EC432D"/>
<path d="M69.0198 15.8793C70.1871 15.8793 71.1334 14.9379 71.1334 13.7766C71.1334 12.6153 70.1871 11.6738 69.0198 11.6738C67.8525 11.6738 66.9062 12.6153 66.9062 13.7766C66.9062 14.9379 67.8525 15.8793 69.0198 15.8793Z" fill="#EC432D"/>
<path d="M69.0198 64.2075C70.1871 64.2075 71.1334 63.266 71.1334 62.1047C71.1334 60.9434 70.1871 60.002 69.0198 60.002C67.8525 60.002 66.9062 60.9434 66.9062 62.1047C66.9062 63.266 67.8525 64.2075 69.0198 64.2075Z" fill="#EC432D"/>
<path d="M26.9964 64.1728C28.1637 64.1728 29.11 63.2314 29.11 62.07C29.11 60.9087 28.1637 59.9673 26.9964 59.9673C25.8291 59.9673 24.8828 60.9087 24.8828 62.07C24.8828 63.2314 25.8291 64.1728 26.9964 64.1728Z" fill="#EC432D"/>
<path d="M69.0198 40.061C70.1871 40.061 71.1334 39.1195 71.1334 37.9582C71.1334 36.7969 70.1871 35.8555 69.0198 35.8555C67.8525 35.8555 66.9062 36.7969 66.9062 37.9582C66.9062 39.1195 67.8525 40.061 69.0198 40.061Z" fill="#EC432D"/>
<path d="M47.9925 76.2636C49.1598 76.2636 50.1061 75.3222 50.1061 74.1609C50.1061 72.9995 49.1598 72.0581 47.9925 72.0581C46.8252 72.0581 45.8789 72.9995 45.8789 74.1609C45.8789 75.3222 46.8252 76.2636 47.9925 76.2636Z" fill="#EC432D"/>
<path d="M48.0276 27.9702C49.195 27.9702 50.1412 27.0287 50.1412 25.8674C50.1412 24.7061 49.195 23.7646 48.0276 23.7646C46.8603 23.7646 45.9141 24.7061 45.9141 25.8674C45.9141 27.0287 46.8603 27.9702 48.0276 27.9702Z" fill="#EC432D"/>
<path d="M26.9612 88.3542C28.1285 88.3542 29.0748 87.4128 29.0748 86.2514C29.0748 85.0901 28.1285 84.1487 26.9612 84.1487C25.7939 84.1487 24.8477 85.0901 24.8477 86.2514C24.8477 87.4128 25.7939 88.3542 26.9612 88.3542Z" fill="#EC432D"/>
<path d="M30.5132 11.6738C38.3335 2.07121 52.4593 0.564231 62.1466 8.34442C63.3795 9.32571 64.5068 10.4472 65.4931 11.6738C65.8454 11.078 66.3385 10.5523 66.9726 10.2019C67.3953 9.95654 67.818 9.81635 68.3112 9.74626C59.3989 -1.39834 43.0891 -3.22073 31.9223 5.64589C30.4075 6.8725 28.9985 8.23929 27.8008 9.74626C28.8928 9.99158 29.9144 10.6925 30.5132 11.6738Z" fill="#52C7EA"/>
<path d="M51.5445 23.7644C54.9967 19.4888 59.9284 16.6501 65.3885 15.7739C64.8249 14.7576 64.7192 13.531 65.142 12.4446C58.6955 13.3908 52.8479 16.7552 48.7969 21.8719C49.9593 22.0472 50.9457 22.7481 51.5445 23.7644Z" fill="#52C7EA"/>
<path d="M38.2653 18.4725C40.6607 19.8393 42.7391 21.6617 44.4652 23.7995C44.8174 23.2037 45.3106 22.678 45.9447 22.3275C46.3322 22.1173 46.7549 21.942 47.2128 21.8719C43.197 16.7552 37.3142 13.3558 30.8678 12.4446C31.0439 12.8651 31.1143 13.3558 31.1143 13.8114C31.1143 14.5123 30.9382 15.1782 30.5859 15.7739C33.2984 16.1945 35.9051 17.1057 38.2653 18.4725Z" fill="#52C7EA"/>
<path d="M69.0547 33.8578C70.2524 33.8578 71.3796 34.3835 72.1546 35.2946C74.5852 29.2317 74.5852 22.5029 72.1898 16.4399C71.8728 16.7904 71.5205 17.1058 71.0978 17.3511C70.499 17.7016 69.8297 17.8768 69.1251 17.8768C71.133 23.0286 71.0978 28.706 69.0547 33.8578Z" fill="#52C7EA"/>
<path d="M65.4964 35.8206C66.0952 34.8042 67.1168 34.1384 68.2792 33.9281C64.2282 28.8464 58.3806 25.482 51.9342 24.5007C52.3217 25.6222 52.216 26.8488 51.6523 27.8651C57.0772 28.7413 62.0089 31.58 65.4964 35.8206Z" fill="#52C7EA"/>
<path d="M74.8678 16.2298C86.9152 19.419 94.031 31.7201 90.8254 43.6708C90.614 44.4418 90.3674 45.1777 90.0856 45.9137C90.7901 45.9137 91.4947 46.0889 92.0935 46.4394C92.5162 46.6847 92.8685 47.0001 93.1855 47.3506C93.5378 46.4394 93.8548 45.5282 94.1014 44.617C97.8002 30.844 89.5924 16.6854 75.7484 12.9705C74.7973 12.7252 73.8814 12.5149 72.8951 12.3748C73.2826 13.4962 73.1769 14.7228 72.6133 15.7392C73.3883 15.8793 74.128 16.0195 74.8678 16.2298Z" fill="#52C7EA"/>
<path d="M82.0187 39.7105C79.2006 38.0984 76.1007 37.012 72.8951 36.5564C73.2826 37.6779 73.2121 38.9045 72.6133 39.9208C78.0734 40.7619 83.0051 43.5656 86.4925 47.8412C87.0914 46.8599 88.1129 46.159 89.2754 45.9487C87.2675 43.4604 84.8016 41.3226 82.0187 39.7105Z" fill="#52C7EA"/>
<path d="M73.1418 62.1048C73.1418 62.5604 73.0713 63.016 72.8952 63.4716C79.3768 62.5604 85.2244 59.1609 89.2755 54.0792C88.113 53.904 87.0914 53.2031 86.4926 52.1868C83.0052 56.4624 78.0382 59.3011 72.5781 60.1422C72.9656 60.7029 73.1418 61.4038 73.1418 62.1048Z" fill="#52C7EA"/>
<path d="M69.0859 58.0044C70.2836 58.0394 71.3757 58.5651 72.1506 59.4763C74.546 53.4133 74.546 46.6845 72.1506 40.6216C71.3757 41.4977 70.2836 42.0234 69.1212 42.0585C71.0938 47.1752 71.0586 52.8526 69.0859 58.0044Z" fill="#52C7EA"/>
<path d="M69.125 82.1513C70.3227 82.1864 71.4147 82.7121 72.1897 83.6233C74.6203 77.5603 74.5851 70.8315 72.1897 64.7686C71.4147 65.6797 70.3227 66.2054 69.125 66.2405C71.0977 71.3221 71.0977 76.9996 69.125 82.1513Z" fill="#52C7EA"/>
<path d="M94.1014 55.4113C93.8548 54.4651 93.5377 53.5539 93.1855 52.6777C92.4105 53.5889 91.2832 54.1146 90.1208 54.1146C90.4026 54.8155 90.6492 55.5515 90.8605 56.2875C94.1014 68.2732 86.9504 80.6093 74.9029 83.8336C74.1632 84.0088 73.4234 84.184 72.6484 84.2891C73.2473 85.3055 73.353 86.5671 72.9302 87.6536C73.8814 87.5134 74.8325 87.3031 75.7836 87.0578C89.5924 83.3429 97.8354 69.1844 94.1014 55.4113Z" fill="#52C7EA"/>
<path d="M51.8638 75.5275C58.3454 74.5812 64.193 71.2168 68.2793 66.1352C67.1168 65.9249 66.0953 65.224 65.4964 64.2427C62.009 68.4832 57.0773 71.3219 51.6172 72.1981C52.1808 73.2144 52.2513 74.441 51.8638 75.5275Z" fill="#52C7EA"/>
<path d="M57.7444 81.5553C55.349 80.1885 53.2706 78.3661 51.5445 76.2283C51.1923 76.8241 50.6991 77.3497 50.065 77.7002C49.6775 77.9105 49.2548 78.0857 48.7969 78.1558C52.8127 83.2725 58.6603 86.672 65.142 87.5832C64.7192 86.4967 64.8249 85.2701 65.4238 84.2538C62.7113 83.8332 60.1046 82.922 57.7444 81.5553Z" fill="#52C7EA"/>
<path d="M38.2653 81.5554C35.9051 82.9222 33.2984 83.8333 30.5859 84.2889C31.1496 85.3053 31.22 86.5319 30.8325 87.6183C37.3142 86.6721 43.1618 83.2726 47.1776 78.1559C46.0151 77.9456 45.0288 77.2447 44.4299 76.2634C42.7038 78.4012 40.6255 80.1886 38.2653 81.5554Z" fill="#52C7EA"/>
<path d="M65.4971 88.3542C57.6769 97.9568 43.5158 99.4638 33.8638 91.6836C32.6309 90.7023 31.5036 89.5809 30.5173 88.3542C30.165 88.95 29.6718 89.4757 29.0378 89.8262C28.615 90.0715 28.1923 90.2117 27.7344 90.2818C36.6467 101.426 52.9213 103.249 64.1233 94.3821C65.6381 93.1555 67.0471 91.7887 68.2448 90.2818C67.1176 90.0715 66.096 89.3706 65.4971 88.3542Z" fill="#52C7EA"/>
<path d="M26.9233 66.1701C26.2188 66.1701 25.5143 65.9949 24.9154 65.6445C24.528 65.3991 24.1405 65.1188 23.8586 64.7683C21.428 70.8313 21.428 77.5601 23.8234 83.623C24.1052 83.2726 24.4927 82.9571 24.8802 82.7118C25.4791 82.3614 26.1836 82.1861 26.8529 82.1861C24.8802 76.9993 24.8802 71.2869 26.9233 66.1701Z" fill="#52C7EA"/>
<path d="M30.5173 64.2078C29.9184 65.2241 28.8968 65.89 27.7344 66.1002C31.7854 71.1819 37.633 74.5814 44.1147 75.5626C43.7272 74.4412 43.7976 73.2146 44.3965 72.1982C38.9364 71.287 34.0047 68.4483 30.5173 64.2078Z" fill="#52C7EA"/>
<path d="M2.79492 47.3507C3.5699 46.4395 4.69715 45.9489 5.85962 45.9138C5.57781 45.2129 5.33122 44.4769 5.11986 43.741C1.87903 31.7553 9.03 19.4191 21.0775 16.2299C21.8172 16.0547 22.557 15.8795 23.3319 15.7743C22.7331 14.758 22.6274 13.4963 23.0501 12.4099C22.099 12.5501 21.1479 12.7604 20.232 13.0057C6.38802 16.6855 -1.81975 30.8791 1.87903 44.6522C2.16084 45.5633 2.44265 46.4395 2.79492 47.3507Z" fill="#52C7EA"/>
<path d="M13.9988 60.3174C16.817 61.9295 19.9169 63.016 23.1225 63.4716C22.735 62.3501 22.8055 61.1235 23.3691 60.1071C17.909 59.266 12.9773 56.4273 9.48985 52.1868C8.891 53.1681 7.86943 53.869 6.74219 54.0792C8.71487 56.5675 11.1807 58.7053 13.9988 60.3174Z" fill="#52C7EA"/>
<path d="M21.1113 83.7985C9.06381 80.5743 1.91284 68.2732 5.11845 56.2875C5.3298 55.5515 5.57639 54.8155 5.8582 54.1146C5.15367 54.1146 4.44914 53.9394 3.85029 53.5889C3.4628 53.3436 3.07531 53.0282 2.7935 52.6777C2.44123 53.5539 2.1242 54.5001 1.87761 55.4113C-1.82117 69.1844 6.35137 83.3079 20.1954 87.0227C21.1465 87.2681 22.0976 87.4783 23.0487 87.6185C22.6612 86.497 22.7669 85.3055 23.3305 84.2892C22.626 84.149 21.851 84.0088 21.1113 83.7985Z" fill="#52C7EA"/>
<path d="M26.9233 33.8228C24.9154 28.7061 24.9154 23.0287 26.8881 17.912C25.7257 17.8769 24.5984 17.3512 23.8234 16.4751C21.428 22.538 21.428 29.2669 23.8586 35.2948C24.5984 34.3836 25.7256 33.8228 26.9233 33.8228Z" fill="#52C7EA"/>
<path d="M22.8759 37.9233C22.8759 37.4677 22.9816 37.0121 23.1225 36.5916C16.6408 37.5378 10.7932 40.9022 6.74219 45.9839C7.20013 46.0539 7.65808 46.2292 8.04557 46.4395C8.64442 46.7899 9.13759 47.2806 9.48985 47.8763C12.9773 43.6007 17.9442 40.762 23.4395 39.9209C23.052 39.3251 22.8759 38.6242 22.8759 37.9233Z" fill="#52C7EA"/>
<path d="M44.1498 24.4656C37.7034 25.4469 31.8558 28.8113 27.7695 33.8929C28.932 34.1032 29.9183 34.8041 30.5172 35.8205C34.0046 31.5799 38.9363 28.7412 44.3964 27.865C43.8328 26.8137 43.7271 25.587 44.1498 24.4656Z" fill="#52C7EA"/>
<path d="M26.8867 42.0237C25.7242 41.9886 24.597 41.463 23.8572 40.5518C21.4618 46.6147 21.4266 53.3435 23.822 59.4065C24.597 58.5303 25.689 57.9696 26.8515 57.9696C24.914 52.8178 24.914 47.1404 26.8867 42.0237Z" fill="#52C7EA"/>
</svg>
