<?xml version="1.0" encoding="UTF-8"?>
<svg width="826" height="555" viewBox="0 0 826 555" fill="none" xmlns="http://www.w3.org/2000/svg">
    <rect x="756" y="33" width="257" height="754" transform="rotate(90 756 33)" fill="url(#paint0_linear)" fill-opacity="0.25"/>
    <rect x="756" y="330" width="161" height="754" transform="rotate(90 756 330)" fill="url(#paint1_linear)" fill-opacity="0.25"/>
    <path d="M227 555L215 543.046H239L227 555Z" fill="#30CEFE"/>
    <path d="M223 33H231V543.046H223V33Z" fill="#30CEFE"/>
    <path d="M194.008 18V16.344H195.718V7.092H194.008V5.436H199.48V7.092H197.752V16.344H199.48V18H194.008ZM201.892 18V8.64H203.854V10.188H203.944C204.148 9.684 204.454 9.264 204.862 8.928C205.282 8.592 205.852 8.424 206.572 8.424C207.532 8.424 208.276 8.742 208.804 9.378C209.344 10.002 209.614 10.896 209.614 12.06V18H207.652V12.312C207.652 10.848 207.064 10.116 205.888 10.116C205.636 10.116 205.384 10.152 205.132 10.224C204.892 10.284 204.676 10.38 204.484 10.512C204.292 10.644 204.136 10.812 204.016 11.016C203.908 11.22 203.854 11.46 203.854 11.736V18H201.892ZM213.324 6.966C212.916 6.966 212.616 6.87 212.424 6.678C212.244 6.486 212.154 6.24 212.154 5.94V5.634C212.154 5.334 212.244 5.088 212.424 4.896C212.616 4.704 212.916 4.608 213.324 4.608C213.732 4.608 214.026 4.704 214.206 4.896C214.386 5.088 214.476 5.334 214.476 5.634V5.94C214.476 6.24 214.386 6.486 214.206 6.678C214.026 6.87 213.732 6.966 213.324 6.966ZM212.334 8.64H214.296V18H212.334V8.64ZM219.689 18C219.005 18 218.489 17.826 218.141 17.478C217.793 17.118 217.619 16.614 217.619 15.966V10.242H216.161V8.64H216.953C217.277 8.64 217.499 8.568 217.619 8.424C217.751 8.28 217.817 8.046 217.817 7.722V6.084H219.581V8.64H221.543V10.242H219.581V16.398H221.399V18H219.689ZM224.662 6.966C224.254 6.966 223.954 6.87 223.762 6.678C223.582 6.486 223.492 6.24 223.492 5.94V5.634C223.492 5.334 223.582 5.088 223.762 4.896C223.954 4.704 224.254 4.608 224.662 4.608C225.07 4.608 225.364 4.704 225.544 4.896C225.724 5.088 225.814 5.334 225.814 5.634V5.94C225.814 6.24 225.724 6.486 225.544 6.678C225.364 6.87 225.07 6.966 224.662 6.966ZM223.672 8.64H225.634V18H223.672V8.64ZM235.293 18C234.777 18 234.381 17.856 234.105 17.568C233.829 17.268 233.661 16.89 233.601 16.434H233.511C233.331 17.022 233.001 17.466 232.521 17.766C232.041 18.066 231.459 18.216 230.775 18.216C229.803 18.216 229.053 17.964 228.525 17.46C228.009 16.956 227.751 16.278 227.751 15.426C227.751 14.49 228.087 13.788 228.759 13.32C229.443 12.852 230.439 12.618 231.747 12.618H233.439V11.826C233.439 11.25 233.283 10.806 232.971 10.494C232.659 10.182 232.173 10.026 231.513 10.026C230.961 10.026 230.511 10.146 230.163 10.386C229.815 10.626 229.521 10.932 229.281 11.304L228.111 10.242C228.423 9.714 228.861 9.282 229.425 8.946C229.989 8.598 230.727 8.424 231.639 8.424C232.851 8.424 233.781 8.706 234.429 9.27C235.077 9.834 235.401 10.644 235.401 11.7V16.398H236.391V18H235.293ZM231.333 16.722C231.945 16.722 232.449 16.59 232.845 16.326C233.241 16.05 233.439 15.684 233.439 15.228V13.878H231.783C230.427 13.878 229.749 14.298 229.749 15.138V15.462C229.749 15.882 229.887 16.2 230.163 16.416C230.451 16.62 230.841 16.722 231.333 16.722ZM240.853 18C240.169 18 239.653 17.826 239.305 17.478C238.957 17.118 238.783 16.614 238.783 15.966V10.242H237.325V8.64H238.117C238.441 8.64 238.663 8.568 238.783 8.424C238.915 8.28 238.981 8.046 238.981 7.722V6.084H240.745V8.64H242.707V10.242H240.745V16.398H242.563V18H240.853ZM248.437 18.216C247.789 18.216 247.195 18.102 246.655 17.874C246.127 17.646 245.677 17.322 245.305 16.902C244.933 16.47 244.645 15.954 244.441 15.354C244.237 14.742 244.135 14.064 244.135 13.32C244.135 12.576 244.237 11.904 244.441 11.304C244.645 10.692 244.933 10.176 245.305 9.756C245.677 9.324 246.127 8.994 246.655 8.766C247.195 8.538 247.789 8.424 248.437 8.424C249.085 8.424 249.673 8.538 250.201 8.766C250.741 8.994 251.197 9.324 251.569 9.756C251.941 10.176 252.229 10.692 252.433 11.304C252.637 11.904 252.739 12.576 252.739 13.32C252.739 14.064 252.637 14.742 252.433 15.354C252.229 15.954 251.941 16.47 251.569 16.902C251.197 17.322 250.741 17.646 250.201 17.874C249.673 18.102 249.085 18.216 248.437 18.216ZM248.437 16.596C249.109 16.596 249.649 16.392 250.057 15.984C250.465 15.564 250.669 14.94 250.669 14.112V12.528C250.669 11.7 250.465 11.082 250.057 10.674C249.649 10.254 249.109 10.044 248.437 10.044C247.765 10.044 247.225 10.254 246.817 10.674C246.409 11.082 246.205 11.7 246.205 12.528V14.112C246.205 14.94 246.409 15.564 246.817 15.984C247.225 16.392 247.765 16.596 248.437 16.596ZM254.925 18V8.64H256.887V10.44H256.977C257.109 9.96 257.385 9.54 257.805 9.18C258.225 8.82 258.807 8.64 259.551 8.64H260.073V10.53H259.299C258.519 10.53 257.919 10.656 257.499 10.908C257.091 11.16 256.887 11.532 256.887 12.024V18H254.925Z" fill="#242A31"/>
    <path d="M758 555L746 543.012H770L758 555Z" fill="#30CEFE"/>
    <path d="M754 39C754 36.7909 755.791 35 758 35C760.209 35 762 36.7909 762 39V543.012H754V39Z" fill="#30CEFE"/>
    <path d="M716.969 18H714.935V5.436H720.353C721.481 5.436 722.369 5.778 723.017 6.462C723.665 7.134 723.989 8.052 723.989 9.216C723.989 10.116 723.779 10.866 723.359 11.466C722.951 12.054 722.345 12.468 721.541 12.708L724.259 18H721.991L719.471 12.924H716.969V18ZM720.209 11.214C720.725 11.214 721.127 11.082 721.415 10.818C721.703 10.542 721.847 10.152 721.847 9.648V8.784C721.847 8.28 721.703 7.896 721.415 7.632C721.127 7.356 720.725 7.218 720.209 7.218H716.969V11.214H720.209ZM729.994 18.216C729.322 18.216 728.722 18.102 728.194 17.874C727.666 17.646 727.216 17.322 726.844 16.902C726.472 16.47 726.184 15.954 725.98 15.354C725.788 14.742 725.692 14.064 725.692 13.32C725.692 12.576 725.788 11.904 725.98 11.304C726.184 10.692 726.472 10.176 726.844 9.756C727.216 9.324 727.666 8.994 728.194 8.766C728.722 8.538 729.322 8.424 729.994 8.424C730.678 8.424 731.278 8.544 731.794 8.784C732.322 9.024 732.76 9.36 733.108 9.792C733.456 10.212 733.714 10.704 733.882 11.268C734.062 11.832 734.152 12.438 734.152 13.086V13.824H727.726V14.13C727.726 14.85 727.936 15.444 728.356 15.912C728.788 16.368 729.4 16.596 730.192 16.596C730.768 16.596 731.254 16.47 731.65 16.218C732.046 15.966 732.382 15.624 732.658 15.192L733.81 16.326C733.462 16.902 732.958 17.364 732.298 17.712C731.638 18.048 730.87 18.216 729.994 18.216ZM729.994 9.954C729.658 9.954 729.346 10.014 729.058 10.134C728.782 10.254 728.542 10.422 728.338 10.638C728.146 10.854 727.996 11.112 727.888 11.412C727.78 11.712 727.726 12.042 727.726 12.402V12.528H732.082V12.348C732.082 11.628 731.896 11.052 731.524 10.62C731.152 10.176 730.642 9.954 729.994 9.954ZM739.294 18.216C738.406 18.216 737.662 18.06 737.062 17.748C736.462 17.436 735.94 17.004 735.496 16.452L736.756 15.3C737.104 15.72 737.488 16.05 737.908 16.29C738.34 16.518 738.838 16.632 739.402 16.632C739.978 16.632 740.404 16.524 740.68 16.308C740.968 16.08 741.112 15.768 741.112 15.372C741.112 15.072 741.01 14.82 740.806 14.616C740.614 14.4 740.272 14.262 739.78 14.202L738.916 14.094C737.956 13.974 737.2 13.698 736.648 13.266C736.108 12.822 735.838 12.168 735.838 11.304C735.838 10.848 735.922 10.446 736.09 10.098C736.258 9.738 736.492 9.438 736.792 9.198C737.104 8.946 737.47 8.754 737.89 8.622C738.322 8.49 738.796 8.424 739.312 8.424C740.152 8.424 740.836 8.556 741.364 8.82C741.904 9.084 742.384 9.45 742.804 9.918L741.598 11.07C741.358 10.782 741.04 10.536 740.644 10.332C740.26 10.116 739.816 10.008 739.312 10.008C738.772 10.008 738.37 10.116 738.106 10.332C737.854 10.548 737.728 10.83 737.728 11.178C737.728 11.538 737.842 11.808 738.07 11.988C738.298 12.168 738.664 12.3 739.168 12.384L740.032 12.492C741.064 12.648 741.814 12.954 742.282 13.41C742.762 13.854 743.002 14.454 743.002 15.21C743.002 15.666 742.912 16.08 742.732 16.452C742.564 16.812 742.318 17.124 741.994 17.388C741.67 17.652 741.28 17.856 740.824 18C740.368 18.144 739.858 18.216 739.294 18.216ZM745.218 8.64H747.18V10.188H747.27C747.474 9.624 747.804 9.192 748.26 8.892C748.728 8.58 749.274 8.424 749.898 8.424C751.086 8.424 752.004 8.856 752.652 9.72C753.3 10.572 753.624 11.772 753.624 13.32C753.624 14.868 753.3 16.074 752.652 16.938C752.004 17.79 751.086 18.216 749.898 18.216C749.274 18.216 748.728 18.06 748.26 17.748C747.804 17.436 747.474 17.004 747.27 16.452H747.18V21.6H745.218V8.64ZM749.304 16.524C749.988 16.524 750.534 16.308 750.942 15.876C751.35 15.432 751.554 14.85 751.554 14.13V12.51C751.554 11.79 751.35 11.214 750.942 10.782C750.534 10.338 749.988 10.116 749.304 10.116C748.704 10.116 748.2 10.266 747.792 10.566C747.384 10.854 747.18 11.238 747.18 11.718V14.922C747.18 15.402 747.384 15.792 747.792 16.092C748.2 16.38 748.704 16.524 749.304 16.524ZM759.543 18.216C758.895 18.216 758.301 18.102 757.761 17.874C757.233 17.646 756.783 17.322 756.411 16.902C756.039 16.47 755.751 15.954 755.547 15.354C755.343 14.742 755.241 14.064 755.241 13.32C755.241 12.576 755.343 11.904 755.547 11.304C755.751 10.692 756.039 10.176 756.411 9.756C756.783 9.324 757.233 8.994 757.761 8.766C758.301 8.538 758.895 8.424 759.543 8.424C760.191 8.424 760.779 8.538 761.307 8.766C761.847 8.994 762.303 9.324 762.675 9.756C763.047 10.176 763.335 10.692 763.539 11.304C763.743 11.904 763.845 12.576 763.845 13.32C763.845 14.064 763.743 14.742 763.539 15.354C763.335 15.954 763.047 16.47 762.675 16.902C762.303 17.322 761.847 17.646 761.307 17.874C760.779 18.102 760.191 18.216 759.543 18.216ZM759.543 16.596C760.215 16.596 760.755 16.392 761.163 15.984C761.571 15.564 761.775 14.94 761.775 14.112V12.528C761.775 11.7 761.571 11.082 761.163 10.674C760.755 10.254 760.215 10.044 759.543 10.044C758.871 10.044 758.331 10.254 757.923 10.674C757.515 11.082 757.311 11.7 757.311 12.528V14.112C757.311 14.94 757.515 15.564 757.923 15.984C758.331 16.392 758.871 16.596 759.543 16.596ZM766.031 18V8.64H767.993V10.188H768.083C768.287 9.684 768.593 9.264 769.001 8.928C769.421 8.592 769.991 8.424 770.711 8.424C771.671 8.424 772.415 8.742 772.943 9.378C773.483 10.002 773.753 10.896 773.753 12.06V18H771.791V12.312C771.791 10.848 771.203 10.116 770.027 10.116C769.775 10.116 769.523 10.152 769.271 10.224C769.031 10.284 768.815 10.38 768.623 10.512C768.431 10.644 768.275 10.812 768.155 11.016C768.047 11.22 767.993 11.46 767.993 11.736V18H766.031ZM782.358 16.452H782.268C782.064 17.004 781.728 17.436 781.26 17.748C780.804 18.06 780.264 18.216 779.64 18.216C778.452 18.216 777.534 17.79 776.886 16.938C776.238 16.074 775.914 14.868 775.914 13.32C775.914 11.772 776.238 10.572 776.886 9.72C777.534 8.856 778.452 8.424 779.64 8.424C780.264 8.424 780.804 8.58 781.26 8.892C781.728 9.192 782.064 9.624 782.268 10.188H782.358V4.68H784.32V18H782.358V16.452ZM780.234 16.524C780.834 16.524 781.338 16.38 781.746 16.092C782.154 15.792 782.358 15.402 782.358 14.922V11.718C782.358 11.238 782.154 10.854 781.746 10.566C781.338 10.266 780.834 10.116 780.234 10.116C779.55 10.116 779.004 10.338 778.596 10.782C778.188 11.214 777.984 11.79 777.984 12.51V14.13C777.984 14.85 778.188 15.432 778.596 15.876C779.004 16.308 779.55 16.524 780.234 16.524ZM790.797 18.216C790.125 18.216 789.525 18.102 788.997 17.874C788.469 17.646 788.019 17.322 787.647 16.902C787.275 16.47 786.987 15.954 786.783 15.354C786.591 14.742 786.495 14.064 786.495 13.32C786.495 12.576 786.591 11.904 786.783 11.304C786.987 10.692 787.275 10.176 787.647 9.756C788.019 9.324 788.469 8.994 788.997 8.766C789.525 8.538 790.125 8.424 790.797 8.424C791.481 8.424 792.081 8.544 792.597 8.784C793.125 9.024 793.563 9.36 793.911 9.792C794.259 10.212 794.517 10.704 794.685 11.268C794.865 11.832 794.955 12.438 794.955 13.086V13.824H788.529V14.13C788.529 14.85 788.739 15.444 789.159 15.912C789.591 16.368 790.203 16.596 790.995 16.596C791.571 16.596 792.057 16.47 792.453 16.218C792.849 15.966 793.185 15.624 793.461 15.192L794.613 16.326C794.265 16.902 793.761 17.364 793.101 17.712C792.441 18.048 791.673 18.216 790.797 18.216ZM790.797 9.954C790.461 9.954 790.149 10.014 789.861 10.134C789.585 10.254 789.345 10.422 789.141 10.638C788.949 10.854 788.799 11.112 788.691 11.412C788.583 11.712 788.529 12.042 788.529 12.402V12.528H792.885V12.348C792.885 11.628 792.699 11.052 792.327 10.62C791.955 10.176 791.445 9.954 790.797 9.954ZM797.127 18V8.64H799.089V10.44H799.179C799.311 9.96 799.587 9.54 800.007 9.18C800.427 8.82 801.009 8.64 801.753 8.64H802.275V10.53H801.501C800.721 10.53 800.121 10.656 799.701 10.908C799.293 11.16 799.089 11.532 799.089 12.024V18H797.127Z" fill="#242A31"/>
    <path d="M732.609 274.794C733.047 274.457 733.13 273.83 732.794 273.391L727.317 266.25C726.981 265.811 726.353 265.729 725.915 266.065C725.477 266.401 725.394 267.028 725.73 267.467L730.598 273.815L724.25 278.683C723.811 279.019 723.729 279.647 724.065 280.085C724.401 280.523 725.028 280.606 725.467 280.27L732.609 274.794ZM246.869 210.991L731.869 274.991L732.131 273.009L247.131 209.009L246.869 210.991Z" fill="#4FDAB8"/>
    <rect x="447.176" y="219" width="87.0052" height="30" rx="15" transform="rotate(8 447.176 219)" fill="white"/>
    <path d="M463.728 233.977L463.659 233.968L462.658 235.432L459.949 239.017L458.41 234.878L457.884 233.215L457.814 233.206L456.695 240.597L455.195 240.402L456.659 230.74L458.519 230.983L460.371 236.235L460.454 236.246L463.794 231.67L465.571 231.902L464.108 241.564L462.609 241.368L463.728 233.977ZM469.198 242.397C468.68 242.329 468.23 242.181 467.849 241.953C467.469 241.725 467.159 241.43 466.921 241.07C466.685 240.7 466.523 240.274 466.435 239.792C466.359 239.303 466.364 238.772 466.45 238.199C466.537 237.627 466.689 237.12 466.907 236.678C467.136 236.228 467.418 235.86 467.754 235.574C468.091 235.28 468.477 235.071 468.91 234.949C469.344 234.827 469.82 234.799 470.338 234.867C470.866 234.936 471.315 235.088 471.685 235.325C472.064 235.562 472.363 235.865 472.581 236.232C472.8 236.59 472.942 236.994 473.006 237.445C473.079 237.897 473.078 238.372 473.002 238.87L472.916 239.438L467.96 238.792L467.925 239.027C467.841 239.581 467.933 240.058 468.203 240.461C468.483 240.855 468.928 241.092 469.539 241.171C469.983 241.229 470.373 241.181 470.708 241.027C471.042 240.873 471.341 240.644 471.605 240.34L472.361 241.327C472.026 241.735 471.583 242.04 471.033 242.241C470.485 242.433 469.873 242.485 469.198 242.397ZM470.16 236.044C469.901 236.01 469.653 236.025 469.417 236.088C469.19 236.152 468.986 236.257 468.803 236.403C468.63 236.55 468.484 236.733 468.366 236.953C468.248 237.173 468.168 237.421 468.126 237.698L468.111 237.795L471.471 238.233L471.492 238.095C471.576 237.541 471.499 237.079 471.263 236.71C471.027 236.331 470.66 236.109 470.16 236.044ZM476.37 243.332C475.686 243.243 475.13 243.048 474.703 242.748C474.277 242.448 473.925 242.063 473.647 241.594L474.753 240.835C474.972 241.193 475.23 241.485 475.526 241.712C475.832 241.931 476.203 242.068 476.638 242.125C477.082 242.183 477.424 242.143 477.662 242.004C477.91 241.858 478.058 241.633 478.104 241.328C478.139 241.097 478.089 240.893 477.956 240.716C477.833 240.531 477.585 240.39 477.213 240.294L476.559 240.125C475.833 239.936 475.282 239.647 474.906 239.26C474.541 238.864 474.409 238.334 474.51 237.669C474.563 237.319 474.675 237.018 474.845 236.767C475.016 236.507 475.232 236.3 475.491 236.146C475.761 235.983 476.066 235.873 476.405 235.813C476.754 235.755 477.127 235.752 477.525 235.804C478.173 235.889 478.685 236.059 479.061 236.315C479.447 236.572 479.775 236.902 480.044 237.304L478.98 238.069C478.828 237.823 478.612 237.602 478.33 237.405C478.059 237.201 477.729 237.073 477.34 237.022C476.924 236.968 476.601 237.01 476.372 237.15C476.153 237.291 476.023 237.495 475.982 237.763C475.94 238.039 475.997 238.259 476.152 238.42C476.307 238.581 476.574 238.72 476.953 238.835L477.606 239.005C478.384 239.229 478.927 239.539 479.235 239.937C479.553 240.327 479.668 240.812 479.58 241.394C479.527 241.744 479.41 242.054 479.227 242.322C479.056 242.582 478.83 242.797 478.549 242.967C478.269 243.138 477.944 243.255 477.576 243.32C477.207 243.385 476.805 243.389 476.37 243.332ZM483.149 244.216C482.464 244.127 481.908 243.932 481.482 243.632C481.056 243.332 480.703 242.947 480.425 242.478L481.531 241.719C481.751 242.077 482.008 242.369 482.304 242.596C482.611 242.815 482.982 242.952 483.417 243.009C483.861 243.067 484.202 243.027 484.44 242.888C484.689 242.742 484.836 242.517 484.882 242.212C484.917 241.981 484.868 241.777 484.734 241.6C484.611 241.415 484.364 241.274 483.991 241.178L483.338 241.008C482.611 240.82 482.06 240.531 481.685 240.144C481.32 239.748 481.188 239.218 481.289 238.553C481.342 238.203 481.453 237.902 481.623 237.651C481.795 237.391 482.01 237.184 482.27 237.03C482.54 236.867 482.844 236.757 483.184 236.697C483.532 236.639 483.905 236.636 484.303 236.688C484.951 236.772 485.463 236.943 485.84 237.199C486.226 237.456 486.553 237.786 486.823 238.188L485.758 238.953C485.607 238.707 485.39 238.486 485.108 238.289C484.837 238.084 484.508 237.957 484.119 237.906C483.702 237.852 483.38 237.894 483.151 238.034C482.932 238.175 482.802 238.379 482.761 238.647C482.719 238.923 482.776 239.142 482.93 239.304C483.085 239.465 483.352 239.603 483.731 239.719L484.385 239.889C485.163 240.112 485.705 240.423 486.013 240.821C486.332 241.211 486.447 241.696 486.359 242.278C486.306 242.628 486.188 242.938 486.006 243.206C485.834 243.465 485.608 243.681 485.328 243.851C485.047 244.022 484.723 244.139 484.354 244.204C483.986 244.269 483.584 244.273 483.149 244.216ZM493.033 245.336C492.635 245.284 492.346 245.133 492.167 244.884C491.989 244.626 491.903 244.318 491.91 243.961L491.841 243.952C491.633 244.386 491.327 244.695 490.922 244.877C490.517 245.059 490.05 245.116 489.523 245.047C488.773 244.95 488.224 244.68 487.876 244.24C487.536 243.8 487.416 243.253 487.516 242.598C487.625 241.878 487.966 241.372 488.538 241.08C489.12 240.789 489.916 240.709 490.925 240.84L492.23 241.01L492.322 240.401C492.389 239.958 492.32 239.601 492.116 239.33C491.912 239.059 491.555 238.89 491.046 238.824C490.62 238.768 490.259 238.815 489.963 238.965C489.667 239.114 489.404 239.32 489.176 239.582L488.397 238.647C488.699 238.273 489.087 237.985 489.562 237.783C490.037 237.572 490.627 237.513 491.33 237.604C492.265 237.726 492.949 238.037 493.383 238.535C493.817 239.034 493.973 239.69 493.85 240.502L493.303 244.115L494.066 244.214L493.879 245.446L493.033 245.336ZM490.127 243.955C490.599 244.016 491.003 243.965 491.34 243.802C491.677 243.63 491.872 243.368 491.926 243.018L492.083 241.979L490.806 241.813C489.76 241.676 489.188 241.931 489.09 242.577L489.052 242.826C489.004 243.149 489.073 243.408 489.261 243.602C489.459 243.788 489.748 243.905 490.127 243.955ZM501.59 247.143C501.477 247.891 501.105 248.416 500.474 248.72C499.843 249.023 498.879 249.091 497.583 248.922C496.991 248.844 496.493 248.737 496.089 248.6C495.693 248.473 495.372 248.318 495.126 248.135C494.889 247.954 494.727 247.749 494.639 247.521C494.55 247.293 494.527 247.041 494.569 246.764C494.629 246.367 494.783 246.072 495.029 245.878C495.285 245.686 495.613 245.573 496.014 245.541L496.038 245.389C495.518 245.142 495.301 244.738 495.386 244.175C495.442 243.805 495.61 243.54 495.889 243.379C496.17 243.209 496.492 243.105 496.856 243.068L496.865 243.012C496.47 242.754 496.184 242.429 496.007 242.039C495.841 241.641 495.795 241.198 495.869 240.709C495.981 239.97 496.316 239.407 496.875 239.019C497.443 238.632 498.19 238.499 499.116 238.619C499.625 238.686 500.048 238.816 500.387 239.011L500.416 238.817C500.465 238.494 500.577 238.255 500.752 238.099C500.937 237.935 501.192 237.874 501.515 237.916L502.626 238.061L502.442 239.279L500.97 239.087L500.926 239.378C501.218 239.632 501.426 239.942 501.55 240.306C501.675 240.661 501.707 241.046 501.644 241.462C501.533 242.191 501.194 242.749 500.626 243.136C500.059 243.514 499.313 243.642 498.387 243.521C498.036 243.476 497.726 243.398 497.46 243.288C497.265 243.328 497.089 243.399 496.932 243.501C496.777 243.594 496.685 243.732 496.657 243.917C496.627 244.111 496.694 244.261 496.858 244.366C497.021 244.472 497.265 244.547 497.588 244.589L499.365 244.821C500.254 244.936 500.87 245.2 501.213 245.612C501.558 246.015 501.684 246.525 501.59 247.143ZM500.149 247.125C500.187 246.876 500.12 246.664 499.948 246.491C499.785 246.32 499.454 246.201 498.954 246.136L496.511 245.817C496.148 245.968 495.939 246.223 495.885 246.583C495.84 246.878 495.92 247.129 496.125 247.334C496.338 247.55 496.726 247.695 497.291 247.768L498.235 247.891C499.41 248.045 500.048 247.789 500.149 247.125ZM498.553 242.428C498.997 242.486 499.354 242.434 499.624 242.271C499.905 242.101 500.077 241.808 500.14 241.393L500.181 241.116C500.244 240.7 500.166 240.38 499.945 240.153C499.735 239.919 499.408 239.773 498.964 239.715C498.52 239.657 498.157 239.713 497.877 239.884C497.607 240.046 497.44 240.335 497.377 240.75L497.335 241.027C497.272 241.442 497.346 241.767 497.556 242.001C497.776 242.228 498.109 242.37 498.553 242.428ZM505.544 247.137C505.026 247.069 504.577 246.921 504.196 246.693C503.815 246.464 503.506 246.17 503.268 245.809C503.031 245.44 502.869 245.014 502.782 244.532C502.705 244.042 502.71 243.511 502.797 242.939C502.883 242.367 503.036 241.86 503.254 241.418C503.482 240.967 503.765 240.6 504.1 240.314C504.438 240.019 504.823 239.811 505.257 239.688C505.691 239.566 506.167 239.539 506.685 239.607C507.213 239.675 507.661 239.828 508.031 240.064C508.411 240.302 508.709 240.604 508.927 240.972C509.147 241.33 509.288 241.734 509.352 242.185C509.425 242.636 509.424 243.111 509.349 243.61L509.263 244.177L504.307 243.531L504.271 243.766C504.187 244.32 504.28 244.798 504.549 245.2C504.83 245.594 505.275 245.831 505.886 245.911C506.33 245.969 506.72 245.921 507.054 245.767C507.389 245.613 507.688 245.384 507.951 245.079L508.708 246.067C508.372 246.475 507.93 246.78 507.38 246.981C506.832 247.173 506.22 247.225 505.544 247.137ZM506.507 240.783C506.248 240.749 506 240.764 505.764 240.827C505.537 240.892 505.332 240.997 505.15 241.143C504.977 241.289 504.831 241.473 504.713 241.693C504.594 241.912 504.514 242.161 504.472 242.438L504.458 242.534L507.817 242.973L507.838 242.834C507.922 242.28 507.846 241.819 507.609 241.449C507.374 241.07 507.007 240.848 506.507 240.783ZM517.455 248.69C516.188 248.524 515.257 247.97 514.664 247.027C514.072 246.075 513.899 244.787 514.145 243.162C514.268 242.35 514.469 241.647 514.747 241.053C515.026 240.459 515.374 239.973 515.79 239.594C516.206 239.215 516.679 238.952 517.211 238.805C517.754 238.65 518.34 238.614 518.969 238.696C519.811 238.806 520.487 239.082 520.996 239.525C521.513 239.969 521.88 240.572 522.095 241.334L520.667 241.881C520.57 241.398 520.366 241 520.055 240.687C519.755 240.365 519.322 240.167 518.757 240.094C518.008 239.996 517.382 240.173 516.879 240.625C516.376 241.077 516.057 241.751 515.922 242.646L515.7 244.113C515.564 245.008 515.671 245.737 516.019 246.301C516.368 246.864 516.918 247.194 517.667 247.292C518.25 247.368 518.745 247.282 519.15 247.033C519.567 246.777 519.898 246.425 520.146 245.978L521.293 246.904C520.863 247.563 520.327 248.053 519.684 248.373C519.04 248.694 518.298 248.8 517.455 248.69Z" fill="#4FDAB8"/>
    <path d="M246.391 194.794C245.953 194.457 245.87 193.83 246.206 193.391L251.683 186.25C252.019 185.811 252.647 185.729 253.085 186.065C253.523 186.401 253.606 187.028 253.27 187.467L248.402 193.815L254.75 198.683C255.189 199.019 255.271 199.647 254.935 200.085C254.599 200.523 253.972 200.606 253.533 200.27L246.391 194.794ZM732.131 130.991L247.131 194.991L246.869 193.009L731.869 129.009L732.131 130.991Z" fill="#526AEA"/>
    <rect x="443" y="153.109" width="87.0052" height="30" rx="15" transform="rotate(-8 443 153.109)" fill="white"/>
    <path d="M462.506 160.55L462.437 160.559L461.91 162.223L460.371 166.362L457.662 162.777L456.662 161.312L456.592 161.321L457.712 168.713L456.213 168.908L454.749 159.247L456.609 159.004L459.95 163.579L460.033 163.569L461.885 158.316L463.662 158.084L465.125 167.746L463.626 167.942L462.506 160.55ZM470.265 167.245C469.747 167.313 469.271 167.286 468.837 167.163C468.403 167.041 468.019 166.837 467.683 166.552C467.346 166.257 467.063 165.889 466.836 165.448C466.617 164.997 466.464 164.485 466.377 163.913C466.29 163.341 466.286 162.814 466.364 162.334C466.45 161.842 466.612 161.417 466.85 161.056C467.087 160.687 467.396 160.388 467.776 160.159C468.157 159.931 468.606 159.783 469.125 159.715C469.652 159.646 470.129 159.678 470.555 159.811C470.99 159.942 471.367 160.157 471.686 160.454C472.003 160.742 472.259 161.094 472.455 161.511C472.659 161.927 472.799 162.384 472.875 162.882L472.961 163.45L468.004 164.096L468.04 164.331C468.124 164.885 468.355 165.321 468.734 165.638C469.12 165.945 469.618 166.059 470.229 165.98C470.674 165.922 471.034 165.776 471.31 165.542C471.586 165.309 471.805 165.012 471.968 164.652L472.988 165.408C472.787 165.886 472.452 166.292 471.984 166.626C471.514 166.951 470.941 167.157 470.265 167.245ZM469.303 160.892C469.044 160.926 468.81 161.003 468.602 161.124C468.403 161.244 468.238 161.398 468.105 161.584C467.982 161.77 467.897 161.983 467.848 162.225C467.8 162.466 467.797 162.726 467.839 163.002L467.854 163.099L471.213 162.661L471.192 162.523C471.108 161.969 470.898 161.545 470.56 161.25C470.222 160.946 469.803 160.827 469.303 160.892ZM477.438 166.31C476.753 166.399 476.161 166.354 475.662 166.175C475.163 165.995 474.71 165.715 474.303 165.335L475.141 164.323C475.458 164.611 475.793 164.826 476.145 164.968C476.504 165.1 476.902 165.138 477.337 165.081C477.781 165.023 478.097 164.897 478.285 164.703C478.48 164.499 478.555 164.245 478.509 163.94C478.474 163.709 478.366 163.526 478.185 163.39C478.011 163.243 477.732 163.171 477.345 163.174L476.666 163.178C475.912 163.182 475.297 163.046 474.821 162.77C474.352 162.482 474.068 162.007 473.967 161.342C473.914 160.992 473.932 160.674 474.021 160.389C474.109 160.096 474.254 159.841 474.458 159.627C474.669 159.402 474.929 159.217 475.237 159.073C475.555 158.928 475.913 158.83 476.311 158.778C476.959 158.694 477.502 158.726 477.94 158.876C478.387 159.025 478.8 159.258 479.178 159.576L478.382 160.583C478.164 160.386 477.89 160.228 477.561 160.111C477.239 159.984 476.884 159.945 476.496 159.996C476.079 160.05 475.782 160.174 475.603 160.367C475.434 160.558 475.37 160.788 475.41 161.055C475.452 161.332 475.572 161.528 475.768 161.644C475.965 161.759 476.263 161.824 476.661 161.838L477.34 161.834C478.154 161.85 478.768 162.01 479.183 162.314C479.604 162.607 479.859 163.044 479.947 163.625C480.001 163.976 479.979 164.304 479.884 164.608C479.796 164.901 479.643 165.166 479.424 165.402C479.205 165.637 478.928 165.833 478.593 165.99C478.258 166.147 477.873 166.253 477.438 166.31ZM484.216 165.426C483.532 165.515 482.94 165.47 482.44 165.291C481.941 165.111 481.488 164.831 481.082 164.452L481.919 163.439C482.237 163.727 482.571 163.942 482.923 164.084C483.283 164.216 483.68 164.254 484.115 164.197C484.559 164.139 484.875 164.013 485.063 163.819C485.259 163.615 485.333 163.361 485.287 163.056C485.252 162.825 485.144 162.642 484.963 162.506C484.79 162.359 484.51 162.287 484.124 162.29L483.445 162.294C482.69 162.299 482.075 162.162 481.599 161.886C481.131 161.598 480.846 161.123 480.746 160.458C480.693 160.108 480.711 159.79 480.8 159.506C480.887 159.212 481.033 158.958 481.236 158.743C481.448 158.518 481.707 158.333 482.016 158.189C482.334 158.044 482.692 157.946 483.09 157.894C483.738 157.81 484.28 157.842 484.718 157.992C485.166 158.141 485.578 158.374 485.957 158.692L485.161 159.699C484.942 159.502 484.668 159.345 484.339 159.227C484.018 159.1 483.663 159.062 483.274 159.112C482.858 159.167 482.56 159.29 482.382 159.483C482.213 159.674 482.148 159.904 482.189 160.171C482.231 160.448 482.35 160.644 482.547 160.76C482.744 160.875 483.041 160.94 483.44 160.954L484.119 160.95C484.933 160.966 485.547 161.126 485.961 161.43C486.383 161.723 486.638 162.16 486.726 162.742C486.779 163.092 486.758 163.42 486.662 163.724C486.575 164.018 486.421 164.282 486.202 164.518C485.983 164.753 485.706 164.95 485.371 165.106C485.036 165.263 484.651 165.369 484.216 165.426ZM494.05 163.974C493.652 164.026 493.33 163.955 493.083 163.762C492.835 163.559 492.662 163.285 492.562 162.94L492.493 162.949C492.423 163.42 492.22 163.794 491.885 164.073C491.549 164.352 491.118 164.526 490.59 164.595C489.841 164.693 489.233 164.574 488.767 164.24C488.31 163.904 488.032 163.409 487.933 162.754C487.824 162.034 488.001 161.46 488.465 161.033C488.938 160.604 489.679 160.324 490.688 160.192L491.993 160.022L491.901 159.413C491.834 158.97 491.662 158.644 491.385 158.436C491.108 158.227 490.715 158.156 490.206 158.223C489.78 158.278 489.447 158.416 489.206 158.635C488.966 158.855 488.775 159.12 488.633 159.43L487.607 158.731C487.786 158.293 488.074 157.917 488.469 157.602C488.864 157.278 489.413 157.07 490.116 156.978C491.051 156.856 491.801 156.979 492.366 157.348C492.932 157.716 493.276 158.307 493.399 159.119L493.946 162.732L494.71 162.632L494.897 163.864L494.05 163.974ZM490.847 163.39C491.319 163.328 491.692 163.176 491.967 162.933C492.24 162.681 492.35 162.38 492.297 162.029L492.14 160.991L490.863 161.158C489.817 161.294 489.343 161.685 489.441 162.331L489.478 162.58C489.527 162.903 489.671 163.134 489.909 163.272C490.155 163.4 490.467 163.439 490.847 163.39ZM502.813 163.523C502.926 164.271 502.724 164.871 502.208 165.324C501.691 165.778 500.785 166.089 499.49 166.258C498.897 166.335 498.387 166.359 497.957 166.33C497.539 166.31 497.184 166.243 496.894 166.13C496.612 166.016 496.395 165.861 496.243 165.665C496.09 165.468 495.993 165.231 495.951 164.955C495.891 164.558 495.951 164.235 496.13 163.985C496.319 163.735 496.601 163.543 496.977 163.409L496.954 163.257C496.381 163.153 496.052 162.819 495.967 162.256C495.911 161.887 495.994 161.59 496.214 161.363C496.433 161.128 496.712 160.945 497.051 160.816L497.043 160.761C496.587 160.613 496.215 160.375 495.93 160.045C495.652 159.705 495.475 159.29 495.401 158.801C495.29 158.063 495.445 157.436 495.867 156.92C496.298 156.402 496.976 156.083 497.902 155.963C498.411 155.896 498.857 155.913 499.24 156.014L499.211 155.82C499.162 155.497 499.198 155.238 499.32 155.044C499.449 154.839 499.676 154.715 500 154.673L501.11 154.528L501.295 155.746L499.823 155.938L499.867 156.229C500.224 156.399 500.515 156.643 500.743 156.961C500.969 157.271 501.114 157.633 501.176 158.048C501.287 158.777 501.126 159.4 500.695 159.918C500.263 160.426 499.583 160.74 498.658 160.861C498.306 160.907 497.986 160.911 497.697 160.873C497.522 160.962 497.374 161.075 497.253 161.214C497.131 161.342 497.084 161.499 497.112 161.684C497.141 161.877 497.25 162.004 497.439 162.064C497.627 162.125 497.883 162.134 498.207 162.091L499.984 161.86C500.873 161.744 501.543 161.84 501.996 162.148C502.447 162.447 502.719 162.905 502.813 163.523ZM501.422 163.874C501.384 163.625 501.257 163.439 501.04 163.317C500.833 163.193 500.479 163.164 499.979 163.229L497.536 163.548C497.232 163.785 497.108 164.084 497.162 164.444C497.207 164.739 497.358 164.959 497.616 165.104C497.885 165.258 498.301 165.297 498.866 165.224L499.81 165.101C500.985 164.947 501.523 164.539 501.422 163.874ZM498.492 159.767C498.937 159.71 499.264 159.568 499.476 159.343C499.695 159.107 499.773 158.782 499.71 158.366L499.668 158.09C499.605 157.674 499.434 157.386 499.155 157.225C498.883 157.053 498.526 156.996 498.081 157.054C497.637 157.112 497.305 157.259 497.086 157.495C496.875 157.72 496.801 158.04 496.864 158.455L496.906 158.732C496.969 159.147 497.136 159.441 497.407 159.613C497.686 159.774 498.048 159.825 498.492 159.767ZM506.612 162.506C506.094 162.573 505.618 162.546 505.184 162.424C504.75 162.302 504.365 162.098 504.029 161.812C503.692 161.517 503.41 161.149 503.183 160.709C502.963 160.257 502.81 159.745 502.724 159.173C502.637 158.601 502.633 158.075 502.711 157.594C502.797 157.103 502.959 156.677 503.197 156.317C503.434 155.947 503.742 155.648 504.123 155.42C504.504 155.191 504.953 155.043 505.471 154.976C505.999 154.907 506.476 154.939 506.901 155.071C507.337 155.203 507.714 155.417 508.032 155.714C508.35 156.002 508.606 156.355 508.801 156.772C509.006 157.187 509.146 157.644 509.221 158.143L509.307 158.71L504.351 159.356L504.387 159.592C504.471 160.145 504.702 160.581 505.08 160.899C505.466 161.206 505.965 161.32 506.576 161.24C507.02 161.182 507.38 161.036 507.656 160.803C507.932 160.569 508.152 160.272 508.314 159.912L509.335 160.669C509.133 161.146 508.799 161.552 508.33 161.886C507.86 162.211 507.287 162.418 506.612 162.506ZM505.649 156.152C505.39 156.186 505.157 156.264 504.949 156.385C504.75 156.505 504.584 156.658 504.452 156.845C504.329 157.03 504.243 157.244 504.195 157.485C504.147 157.727 504.143 157.986 504.185 158.263L504.2 158.36L507.56 157.922L507.539 157.783C507.455 157.23 507.244 156.805 506.907 156.51C506.568 156.206 506.149 156.087 505.649 156.152ZM513.397 151.599L517.687 151.04C518.492 150.935 519.155 151.079 519.677 151.472C520.209 151.863 520.532 152.438 520.646 153.194C520.701 153.554 520.697 153.87 520.634 154.142C520.57 154.404 520.472 154.629 520.34 154.815C520.206 154.993 520.044 155.136 519.853 155.246C519.66 155.346 519.468 155.418 519.277 155.462L519.289 155.545C519.485 155.529 519.705 155.547 519.949 155.6C520.202 155.652 520.445 155.757 520.676 155.915C520.906 156.064 521.112 156.272 521.295 156.54C521.475 156.799 521.596 157.131 521.658 157.537C521.717 157.925 521.707 158.298 521.629 158.656C521.561 159.013 521.434 159.331 521.25 159.609C521.065 159.887 520.832 160.12 520.549 160.307C520.264 160.486 519.942 160.598 519.581 160.645L514.861 161.261L513.397 151.599ZM516.226 159.713L518.919 159.362C519.326 159.309 519.63 159.161 519.829 158.919C520.028 158.677 520.098 158.357 520.037 157.96L519.966 157.49C519.906 157.093 519.744 156.803 519.481 156.621C519.217 156.439 518.882 156.375 518.475 156.428L515.781 156.779L516.226 159.713ZM515.584 155.478L518.014 155.161C518.402 155.11 518.689 154.974 518.872 154.753C519.054 154.522 519.117 154.222 519.061 153.853L518.994 153.41C518.938 153.041 518.789 152.773 518.547 152.607C518.303 152.432 517.987 152.37 517.599 152.42L515.169 152.737L515.584 155.478Z" fill="#526AEA"/>
    <path d="M732.609 490.794C733.047 490.457 733.13 489.83 732.794 489.391L727.317 482.25C726.981 481.811 726.353 481.729 725.915 482.065C725.477 482.401 725.394 483.028 725.73 483.467L730.598 489.815L724.25 494.683C723.811 495.019 723.729 495.647 724.065 496.085C724.401 496.523 725.028 496.606 725.467 496.27L732.609 490.794ZM246.869 426.991L731.869 490.991L732.131 489.009L247.131 425.009L246.869 426.991Z" fill="#4FDAB8"/>
    <rect x="447.176" y="435" width="87.0052" height="30" rx="15" transform="rotate(8 447.176 435)" fill="white"/>
    <path d="M464.013 450.014L463.944 450.005L462.943 451.469L460.234 455.054L458.695 450.916L458.168 449.252L458.099 449.243L456.979 456.634L455.48 456.439L456.944 446.777L458.804 447.02L460.656 452.272L460.739 452.283L464.079 447.708L465.856 447.939L464.393 457.601L462.893 457.406L464.013 450.014ZM469.483 458.434C468.964 458.367 468.515 458.219 468.134 457.99C467.753 457.762 467.444 457.467 467.206 457.107C466.97 456.737 466.808 456.312 466.72 455.83C466.643 455.34 466.648 454.809 466.735 454.236C466.822 453.664 466.974 453.157 467.192 452.715C467.42 452.265 467.703 451.897 468.039 451.612C468.376 451.317 468.761 451.108 469.195 450.986C469.629 450.864 470.105 450.837 470.623 450.904C471.151 450.973 471.599 451.126 471.969 451.362C472.349 451.6 472.647 451.902 472.865 452.269C473.085 452.627 473.227 453.032 473.29 453.482C473.364 453.934 473.362 454.409 473.287 454.907L473.201 455.475L468.245 454.829L468.209 455.064C468.125 455.618 468.218 456.096 468.488 456.498C468.768 456.892 469.213 457.129 469.824 457.208C470.268 457.266 470.658 457.218 470.992 457.064C471.327 456.91 471.626 456.681 471.889 456.377L472.646 457.365C472.31 457.772 471.868 458.077 471.318 458.278C470.77 458.47 470.158 458.522 469.483 458.434ZM470.445 452.081C470.186 452.047 469.938 452.062 469.702 452.125C469.475 452.189 469.271 452.295 469.088 452.44C468.915 452.587 468.769 452.77 468.651 452.99C468.533 453.21 468.452 453.458 468.411 453.735L468.396 453.832L471.755 454.27L471.776 454.132C471.86 453.578 471.784 453.116 471.547 452.747C471.312 452.368 470.945 452.146 470.445 452.081ZM476.655 459.369C475.97 459.28 475.415 459.085 474.988 458.785C474.562 458.485 474.209 458.1 473.931 457.631L475.037 456.872C475.257 457.23 475.515 457.522 475.81 457.749C476.117 457.968 476.488 458.106 476.923 458.162C477.367 458.22 477.708 458.18 477.946 458.042C478.195 457.895 478.342 457.67 478.388 457.365C478.423 457.135 478.374 456.931 478.241 456.753C478.118 456.568 477.87 456.427 477.497 456.332L476.844 456.162C476.117 455.973 475.566 455.685 475.191 455.297C474.826 454.901 474.694 454.371 474.795 453.707C474.848 453.356 474.96 453.055 475.13 452.804C475.301 452.545 475.517 452.337 475.776 452.183C476.046 452.021 476.35 451.91 476.69 451.85C477.038 451.792 477.412 451.789 477.81 451.841C478.457 451.926 478.97 452.096 479.346 452.352C479.732 452.609 480.059 452.939 480.329 453.341L479.264 454.106C479.113 453.86 478.896 453.639 478.615 453.442C478.344 453.238 478.014 453.11 477.625 453.059C477.209 453.005 476.886 453.048 476.657 453.187C476.438 453.328 476.308 453.532 476.267 453.8C476.225 454.077 476.282 454.296 476.437 454.457C476.591 454.618 476.858 454.757 477.237 454.872L477.891 455.042C478.669 455.266 479.212 455.576 479.519 455.974C479.838 456.364 479.953 456.849 479.865 457.431C479.812 457.781 479.694 458.091 479.512 458.359C479.341 458.619 479.115 458.834 478.834 459.004C478.553 459.175 478.229 459.292 477.86 459.357C477.492 459.422 477.09 459.426 476.655 459.369ZM483.434 460.253C482.749 460.164 482.193 459.969 481.767 459.669C481.34 459.369 480.988 458.984 480.71 458.515L481.816 457.756C482.035 458.114 482.293 458.406 482.589 458.633C482.896 458.852 483.266 458.989 483.701 459.046C484.146 459.104 484.487 459.064 484.725 458.926C484.974 458.779 485.121 458.554 485.167 458.249C485.202 458.018 485.153 457.814 485.019 457.637C484.896 457.452 484.648 457.311 484.276 457.215L483.622 457.046C482.896 456.857 482.345 456.568 481.969 456.181C481.605 455.785 481.473 455.255 481.573 454.59C481.626 454.24 481.738 453.939 481.908 453.688C482.08 453.428 482.295 453.221 482.554 453.067C482.824 452.904 483.129 452.794 483.468 452.734C483.817 452.676 484.19 452.673 484.588 452.725C485.236 452.81 485.748 452.98 486.125 453.236C486.51 453.493 486.838 453.823 487.107 454.225L486.043 454.99C485.891 454.744 485.675 454.523 485.393 454.326C485.122 454.122 484.792 453.994 484.404 453.943C483.987 453.889 483.665 453.932 483.436 454.071C483.216 454.212 483.086 454.416 483.046 454.684C483.004 454.96 483.06 455.18 483.215 455.341C483.37 455.502 483.637 455.641 484.016 455.756L484.67 455.926C485.447 456.15 485.99 456.46 486.298 456.858C486.616 457.248 486.732 457.733 486.644 458.315C486.59 458.665 486.473 458.975 486.291 459.243C486.119 459.503 485.893 459.718 485.612 459.888C485.332 460.059 485.007 460.176 484.639 460.241C484.27 460.306 483.869 460.31 483.434 460.253ZM493.317 461.373C492.919 461.321 492.631 461.17 492.451 460.921C492.273 460.663 492.188 460.355 492.195 459.998L492.125 459.989C491.918 460.423 491.612 460.732 491.207 460.914C490.802 461.097 490.335 461.153 489.808 461.085C489.058 460.987 488.509 460.718 488.16 460.277C487.821 459.837 487.701 459.29 487.8 458.635C487.909 457.915 488.25 457.409 488.823 457.117C489.405 456.826 490.201 456.746 491.209 456.877L492.514 457.048L492.607 456.439C492.674 455.996 492.605 455.638 492.401 455.367C492.196 455.096 491.84 454.927 491.331 454.861C490.905 454.805 490.544 454.852 490.248 455.002C489.951 455.151 489.689 455.357 489.461 455.619L488.682 454.685C488.984 454.31 489.372 454.022 489.846 453.82C490.322 453.609 490.911 453.55 491.615 453.641C492.549 453.763 493.234 454.074 493.668 454.573C494.102 455.071 494.257 455.727 494.134 456.539L493.587 460.152L494.351 460.251L494.164 461.483L493.317 461.373ZM490.412 459.992C490.884 460.053 491.288 460.003 491.624 459.839C491.962 459.667 492.157 459.405 492.21 459.055L492.368 458.017L491.09 457.85C490.045 457.714 489.473 457.968 489.375 458.614L489.337 458.864C489.288 459.187 489.358 459.445 489.545 459.639C489.744 459.825 490.033 459.942 490.412 459.992ZM501.875 463.18C501.762 463.928 501.389 464.453 500.758 464.757C500.127 465.06 499.164 465.128 497.868 464.959C497.276 464.882 496.778 464.774 496.374 464.637C495.978 464.51 495.657 464.355 495.411 464.172C495.174 463.991 495.011 463.786 494.923 463.558C494.835 463.33 494.812 463.078 494.854 462.801C494.914 462.404 495.067 462.109 495.314 461.915C495.569 461.723 495.898 461.611 496.299 461.578L496.322 461.426C495.803 461.179 495.586 460.775 495.671 460.212C495.727 459.843 495.894 459.577 496.174 459.416C496.454 459.246 496.777 459.142 497.141 459.105L497.149 459.049C496.754 458.791 496.468 458.467 496.292 458.077C496.125 457.678 496.079 457.235 496.153 456.746C496.265 456.008 496.601 455.444 497.16 455.056C497.728 454.669 498.475 454.536 499.4 454.657C499.909 454.723 500.333 454.854 500.672 455.048L500.701 454.854C500.75 454.531 500.862 454.292 501.036 454.136C501.222 453.972 501.476 453.911 501.8 453.953L502.911 454.098L502.726 455.316L501.255 455.124L501.211 455.415C501.502 455.669 501.71 455.979 501.835 456.343C501.96 456.698 501.991 457.084 501.929 457.499C501.818 458.228 501.479 458.786 500.91 459.173C500.344 459.551 499.597 459.679 498.672 459.559C498.32 459.513 498.011 459.435 497.745 459.325C497.55 459.365 497.374 459.436 497.217 459.538C497.061 459.631 496.97 459.769 496.942 459.954C496.912 460.148 496.979 460.298 497.142 460.404C497.306 460.51 497.549 460.584 497.873 460.626L499.65 460.858C500.539 460.974 501.155 461.237 501.498 461.649C501.843 462.052 501.968 462.562 501.875 463.18ZM500.434 463.162C500.471 462.913 500.404 462.702 500.232 462.529C500.07 462.357 499.738 462.238 499.239 462.173L496.795 461.855C496.433 462.005 496.224 462.26 496.17 462.62C496.125 462.915 496.205 463.166 496.41 463.371C496.622 463.587 497.011 463.732 497.576 463.805L498.52 463.929C499.695 464.082 500.333 463.826 500.434 463.162ZM498.838 458.465C499.282 458.523 499.639 458.471 499.909 458.308C500.19 458.138 500.361 457.845 500.424 457.43L500.466 457.153C500.529 456.738 500.45 456.417 500.23 456.19C500.02 455.956 499.693 455.81 499.249 455.752C498.804 455.694 498.442 455.75 498.161 455.921C497.891 456.083 497.725 456.372 497.662 456.787L497.62 457.064C497.557 457.479 497.631 457.804 497.84 458.039C498.061 458.265 498.393 458.407 498.838 458.465ZM505.829 463.174C505.311 463.106 504.861 462.958 504.481 462.73C504.1 462.501 503.791 462.207 503.553 461.846C503.316 461.477 503.154 461.051 503.067 460.569C502.99 460.079 502.995 459.548 503.081 458.976C503.168 458.404 503.32 457.897 503.538 457.455C503.767 457.005 504.049 456.637 504.385 456.351C504.722 456.056 505.108 455.848 505.542 455.726C505.975 455.603 506.451 455.576 506.97 455.644C507.497 455.712 507.946 455.865 508.316 456.102C508.695 456.339 508.994 456.642 509.212 457.009C509.431 457.367 509.573 457.771 509.637 458.222C509.71 458.674 509.709 459.149 509.634 459.647L509.548 460.214L504.591 459.568L504.556 459.803C504.472 460.357 504.565 460.835 504.834 461.237C505.114 461.631 505.56 461.868 506.171 461.948C506.615 462.006 507.004 461.958 507.339 461.804C507.674 461.65 507.973 461.421 508.236 461.116L508.992 462.104C508.657 462.512 508.214 462.817 507.665 463.018C507.117 463.21 506.505 463.262 505.829 463.174ZM506.791 456.82C506.532 456.786 506.285 456.801 506.049 456.865C505.822 456.929 505.617 457.034 505.435 457.18C505.261 457.326 505.116 457.51 504.997 457.73C504.879 457.949 504.799 458.198 504.757 458.475L504.742 458.572L508.102 459.01L508.123 458.871C508.207 458.318 508.13 457.856 507.894 457.486C507.659 457.107 507.291 456.885 506.791 456.82ZM514.128 464.087L515.592 454.425L521.797 455.234L521.587 456.618L516.951 456.014L516.544 458.699L520.75 459.247L520.541 460.632L516.334 460.083L515.906 462.907L520.543 463.512L520.334 464.896L514.128 464.087Z" fill="#4FDAB8"/>
    <path d="M732.609 114.794C733.047 114.457 733.13 113.83 732.794 113.391L727.317 106.25C726.981 105.811 726.353 105.729 725.915 106.065C725.477 106.401 725.394 107.028 725.73 107.467L730.598 113.815L724.25 118.683C723.811 119.019 723.729 119.647 724.065 120.085C724.401 120.523 725.028 120.606 725.467 120.27L732.609 114.794ZM246.869 50.9914L731.869 114.991L732.131 113.009L247.131 49.0086L246.869 50.9914Z" fill="#526AEA"/>
    <rect x="447" y="60.744" width="87.0052" height="30" rx="15" transform="rotate(8 447 60.744)" fill="white"/>
    <path d="M246.391 410.794C245.953 410.457 245.87 409.83 246.206 409.391L251.683 402.25C252.019 401.811 252.647 401.729 253.085 402.065C253.523 402.401 253.606 403.028 253.27 403.467L248.402 409.815L254.75 414.683C255.189 415.019 255.271 415.647 254.935 416.085C254.599 416.523 253.972 416.606 253.533 416.27L246.391 410.794ZM732.131 346.991L247.131 410.991L246.869 409.009L731.869 345.009L732.131 346.991Z" fill="#4FDAB8"/>
    <rect x="443" y="369.109" width="87.0052" height="30" rx="15" transform="rotate(-8 443 369.109)" fill="white"/>
    <path d="M462.343 376.571L462.274 376.58L461.747 378.244L460.208 382.383L457.499 378.798L456.499 377.333L456.43 377.342L457.549 384.734L456.05 384.93L454.586 375.268L456.447 375.025L459.787 379.601L459.87 379.59L461.722 374.337L463.499 374.106L464.962 383.767L463.463 383.963L462.343 376.571ZM470.103 383.266C469.584 383.334 469.108 383.307 468.674 383.185C468.241 383.062 467.856 382.858 467.52 382.573C467.183 382.278 466.901 381.91 466.673 381.469C466.454 381.018 466.301 380.506 466.214 379.934C466.128 379.362 466.123 378.836 466.202 378.355C466.288 377.864 466.45 377.438 466.688 377.077C466.924 376.708 467.233 376.409 467.614 376.18C467.994 375.952 468.444 375.804 468.962 375.736C469.49 375.668 469.966 375.7 470.392 375.832C470.827 375.964 471.204 376.178 471.523 376.475C471.84 376.763 472.097 377.116 472.292 377.532C472.496 377.948 472.636 378.405 472.712 378.903L472.798 379.471L467.842 380.117L467.877 380.352C467.961 380.906 468.192 381.342 468.571 381.659C468.957 381.967 469.456 382.08 470.067 382.001C470.511 381.943 470.871 381.797 471.147 381.563C471.423 381.33 471.642 381.033 471.805 380.673L472.826 381.429C472.624 381.907 472.289 382.313 471.821 382.647C471.351 382.972 470.778 383.178 470.103 383.266ZM469.14 376.913C468.881 376.947 468.647 377.024 468.439 377.146C468.24 377.266 468.075 377.419 467.943 377.606C467.82 377.791 467.734 378.004 467.686 378.246C467.637 378.488 467.634 378.747 467.676 379.024L467.691 379.12L471.05 378.682L471.029 378.544C470.946 377.99 470.735 377.566 470.398 377.271C470.059 376.967 469.64 376.848 469.14 376.913ZM477.275 382.331C476.59 382.421 475.998 382.375 475.499 382.196C475 382.016 474.547 381.736 474.14 381.357L474.978 380.344C475.295 380.632 475.63 380.847 475.982 380.989C476.342 381.121 476.739 381.159 477.174 381.102C477.618 381.044 477.934 380.918 478.122 380.725C478.317 380.52 478.392 380.266 478.346 379.961C478.311 379.731 478.203 379.547 478.022 379.411C477.849 379.264 477.569 379.192 477.182 379.196L476.503 379.199C475.749 379.204 475.134 379.067 474.658 378.791C474.19 378.504 473.905 378.028 473.805 377.363C473.751 377.013 473.769 376.695 473.858 376.411C473.946 376.117 474.092 375.863 474.295 375.648C474.506 375.423 474.766 375.238 475.075 375.095C475.393 374.95 475.75 374.851 476.148 374.799C476.796 374.715 477.339 374.748 477.777 374.897C478.224 375.046 478.637 375.279 479.016 375.597L478.22 376.604C478.001 376.407 477.727 376.25 477.398 376.133C477.077 376.005 476.722 375.967 476.333 376.017C475.916 376.072 475.619 376.195 475.441 376.388C475.271 376.579 475.207 376.809 475.248 377.076C475.29 377.353 475.409 377.549 475.606 377.665C475.803 377.78 476.1 377.845 476.499 377.859L477.178 377.855C477.992 377.871 478.606 378.031 479.02 378.335C479.442 378.628 479.697 379.065 479.785 379.647C479.838 379.997 479.817 380.325 479.721 380.629C479.634 380.923 479.48 381.187 479.261 381.423C479.042 381.659 478.765 381.855 478.43 382.011C478.095 382.168 477.71 382.274 477.275 382.331ZM484.054 381.447C483.369 381.537 482.777 381.491 482.278 381.312C481.779 381.132 481.326 380.853 480.919 380.473L481.757 379.46C482.074 379.748 482.409 379.963 482.76 380.106C483.12 380.237 483.518 380.275 483.952 380.218C484.397 380.16 484.713 380.034 484.9 379.841C485.096 379.636 485.171 379.382 485.125 379.077C485.09 378.847 484.982 378.663 484.8 378.527C484.627 378.38 484.347 378.308 483.961 378.312L483.282 378.315C482.528 378.32 481.912 378.184 481.436 377.907C480.968 377.62 480.684 377.144 480.583 376.479C480.53 376.129 480.548 375.811 480.637 375.527C480.725 375.233 480.87 374.979 481.074 374.764C481.285 374.539 481.545 374.354 481.853 374.211C482.171 374.066 482.529 373.967 482.927 373.915C483.575 373.831 484.118 373.864 484.556 374.014C485.003 374.162 485.416 374.395 485.794 374.713L484.998 375.72C484.78 375.523 484.506 375.366 484.177 375.249C483.855 375.121 483.5 375.083 483.111 375.133C482.695 375.188 482.398 375.311 482.219 375.504C482.05 375.695 481.986 375.925 482.026 376.193C482.068 376.469 482.187 376.666 482.384 376.781C482.581 376.897 482.879 376.961 483.277 376.975L483.956 376.971C484.77 376.987 485.384 377.147 485.798 377.451C486.22 377.744 486.475 378.181 486.563 378.763C486.616 379.113 486.595 379.441 486.5 379.745C486.412 380.039 486.259 380.303 486.04 380.539C485.82 380.775 485.543 380.971 485.209 381.127C484.874 381.284 484.489 381.391 484.054 381.447ZM493.887 379.996C493.489 380.048 493.167 379.977 492.92 379.783C492.673 379.58 492.499 379.306 492.4 378.962L492.33 378.971C492.26 379.441 492.057 379.815 491.722 380.094C491.387 380.373 490.955 380.547 490.428 380.616C489.678 380.714 489.07 380.596 488.604 380.261C488.148 379.925 487.87 379.43 487.77 378.775C487.661 378.055 487.839 377.481 488.303 377.054C488.776 376.625 489.517 376.345 490.525 376.213L491.83 376.043L491.738 375.434C491.671 374.991 491.499 374.666 491.222 374.457C490.945 374.248 490.552 374.177 490.043 374.244C489.617 374.299 489.284 374.437 489.044 374.656C488.803 374.876 488.612 375.141 488.47 375.451L487.444 374.752C487.623 374.315 487.911 373.938 488.307 373.623C488.701 373.299 489.25 373.091 489.953 372.999C490.888 372.877 491.638 373.001 492.204 373.369C492.769 373.738 493.113 374.328 493.237 375.14L493.784 378.753L494.547 378.653L494.734 379.885L493.887 379.996ZM490.684 379.411C491.156 379.35 491.529 379.197 491.804 378.955C492.077 378.702 492.187 378.401 492.134 378.05L491.977 377.012L490.7 377.179C489.654 377.315 489.18 377.706 489.278 378.352L489.316 378.601C489.365 378.924 489.508 379.155 489.746 379.293C489.992 379.421 490.305 379.461 490.684 379.411ZM502.65 379.545C502.763 380.292 502.562 380.892 502.045 381.346C501.529 381.799 500.623 382.11 499.327 382.279C498.735 382.356 498.224 382.38 497.795 382.352C497.376 382.331 497.022 382.264 496.731 382.151C496.45 382.038 496.233 381.882 496.08 381.686C495.928 381.489 495.83 381.253 495.789 380.976C495.728 380.579 495.788 380.256 495.967 380.007C496.156 379.756 496.438 379.564 496.814 379.43L496.791 379.278C496.219 379.174 495.89 378.841 495.805 378.278C495.749 377.908 495.831 377.611 496.051 377.384C496.271 377.149 496.55 376.966 496.889 376.838L496.88 376.782C496.424 376.635 496.053 376.396 495.767 376.066C495.489 375.726 495.313 375.312 495.239 374.822C495.127 374.084 495.282 373.457 495.704 372.941C496.135 372.424 496.814 372.105 497.739 371.984C498.248 371.918 498.694 371.935 499.078 372.035L499.048 371.841C498.999 371.518 499.036 371.26 499.157 371.065C499.287 370.86 499.513 370.736 499.837 370.694L500.948 370.549L501.132 371.767L499.661 371.959L499.705 372.25C500.061 372.42 500.353 372.664 500.58 372.983C500.806 373.292 500.951 373.654 501.014 374.069C501.124 374.798 500.964 375.422 500.533 375.939C500.1 376.447 499.421 376.761 498.495 376.882C498.144 376.928 497.823 376.932 497.534 376.895C497.359 376.983 497.211 377.097 497.091 377.235C496.968 377.364 496.921 377.52 496.949 377.705C496.979 377.899 497.088 378.026 497.276 378.086C497.464 378.146 497.721 378.155 498.045 378.113L499.822 377.881C500.71 377.765 501.38 377.861 501.833 378.169C502.284 378.468 502.556 378.926 502.65 379.545ZM501.259 379.895C501.221 379.646 501.094 379.46 500.878 379.338C500.67 379.215 500.316 379.185 499.817 379.251L497.373 379.569C497.07 379.806 496.945 380.105 496.999 380.465C497.044 380.76 497.195 380.98 497.453 381.126C497.722 381.279 498.139 381.319 498.703 381.245L499.647 381.122C500.822 380.969 501.36 380.56 501.259 379.895ZM498.33 375.789C498.774 375.731 499.102 375.589 499.313 375.364C499.532 375.128 499.61 374.803 499.547 374.388L499.505 374.111C499.442 373.696 499.271 373.407 498.992 373.246C498.721 373.075 498.363 373.018 497.919 373.076C497.474 373.134 497.143 373.28 496.924 373.516C496.712 373.741 496.638 374.061 496.701 374.477L496.743 374.753C496.806 375.169 496.973 375.462 497.244 375.634C497.524 375.795 497.885 375.847 498.33 375.789ZM506.449 378.527C505.931 378.595 505.455 378.567 505.021 378.445C504.587 378.323 504.203 378.119 503.867 377.833C503.529 377.538 503.247 377.171 503.02 376.73C502.801 376.278 502.648 375.767 502.561 375.195C502.474 374.622 502.47 374.096 502.548 373.615C502.634 373.124 502.796 372.698 503.034 372.338C503.271 371.968 503.579 371.669 503.96 371.441C504.341 371.212 504.79 371.064 505.309 370.997C505.836 370.928 506.313 370.96 506.739 371.093C507.174 371.224 507.551 371.438 507.87 371.736C508.187 372.024 508.443 372.376 508.638 372.793C508.843 373.208 508.983 373.665 509.058 374.164L509.144 374.731L504.188 375.378L504.224 375.613C504.308 376.167 504.539 376.602 504.917 376.92C505.304 377.227 505.802 377.341 506.413 377.261C506.857 377.203 507.218 377.058 507.494 376.824C507.77 376.59 507.989 376.294 508.152 375.934L509.172 376.69C508.971 377.168 508.636 377.574 508.167 377.908C507.698 378.232 507.125 378.439 506.449 378.527ZM505.487 372.173C505.228 372.207 504.994 372.285 504.786 372.406C504.587 372.526 504.421 372.679 504.289 372.866C504.166 373.051 504.081 373.265 504.032 373.506C503.984 373.748 503.981 374.007 504.023 374.284L504.037 374.381L507.397 373.943L507.376 373.804C507.292 373.251 507.082 372.826 506.744 372.532C506.406 372.228 505.987 372.108 505.487 372.173ZM513.234 367.62L516.663 367.173C517.283 367.092 517.859 367.121 518.389 367.258C518.929 367.395 519.405 367.644 519.819 368.004C520.24 368.353 520.594 368.82 520.88 369.404C521.165 369.978 521.369 370.667 521.49 371.47C521.612 372.273 521.622 372.991 521.52 373.626C521.416 374.251 521.215 374.79 520.915 375.243C520.624 375.686 520.239 376.042 519.76 376.311C519.291 376.579 518.747 376.754 518.127 376.835L514.698 377.282L513.234 367.62ZM517.917 375.451C518.639 375.356 519.188 375.054 519.564 374.544C519.939 374.034 520.061 373.341 519.928 372.464L519.693 370.914C519.56 370.037 519.238 369.402 518.725 369.007C518.212 368.613 517.595 368.463 516.873 368.557L515.013 368.8L516.057 375.693L517.917 375.451Z" fill="#4FDAB8"/>
    <path d="M463.452 76.0013L463.383 75.9916L462.368 77.4461L459.623 81.004L458.125 76.8499L457.615 75.181L457.546 75.1713L456.353 82.5515L454.856 82.341L456.415 72.6943L458.273 72.9554L460.072 78.226L460.155 78.2377L463.541 73.6958L465.316 73.9452L463.756 83.5919L462.259 83.3815L463.452 76.0013ZM468.837 84.4757C468.32 84.4029 467.872 84.2504 467.493 84.0182C467.115 83.786 466.809 83.4885 466.574 83.1258C466.341 82.7538 466.184 82.3265 466.101 81.8437C466.029 81.353 466.039 80.8221 466.132 80.2508C466.224 79.6796 466.381 79.174 466.604 78.7341C466.837 78.2863 467.123 77.9212 467.461 77.639C467.802 77.3476 468.189 77.1429 468.624 77.025C469.059 76.9071 469.535 76.8845 470.053 76.9573C470.58 77.0313 471.027 77.1884 471.395 77.4285C471.771 77.67 472.067 77.9754 472.282 78.3447C472.497 78.7049 472.635 79.1106 472.694 79.5618C472.763 80.0143 472.757 80.4894 472.677 80.9869L472.585 81.5535L467.636 80.8579L467.598 81.0929C467.508 81.6457 467.596 82.1245 467.862 82.5293C468.138 82.9262 468.581 83.1675 469.191 83.2532C469.635 83.3156 470.025 83.2715 470.361 83.1208C470.697 82.9702 470.998 82.744 471.265 82.4422L472.011 83.4376C471.672 83.8422 471.226 84.1423 470.675 84.3381C470.124 84.5246 469.512 84.5705 468.837 84.4757ZM469.863 78.132C469.604 78.0957 469.356 78.108 469.12 78.1689C468.892 78.2312 468.687 78.3342 468.503 78.478C468.328 78.623 468.18 78.8049 468.06 79.0235C467.94 79.2422 467.857 79.4897 467.812 79.7661L467.797 79.8629L471.152 80.3344L471.174 80.1962C471.263 79.6434 471.192 79.181 470.959 78.809C470.727 78.4278 470.362 78.2022 469.863 78.132ZM476 85.4823C475.316 85.3862 474.763 85.1859 474.339 84.8814C473.916 84.5769 473.567 84.1887 473.294 83.7168L474.407 82.9687C474.623 83.3288 474.878 83.6238 475.172 83.8535C475.476 84.0753 475.846 84.2168 476.28 84.2778C476.724 84.3402 477.065 84.3034 477.305 84.1674C477.555 84.0235 477.704 83.7995 477.754 83.4955C477.791 83.2651 477.744 83.0606 477.612 82.8819C477.491 82.6953 477.244 82.5523 476.873 82.453L476.221 82.2765C475.496 82.0805 474.948 81.7867 474.577 81.3953C474.216 80.9959 474.089 80.4645 474.196 79.8012C474.253 79.451 474.368 79.1515 474.54 78.9025C474.714 78.6442 474.932 78.4392 475.193 78.2874C475.464 78.1277 475.77 78.0199 476.11 77.964C476.459 77.9094 476.832 77.9101 477.23 77.9659C477.877 78.0568 478.387 78.2322 478.761 78.4921C479.144 78.7532 479.468 79.0862 479.734 79.491L478.662 80.245C478.513 79.9979 478.298 79.7746 478.019 79.5751C477.75 79.3677 477.421 79.2367 477.033 79.1821C476.617 79.1237 476.294 79.1631 476.064 79.3004C475.843 79.4389 475.711 79.6418 475.668 79.909C475.623 80.1854 475.677 80.4051 475.831 80.5679C475.984 80.7308 476.249 80.8718 476.627 80.9908L477.279 81.1673C478.055 81.3988 478.594 81.7149 478.898 82.1157C479.213 82.5086 479.323 82.9952 479.229 83.5757C479.173 83.9258 479.052 84.2339 478.867 84.5001C478.693 84.7583 478.465 84.9712 478.183 85.1389C477.9 85.3065 477.575 85.4209 477.206 85.4821C476.836 85.5433 476.435 85.5434 476 85.4823ZM482.77 86.4337C482.086 86.3376 481.532 86.1373 481.109 85.8328C480.685 85.5283 480.337 85.1401 480.063 84.6682L481.177 83.9201C481.393 84.2802 481.648 84.5752 481.941 84.8049C482.246 85.0267 482.615 85.1682 483.05 85.2292C483.493 85.2916 483.835 85.2547 484.074 85.1188C484.324 84.9749 484.474 84.7509 484.523 84.4469C484.56 84.2165 484.513 84.012 484.381 83.8333C484.26 83.6467 484.014 83.5037 483.642 83.4043L482.99 83.2279C482.266 83.0318 481.718 82.7381 481.346 82.3467C480.985 81.9473 480.859 81.4159 480.966 80.7525C481.022 80.4024 481.137 80.1029 481.31 79.8538C481.484 79.5956 481.701 79.3906 481.962 79.2388C482.234 79.0791 482.539 78.9713 482.879 78.9154C483.228 78.8608 483.602 78.8614 483.999 78.9173C484.646 79.0082 485.157 79.1836 485.53 79.4435C485.914 79.7046 486.238 80.0376 486.503 80.4424L485.431 81.1964C485.282 80.9493 485.068 80.726 484.788 80.5265C484.519 80.319 484.191 80.1881 483.802 80.1335C483.387 80.0751 483.064 80.1145 482.833 80.2517C482.612 80.3903 482.48 80.5932 482.437 80.8604C482.393 81.1368 482.447 81.3564 482.6 81.5193C482.753 81.6822 483.019 81.8232 483.397 81.9422L484.049 82.1187C484.824 82.3502 485.364 82.6663 485.668 83.0671C485.982 83.4599 486.093 83.9466 485.999 84.5271C485.942 84.8772 485.821 85.1853 485.637 85.4515C485.463 85.7097 485.234 85.9226 484.952 86.0902C484.67 86.2579 484.344 86.3723 483.975 86.4335C483.606 86.4947 483.204 86.4948 482.77 86.4337ZM492.642 87.6515C492.244 87.5957 491.957 87.4422 491.78 87.1912C491.605 86.931 491.523 86.6226 491.533 86.266L491.464 86.2562C491.252 86.6882 490.943 86.9934 490.536 87.1718C490.129 87.3502 489.662 87.4024 489.135 87.3283C488.386 87.2231 487.84 86.9484 487.496 86.5043C487.161 86.0615 487.047 85.513 487.152 84.8588C487.269 84.1401 487.614 83.6375 488.19 83.3509C488.775 83.0656 489.571 82.9938 490.579 83.1353L491.882 83.3185L491.98 82.7104C492.052 82.2681 491.987 81.9103 491.785 81.637C491.583 81.3637 491.229 81.1913 490.72 81.1199C490.295 81.0601 489.934 81.1035 489.636 81.2501C489.338 81.3967 489.073 81.5999 488.842 81.8595L488.073 80.9175C488.379 80.5458 488.77 80.2615 489.246 80.0646C489.724 79.8585 490.314 79.8048 491.016 79.9035C491.95 80.0347 492.631 80.3519 493.06 80.855C493.489 81.3582 493.638 82.0152 493.507 82.826L492.924 86.4332L493.686 86.5404L493.487 87.7704L492.642 87.6515ZM489.75 86.2416C490.222 86.3079 490.626 86.2611 490.964 86.1012C491.303 85.9322 491.501 85.6726 491.558 85.3225L491.725 84.2859L490.45 84.1067C489.406 83.9599 488.831 84.209 488.727 84.8539L488.687 85.1027C488.635 85.4252 488.701 85.6843 488.887 85.88C489.084 86.0678 489.371 86.1884 489.75 86.2416ZM501.181 89.5442C501.06 90.2905 500.683 90.8123 500.049 91.1095C499.415 91.4067 498.451 91.4644 497.157 91.2826C496.565 91.1994 496.068 91.0872 495.666 90.9458C495.271 90.815 494.951 90.657 494.707 90.4719C494.472 90.2881 494.312 90.0818 494.226 89.853C494.14 89.6242 494.119 89.3716 494.164 89.0952C494.228 88.699 494.384 88.4053 494.633 88.214C494.89 88.0241 495.22 87.9149 495.621 87.8865L495.646 87.7345C495.129 87.4828 494.916 87.076 495.007 86.5139C495.066 86.1454 495.237 85.8819 495.517 85.7235C495.8 85.5558 496.123 85.4552 496.488 85.4217L496.497 85.3664C496.104 85.1039 495.822 84.7768 495.649 84.385C495.486 83.9853 495.445 83.5413 495.524 83.0529C495.643 82.3158 495.984 81.756 496.547 81.3734C497.119 80.992 497.867 80.8663 498.791 80.9962C499.3 81.0676 499.722 81.2024 500.059 81.4005L500.09 81.207C500.142 80.8845 500.256 80.6461 500.433 80.4919C500.619 80.3297 500.875 80.2713 501.198 80.3168L502.307 80.4726L502.111 81.6889L500.641 81.4823L500.594 81.7725C500.883 82.0299 501.088 82.3414 501.209 82.707C501.331 83.0634 501.358 83.4489 501.291 83.8635C501.173 84.5914 500.829 85.146 500.256 85.5273C499.686 85.8994 498.938 86.0205 498.014 85.8906C497.663 85.8413 497.355 85.7602 497.089 85.6476C496.894 85.6861 496.717 85.7555 496.559 85.8558C496.403 85.9469 496.31 86.0845 496.28 86.2688C496.249 86.4623 496.314 86.6128 496.476 86.7204C496.639 86.8281 496.881 86.9046 497.205 86.95L498.979 87.1994C499.867 87.3241 500.48 87.5941 500.819 88.0093C501.16 88.4153 501.281 88.9269 501.181 89.5442ZM499.74 89.5113C499.78 89.2626 499.715 89.0508 499.545 88.8761C499.384 88.7027 499.054 88.581 498.555 88.5108L496.115 88.1679C495.751 88.3146 495.54 88.5676 495.482 88.927C495.434 89.2218 495.511 89.473 495.714 89.6805C495.925 89.8986 496.312 90.0472 496.876 90.1265L497.818 90.259C498.992 90.4239 499.633 90.1747 499.74 89.5113ZM498.191 84.7988C498.634 84.8611 498.992 84.8125 499.264 84.6528C499.546 84.4851 499.721 84.194 499.788 83.7794L499.832 83.503C499.899 83.0884 499.824 82.7668 499.605 82.5382C499.398 82.3017 499.072 82.1523 498.629 82.09C498.185 82.0276 497.822 82.0803 497.54 82.2479C497.268 82.4076 497.099 82.6948 497.032 83.1094L496.987 83.3858C496.92 83.8004 496.99 84.126 497.198 84.3624C497.416 84.591 497.747 84.7365 498.191 84.7988ZM505.135 89.577C504.617 89.5042 504.169 89.3517 503.791 89.1195C503.413 88.8873 503.106 88.5898 502.872 88.2271C502.639 87.8551 502.481 87.4278 502.399 86.945C502.327 86.4543 502.337 85.9233 502.429 85.3521C502.522 84.7808 502.679 84.2753 502.901 83.8354C503.134 83.3876 503.42 83.0225 503.759 82.7403C504.099 82.4489 504.487 82.2442 504.922 82.1263C505.357 82.0084 505.833 81.9858 506.351 82.0586C506.877 82.1326 507.325 82.2897 507.692 82.5298C508.069 82.7713 508.365 83.0767 508.579 83.446C508.795 83.8062 508.933 84.2119 508.992 84.6631C509.061 85.1156 509.055 85.5906 508.974 86.0882L508.883 86.6548L503.933 85.9592L503.895 86.1942C503.806 86.747 503.894 87.2258 504.159 87.6306C504.436 88.0275 504.879 88.2688 505.489 88.3545C505.932 88.4169 506.322 88.3728 506.658 88.2221C506.995 88.0715 507.296 87.8453 507.562 87.5435L508.309 88.5389C507.969 88.9435 507.524 89.2436 506.972 89.4394C506.422 89.6259 505.81 89.6718 505.135 89.577ZM506.161 83.2333C505.902 83.197 505.654 83.2093 505.417 83.2702C505.19 83.3325 504.984 83.4355 504.8 83.5793C504.626 83.7243 504.478 83.9062 504.358 84.1248C504.237 84.3435 504.155 84.591 504.11 84.8674L504.094 84.9642L507.449 85.4357L507.472 85.2975C507.561 84.7447 507.489 84.2823 507.256 83.9103C507.025 83.5291 506.66 83.3035 506.161 83.2333ZM519.469 91.4219L519.018 88.687L515.4 88.1785L514.132 90.6717L512.537 90.4477L517.396 81.2646L519.365 81.5413L521.105 91.6518L519.469 91.4219ZM518.148 82.8403L518.079 82.8306L515.991 86.8905L518.847 87.2919L518.148 82.8403Z" fill="#526AEA"/>
    <path d="M35.27 152.528H29.582V158H27.548V145.436H29.582V150.728H35.27V145.436H37.304V158H35.27V152.528ZM47.1116 158C46.5956 158 46.1996 157.856 45.9236 157.568C45.6476 157.268 45.4796 156.89 45.4196 156.434H45.3296C45.1496 157.022 44.8196 157.466 44.3396 157.766C43.8596 158.066 43.2776 158.216 42.5936 158.216C41.6216 158.216 40.8716 157.964 40.3436 157.46C39.8276 156.956 39.5696 156.278 39.5696 155.426C39.5696 154.49 39.9056 153.788 40.5776 153.32C41.2616 152.852 42.2576 152.618 43.5656 152.618H45.2576V151.826C45.2576 151.25 45.1016 150.806 44.7896 150.494C44.4776 150.182 43.9916 150.026 43.3316 150.026C42.7796 150.026 42.3296 150.146 41.9816 150.386C41.6336 150.626 41.3396 150.932 41.0996 151.304L39.9296 150.242C40.2416 149.714 40.6796 149.282 41.2436 148.946C41.8076 148.598 42.5456 148.424 43.4576 148.424C44.6696 148.424 45.5996 148.706 46.2476 149.27C46.8956 149.834 47.2196 150.644 47.2196 151.7V156.398H48.2096V158H47.1116ZM43.1516 156.722C43.7636 156.722 44.2676 156.59 44.6636 156.326C45.0596 156.05 45.2576 155.684 45.2576 155.228V153.878H43.6016C42.2456 153.878 41.5676 154.298 41.5676 155.138V155.462C41.5676 155.882 41.7056 156.2 41.9816 156.416C42.2696 156.62 42.6596 156.722 43.1516 156.722ZM50.1325 158V148.64H52.0945V150.188H52.1845C52.3885 149.684 52.6945 149.264 53.1025 148.928C53.5225 148.592 54.0925 148.424 54.8125 148.424C55.7725 148.424 56.5165 148.742 57.0445 149.378C57.5845 150.002 57.8545 150.896 57.8545 152.06V158H55.8925V152.312C55.8925 150.848 55.3045 150.116 54.1285 150.116C53.8765 150.116 53.6245 150.152 53.3725 150.224C53.1325 150.284 52.9165 150.38 52.7245 150.512C52.5325 150.644 52.3765 150.812 52.2565 151.016C52.1485 151.22 52.0945 151.46 52.0945 151.736V158H50.1325ZM66.4599 156.452H66.3699C66.1659 157.004 65.8299 157.436 65.3619 157.748C64.9059 158.06 64.3659 158.216 63.7419 158.216C62.5539 158.216 61.6359 157.79 60.9879 156.938C60.3399 156.074 60.0159 154.868 60.0159 153.32C60.0159 151.772 60.3399 150.572 60.9879 149.72C61.6359 148.856 62.5539 148.424 63.7419 148.424C64.3659 148.424 64.9059 148.58 65.3619 148.892C65.8299 149.192 66.1659 149.624 66.3699 150.188H66.4599V144.68H68.4219V158H66.4599V156.452ZM64.3359 156.524C64.9359 156.524 65.4399 156.38 65.8479 156.092C66.2559 155.792 66.4599 155.402 66.4599 154.922V151.718C66.4599 151.238 66.2559 150.854 65.8479 150.566C65.4399 150.266 64.9359 150.116 64.3359 150.116C63.6519 150.116 63.1059 150.338 62.6979 150.782C62.2899 151.214 62.0859 151.79 62.0859 152.51V154.13C62.0859 154.85 62.2899 155.432 62.6979 155.876C63.1059 156.308 63.6519 156.524 64.3359 156.524ZM74.1963 158.216C73.3083 158.216 72.5643 158.06 71.9643 157.748C71.3643 157.436 70.8423 157.004 70.3983 156.452L71.6583 155.3C72.0063 155.72 72.3903 156.05 72.8103 156.29C73.2423 156.518 73.7403 156.632 74.3043 156.632C74.8803 156.632 75.3063 156.524 75.5823 156.308C75.8703 156.08 76.0143 155.768 76.0143 155.372C76.0143 155.072 75.9123 154.82 75.7083 154.616C75.5163 154.4 75.1743 154.262 74.6823 154.202L73.8183 154.094C72.8583 153.974 72.1023 153.698 71.5503 153.266C71.0103 152.822 70.7403 152.168 70.7403 151.304C70.7403 150.848 70.8243 150.446 70.9923 150.098C71.1603 149.738 71.3943 149.438 71.6943 149.198C72.0063 148.946 72.3723 148.754 72.7923 148.622C73.2243 148.49 73.6983 148.424 74.2143 148.424C75.0543 148.424 75.7383 148.556 76.2663 148.82C76.8063 149.084 77.2863 149.45 77.7063 149.918L76.5003 151.07C76.2603 150.782 75.9423 150.536 75.5463 150.332C75.1623 150.116 74.7183 150.008 74.2143 150.008C73.6743 150.008 73.2723 150.116 73.0083 150.332C72.7563 150.548 72.6303 150.83 72.6303 151.178C72.6303 151.538 72.7443 151.808 72.9723 151.988C73.2003 152.168 73.5663 152.3 74.0703 152.384L74.9343 152.492C75.9663 152.648 76.7163 152.954 77.1843 153.41C77.6643 153.854 77.9043 154.454 77.9043 155.21C77.9043 155.666 77.8143 156.08 77.6343 156.452C77.4663 156.812 77.2203 157.124 76.8963 157.388C76.5723 157.652 76.1823 157.856 75.7263 158C75.2703 158.144 74.7603 158.216 74.1963 158.216ZM80.1208 144.68H82.0828V150.188H82.1728C82.3768 149.684 82.6828 149.264 83.0908 148.928C83.5108 148.592 84.0808 148.424 84.8008 148.424C85.7608 148.424 86.5048 148.742 87.0328 149.378C87.5728 150.002 87.8428 150.896 87.8428 152.06V158H85.8808V152.294C85.8808 150.842 85.2928 150.116 84.1168 150.116C83.8648 150.116 83.6128 150.152 83.3608 150.224C83.1208 150.284 82.9048 150.38 82.7128 150.512C82.5208 150.644 82.3648 150.812 82.2448 151.016C82.1368 151.22 82.0828 151.454 82.0828 151.718V158H80.1208V144.68ZM97.4202 158C96.9042 158 96.5082 157.856 96.2322 157.568C95.9562 157.268 95.7882 156.89 95.7282 156.434H95.6382C95.4582 157.022 95.1282 157.466 94.6482 157.766C94.1682 158.066 93.5862 158.216 92.9022 158.216C91.9302 158.216 91.1802 157.964 90.6522 157.46C90.1362 156.956 89.8782 156.278 89.8782 155.426C89.8782 154.49 90.2142 153.788 90.8862 153.32C91.5702 152.852 92.5662 152.618 93.8742 152.618H95.5662V151.826C95.5662 151.25 95.4102 150.806 95.0982 150.494C94.7862 150.182 94.3002 150.026 93.6402 150.026C93.0882 150.026 92.6382 150.146 92.2902 150.386C91.9422 150.626 91.6482 150.932 91.4082 151.304L90.2382 150.242C90.5502 149.714 90.9882 149.282 91.5522 148.946C92.1162 148.598 92.8542 148.424 93.7662 148.424C94.9782 148.424 95.9082 148.706 96.5562 149.27C97.2042 149.834 97.5282 150.644 97.5282 151.7V156.398H98.5182V158H97.4202ZM93.4602 156.722C94.0722 156.722 94.5762 156.59 94.9722 156.326C95.3682 156.05 95.5662 155.684 95.5662 155.228V153.878H93.9102C92.5542 153.878 91.8762 154.298 91.8762 155.138V155.462C91.8762 155.882 92.0142 156.2 92.2902 156.416C92.5782 156.62 92.9682 156.722 93.4602 156.722ZM100.441 144.68H102.403V152.852H102.493L103.789 151.178L106.039 148.64H108.325L105.049 152.258L108.721 158H106.381L103.699 153.536L102.403 154.94V158H100.441V144.68ZM113.57 158.216C112.898 158.216 112.298 158.102 111.77 157.874C111.242 157.646 110.792 157.322 110.42 156.902C110.048 156.47 109.76 155.954 109.556 155.354C109.364 154.742 109.268 154.064 109.268 153.32C109.268 152.576 109.364 151.904 109.556 151.304C109.76 150.692 110.048 150.176 110.42 149.756C110.792 149.324 111.242 148.994 111.77 148.766C112.298 148.538 112.898 148.424 113.57 148.424C114.254 148.424 114.854 148.544 115.37 148.784C115.898 149.024 116.336 149.36 116.684 149.792C117.032 150.212 117.29 150.704 117.458 151.268C117.638 151.832 117.728 152.438 117.728 153.086V153.824H111.302V154.13C111.302 154.85 111.512 155.444 111.932 155.912C112.364 156.368 112.976 156.596 113.768 156.596C114.344 156.596 114.83 156.47 115.226 156.218C115.622 155.966 115.958 155.624 116.234 155.192L117.386 156.326C117.038 156.902 116.534 157.364 115.874 157.712C115.214 158.048 114.446 158.216 113.57 158.216ZM113.57 149.954C113.234 149.954 112.922 150.014 112.634 150.134C112.358 150.254 112.118 150.422 111.914 150.638C111.722 150.854 111.572 151.112 111.464 151.412C111.356 151.712 111.302 152.042 111.302 152.402V152.528H115.658V152.348C115.658 151.628 115.472 151.052 115.1 150.62C114.728 150.176 114.218 149.954 113.57 149.954ZM27.548 181L27.548 168.436H32.948C34.112 168.436 35.012 168.778 35.648 169.462C36.284 170.146 36.602 171.064 36.602 172.216C36.602 173.368 36.284 174.286 35.648 174.97C35.012 175.654 34.112 175.996 32.948 175.996H29.582V181H27.548ZM29.582 174.214H32.822C33.338 174.214 33.74 174.082 34.028 173.818C34.316 173.542 34.46 173.152 34.46 172.648V171.784C34.46 171.28 34.316 170.896 34.028 170.632C33.74 170.356 33.338 170.218 32.822 170.218H29.582L29.582 174.214ZM38.6892 167.68H40.6512V173.188H40.7412C40.9452 172.684 41.2512 172.264 41.6592 171.928C42.0792 171.592 42.6492 171.424 43.3692 171.424C44.3292 171.424 45.0732 171.742 45.6012 172.378C46.1412 173.002 46.4112 173.896 46.4112 175.06V181H44.4492V175.294C44.4492 173.842 43.8612 173.116 42.6852 173.116C42.4332 173.116 42.1812 173.152 41.9292 173.224C41.6892 173.284 41.4732 173.38 41.2812 173.512C41.0892 173.644 40.9332 173.812 40.8132 174.016C40.7052 174.22 40.6512 174.454 40.6512 174.718V181H38.6892V167.68ZM55.9886 181C55.4726 181 55.0766 180.856 54.8006 180.568C54.5246 180.268 54.3566 179.89 54.2966 179.434H54.2066C54.0266 180.022 53.6966 180.466 53.2166 180.766C52.7366 181.066 52.1546 181.216 51.4706 181.216C50.4986 181.216 49.7486 180.964 49.2206 180.46C48.7046 179.956 48.4466 179.278 48.4466 178.426C48.4466 177.49 48.7826 176.788 49.4546 176.32C50.1386 175.852 51.1346 175.618 52.4426 175.618H54.1346V174.826C54.1346 174.25 53.9786 173.806 53.6666 173.494C53.3546 173.182 52.8686 173.026 52.2086 173.026C51.6566 173.026 51.2066 173.146 50.8586 173.386C50.5106 173.626 50.2166 173.932 49.9766 174.304L48.8066 173.242C49.1186 172.714 49.5566 172.282 50.1206 171.946C50.6846 171.598 51.4226 171.424 52.3346 171.424C53.5466 171.424 54.4766 171.706 55.1246 172.27C55.7726 172.834 56.0966 173.644 56.0966 174.7V179.398H57.0866V181H55.9886ZM52.0286 179.722C52.6406 179.722 53.1446 179.59 53.5406 179.326C53.9366 179.05 54.1346 178.684 54.1346 178.228V176.878H52.4786C51.1226 176.878 50.4446 177.298 50.4446 178.138V178.462C50.4446 178.882 50.5826 179.2 50.8586 179.416C51.1466 179.62 51.5366 179.722 52.0286 179.722ZM61.9795 181.216C61.0915 181.216 60.3475 181.06 59.7475 180.748C59.1475 180.436 58.6255 180.004 58.1815 179.452L59.4415 178.3C59.7895 178.72 60.1735 179.05 60.5935 179.29C61.0255 179.518 61.5235 179.632 62.0875 179.632C62.6635 179.632 63.0895 179.524 63.3655 179.308C63.6535 179.08 63.7975 178.768 63.7975 178.372C63.7975 178.072 63.6955 177.82 63.4915 177.616C63.2995 177.4 62.9575 177.262 62.4655 177.202L61.6015 177.094C60.6415 176.974 59.8855 176.698 59.3335 176.266C58.7935 175.822 58.5235 175.168 58.5235 174.304C58.5235 173.848 58.6075 173.446 58.7755 173.098C58.9435 172.738 59.1775 172.438 59.4775 172.198C59.7895 171.946 60.1555 171.754 60.5755 171.622C61.0075 171.49 61.4815 171.424 61.9975 171.424C62.8375 171.424 63.5215 171.556 64.0495 171.82C64.5895 172.084 65.0695 172.45 65.4895 172.918L64.2835 174.07C64.0435 173.782 63.7255 173.536 63.3295 173.332C62.9455 173.116 62.5015 173.008 61.9975 173.008C61.4575 173.008 61.0555 173.116 60.7915 173.332C60.5395 173.548 60.4135 173.83 60.4135 174.178C60.4135 174.538 60.5275 174.808 60.7555 174.988C60.9835 175.168 61.3495 175.3 61.8535 175.384L62.7175 175.492C63.7495 175.648 64.4995 175.954 64.9675 176.41C65.4475 176.854 65.6875 177.454 65.6875 178.21C65.6875 178.666 65.5975 179.08 65.4175 179.452C65.2495 179.812 65.0035 180.124 64.6795 180.388C64.3555 180.652 63.9655 180.856 63.5095 181C63.0535 181.144 62.5435 181.216 61.9795 181.216ZM71.576 181.216C70.904 181.216 70.304 181.102 69.776 180.874C69.248 180.646 68.798 180.322 68.426 179.902C68.054 179.47 67.766 178.954 67.562 178.354C67.37 177.742 67.274 177.064 67.274 176.32C67.274 175.576 67.37 174.904 67.562 174.304C67.766 173.692 68.054 173.176 68.426 172.756C68.798 172.324 69.248 171.994 69.776 171.766C70.304 171.538 70.904 171.424 71.576 171.424C72.26 171.424 72.86 171.544 73.376 171.784C73.904 172.024 74.342 172.36 74.69 172.792C75.038 173.212 75.296 173.704 75.464 174.268C75.644 174.832 75.734 175.438 75.734 176.086V176.824H69.308V177.13C69.308 177.85 69.518 178.444 69.938 178.912C70.37 179.368 70.982 179.596 71.774 179.596C72.35 179.596 72.836 179.47 73.232 179.218C73.628 178.966 73.964 178.624 74.24 178.192L75.392 179.326C75.044 179.902 74.54 180.364 73.88 180.712C73.22 181.048 72.452 181.216 71.576 181.216ZM71.576 172.954C71.24 172.954 70.928 173.014 70.64 173.134C70.364 173.254 70.124 173.422 69.92 173.638C69.728 173.854 69.578 174.112 69.47 174.412C69.362 174.712 69.308 175.042 69.308 175.402V175.528H73.664V175.348C73.664 174.628 73.478 174.052 73.106 173.62C72.734 173.176 72.224 172.954 71.576 172.954Z" fill="#2DD9AF"/>
    <rect width="257" height="2.00004" transform="matrix(1.50635e-07 -1 -1 -1.14159e-07 2 290)" fill="#4FDAB8"/>
    <path d="M27.548 392.436H31.994C32.798 392.436 33.524 392.568 34.172 392.832C34.832 393.096 35.39 393.492 35.846 394.02C36.314 394.536 36.674 395.19 36.926 395.982C37.178 396.762 37.304 397.674 37.304 398.718C37.304 399.762 37.178 400.68 36.926 401.472C36.674 402.252 36.314 402.906 35.846 403.434C35.39 403.95 34.832 404.34 34.172 404.604C33.524 404.868 32.798 405 31.994 405H27.548L27.548 392.436ZM31.994 403.2C32.93 403.2 33.686 402.906 34.262 402.318C34.838 401.73 35.126 400.866 35.126 399.726L35.126 397.71C35.126 396.57 34.838 395.706 34.262 395.118C33.686 394.53 32.93 394.236 31.994 394.236H29.582L29.582 403.2H31.994ZM46.5491 405C46.0331 405 45.6371 404.856 45.3611 404.568C45.0851 404.268 44.9171 403.89 44.8571 403.434H44.7671C44.5871 404.022 44.2571 404.466 43.7771 404.766C43.2971 405.066 42.7151 405.216 42.0311 405.216C41.0591 405.216 40.3091 404.964 39.7811 404.46C39.2651 403.956 39.0071 403.278 39.0071 402.426C39.0071 401.49 39.3431 400.788 40.0151 400.32C40.6991 399.852 41.6951 399.618 43.0031 399.618H44.6951L44.6951 398.826C44.6951 398.25 44.5391 397.806 44.2271 397.494C43.9151 397.182 43.4291 397.026 42.7691 397.026C42.2171 397.026 41.7671 397.146 41.4191 397.386C41.0711 397.626 40.7771 397.932 40.5371 398.304L39.3671 397.242C39.6791 396.714 40.1171 396.282 40.6811 395.946C41.2451 395.598 41.9831 395.424 42.8951 395.424C44.1071 395.424 45.0371 395.706 45.6851 396.27C46.3331 396.834 46.6571 397.644 46.6571 398.7L46.6571 403.398H47.6471L47.6471 405H46.5491ZM42.5891 403.722C43.2011 403.722 43.7051 403.59 44.1011 403.326C44.4971 403.05 44.6951 402.684 44.6951 402.228L44.6951 400.878H43.0391C41.6831 400.878 41.0051 401.298 41.0051 402.138L41.0051 402.462C41.0051 402.882 41.1431 403.2 41.4191 403.416C41.7071 403.62 42.0971 403.722 42.5891 403.722ZM52.1093 405C51.4253 405 50.9093 404.826 50.5613 404.478C50.2133 404.118 50.0393 403.614 50.0393 402.966L50.0393 397.242H48.5813L48.5813 395.64H49.3733C49.6973 395.64 49.9193 395.568 50.0393 395.424C50.1713 395.28 50.2373 395.046 50.2373 394.722L50.2373 393.084H52.0013L52.0013 395.64H53.9633L53.9633 397.242H52.0013L52.0013 403.398H53.8193L53.8193 405H52.1093ZM62.9495 405C62.4335 405 62.0375 404.856 61.7615 404.568C61.4855 404.268 61.3175 403.89 61.2575 403.434H61.1675C60.9875 404.022 60.6575 404.466 60.1775 404.766C59.6975 405.066 59.1155 405.216 58.4315 405.216C57.4595 405.216 56.7095 404.964 56.1815 404.46C55.6655 403.956 55.4075 403.278 55.4075 402.426C55.4075 401.49 55.7435 400.788 56.4155 400.32C57.0995 399.852 58.0955 399.618 59.4035 399.618H61.0955L61.0955 398.826C61.0955 398.25 60.9395 397.806 60.6275 397.494C60.3155 397.182 59.8295 397.026 59.1695 397.026C58.6175 397.026 58.1675 397.146 57.8195 397.386C57.4715 397.626 57.1775 397.932 56.9375 398.304L55.7675 397.242C56.0795 396.714 56.5175 396.282 57.0815 395.946C57.6455 395.598 58.3835 395.424 59.2955 395.424C60.5075 395.424 61.4375 395.706 62.0855 396.27C62.7335 396.834 63.0575 397.644 63.0575 398.7L63.0575 403.398H64.0475L64.0475 405H62.9495ZM58.9895 403.722C59.6015 403.722 60.1055 403.59 60.5015 403.326C60.8975 403.05 61.0955 402.684 61.0955 402.228L61.0955 400.878H59.4395C58.0835 400.878 57.4055 401.298 57.4055 402.138L57.4055 402.462C57.4055 402.882 57.5435 403.2 57.8195 403.416C58.1075 403.62 58.4975 403.722 58.9895 403.722ZM27.548 428L27.548 415.436H32.948C34.112 415.436 35.012 415.778 35.648 416.462C36.284 417.146 36.602 418.064 36.602 419.216C36.602 420.368 36.284 421.286 35.648 421.97C35.012 422.654 34.112 422.996 32.948 422.996H29.582L29.582 428H27.548ZM29.582 421.214H32.822C33.338 421.214 33.74 421.082 34.028 420.818C34.316 420.542 34.46 420.152 34.46 419.648L34.46 418.784C34.46 418.28 34.316 417.896 34.028 417.632C33.74 417.356 33.338 417.218 32.822 417.218H29.582L29.582 421.214ZM38.6892 414.68H40.6512L40.6512 420.188H40.7412C40.9452 419.684 41.2512 419.264 41.6592 418.928C42.0792 418.592 42.6492 418.424 43.3692 418.424C44.3292 418.424 45.0732 418.742 45.6012 419.378C46.1412 420.002 46.4112 420.896 46.4112 422.06L46.4112 428H44.4492L44.4492 422.294C44.4492 420.842 43.8612 420.116 42.6852 420.116C42.4332 420.116 42.1812 420.152 41.9292 420.224C41.6892 420.284 41.4732 420.38 41.2812 420.512C41.0892 420.644 40.9332 420.812 40.8132 421.016C40.7052 421.22 40.6512 421.454 40.6512 421.718L40.6512 428H38.6892L38.6892 414.68ZM55.9886 428C55.4726 428 55.0766 427.856 54.8006 427.568C54.5246 427.268 54.3566 426.89 54.2966 426.434H54.2066C54.0266 427.022 53.6966 427.466 53.2166 427.766C52.7366 428.066 52.1546 428.216 51.4706 428.216C50.4986 428.216 49.7486 427.964 49.2206 427.46C48.7046 426.956 48.4466 426.278 48.4466 425.426C48.4466 424.49 48.7826 423.788 49.4546 423.32C50.1386 422.852 51.1346 422.618 52.4426 422.618H54.1346L54.1346 421.826C54.1346 421.25 53.9786 420.806 53.6666 420.494C53.3546 420.182 52.8686 420.026 52.2086 420.026C51.6566 420.026 51.2066 420.146 50.8586 420.386C50.5106 420.626 50.2166 420.932 49.9766 421.304L48.8066 420.242C49.1186 419.714 49.5566 419.282 50.1206 418.946C50.6846 418.598 51.4226 418.424 52.3346 418.424C53.5466 418.424 54.4766 418.706 55.1246 419.27C55.7726 419.834 56.0966 420.644 56.0966 421.7L56.0966 426.398H57.0866L57.0866 428H55.9886ZM52.0286 426.722C52.6406 426.722 53.1446 426.59 53.5406 426.326C53.9366 426.05 54.1346 425.684 54.1346 425.228L54.1346 423.878H52.4786C51.1226 423.878 50.4446 424.298 50.4446 425.138L50.4446 425.462C50.4446 425.882 50.5826 426.2 50.8586 426.416C51.1466 426.62 51.5366 426.722 52.0286 426.722ZM61.9795 428.216C61.0915 428.216 60.3475 428.06 59.7475 427.748C59.1475 427.436 58.6255 427.004 58.1815 426.452L59.4415 425.3C59.7895 425.72 60.1735 426.05 60.5935 426.29C61.0255 426.518 61.5235 426.632 62.0875 426.632C62.6635 426.632 63.0895 426.524 63.3655 426.308C63.6535 426.08 63.7975 425.768 63.7975 425.372C63.7975 425.072 63.6955 424.82 63.4915 424.616C63.2995 424.4 62.9575 424.262 62.4655 424.202L61.6015 424.094C60.6415 423.974 59.8855 423.698 59.3335 423.266C58.7935 422.822 58.5235 422.168 58.5235 421.304C58.5235 420.848 58.6075 420.446 58.7755 420.098C58.9435 419.738 59.1775 419.438 59.4775 419.198C59.7895 418.946 60.1555 418.754 60.5755 418.622C61.0075 418.49 61.4815 418.424 61.9975 418.424C62.8375 418.424 63.5215 418.556 64.0495 418.82C64.5895 419.084 65.0695 419.45 65.4895 419.918L64.2835 421.07C64.0435 420.782 63.7255 420.536 63.3295 420.332C62.9455 420.116 62.5015 420.008 61.9975 420.008C61.4575 420.008 61.0555 420.116 60.7915 420.332C60.5395 420.548 60.4135 420.83 60.4135 421.178C60.4135 421.538 60.5275 421.808 60.7555 421.988C60.9835 422.168 61.3495 422.3 61.8535 422.384L62.7175 422.492C63.7495 422.648 64.4995 422.954 64.9675 423.41C65.4475 423.854 65.6875 424.454 65.6875 425.21C65.6875 425.666 65.5975 426.08 65.4175 426.452C65.2495 426.812 65.0035 427.124 64.6795 427.388C64.3555 427.652 63.9655 427.856 63.5095 428C63.0535 428.144 62.5435 428.216 61.9795 428.216ZM71.576 428.216C70.904 428.216 70.304 428.102 69.776 427.874C69.248 427.646 68.798 427.322 68.426 426.902C68.054 426.47 67.766 425.954 67.562 425.354C67.37 424.742 67.274 424.064 67.274 423.32C67.274 422.576 67.37 421.904 67.562 421.304C67.766 420.692 68.054 420.176 68.426 419.756C68.798 419.324 69.248 418.994 69.776 418.766C70.304 418.538 70.904 418.424 71.576 418.424C72.26 418.424 72.86 418.544 73.376 418.784C73.904 419.024 74.342 419.36 74.69 419.792C75.038 420.212 75.296 420.704 75.464 421.268C75.644 421.832 75.734 422.438 75.734 423.086L75.734 423.824H69.308L69.308 424.13C69.308 424.85 69.518 425.444 69.938 425.912C70.37 426.368 70.982 426.596 71.774 426.596C72.35 426.596 72.836 426.47 73.232 426.218C73.628 425.966 73.964 425.624 74.24 425.192L75.392 426.326C75.044 426.902 74.54 427.364 73.88 427.712C73.22 428.048 72.452 428.216 71.576 428.216ZM71.576 419.954C71.24 419.954 70.928 420.014 70.64 420.134C70.364 420.254 70.124 420.422 69.92 420.638C69.728 420.854 69.578 421.112 69.47 421.412C69.362 421.712 69.308 422.042 69.308 422.402L69.308 422.528H73.664L73.664 422.348C73.664 421.628 73.478 421.052 73.106 420.62C72.734 420.176 72.224 419.954 71.576 419.954Z" fill="#526AEA"/>
    <rect width="161" height="2.00004" transform="matrix(2.40455e-07 -1 -1 -7.15161e-08 2 490)" fill="#526AEA"/>
    <rect x="157.5" y="288.5" width="135" height="41" rx="20.5" fill="white" stroke="#30CEFE"/>
    <path d="M178.656 316.192C181.136 316.192 182.592 314.848 182.592 312.784C182.592 311.072 181.616 310.096 179.424 309.616L178.48 309.424C177.152 309.136 176.528 308.688 176.528 307.696C176.528 306.592 177.344 306 178.704 306C179.968 306 180.784 306.512 181.376 307.328L182.512 306.416C181.664 305.264 180.464 304.64 178.784 304.64C176.496 304.64 174.992 305.776 174.992 307.76C174.992 309.504 176.096 310.448 178.192 310.88L179.136 311.072C180.528 311.376 181.056 311.888 181.056 312.864C181.056 314.048 180.24 314.832 178.72 314.832C177.472 314.832 176.544 314.288 175.76 313.28L174.656 314.272C175.552 315.456 176.832 316.192 178.656 316.192ZM184.718 316H186.206V310.32C186.206 309.312 187.15 308.816 188.126 308.816C189.294 308.816 189.87 309.536 189.87 310.928V316H191.358V310.704C191.358 308.688 190.318 307.52 188.622 307.52C187.374 307.52 186.67 308.16 186.286 309.072H186.206V304.16H184.718V316ZM200.77 316V314.736H199.842V310.368C199.842 308.576 198.658 307.52 196.594 307.52C195.058 307.52 194.082 308.24 193.586 309.136L194.482 309.952C194.914 309.248 195.538 308.768 196.514 308.768C197.762 308.768 198.354 309.392 198.354 310.496V311.248H196.786C194.418 311.248 193.25 312.112 193.25 313.712C193.25 315.232 194.258 316.192 195.986 316.192C197.17 316.192 198.05 315.648 198.386 314.624H198.466C198.578 315.424 199.01 316 199.922 316H200.77ZM196.322 314.992C195.394 314.992 194.802 314.56 194.802 313.792V313.472C194.802 312.704 195.41 312.288 196.77 312.288H198.354V313.568C198.354 314.4 197.49 314.992 196.322 314.992ZM204.034 316V310.56C204.034 309.744 204.834 309.2 206.21 309.2H206.946V307.712H206.45C205.122 307.712 204.386 308.48 204.114 309.296H204.034V307.712H202.546V316H204.034ZM211.636 316.192C213.188 316.192 214.388 315.472 214.964 314.4L214.004 313.584C213.556 314.432 212.804 314.928 211.764 314.928C210.276 314.928 209.428 313.936 209.428 312.56V312.224H215.268V311.6C215.268 309.28 213.956 307.52 211.636 307.52C209.332 307.52 207.876 309.232 207.876 311.856C207.876 314.48 209.332 316.192 211.636 316.192ZM211.636 308.72C212.884 308.72 213.684 309.648 213.684 311.024V311.184H209.428V311.072C209.428 309.712 210.34 308.72 211.636 308.72ZM222.544 316H224.032V304.16H222.544V309.072H222.48C222.096 308.048 221.232 307.52 220.096 307.52C218.016 307.52 216.768 309.168 216.768 311.856C216.768 314.544 218.016 316.192 220.096 316.192C221.232 316.192 222.096 315.664 222.48 314.64H222.544V316ZM220.528 314.896C219.2 314.896 218.352 313.952 218.352 312.56V311.152C218.352 309.76 219.2 308.816 220.528 308.816C221.648 308.816 222.544 309.456 222.544 310.336V313.376C222.544 314.256 221.648 314.896 220.528 314.896ZM233.781 316.192C236.261 316.192 237.717 314.848 237.717 312.784C237.717 311.072 236.741 310.096 234.549 309.616L233.605 309.424C232.277 309.136 231.653 308.688 231.653 307.696C231.653 306.592 232.469 306 233.829 306C235.093 306 235.909 306.512 236.501 307.328L237.637 306.416C236.789 305.264 235.589 304.64 233.909 304.64C231.621 304.64 230.117 305.776 230.117 307.76C230.117 309.504 231.221 310.448 233.317 310.88L234.261 311.072C235.653 311.376 236.181 311.888 236.181 312.864C236.181 314.048 235.365 314.832 233.845 314.832C232.597 314.832 231.669 314.288 230.885 313.28L229.781 314.272C230.677 315.456 231.957 316.192 233.781 316.192ZM243.011 316.192C244.563 316.192 245.763 315.472 246.339 314.4L245.379 313.584C244.931 314.432 244.179 314.928 243.139 314.928C241.651 314.928 240.803 313.936 240.803 312.56V312.224H246.643V311.6C246.643 309.28 245.331 307.52 243.011 307.52C240.707 307.52 239.251 309.232 239.251 311.856C239.251 314.48 240.707 316.192 243.011 316.192ZM243.011 308.72C244.259 308.72 245.059 309.648 245.059 311.024V311.184H240.803V311.072C240.803 309.712 241.715 308.72 243.011 308.72ZM251.807 316.192C253.391 316.192 254.479 315.424 255.007 314.176L253.919 313.504C253.503 314.4 252.815 314.912 251.807 314.912C250.383 314.912 249.663 313.936 249.663 312.576V311.136C249.663 309.776 250.383 308.8 251.807 308.8C252.767 308.8 253.439 309.296 253.711 310.112L254.943 309.504C254.463 308.32 253.439 307.52 251.807 307.52C249.439 307.52 248.079 309.2 248.079 311.856C248.079 314.512 249.439 316.192 251.807 316.192ZM258.238 316V310.56C258.238 309.744 259.038 309.2 260.414 309.2H261.15V307.712H260.654C259.326 307.712 258.59 308.48 258.318 309.296H258.238V307.712H256.75V316H258.238ZM265.839 316.192C267.391 316.192 268.591 315.472 269.167 314.4L268.207 313.584C267.759 314.432 267.007 314.928 265.967 314.928C264.479 314.928 263.631 313.936 263.631 312.56V312.224H269.471V311.6C269.471 309.28 268.159 307.52 265.839 307.52C263.535 307.52 262.079 309.232 262.079 311.856C262.079 314.48 263.535 316.192 265.839 316.192ZM265.839 308.72C267.087 308.72 267.887 309.648 267.887 311.024V311.184H263.631V311.072C263.631 309.712 264.543 308.72 265.839 308.72ZM275.1 316V314.736H273.452V308.976H275.228V307.712H273.452V305.424H272.108V306.944C272.108 307.504 271.932 307.712 271.372 307.712H270.636V308.976H271.964V314.432C271.964 315.392 272.508 316 273.532 316H275.1Z" fill="#30CEFE"/>
    <rect x="690.5" y="289.5" width="135" height="41" rx="20.5" fill="white" stroke="#30CEFE"/>
    <path d="M711.656 317.192C714.136 317.192 715.592 315.848 715.592 313.784C715.592 312.072 714.616 311.096 712.424 310.616L711.48 310.424C710.152 310.136 709.528 309.688 709.528 308.696C709.528 307.592 710.344 307 711.704 307C712.968 307 713.784 307.512 714.376 308.328L715.512 307.416C714.664 306.264 713.464 305.64 711.784 305.64C709.496 305.64 707.992 306.776 707.992 308.76C707.992 310.504 709.096 311.448 711.192 311.88L712.136 312.072C713.528 312.376 714.056 312.888 714.056 313.864C714.056 315.048 713.24 315.832 711.72 315.832C710.472 315.832 709.544 315.288 708.76 314.28L707.656 315.272C708.552 316.456 709.832 317.192 711.656 317.192ZM717.718 317H719.206V311.32C719.206 310.312 720.15 309.816 721.126 309.816C722.294 309.816 722.87 310.536 722.87 311.928V317H724.358V311.704C724.358 309.688 723.318 308.52 721.622 308.52C720.374 308.52 719.67 309.16 719.286 310.072H719.206V305.16H717.718V317ZM733.77 317V315.736H732.842V311.368C732.842 309.576 731.658 308.52 729.594 308.52C728.058 308.52 727.082 309.24 726.586 310.136L727.482 310.952C727.914 310.248 728.538 309.768 729.514 309.768C730.762 309.768 731.354 310.392 731.354 311.496V312.248H729.786C727.418 312.248 726.25 313.112 726.25 314.712C726.25 316.232 727.258 317.192 728.986 317.192C730.17 317.192 731.05 316.648 731.386 315.624H731.466C731.578 316.424 732.01 317 732.922 317H733.77ZM729.322 315.992C728.394 315.992 727.802 315.56 727.802 314.792V314.472C727.802 313.704 728.41 313.288 729.77 313.288H731.354V314.568C731.354 315.4 730.49 315.992 729.322 315.992ZM737.034 317V311.56C737.034 310.744 737.834 310.2 739.21 310.2H739.946V308.712H739.45C738.122 308.712 737.386 309.48 737.114 310.296H737.034V308.712H735.546V317H737.034ZM744.636 317.192C746.188 317.192 747.388 316.472 747.964 315.4L747.004 314.584C746.556 315.432 745.804 315.928 744.764 315.928C743.276 315.928 742.428 314.936 742.428 313.56V313.224H748.268V312.6C748.268 310.28 746.956 308.52 744.636 308.52C742.332 308.52 740.876 310.232 740.876 312.856C740.876 315.48 742.332 317.192 744.636 317.192ZM744.636 309.72C745.884 309.72 746.684 310.648 746.684 312.024V312.184H742.428V312.072C742.428 310.712 743.34 309.72 744.636 309.72ZM755.544 317H757.032V305.16H755.544V310.072H755.48C755.096 309.048 754.232 308.52 753.096 308.52C751.016 308.52 749.768 310.168 749.768 312.856C749.768 315.544 751.016 317.192 753.096 317.192C754.232 317.192 755.096 316.664 755.48 315.64H755.544V317ZM753.528 315.896C752.2 315.896 751.352 314.952 751.352 313.56V312.152C751.352 310.76 752.2 309.816 753.528 309.816C754.648 309.816 755.544 310.456 755.544 311.336V314.376C755.544 315.256 754.648 315.896 753.528 315.896ZM766.781 317.192C769.261 317.192 770.717 315.848 770.717 313.784C770.717 312.072 769.741 311.096 767.549 310.616L766.605 310.424C765.277 310.136 764.653 309.688 764.653 308.696C764.653 307.592 765.469 307 766.829 307C768.093 307 768.909 307.512 769.501 308.328L770.637 307.416C769.789 306.264 768.589 305.64 766.909 305.64C764.621 305.64 763.117 306.776 763.117 308.76C763.117 310.504 764.221 311.448 766.317 311.88L767.261 312.072C768.653 312.376 769.181 312.888 769.181 313.864C769.181 315.048 768.365 315.832 766.845 315.832C765.597 315.832 764.669 315.288 763.885 314.28L762.781 315.272C763.677 316.456 764.957 317.192 766.781 317.192ZM776.011 317.192C777.563 317.192 778.763 316.472 779.339 315.4L778.379 314.584C777.931 315.432 777.179 315.928 776.139 315.928C774.651 315.928 773.803 314.936 773.803 313.56V313.224H779.643V312.6C779.643 310.28 778.331 308.52 776.011 308.52C773.707 308.52 772.251 310.232 772.251 312.856C772.251 315.48 773.707 317.192 776.011 317.192ZM776.011 309.72C777.259 309.72 778.059 310.648 778.059 312.024V312.184H773.803V312.072C773.803 310.712 774.715 309.72 776.011 309.72ZM784.807 317.192C786.391 317.192 787.479 316.424 788.007 315.176L786.919 314.504C786.503 315.4 785.815 315.912 784.807 315.912C783.383 315.912 782.663 314.936 782.663 313.576V312.136C782.663 310.776 783.383 309.8 784.807 309.8C785.767 309.8 786.439 310.296 786.711 311.112L787.943 310.504C787.463 309.32 786.439 308.52 784.807 308.52C782.439 308.52 781.079 310.2 781.079 312.856C781.079 315.512 782.439 317.192 784.807 317.192ZM791.238 317V311.56C791.238 310.744 792.038 310.2 793.414 310.2H794.15V308.712H793.654C792.326 308.712 791.59 309.48 791.318 310.296H791.238V308.712H789.75V317H791.238ZM798.839 317.192C800.391 317.192 801.591 316.472 802.167 315.4L801.207 314.584C800.759 315.432 800.007 315.928 798.967 315.928C797.479 315.928 796.631 314.936 796.631 313.56V313.224H802.471V312.6C802.471 310.28 801.159 308.52 798.839 308.52C796.535 308.52 795.079 310.232 795.079 312.856C795.079 315.48 796.535 317.192 798.839 317.192ZM798.839 309.72C800.087 309.72 800.887 310.648 800.887 312.024V312.184H796.631V312.072C796.631 310.712 797.543 309.72 798.839 309.72ZM808.1 317V315.736H806.452V309.976H808.228V308.712H806.452V306.424H805.108V307.944C805.108 308.504 804.932 308.712 804.372 308.712H803.636V309.976H804.964V315.432C804.964 316.392 805.508 317 806.532 317H808.1Z" fill="#30CEFE"/>
    <defs>
        <linearGradient id="paint0_linear" x1="884.5" y1="33" x2="884.5" y2="787" gradientUnits="userSpaceOnUse">
            <stop stop-color="white" stop-opacity="0"/>
            <stop offset="1" stop-color="#52C7EA" stop-opacity="0.25"/>
        </linearGradient>
        <linearGradient id="paint1_linear" x1="836.5" y1="330" x2="836.5" y2="1084" gradientUnits="userSpaceOnUse">
            <stop stop-color="white" stop-opacity="0"/>
            <stop offset="1" stop-color="#526AEA" stop-opacity="0.25"/>
        </linearGradient>
    </defs>
</svg>
